<?xml version="1.0" encoding="utf-8"?>
<!-- Generator: Adobe Illustrator 21.1.0, SVG Export Plug-In . SVG Version: 6.00 Build 0)  -->
<svg version="1.1" id="Layer_1" xmlns="http://www.w3.org/2000/svg" xmlns:xlink="http://www.w3.org/1999/xlink" x="0px" y="0px"
	 viewBox="0 0 116 20" style="enable-background:new 0 0 116 20;" xml:space="preserve">
<style type="text/css">
	.st0{fill:#666666;}
</style>
<path id="_50_S10_Sub_1_small_1x.svg" class="st0" d="M12.7,15h2.8L10.2,0.2h-3L2,15h2.7L6,11.2h5.4L12.7,15z M8.7,2.8L8.7,2.8
	l2.1,6.4H6.6L8.7,2.8z M23,4c-1.4,0-2.8,0.8-3.4,2h-0.1V4.2H17v14.4h2.6v-5.4h0.1c0.7,1.3,2,2,3.4,2c2.7,0,4.5-2.1,4.5-5.6
	C27.5,6.1,25.7,4,23,4L23,4z M22.2,13.1c-1.6,0-2.6-1.4-2.7-3.5c0-2.1,1.1-3.5,2.7-3.5c1.6,0,2.7,1.4,2.7,3.5S23.9,13.1,22.2,13.1
	L22.2,13.1z M35.3,4c-1.4,0-2.8,0.8-3.4,2h0V4.2h-2.5v14.4h2.6v-5.4h0c0.7,1.3,2,2,3.4,2c2.7,0,4.5-2.1,4.5-5.6
	C39.8,6.1,38.1,4,35.3,4L35.3,4z M34.6,13.1c-1.6,0-2.6-1.4-2.7-3.5c0-2.1,1.1-3.5,2.7-3.5c1.6,0,2.7,1.4,2.7,3.5
	S36.2,13.1,34.6,13.1L34.6,13.1z M41.8,15h2.6V0.2h-2.6V15z M51.4,5.9c1.5,0,2.5,1,2.5,2.6h-5.1C49,7,50,5.9,51.4,5.9L51.4,5.9z
	 M53.9,11.8c-0.3,0.9-1.2,1.5-2.4,1.5c-1.7,0-2.7-1.2-2.7-2.9v-0.1h7.6V9.4c0-3.3-1.9-5.5-5-5.5c-3.1,0-5.1,2.2-5.1,5.7
	s2,5.6,5.2,5.6c2.6,0,4.5-1.4,4.8-3.5H53.9L53.9,11.8z M64.9,15.3c3.5,0,5.9-2,6.4-5.1h-2.6C68.3,12,66.9,13,65,13
	c-2.6,0-4.2-2.1-4.2-5.4s1.6-5.4,4.2-5.4c1.8-0.1,3.5,1.2,3.8,3h2.6C71,2.1,68.4,0,64.9,0c-4.2,0-6.9,3-6.9,7.6
	C58.1,12.4,60.7,15.3,64.9,15.3L64.9,15.3z M77.2,13.3c-1.1,0-1.8-0.5-1.8-1.5s0.7-1.5,1.9-1.5l2.5-0.1V11
	C79.8,12.3,78.7,13.3,77.2,13.3L77.2,13.3z M76.5,15.2c1.4,0,2.7-0.7,3.4-1.9h0V15h2.5V7.5c0-2.1-1.8-3.6-4.5-3.6
	c-2.8,0-4.5,1.5-4.6,3.5h2.4c0.2-0.9,0.9-1.5,2.1-1.5c1.3,0,2,0.6,2,1.8v0.8L77,8.7c-2.6,0.1-4.1,1.3-4.1,3.2S74.4,15.2,76.5,15.2
	L76.5,15.2z M84.6,15h2.6V8.7c0-1.5,0.9-2.5,2.3-2.5c0.4,0,0.7,0,1,0.1V4.1C90.3,4,90,4,89.7,4c-1.2,0-2.3,0.8-2.6,2h0V4.2h-2.5
	L84.6,15L84.6,15z M96.4,5.9c1.5,0,2.5,1,2.5,2.6h-5.1C93.9,7,94.9,5.9,96.4,5.9L96.4,5.9z M98.9,11.8c-0.3,0.9-1.2,1.5-2.4,1.5
	c-1.7,0-2.7-1.2-2.7-2.9v-0.1h7.6V9.4c0-3.3-1.9-5.5-5-5.5c-3.1,0-5.1,2.2-5.1,5.7s2,5.6,5.2,5.6c2.6,0,4.5-1.4,4.8-3.5H98.9
	L98.9,11.8z M110,10.3h4V8h-4V3.8h-2.3V8h-4v2.3h4v4.2h2.3L110,10.3L110,10.3z"/>
</svg>
