<?xml version="1.0" encoding="utf-8"?>
<!-- Generator: Adobe Illustrator 21.1.0, SVG Export Plug-In . SVG Version: 6.00 Build 0)  -->
<svg version="1.1" id="Layer_1" xmlns="http://www.w3.org/2000/svg" xmlns:xlink="http://www.w3.org/1999/xlink" x="0px" y="0px"
	 viewBox="0 0 128 24" style="enable-background:new 0 0 128 24;" xml:space="preserve">
<style type="text/css">
	.st0{fill:#666666;}
</style>
<path id="_50_S10_Sub_1_large_1x.svg" class="st0" d="M12.4,17.2h3.2l-6-17H6.2l-6,17h3.1l1.4-4.4H11L12.4,17.2z M7.8,3.2L7.8,3.2
	l2.4,7.2H5.5L7.8,3.2z M24.2,4.5c-1.7-0.1-3.2,0.9-3.9,2.4h-0.1V4.8h-2.8v16.5h2.9v-6.1h0.1c0.7,1.5,2.3,2.4,3.9,2.3
	c3.1,0,5.1-2.5,5.1-6.5C29.3,7,27.3,4.5,24.2,4.5z M23.3,15c-1.8,0-3-1.6-3-4c0-2.4,1.2-4,3-4c1.9,0,3.1,1.5,3.1,4
	C26.3,13.5,25.1,15,23.3,15z M38.2,4.5c-1.7-0.1-3.2,0.9-3.9,2.4h-0.1V4.8h-2.8v16.5h2.9v-6.1h0.1c0.7,1.5,2.3,2.4,3.9,2.3
	c3.1,0,5.1-2.5,5.1-6.5C43.4,7,41.4,4.5,38.2,4.5L38.2,4.5z M37.3,15c-1.8,0-3-1.6-3-4c0-2.4,1.2-4,3-4c1.9,0,3.1,1.5,3.1,4
	C40.4,13.5,39.2,15,37.3,15L37.3,15z M45.5,17.2h2.9v-17h-2.9V17.2z M56.5,6.8c1.7,0,2.8,1.2,2.9,3h-5.8C53.7,8,54.9,6.8,56.5,6.8
	L56.5,6.8z M59.4,13.5c-0.3,1-1.3,1.8-2.7,1.8c-1.9,0-3.1-1.4-3.1-3.4v-0.1h8.7v-1c0-3.8-2.2-6.2-5.7-6.2c-3.6,0-5.9,2.6-5.9,6.5
	c0,4,2.2,6.5,6,6.5c2.9,0,5.1-1.6,5.5-4H59.4L59.4,13.5z M71.9,17.5c4,0,6.8-2.2,7.3-5.8h-3c-0.5,2-2.1,3.2-4.3,3.2
	c-2.9,0-4.8-2.4-4.8-6.2c0-3.8,1.9-6.1,4.8-6.1C74,2.5,75.9,4,76.2,6.1h3c-0.4-3.6-3.4-6-7.3-6C67.1,0,64,3.4,64,8.7
	C64,14.1,67.1,17.5,71.9,17.5L71.9,17.5z M85.9,15.2c-1.3,0-2.1-0.6-2.1-1.7c0-1,0.8-1.6,2.2-1.7l2.9-0.1v1
	C88.9,14.1,87.6,15.2,85.9,15.2L85.9,15.2z M85,17.4c1.6,0,3.1-0.8,3.9-2.2H89v2h2.8V8.7c0-2.5-2-4.1-5.1-4.1c-3.2,0-5.1,1.6-5.3,4
	h2.7c0.2-1,1.1-1.7,2.4-1.7c1.4,0,2.3,0.8,2.3,2v0.9l-3.3,0.1c-3,0.2-4.7,1.5-4.7,3.8S82.6,17.4,85,17.4L85,17.4z M94.3,17.2h2.9V10
	c0-1.8,1-2.8,2.7-2.8c0.4,0,0.8,0,1.2,0.1V4.7c-0.3-0.1-0.6-0.1-0.9-0.1c-1.5,0-2.6,0.9-3,2.4h-0.1V4.8h-2.8V17.2z M107.7,6.8
	c1.7,0,2.8,1.2,2.9,3h-5.8C104.9,8,106,6.8,107.7,6.8L107.7,6.8z M110.6,13.5c-0.3,1-1.3,1.8-2.7,1.8c-1.9,0-3.1-1.4-3.1-3.4v-0.1
	h8.7v-1c0-3.8-2.2-6.2-5.7-6.2c-3.6,0-5.9,2.6-5.9,6.5c0,4,2.2,6.5,6,6.5c2.9,0,5.1-1.6,5.5-4H110.6L110.6,13.5z M123.2,11.8h4.6
	V9.1h-4.6V4.3h-2.6v4.9H116v2.6h4.6v4.9h2.6L123.2,11.8L123.2,11.8z"/>
</svg>
