<?xml version="1.0" encoding="utf-8"?>
<!-- Generator: Adobe Illustrator 21.1.0, SVG Export Plug-In . SVG Version: 6.00 Build 0)  -->
<svg version="1.1" id="Layer_1" xmlns="http://www.w3.org/2000/svg" xmlns:xlink="http://www.w3.org/1999/xlink" x="0px" y="0px"
	 viewBox="0 0 280 68" style="enable-background:new 0 0 280 68;" xml:space="preserve">
<style type="text/css">
	.st0{fill:#111111;}
</style>
<path id="_50_S10_Title_1_small_1x.svg" class="st0" d="M13.2,0C6.6,0,2.5,4.5,2.5,11.6s4.1,11.6,10.7,11.6
	c6.6,0,10.7-4.5,10.7-11.6S19.7,0,13.2,0z M13.2,3.5c4,0,6.6,3.1,6.6,8.2c0,5-2.6,8.2-6.6,8.2c-4,0-6.6-3.2-6.6-8.2
	C6.6,6.6,9.2,3.4,13.2,3.5L13.2,3.5z M26.8,22.9h3.9v-9.6c0-2.4,1.4-4,3.7-4c2.2,0,3.3,1.3,3.3,3.6v9.9h3.9V12.2
	c0-3.8-2.1-6.1-5.7-6.1c-2.5,0-4.3,1.2-5.2,3.1h-0.1V6.3h-3.7L26.8,22.9L26.8,22.9z M51.9,9c2.2,0,3.7,1.6,3.8,4H48
	C48.2,10.7,49.8,9,51.9,9L51.9,9z M55.8,18c-0.4,1.4-1.8,2.3-3.6,2.3c-2.5,0-4.2-1.8-4.2-4.5v-0.2h11.6v-1.2c0-5-2.9-8.3-7.6-8.3
	c-4.8,0-7.8,3.5-7.8,8.7c0,5.3,3,8.5,8,8.5c3.9,0,6.8-2.1,7.3-5.3H55.8z M72.7,15.5V12H62.5v3.5H72.7z M76,11.1c0,2.5,1.6,4,4.8,4.7
	l2.8,0.6c1.7,0.4,2.3,1,2.3,2c0,1.2-1.2,2-3.1,2c-2,0-3.1-0.8-3.4-2.4h-3.8c0.3,3.2,2.9,5.2,7.2,5.2c4.1,0,6.9-2.1,6.9-5.2
	c0-2.4-1.3-3.8-4.8-4.5l-2.8-0.6c-1.7-0.4-2.4-1-2.4-2c0-1.2,1.1-2,2.9-2c1.8,0,2.9,1,3.1,2.5h3.6C89.2,8.2,86.7,6,82.6,6
	C78.6,6,76,8,76,11.1L76,11.1z M93.4,2.5v3.9H91v3h2.4v9.1c0,3.2,1.4,4.5,5,4.5c0.7,0,1.4,0,2-0.1v-3c-0.4,0.1-0.7,0.1-1.1,0.1
	c-1.4,0-2-0.6-2-2V9.4h3.1v-3h-3.1V2.5H93.4L93.4,2.5z M110.2,23.3c4.9,0,8-3.2,8-8.6c0-5.4-3.2-8.6-8-8.6s-8,3.3-8,8.6
	S105.4,23.2,110.2,23.3L110.2,23.3z M110.2,20.2c-2.5,0-4.1-2-4.1-5.5c0-3.5,1.6-5.5,4.1-5.5c2.5,0,4.1,2,4.1,5.5
	C114.3,18.1,112.7,20.1,110.2,20.2L110.2,20.2z M130,6.1c-2.2-0.1-4.2,1.2-5.2,3.1h-0.1V6.4h-3.8v22h3.9v-8.2h0.1c1,1.9,3,3.1,5.2,3
	c4.2,0,6.8-3.3,6.8-8.5C136.8,9.3,134.2,6,130,6.1L130,6.1z M128.8,20c-2.4,0-4-2.1-4-5.4c0-3.2,1.6-5.4,4-5.4
	c2.5,0,4.1,2.1,4.1,5.4C132.8,17.9,131.3,20,128.8,20L128.8,20z M145.7,11.1c0,2.5,1.6,4,4.8,4.7l2.8,0.6c1.7,0.4,2.3,1,2.3,2
	c0,1.2-1.2,2-3.1,2c-2,0-3.1-0.8-3.4-2.4h-3.8c0.3,3.2,2.9,5.2,7.2,5.2c4.1,0,6.9-2.1,6.9-5.2c0-2.4-1.3-3.8-4.8-4.5l-2.8-0.6
	c-1.7-0.4-2.4-1-2.4-2c0-1.2,1.1-2,2.9-2c1.8,0,2.9,1,3.1,2.5h3.6c-0.1-3.1-2.7-5.3-6.7-5.3C148.3,6,145.7,8,145.7,11.1L145.7,11.1z
	 M176.7,6.4h-3.9V16c0,2.4-1.4,4-3.6,4c-2.2,0-3.3-1.3-3.3-3.7V6.4h-3.9v10.7c0,3.9,2.3,6.1,5.9,6.1c2.5,0,4.2-1.1,5.1-3.1h0.1v2.9
	h3.8V6.4L176.7,6.4z M189.1,6.1c-2.2-0.1-4.2,1.2-5.2,3.1h-0.1V6.4H180v22h3.9v-8.2h0.1c1,1.9,3,3.1,5.2,3c4.2,0,6.8-3.3,6.8-8.5
	C196,9.3,193.3,6,189.1,6.1L189.1,6.1z M187.9,20c-2.4,0-4-2.1-4-5.4c0-3.2,1.6-5.4,4-5.4c2.5,0,4.1,2.1,4.1,5.4
	C192,17.9,190.4,20,187.9,20L187.9,20z M207.7,6.1c-2.2-0.1-4.2,1.2-5.2,3.1h-0.1V6.4h-3.8v22h3.9v-8.2h0.1c1,1.9,3,3.1,5.2,3
	c4.2,0,6.8-3.3,6.8-8.5C214.6,9.3,211.9,6,207.7,6.1L207.7,6.1z M206.5,20c-2.4,0-4-2.1-4-5.4c0-3.2,1.6-5.4,4-5.4
	c2.5,0,4.1,2.1,4.1,5.4C210.6,17.9,209,20,206.5,20L206.5,20z M224.5,23.3c4.9,0,8-3.2,8-8.6c0-5.4-3.2-8.6-8-8.6s-8,3.3-8,8.6
	S219.7,23.2,224.5,23.3L224.5,23.3z M224.5,20.2c-2.5,0-4.1-2-4.1-5.5c0-3.5,1.6-5.5,4.1-5.5c2.5,0,4.1,2,4.1,5.5
	C228.6,18.1,227,20.1,224.5,20.2L224.5,20.2z M235.2,22.9h3.9v-9.6c0-2.3,1.3-3.8,3.5-3.8c0.5,0,1.1,0.1,1.6,0.2V6.3
	c-0.4-0.1-0.8-0.2-1.2-0.2c-2,0-3.4,1.2-4,3.2h-0.1V6.4h-3.7L235.2,22.9L235.2,22.9z M247.4,2.5v3.9H245v3h2.4v9.1
	c0,3.2,1.4,4.5,5,4.5c0.7,0,1.4,0,2-0.1v-3c-0.4,0.1-0.7,0.1-1.1,0.1c-1.4,0-2-0.6-2-2V9.4h3.1v-3h-3.1V2.5H247.4z M3.9,58.9h3.9
	V45.4h3.2v-3H7.8v-1.4c0-1.4,0.7-2,2.2-2c0.4,0,0.8,0,1.2,0.1v-2.8c-0.7-0.1-1.4-0.2-2.1-0.1c-3.6,0-5.1,1.5-5.1,4.8v1.5H1.7v3h2.3
	V58.9L3.9,58.9z M13.8,58.9h3.9v-9.6c0-2.3,1.3-3.8,3.5-3.8c0.5,0,1.1,0.1,1.6,0.2v-3.5c-0.4-0.1-0.8-0.2-1.2-0.2
	c-2,0-3.4,1.2-4,3.2h-0.1v-2.9h-3.7V58.9z M31.6,59.3c4.9,0,8-3.2,8-8.6c0-5.4-3.2-8.6-8-8.6s-8,3.3-8,8.6S26.7,59.2,31.6,59.3
	L31.6,59.3z M31.6,56.2c-2.5,0-4.1-2-4.1-5.5c0-3.5,1.6-5.5,4.1-5.5c2.5,0,4.1,2,4.1,5.5C35.7,54.1,34.1,56.1,31.6,56.2L31.6,56.2z
	 M42.2,58.9h3.9V48.8c0-2,1.3-3.5,3.2-3.5c1.8,0,2.9,1.1,2.9,3v10.6H56V48.7c0-2,1.3-3.4,3.2-3.4c1.9,0,3,1.2,3,3.2v10.4h3.9V47.6
	c0-3.3-2.1-5.5-5.4-5.5c-2.4,0-4.4,1.2-5.2,3.3h-0.1c-0.6-2.1-2.3-3.3-4.6-3.3c-2.1-0.1-4,1.2-4.7,3.2H46v-2.9h-3.7L42.2,58.9
	L42.2,58.9z M90.9,58.9h4.2l-8-22.5h-4.5l-8,22.5h4.2l1.9-5.8H89L90.9,58.9z M84.8,40.4h0.1l3.1,9.6h-6.4L84.8,40.4z M106.4,42.1
	c-2.2-0.1-4.2,1.2-5.2,3.1h-0.1v-2.9h-3.8v22h3.9v-8.2h0.1c1,1.9,3,3.1,5.2,3c4.2,0,6.8-3.3,6.8-8.5C113.3,45.3,110.6,42,106.4,42.1
	L106.4,42.1z M105.2,56c-2.4,0-4-2.1-4-5.4c0-3.2,1.6-5.4,4-5.4c2.5,0,4.1,2.1,4.1,5.4C109.3,53.9,107.8,56,105.2,56L105.2,56z
	 M125,42.1c-2.2-0.1-4.2,1.2-5.2,3.1h-0.1v-2.9h-3.8v22h3.9v-8.2h0.1c1,1.9,3,3.1,5.2,3c4.2,0,6.8-3.3,6.8-8.5
	C131.9,45.3,129.2,42,125,42.1L125,42.1z M123.8,56c-2.4,0-4-2.1-4-5.4c0-3.2,1.6-5.4,4-5.4c2.5,0,4.1,2.1,4.1,5.4
	C127.9,53.9,126.4,56,123.8,56z M134.6,58.9h3.9V36.4h-3.9V58.9z M149.1,45c2.2,0,3.7,1.6,3.8,4h-7.7C145.4,46.7,146.9,45,149.1,45
	L149.1,45z M152.9,54c-0.4,1.4-1.8,2.3-3.6,2.3c-2.5,0-4.2-1.8-4.2-4.5v-0.2h11.6v-1.2c0-5-2.9-8.3-7.6-8.3c-4.8,0-7.8,3.5-7.8,8.7
	c0,5.3,3,8.5,8,8.5c3.9,0,6.8-2.1,7.3-5.3H152.9L152.9,54z M173,45c2.2,0,3.7,1.6,3.8,4h-7.7C169.3,46.7,170.9,45,173,45L173,45z
	 M176.9,54c-0.4,1.4-1.8,2.3-3.6,2.3c-2.5,0-4.2-1.8-4.2-4.5v-0.2h11.6v-1.2c0-5-2.9-8.3-7.6-8.3c-4.8,0-7.8,3.5-7.8,8.7
	c0,5.3,3,8.5,8,8.5c3.9,0,6.8-2.1,7.3-5.3H176.9z M189.5,53l3.4,5.9h4.2l-5.3-8.4l5.3-8.2H193l-3.3,5.8h-0.1l-3.3-5.8h-4.4l5.3,8.3
	l-5.3,8.3h4.1L189.5,53L189.5,53L189.5,53z M208.5,42c-2.2-0.1-4.2,1.2-5.2,3.1h-0.1v-2.9h-3.8v22h3.9v-8.2h0.1c1,1.9,3,3.1,5.2,3
	c4.2,0,6.8-3.3,6.8-8.5C215.3,45.3,212.7,42,208.5,42L208.5,42z M207.3,56c-2.4,0-4-2.1-4-5.4c0-3.2,1.6-5.4,4-5.4
	c2.5,0,4.1,2.1,4.1,5.4C211.3,53.9,209.8,56,207.3,56L207.3,56z M225.1,45c2.2,0,3.7,1.6,3.8,4h-7.7C221.3,46.7,222.9,45,225.1,45
	L225.1,45z M228.9,54c-0.4,1.4-1.8,2.3-3.6,2.3c-2.5,0-4.2-1.8-4.2-4.5v-0.2h11.6v-1.2c0-5-2.9-8.3-7.6-8.3c-4.8,0-7.8,3.5-7.8,8.7
	c0,5.3,3,8.5,8,8.5c3.9,0,6.8-2.1,7.3-5.3H228.9L228.9,54z M235.4,58.9h3.9v-9.6c0-2.3,1.3-3.8,3.5-3.8c0.5,0,1.1,0.1,1.6,0.2v-3.5
	c-0.4-0.1-0.8-0.2-1.2-0.2c-2,0-3.4,1.2-4,3.2h-0.1v-2.9h-3.7L235.4,58.9L235.4,58.9z M247.6,38.5v3.9h-2.4v3h2.4v9.1
	c0,3.2,1.4,4.5,5,4.5c0.7,0,1.4,0,2-0.1v-3c-0.4,0.1-0.7,0.1-1.1,0.1c-1.4,0-2-0.6-2-2v-8.6h3.1v-3h-3.1v-3.9H247.6z M257,47.1
	c0,2.5,1.6,4,4.8,4.7l2.8,0.6c1.7,0.4,2.3,1,2.3,2c0,1.2-1.2,2-3.1,2c-2,0-3.1-0.8-3.4-2.4h-3.8c0.3,3.2,2.9,5.2,7.2,5.2
	c4.1,0,6.9-2.1,6.9-5.2c0-2.4-1.3-3.8-4.8-4.5l-2.8-0.6c-1.7-0.4-2.4-1-2.4-2c0-1.2,1.1-2,2.9-2c1.8,0,2.9,1,3.1,2.5h3.6
	c-0.1-3.1-2.7-5.3-6.7-5.3C259.7,42,257,44,257,47.1L257,47.1z M276.1,59.1c1.2,0,2.2-1,2.2-2.2s-1-2.2-2.2-2.2
	c-1.2,0-2.2,1-2.2,2.2C273.8,58.1,274.8,59.1,276.1,59.1C276.1,59.1,276.1,59.1,276.1,59.1L276.1,59.1z"/>
</svg>
