<?xml version="1.0" encoding="utf-8"?>
<!-- Generator: Adobe Illustrator 21.1.0, SVG Export Plug-In . SVG Version: 6.00 Build 0)  -->
<svg version="1.1" id="Layer_1" xmlns="http://www.w3.org/2000/svg" xmlns:xlink="http://www.w3.org/1999/xlink" x="0px" y="0px"
	 viewBox="0 0 416 96" style="enable-background:new 0 0 416 96;" xml:space="preserve">
<style type="text/css">
	.st0{fill:#111111;}
</style>
<path id="_50_S10_Title_1_large_1x.svg" class="st0" d="M18.1,0.1C8.2,0.1,2,6.8,2,17.5S8.2,35,18.1,35c9.8,0,16-6.7,16-17.5
	S28,0.1,18.1,0.1z M18.1,5.2c6,0,9.9,4.8,9.9,12.3s-3.8,12.3-9.9,12.3c-6,0-9.9-4.8-9.9-12.3S12.1,5.2,18.1,5.2z M38.6,34.4h5.8V20
	c0-3.5,2.1-6,5.5-6c3.3,0,5,2,5,5.5v14.9h5.8v-16c0-5.8-3.1-9.2-8.6-9.2c-3.8,0-6.5,1.8-7.8,4.8h-0.1V9.6h-5.6L38.6,34.4L38.6,34.4z
	 M76.3,13.6c3.4,0,5.6,2.5,5.7,6H70.5C70.7,16.1,73.1,13.6,76.3,13.6L76.3,13.6z M82.1,27c-0.6,2-2.7,3.4-5.4,3.4
	c-3.8,0-6.3-2.6-6.3-6.6v-0.4h17.4v-1.9c0-7.5-4.4-12.5-11.5-12.5c-7.2,0-11.7,5.2-11.7,13c0,7.9,4.5,12.8,12,12.8
	c5.9,0,10.2-3.2,11-7.9L82.1,27L82.1,27z M107.6,23.3v-5.2H92.2v5.2H107.6z M112.5,16.7c0,3.6,2.4,6,7.2,7l4.1,1
	c2.6,0.5,3.5,1.4,3.5,2.9c0,1.9-1.8,3-4.6,3c-3,0-4.6-1.2-5.1-3.6h-5.7c0.5,4.8,4.3,7.9,10.8,7.9c6.1,0,10.4-3.1,10.4-7.9
	c0-3.6-2-5.6-7.2-6.8l-4.1-0.9c-2.6-0.6-3.6-1.6-3.6-3c0-1.9,1.7-3,4.3-3c2.7,0,4.4,1.4,4.6,3.6h5.4c-0.1-4.7-4-8-10-8
	C116.5,9.1,112.5,12.1,112.5,16.7L112.5,16.7z M138.7,3.8v5.8h-3.6V14h3.6v13.8c0,4.9,2.1,6.8,7.5,6.8c1,0,2-0.1,3-0.2v-4.5
	c-0.6,0.1-1.1,0.1-1.7,0.1c-2.1,0-3-1-3-3V14h4.7V9.5h-4.7V3.7L138.7,3.8L138.7,3.8z M163.9,34.9c7.3,0,12-4.9,12-12.9
	s-4.8-13-12-13s-12,4.9-12,13S156.7,34.9,163.9,34.9L163.9,34.9z M163.9,30.3c-3.7,0-6.1-3-6.1-8.3s2.4-8.3,6.1-8.3
	c3.7,0,6.1,3,6.1,8.3S167.7,30.3,163.9,30.3L163.9,30.3z M193.6,9.1c-3.6,0-6.4,1.8-7.8,4.7h-0.1V9.6H180v33h5.8V30.3h0.1
	c1.4,2.8,4.2,4.5,7.8,4.5c6.2,0,10.2-4.9,10.2-12.8C203.9,14.1,199.9,9.1,193.6,9.1L193.6,9.1z M191.8,30c-3.6,0-6-3.2-6.1-8
	c0-4.9,2.4-8,6.1-8c3.8,0,6.1,3.1,6.1,8S195.6,30.1,191.8,30L191.8,30z M216.5,16.7c0,3.7,2.4,6,7.2,7l4.1,1
	c2.6,0.5,3.5,1.4,3.5,2.9c0,1.9-1.8,3-4.6,3c-2.9,0-4.6-1.2-5.1-3.6h-5.7c0.5,4.8,4.3,7.9,10.8,7.9c6.1,0,10.4-3.1,10.4-7.9
	c0-3.6-2-5.6-7.2-6.8l-4.1-0.9c-2.6-0.6-3.6-1.6-3.6-3c0-1.9,1.7-3,4.3-3c2.7,0,4.4,1.4,4.6,3.6h5.4c-0.1-4.7-4-8-10-8
	C220.5,9.1,216.5,12.1,216.5,16.7L216.5,16.7z M263.1,9.5h-5.8v14.4c0,3.6-2.1,6-5.5,6c-3.3,0-5-2-5-5.5V9.5H241v16
	c0,5.8,3.4,9.2,8.8,9.2c3.8,0,6.3-1.8,7.6-4.8h0.1v4.3h5.6L263.1,9.5L263.1,9.5z M281.8,9.1c-3.6,0-6.4,1.8-7.8,4.7h-0.1V9.6h-5.7
	v33h5.8V30.3h0.1c1.4,2.8,4.2,4.5,7.8,4.5c6.2,0,10.2-4.9,10.2-12.8C292.1,14.1,288.1,9.1,281.8,9.1L281.8,9.1z M280,30
	c-3.6,0-6.1-3.2-6.1-8c0-4.9,2.4-8,6.1-8c3.8,0,6.1,3.1,6.1,8S283.8,30.1,280,30L280,30z M309.7,9.1c-3.6,0-6.4,1.8-7.8,4.7h-0.1
	V9.6h-5.7v33h5.8V30.3h0.1c1.4,2.8,4.2,4.5,7.8,4.5c6.2,0,10.2-4.9,10.2-12.8C320,14.1,316,9.1,309.7,9.1L309.7,9.1z M307.9,30
	c-3.6,0-6.1-3.2-6.1-8c0-4.9,2.4-8,6.1-8c3.8,0,6.1,3.1,6.1,8S311.7,30.1,307.9,30L307.9,30z M335,34.9c7.3,0,12-4.9,12-12.9
	s-4.8-13-12-13s-12,4.9-12,13S327.7,34.9,335,34.9L335,34.9z M335,30.3c-3.7,0-6.1-3-6.1-8.3s2.4-8.3,6.1-8.3c3.7,0,6.1,3,6.1,8.3
	S338.7,30.3,335,30.3L335,30.3z M351,34.4h5.8V19.9c0-3.5,2-5.6,5.3-5.6c0.8,0,1.6,0.1,2.4,0.4V9.4c-0.6-0.2-1.2-0.2-1.8-0.2
	c-2.9,0-5.1,1.8-6,4.8h-0.1V9.5H351L351,34.4L351,34.4z M369.4,3.8v5.8h-3.6V14h3.6v13.8c0,4.9,2.1,6.8,7.5,6.8c1,0,2-0.1,3-0.2
	v-4.5c-0.6,0.1-1.1,0.1-1.7,0.1c-2.1,0-3-1-3-3V14h4.7V9.5h-4.7V3.7L369.4,3.8L369.4,3.8z M4.2,86.4h5.8V66h4.9v-4.4h-5v-2
	c0-2,1-3,3.2-3c0.7,0,1.4,0,1.9,0.1v-4c-1-0.2-2.1-0.3-3.1-0.2c-5.4,0-7.7,2.2-7.7,7.1v2.2H0.8v4.4h3.4L4.2,86.4L4.2,86.4z M19,86.4
	h5.8V71.9c0-3.5,2-5.6,5.3-5.6c0.8,0,1.6,0.1,2.4,0.4v-5.2c-0.6-0.2-1.2-0.2-1.8-0.2c-2.9,0-5.1,1.8-6,4.8h-0.1v-4.4H19L19,86.4
	L19,86.4z M45.8,86.9c7.3,0,12-4.9,12-12.9s-4.8-13-12-13s-12,4.9-12,13S38.5,86.9,45.8,86.9L45.8,86.9z M45.8,82.3
	c-3.7,0-6.1-3-6.1-8.3s2.4-8.3,6.1-8.3c3.7,0,6.1,3,6.1,8.3S49.5,82.3,45.8,82.3L45.8,82.3z M61.8,86.4h5.8V71.2c0-3,2-5.2,4.8-5.2
	c2.7,0,4.4,1.8,4.4,4.5v15.9h5.7V71c0-3,1.9-5,4.7-5c2.9,0,4.5,1.8,4.5,4.8v15.6h5.8v-17c0-5-3.2-8.2-8.1-8.2c-3.6,0-6.5,1.9-7.7,5
	h-0.1c-0.9-3.2-3.4-5-6.9-5c-3.1-0.1-6,1.8-7.1,4.8h-0.1v-4.4h-5.6L61.8,86.4L61.8,86.4z M134.2,86.4h6.4l-12-33.8h-6.8l-12,33.8
	h6.2l2.9-8.8h12.4L134.2,86.4z M125,58.5h0.2l4.7,14.5h-9.6L125,58.5z M157.5,61.1c-3.6,0-6.4,1.8-7.8,4.7h-0.1v-4.3h-5.7v33h5.8
	V82.3h0.1c1.4,2.8,4.2,4.5,7.8,4.5c6.2,0,10.2-4.9,10.2-12.8C167.8,66.1,163.8,61.1,157.5,61.1L157.5,61.1z M155.7,82
	c-3.6,0-6-3.2-6.1-8c0-4.9,2.4-8,6.1-8c3.8,0,6.1,3.1,6.1,8S159.5,82.1,155.7,82L155.7,82z M185.4,61.1c-3.6,0-6.4,1.8-7.8,4.7h-0.1
	v-4.3h-5.7v33h5.8V82.3h0.1c1.4,2.8,4.2,4.5,7.8,4.5c6.2,0,10.2-4.9,10.2-12.8C195.8,66.1,191.8,61.1,185.4,61.1L185.4,61.1z
	 M183.7,82c-3.6,0-6.1-3.2-6.1-8c0-4.9,2.4-8,6.1-8c3.8,0,6.1,3.1,6.1,8S187.4,82.1,183.7,82L183.7,82z M199.9,86.4h5.8V52.6h-5.8
	V86.4z M221.7,65.5c3.3,0,5.6,2.5,5.7,6h-11.6C216,68.1,218.4,65.6,221.7,65.5L221.7,65.5z M227.4,79c-0.6,2-2.7,3.4-5.4,3.4
	c-3.8,0-6.3-2.6-6.3-6.6v-0.4h17.4v-1.9c0-7.5-4.4-12.5-11.5-12.5c-7.2,0-11.7,5.2-11.7,13c0,7.9,4.5,12.8,12,12.8
	c5.9,0,10.2-3.2,11-7.9L227.4,79L227.4,79z M256.9,65.5c3.3,0,5.6,2.5,5.7,6H251C251.2,68.1,253.6,65.6,256.9,65.5L256.9,65.5z
	 M262.6,79c-0.6,2-2.7,3.4-5.4,3.4c-3.8,0-6.3-2.6-6.3-6.6v-0.4h17.4v-1.9c0-7.5-4.4-12.5-11.5-12.5c-7.2,0-11.7,5.2-11.7,13
	c0,7.9,4.5,12.8,12,12.8c5.9,0,10.2-3.2,11-7.9L262.6,79L262.6,79z M281.6,77.5l5.2,8.9h6.4l-7.9-12.5l8-12.3h-6.4l-4.9,8.8h-0.1
	l-5-8.8h-6.6l7.9,12.5l-8,12.4h6.2l5.2-8.9L281.6,77.5L281.6,77.5z M310.1,61.1c-3.6,0-6.4,1.8-7.8,4.7h-0.1v-4.3h-5.7v33h5.8V82.3
	h0.1c1.4,2.8,4.2,4.5,7.8,4.5c6.2,0,10.2-4.9,10.2-12.8C320.4,66.1,316.4,61.1,310.1,61.1L310.1,61.1z M308.3,82c-3.6,0-6-3.2-6.1-8
	c0-4.9,2.4-8,6.1-8c3.8,0,6.1,3.1,6.1,8S312.1,82.1,308.3,82L308.3,82z M335.1,65.5c3.4,0,5.6,2.5,5.7,6h-11.6
	C329.5,68.1,331.8,65.6,335.1,65.5L335.1,65.5z M340.9,79c-0.6,2-2.7,3.4-5.4,3.4c-3.8,0-6.3-2.6-6.3-6.6v-0.4h17.4v-1.9
	c0-7.5-4.4-12.5-11.5-12.5c-7.2,0-11.7,5.2-11.7,13c0,7.9,4.5,12.8,12,12.8c5.9,0,10.2-3.2,11-7.9L340.9,79L340.9,79z M350.5,86.4
	h5.8V71.9c0-3.5,2-5.6,5.3-5.6c0.8,0,1.6,0.1,2.4,0.4v-5.2c-0.6-0.2-1.2-0.2-1.8-0.2c-2.9,0-5.1,1.8-5.9,4.8h-0.1v-4.4h-5.6
	L350.5,86.4L350.5,86.4z M368.9,55.8v5.8h-3.6V66h3.6v13.8c0,4.9,2.1,6.8,7.5,6.8c1,0,2-0.1,3-0.2v-4.5c-0.6,0.1-1.1,0.1-1.7,0.1
	c-2.1,0-3-1-3-3V66h4.7v-4.5h-4.7v-5.8L368.9,55.8L368.9,55.8z M383.2,68.7c0,3.6,2.4,6,7.2,7l4.1,1c2.6,0.5,3.5,1.4,3.5,2.9
	c0,1.9-1.8,3-4.6,3c-3,0-4.6-1.2-5.1-3.6h-5.7c0.5,4.8,4.3,7.9,10.8,7.9c6.1,0,10.4-3.1,10.4-7.9c0-3.6-2-5.6-7.2-6.8l-4.1-0.9
	c-2.6-0.6-3.6-1.6-3.6-3c0-1.9,1.7-3,4.3-3c2.7,0,4.4,1.4,4.6,3.6h5.4c-0.1-4.7-4-8-10-8C387.2,61.1,383.2,64.1,383.2,68.7
	L383.2,68.7z M411.8,86.7c1.8,0,3.3-1.4,3.3-3.3c0,0,0-0.1,0-0.1c0-1.9-1.5-3.4-3.4-3.4s-3.4,1.5-3.4,3.4c0,0,0,0,0,0
	c0,1.8,1.4,3.3,3.3,3.4C411.7,86.7,411.8,86.7,411.8,86.7L411.8,86.7z"/>
</svg>
