<?xml version="1.0" encoding="utf-8"?>
<!-- Generator: Adobe Illustrator 21.1.0, SVG Export Plug-In . SVG Version: 6.00 Build 0)  -->
<svg version="1.1" id="Layer_1" xmlns="http://www.w3.org/2000/svg" xmlns:xlink="http://www.w3.org/1999/xlink" x="0px" y="0px"
	 viewBox="0 0 106 16" style="enable-background:new 0 0 106 16;" xml:space="preserve">
<style type="text/css">
	.st0{fill:#666666;}
</style>
<path id="RX-S9_Sub_1" class="st0" d="M11.7,15.7h2.8L9.2,0.9h-3L1,15.7h2.7L5,11.8h5.4L11.7,15.7z M7.6,3.5L7.6,3.5l2.1,6.4H5.6
	L7.6,3.5z M25.2,8.7c-0.2-2.3-1.9-4.1-4.8-4.1c-3.2,0-5.2,2.2-5.2,5.6c0,3.5,2.1,5.6,5.2,5.6c2.7,0,4.6-1.6,4.8-4h-2.4
	c-0.2,1.2-1.2,2-2.4,2c-1.6,0-2.7-1.3-2.7-3.6c0-2.2,1-3.6,2.6-3.6c1.2,0,2.2,0.9,2.4,2L25.2,8.7L25.2,8.7z M31.7,6.6
	c1.5,0,2.4,1,2.5,2.6h-5.1C29.2,7.7,30.2,6.6,31.7,6.6L31.7,6.6z M34.2,12.4c-0.3,0.9-1.2,1.5-2.4,1.5c-1.7,0-2.7-1.2-2.7-2.9v-0.1
	h7.6V10c0-3.3-1.9-5.5-5-5.5c-3.1,0-5.1,2.2-5.1,5.7s2,5.6,5.2,5.6c2.6,0,4.5-1.4,4.8-3.5H34.2L34.2,12.4z M38.4,7.9
	c0,1.6,1,2.6,3.1,3.1l1.8,0.4c1.1,0.2,1.5,0.6,1.5,1.2c0,0.9-0.8,1.4-2,1.4c-1.3,0-2-0.5-2.2-1.6h-2.5c0.2,2.1,1.9,3.5,4.7,3.5
	c2.7,0,4.6-1.4,4.6-3.4c0-1.6-0.9-2.5-3.1-3l-1.8-0.4c-1.1-0.2-1.6-0.6-1.6-1.3c0-0.8,0.8-1.3,1.9-1.3c1.2,0,1.9,0.6,2,1.6h2.4
	c-0.1-2-1.7-3.5-4.4-3.5C40.1,4.6,38.4,5.9,38.4,7.9L38.4,7.9z M49,7.9c0,1.6,1,2.6,3.1,3.1l1.8,0.4c1.1,0.2,1.5,0.6,1.5,1.2
	c0,0.9-0.8,1.4-2,1.4c-1.3,0-2-0.5-2.2-1.6h-2.5c0.2,2.1,1.9,3.5,4.7,3.5c2.7,0,4.6-1.4,4.6-3.4c0-1.6-0.9-2.5-3.1-3l-1.8-0.4
	c-1.1-0.2-1.6-0.6-1.6-1.3c0-0.8,0.8-1.3,1.9-1.3c1.2,0,1.9,0.6,2,1.6h2.4c-0.1-2-1.7-3.5-4.4-3.5C50.8,4.6,49,5.9,49,7.9L49,7.9z
	 M64.7,15.9c3.2,0,5.3-2.1,5.3-5.6c0-3.5-2.1-5.6-5.3-5.6s-5.3,2.1-5.3,5.6C59.4,13.8,61.5,15.9,64.7,15.9L64.7,15.9z M64.7,13.9
	c-1.6,0-2.7-1.3-2.7-3.6c0-2.3,1.1-3.6,2.7-3.6c1.6,0,2.7,1.3,2.7,3.6C67.4,12.6,66.3,13.9,64.7,13.9L64.7,13.9z M65.6,3.3L68,0.1
	h-2.4l-1.8,3.1H65.6L65.6,3.3z M71.8,15.7h2.6V9.3c0-1.5,0.9-2.5,2.3-2.5c0.4,0,0.7,0,1,0.1V4.7c-0.3-0.1-0.5-0.1-0.8-0.1
	c-1.2,0-2.3,0.8-2.6,2h0V4.8h-2.5L71.8,15.7L71.8,15.7z M79.4,15.7h2.6V4.8h-2.6L79.4,15.7L79.4,15.7z M80.6,3.2
	c0.8,0,1.4-0.6,1.4-1.4c0-0.8-0.6-1.4-1.4-1.4c-0.8,0-1.4,0.6-1.4,1.4c0,0,0,0,0,0C79.2,2.5,79.8,3.2,80.6,3.2L80.6,3.2z M89.1,15.9
	c3.2,0,5.3-2.1,5.3-5.6c0-3.5-2.1-5.6-5.3-5.6s-5.3,2.1-5.3,5.6C83.8,13.8,85.9,15.9,89.1,15.9L89.1,15.9z M89.1,13.9
	c-1.6,0-2.7-1.3-2.7-3.6c0-2.3,1.1-3.6,2.7-3.6c1.6,0,2.7,1.3,2.7,3.6C91.8,12.6,90.7,13.9,89.1,13.9L89.1,13.9z M96,7.9
	c0,1.6,1,2.6,3.1,3.1l1.8,0.4c1.1,0.2,1.5,0.6,1.5,1.2c0,0.9-0.8,1.4-2,1.4c-1.3,0-2-0.5-2.2-1.6h-2.5c0.2,2.1,1.9,3.5,4.7,3.5
	c2.7,0,4.6-1.4,4.6-3.4c0-1.6-0.9-2.5-3.1-3l-1.8-0.4c-1.1-0.2-1.6-0.6-1.6-1.3c0-0.8,0.8-1.3,1.9-1.3c1.2,0,1.9,0.6,2,1.6h2.4
	c-0.1-2-1.7-3.5-4.4-3.5C97.8,4.6,96,5.9,96,7.9L96,7.9z"/>
</svg>
