<?xml version="1.0" encoding="utf-8"?>
<!-- Generator: Adobe Illustrator 21.1.0, SVG Export Plug-In . SVG Version: 6.00 Build 0)  -->
<svg version="1.1" id="Layer_1" xmlns="http://www.w3.org/2000/svg" xmlns:xlink="http://www.w3.org/1999/xlink" x="0px" y="0px"
	 viewBox="0 0 282 66" style="enable-background:new 0 0 282 66;" xml:space="preserve">
<style type="text/css">
	.st0{fill:#111111;}
</style>
<path id="RX-S9_Title_1" class="st0" d="M10.8,1.2C4.2,1.2,0.1,5.7,0.1,12.9s4.1,11.6,10.7,11.6c6.6,0,10.7-4.5,10.7-11.6
	S17.3,1.2,10.8,1.2z M10.8,4.7c4,0,6.6,3.1,6.6,8.2c0,5-2.6,8.2-6.6,8.2c-4,0-6.6-3.2-6.6-8.2C4.2,7.8,6.7,4.7,10.8,4.7L10.8,4.7z
	 M31,24.1h3.9V7.6H31V24.1z M32.9,5.1c1.2,0,2.1-0.9,2.1-2.1c0,0,0,0,0,0c0-1.2-1-2.1-2.2-2.1c-1.1,0-2.1,0.9-2.1,2.1
	C30.8,4.1,31.8,5.1,32.9,5.1L32.9,5.1z M38.7,1.6v22.5h4v-7.5h4.6c4.6,0,7.8-3,7.8-7.5s-3.1-7.5-7.6-7.5H38.7z M42.7,4.9h3.7
	c2.9,0,4.6,1.5,4.6,4.2c0,2.8-1.7,4.3-4.6,4.3h-3.7L42.7,4.9L42.7,4.9z M57.8,24.1h3.9v-9.5c0-2.5,1.4-4,3.8-4
	c2.2,0,3.4,1.4,3.4,3.7v9.9h3.9V13.5c0-3.8-2.1-6.2-5.8-6.2c-2.5,0-4.3,1.1-5.2,3.1h-0.1V1.6h-3.8V24.1z M83.4,24.5
	c4.9,0,8-3.2,8-8.6c0-5.4-3.2-8.6-8-8.6s-8,3.3-8,8.6S78.5,24.5,83.4,24.5L83.4,24.5z M83.4,21.4c-2.5,0-4.1-2-4.1-5.5
	c0-3.5,1.6-5.5,4.1-5.5c2.5,0,4.1,2,4.1,5.5C87.4,19.4,85.8,21.4,83.4,21.4L83.4,21.4z M94,24.1h3.9v-9.6c0-2.4,1.4-4,3.7-4
	c2.2,0,3.3,1.3,3.3,3.6v9.9h3.9V13.4c0-3.8-2.1-6.1-5.7-6.1c-2.5,0-4.3,1.2-5.2,3.1h-0.1V7.6H94V24.1L94,24.1z M119.1,10.2
	c2.2,0,3.7,1.6,3.8,4h-7.7C115.4,11.9,116.9,10.2,119.1,10.2L119.1,10.2z M123,19.2c-0.4,1.4-1.8,2.3-3.6,2.3
	c-2.5,0-4.2-1.8-4.2-4.5v-0.2h11.6v-1.2c0-5-2.9-8.3-7.6-8.3c-4.8,0-7.8,3.5-7.8,8.7c0,5.3,3,8.5,8,8.5c3.9,0,6.8-2.1,7.3-5.3H123z
	 M143.1,10.2c2.2,0,3.7,1.6,3.8,4h-7.7C139.3,11.9,140.9,10.2,143.1,10.2L143.1,10.2z M146.9,19.2c-0.4,1.4-1.8,2.3-3.6,2.3
	c-2.5,0-4.2-1.8-4.2-4.5v-0.2h11.6v-1.2c0-5-2.9-8.3-7.6-8.3c-4.8,0-7.8,3.5-7.8,8.7c0,5.3,3,8.5,8,8.5c3.9,0,6.8-2.1,7.3-5.3H146.9
	z M153,12.3c0,2.5,1.6,4,4.8,4.7l2.8,0.6c1.7,0.4,2.3,1,2.3,2c0,1.2-1.2,2-3.1,2c-2,0-3.1-0.8-3.4-2.4h-3.8c0.3,3.2,2.9,5.2,7.2,5.2
	c4.1,0,6.9-2.1,6.9-5.2c0-2.4-1.3-3.8-4.8-4.5l-2.8-0.6c-1.7-0.4-2.4-1-2.4-2c0-1.2,1.1-2,2.9-2c1.8,0,2.9,1,3.1,2.5h3.6
	c-0.1-3.1-2.7-5.3-6.7-5.3C155.7,7.2,153,9.3,153,12.3L153,12.3z M170.4,3.7v3.9H168v3h2.4v9.1c0,3.2,1.4,4.5,5,4.5
	c0.7,0,1.4,0,2-0.1v-3c-0.4,0.1-0.7,0.1-1.1,0.1c-1.4,0-2-0.6-2-2v-8.6h3.1v-3h-3.1V3.7H170.4z M186,21.5c-1.7,0-2.8-0.9-2.8-2.2
	c0-1.3,1.1-2.1,3-2.2l3.8-0.2V18C190,20,188.2,21.5,186,21.5L186,21.5z M184.9,24.4c2.1,0,4.1-1.1,5.2-3h0.1v2.6h3.8V12.7
	c0-3.3-2.7-5.5-6.8-5.5c-4.2,0-6.9,2.2-7,5.3h3.6c0.2-1.4,1.4-2.2,3.3-2.2c1.9,0,3.1,1,3.1,2.8v1.2l-4.4,0.2c-4,0.2-6.3,2-6.3,5
	S181.7,24.4,184.9,24.4L184.9,24.4z M188.3,5.3l3.7-4.8h-3.7l-2.7,4.8H188.3z M203.6,24.1h3.9V14c0-2,1.3-3.5,3.2-3.5
	c1.8,0,2.9,1.1,2.9,3v10.6h3.8V13.9c0-2,1.3-3.4,3.2-3.4c1.9,0,3,1.2,3,3.2v10.4h3.9V12.8c0-3.3-2.1-5.5-5.4-5.5
	c-2.4,0-4.4,1.2-5.2,3.3h-0.1c-0.6-2.1-2.3-3.3-4.6-3.3c-2.1-0.1-4,1.2-4.7,3.2h-0.1V7.6h-3.7L203.6,24.1L203.6,24.1z M245.4,7.6
	h-3.9v9.6c0,2.4-1.4,4-3.6,4c-2.2,0-3.3-1.3-3.3-3.7V7.6h-3.9v10.7c0,3.9,2.3,6.1,5.9,6.1c2.5,0,4.2-1.1,5.1-3.1h0.1v2.9h3.8
	L245.4,7.6L245.4,7.6z M248.8,24.1h3.9V7.6h-3.9V24.1z M250.7,5.1c1.2,0,2.1-0.9,2.1-2.1c0,0,0,0,0,0c0-1.2-1-2.1-2.2-2.1
	c-1.2,0-2.1,0.9-2.1,2.1C248.6,4.1,249.5,5.1,250.7,5.1L250.7,5.1z M257.1,3.7v3.9h-2.4v3h2.4v9.1c0,3.2,1.4,4.5,5,4.5
	c0.7,0,1.4,0,2-0.1v-3c-0.4,0.1-0.7,0.1-1.1,0.1c-1.4,0-2-0.6-2-2v-8.6h3.1v-3H261V3.7H257.1z M273.9,24.5c4.9,0,8-3.2,8-8.6
	c0-5.4-3.2-8.6-8-8.6s-8,3.3-8,8.6S269.1,24.5,273.9,24.5L273.9,24.5z M273.9,21.4c-2.5,0-4.1-2-4.1-5.5c0-3.5,1.6-5.5,4.1-5.5
	c2.5,0,4.1,2,4.1,5.5C278,19.4,276.4,21.4,273.9,21.4L273.9,21.4z M9.7,60.4c4.2,0,6.8-3.2,6.8-8.5s-2.7-8.6-6.8-8.6
	c-2.2-0.1-4.2,1.2-5.2,3.1H4.4v-8.9H0.5v22.5h3.8v-2.8h0.1C5.4,59.3,7.5,60.5,9.7,60.4L9.7,60.4z M8.5,46.5c2.5,0,4,2.1,4,5.4
	s-1.5,5.4-4,5.4c-2.4,0-4.1-2.1-4.1-5.4S6.1,46.5,8.5,46.5L8.5,46.5z M26.3,46.2c2.2,0,3.7,1.6,3.8,4h-7.7
	C22.5,47.9,24.1,46.2,26.3,46.2L26.3,46.2z M30.1,55.2c-0.4,1.4-1.8,2.3-3.6,2.3c-2.5,0-4.2-1.8-4.2-4.5v-0.2h11.6v-1.2
	c0-5-2.9-8.3-7.6-8.3c-4.8,0-7.8,3.5-7.8,8.7c0,5.3,3,8.5,8,8.5c3.9,0,6.8-2.1,7.3-5.3H30.1z M36.6,60.1h3.9V50c0-2,1.3-3.5,3.2-3.5
	c1.8,0,2.9,1.1,2.9,3v10.6h3.8V49.9c0-2,1.3-3.4,3.2-3.4c1.9,0,3,1.2,3,3.2v10.4h3.9V48.8c0-3.3-2.1-5.5-5.4-5.5
	c-2.4,0-4.4,1.2-5.2,3.3h-0.1c-0.6-2.1-2.3-3.3-4.6-3.3c-2.1-0.1-4,1.2-4.7,3.2h-0.1v-2.9h-3.7L36.6,60.1L36.6,60.1z M76.2,57.5
	c-1.7,0-2.8-0.9-2.8-2.2c0-1.3,1.1-2.1,3-2.2l3.8-0.2V54C80.2,56,78.4,57.5,76.2,57.5L76.2,57.5z M75,60.4c2.1,0,4.1-1.1,5.2-3h0.1
	v2.6H84V48.7c0-3.3-2.7-5.5-6.8-5.5c-4.2,0-6.9,2.2-7,5.3h3.6c0.2-1.4,1.4-2.2,3.3-2.2c1.9,0,3.1,1,3.1,2.8v1.2l-4.4,0.2
	c-4,0.2-6.3,2-6.3,5S71.8,60.4,75,60.4L75,60.4z M101.9,49.5c-0.3-3.5-3-6.2-7.3-6.2c-4.8,0-7.9,3.4-7.9,8.6c0,5.4,3.1,8.6,8,8.6
	c4.2,0,7-2.5,7.3-6.1h-3.7c-0.2,1.8-1.8,3.1-3.6,3c-2.5,0-4.1-2-4.1-5.5c0-3.4,1.6-5.5,4-5.5c1.8-0.1,3.4,1.3,3.6,3.1H101.9z
	 M111.6,60.5c4.9,0,8-3.2,8-8.6c0-5.4-3.2-8.6-8-8.6s-8,3.3-8,8.6S106.8,60.5,111.6,60.5L111.6,60.5z M111.6,57.4
	c-2.5,0-4.1-2-4.1-5.5c0-3.5,1.6-5.5,4.1-5.5c2.5,0,4.1,2,4.1,5.5C115.7,55.4,114.1,57.4,111.6,57.4L111.6,57.4z M122.3,60.1h3.9V50
	c0-2,1.3-3.5,3.2-3.5c1.8,0,2.9,1.1,2.9,3v10.6h3.8V49.9c0-2,1.3-3.4,3.2-3.4c1.9,0,3,1.2,3,3.2v10.4h3.9V48.8
	c0-3.3-2.1-5.5-5.4-5.5c-2.4,0-4.4,1.2-5.2,3.3h-0.1c-0.6-2.1-2.3-3.3-4.6-3.3c-2.1-0.1-4,1.2-4.7,3.2H126v-2.9h-3.7L122.3,60.1
	L122.3,60.1z M158.4,43.3c-2.2-0.1-4.2,1.2-5.2,3.1h-0.1v-2.9h-3.8v22h3.9v-8.2h0.1c1,1.9,3,3.1,5.2,3c4.2,0,6.8-3.3,6.8-8.5
	C165.3,46.6,162.6,43.3,158.4,43.3L158.4,43.3z M157.2,57.2c-2.4,0-4-2.1-4-5.4c0-3.2,1.6-5.4,4-5.4c2.5,0,4.1,2.1,4.1,5.4
	C161.3,55.1,159.8,57.2,157.2,57.2L157.2,57.2z M174,57.5c-1.7,0-2.8-0.9-2.8-2.2c0-1.3,1.1-2.1,3-2.2l3.8-0.2V54
	C177.9,56,176.2,57.5,174,57.5L174,57.5z M172.8,60.4c2.1,0,4.1-1.1,5.2-3h0.1v2.6h3.8V48.7c0-3.3-2.7-5.5-6.8-5.5
	c-4.2,0-6.9,2.2-7,5.3h3.6c0.2-1.4,1.4-2.2,3.3-2.2c1.9,0,3.1,1,3.1,2.8v1.2l-4.4,0.2c-4,0.2-6.3,2-6.3,5S169.6,60.4,172.8,60.4
	L172.8,60.4z M185,60.1h3.9v-9.6c0-2.4,1.4-4,3.7-4c2.2,0,3.3,1.3,3.3,3.6v9.9h3.9V49.4c0-3.8-2.1-6.1-5.7-6.1
	c-2.5,0-4.3,1.2-5.2,3.1h-0.1v-2.9H185L185,60.1L185,60.1z M203.1,60.1h3.9v-9.5c0-2.5,1.4-4,3.8-4c2.2,0,3.4,1.4,3.4,3.7v9.9h3.9
	V49.5c0-3.8-2.1-6.2-5.8-6.2c-2.5,0-4.3,1.1-5.2,3.1H207v-8.9h-3.8V60.1z M227.4,57.5c-1.7,0-2.8-0.9-2.8-2.2c0-1.3,1.1-2.1,3-2.2
	l3.8-0.2V54C231.3,56,229.6,57.5,227.4,57.5L227.4,57.5z M226.2,60.4c2.1,0,4.1-1.1,5.2-3h0.1v2.6h3.8V48.7c0-3.3-2.7-5.5-6.8-5.5
	c-4.2,0-6.9,2.2-7,5.3h3.6c0.2-1.4,1.4-2.2,3.3-2.2c1.9,0,3.1,1,3.1,2.8v1.2l-4.4,0.2c-4,0.2-6.3,2-6.3,5S223,60.4,226.2,60.4
	L226.2,60.4z M244.6,60.4c2.2,0.1,4.2-1.1,5.2-3.1h0.1v2.8h3.8V37.6h-3.9v8.8h-0.1c-0.9-2-3-3.2-5.1-3.1c-4.2,0-6.9,3.4-6.9,8.5
	C237.8,57.1,240.5,60.4,244.6,60.4L244.6,60.4z M245.8,46.5c2.5,0,4.1,2.1,4.1,5.4s-1.6,5.4-4.1,5.4c-2.5,0-4.1-2-4.1-5.4
	S243.3,46.5,245.8,46.5L245.8,46.5z M264.5,60.5c4.9,0,8-3.2,8-8.6c0-5.4-3.2-8.6-8-8.6s-8,3.3-8,8.6S259.6,60.5,264.5,60.5
	L264.5,60.5z M264.5,57.4c-2.5,0-4.1-2-4.1-5.5c0-3.5,1.6-5.5,4.1-5.5c2.5,0,4.1,2,4.1,5.5C268.5,55.4,266.9,57.4,264.5,57.4
	L264.5,57.4z M277.2,60.3c1.2,0,2.2-1,2.2-2.2s-1-2.2-2.2-2.2s-2.2,1-2.2,2.2C274.9,59.3,275.9,60.3,277.2,60.3
	C277.2,60.3,277.2,60.3,277.2,60.3L277.2,60.3z"/>
</svg>
