<svg xmlns="http://www.w3.org/2000/svg" width="120" height="20" viewBox="0 0 240 40">
  <metadata><?xpacket begin="﻿" id="W5M0MpCehiHzreSzNTczkc9d"?>
<x:xmpmeta xmlns:x="adobe:ns:meta/" x:xmptk="Adobe XMP Core 5.6-c138 79.159824, 2016/09/14-01:09:01        ">
   <rdf:RDF xmlns:rdf="http://www.w3.org/1999/02/22-rdf-syntax-ns#">
      <rdf:Description rdf:about=""/>
   </rdf:RDF>
</x:xmpmeta>
                                                                                                    
                                                                                                    
                                                                                                    
                                                                                                    
                                                                                                    
                                                                                                    
                                                                                                    
                                                                                                    
                                                                                                    
                                                                                                    
                                                                                                    
                                                                                                    
                                                                                                    
                                                                                                    
                                                                                                    
                                                                                                    
                                                                                                    
                                                                                                    
                                                                                                    
                                                                                                    
                           
<?xpacket end="w"?></metadata>
<defs>
    <style>
      .cls-1 {
        fill: #666;
        fill-rule: evenodd;
      }
    </style>
  </defs>
  <path id="RX-S9_Sub_1" class="cls-1" d="M2050.45,13044.9h6.37l-12-33.8H2038l-12,33.8h6.23l2.89-8.7h12.44Zm-9.19-27.8h0.16l4.71,14.4h-9.61Zm40.13,11.8c-0.4-5.2-4.45-9.4-11.01-9.4-7.22,0-11.91,5-11.91,13s4.69,12.9,11.95,12.9c6.24,0,10.53-3.7,11-9.2h-5.51a5.164,5.164,0,0,1-5.42,4.5c-3.7,0-6.09-3-6.09-8.2,0-5.1,2.37-8.2,6.05-8.2a5.265,5.265,0,0,1,5.44,4.6h5.5Zm14.64-4.8c3.35,0,5.6,2.4,5.72,5.9h-11.6C2090.38,13026.6,2092.75,13024.1,2096.03,13024.1Zm5.74,13.4c-0.63,2-2.69,3.4-5.41,3.4-3.82,0-6.26-2.7-6.26-6.7v-0.3h17.37v-1.9c0-7.6-4.41-12.5-11.47-12.5-7.17,0-11.71,5.2-11.71,13.1s4.5,12.8,11.95,12.8c5.88,0,10.24-3.2,10.99-7.9h-5.46Zm9.43-10.3c0,3.7,2.39,6,7.15,7.1l4.13,0.9c2.6,0.6,3.49,1.4,3.49,2.9,0,1.9-1.76,3-4.6,3-2.95,0-4.61-1.2-5.06-3.6h-5.74c0.47,4.8,4.31,7.9,10.8,7.9,6.1,0,10.41-3.2,10.41-7.9,0-3.6-1.99-5.6-7.15-6.7l-4.12-.9c-2.6-.6-3.64-1.6-3.64-3,0-1.8,1.72-3.1,4.29-3.1,2.7,0,4.36,1.5,4.6,3.7h5.43c-0.14-4.7-3.98-8-10.03-8C2115.16,13019.5,2111.2,13022.6,2111.2,13027.2Zm24.29,0c0,3.7,2.39,6,7.15,7.1l4.13,0.9c2.6,0.6,3.49,1.4,3.49,2.9,0,1.9-1.76,3-4.59,3-2.96,0-4.62-1.2-5.07-3.6h-5.74c0.47,4.8,4.31,7.9,10.81,7.9,6.09,0,10.4-3.2,10.4-7.9,0-3.6-1.99-5.6-7.15-6.7l-4.12-.9c-2.6-.6-3.63-1.6-3.63-3,0-1.8,1.71-3.1,4.28-3.1,2.7,0,4.36,1.5,4.6,3.7h5.44c-0.14-4.7-3.99-8-10.04-8C2139.45,13019.5,2135.49,13022.6,2135.49,13027.2Zm35.73,18.2c7.29,0,12.03-4.9,12.03-12.9,0-8.1-4.79-13-12.03-13s-12.02,5-12.02,13S2163.93,13045.4,2171.22,13045.4Zm0-4.6c-3.7,0-6.09-3-6.09-8.3s2.41-8.3,6.09-8.3c3.71,0,6.1,3,6.1,8.3S2174.93,13040.8,2171.22,13040.8Zm2.07-24.2,5.5-7.2h-5.55l-4.08,7.2h4.13Zm14.14,28.3h5.83v-14.5c0-3.4,2-5.6,5.3-5.6a11.5,11.5,0,0,1,2.37.3v-5.2a7.449,7.449,0,0,0-1.83-.3,6.023,6.023,0,0,0-5.95,4.8h-0.12v-4.3h-5.6v24.8Zm17.07,0h5.84v-24.8h-5.84v24.8Zm2.88-28.6a3.15,3.15,0,1,0-3.18-3.2A3.161,3.161,0,0,0,2207.38,13016.3Zm19.28,29.1c7.29,0,12.02-4.9,12.02-12.9,0-8.1-4.78-13-12.02-13s-12.02,5-12.02,13S2219.37,13045.4,2226.66,13045.4Zm0-4.6c-3.7,0-6.09-3-6.09-8.3s2.41-8.3,6.09-8.3c3.7,0,6.09,3,6.09,8.3S2230.36,13040.8,2226.66,13040.8Zm15.76-13.6c0,3.7,2.39,6,7.15,7.1l4.12,0.9c2.6,0.6,3.5,1.4,3.5,2.9,0,1.9-1.76,3-4.6,3-2.95,0-4.62-1.2-5.06-3.6h-5.74c0.47,4.8,4.31,7.9,10.8,7.9,6.1,0,10.41-3.2,10.41-7.9,0-3.6-1.99-5.6-7.15-6.7l-4.13-.9c-2.6-.6-3.63-1.6-3.63-3,0-1.8,1.71-3.1,4.29-3.1,2.7,0,4.36,1.5,4.59,3.7h5.44c-0.14-4.7-3.98-8-10.03-8C2246.38,13019.5,2242.42,13022.6,2242.42,13027.2Z" transform="translate(-2024.5 -13007.4)"/>
</svg>
