<?xml version="1.0" encoding="utf-8"?>
<!-- Generator: Adobe Illustrator 21.1.0, SVG Export Plug-In . SVG Version: 6.00 Build 0)  -->
<svg version="1.1" id="Layer_1" xmlns="http://www.w3.org/2000/svg" xmlns:xlink="http://www.w3.org/1999/xlink" x="0px" y="0px"
	 viewBox="0 0 282 66" style="enable-background:new 0 0 282 66;" xml:space="preserve">
<style type="text/css">
	.st0{fill:#111111;}
</style>
<path id="RX-S9_Title_1" class="st0" d="M10.8,1.2C4.2,1.2,0.1,5.7,0.1,12.8c0,7.2,4.1,11.6,10.7,11.6c6.6,0,10.7-4.5,10.7-11.6
	C21.5,5.7,17.3,1.2,10.8,1.2z M10.8,4.6c4,0,6.6,3.2,6.6,8.2c0,5-2.6,8.2-6.6,8.2c-4,0-6.6-3.2-6.6-8.2C4.2,7.8,6.7,4.6,10.8,4.6z
	 M31,24.1h3.9V7.6H31V24.1z M32.9,5.1c1.2,0,2.1-1,2.1-2.1c0-1.2-1-2.1-2.2-2.1c-1.2,0-2.1,0.9-2.1,2.1C30.8,4.1,31.8,5.1,32.9,5.1
	L32.9,5.1z M38.7,1.6v22.5h4v-7.5h4.6c4.6,0,7.8-3,7.8-7.5s-3.1-7.5-7.6-7.5H38.7z M42.7,4.9h3.7c2.9,0,4.6,1.5,4.6,4.2
	s-1.7,4.3-4.6,4.3h-3.7V4.9z M57.8,24.1h3.9v-9.5c0-2.4,1.4-4,3.8-4c2.2,0,3.4,1.4,3.4,3.7v9.9h3.9V13.4c0-3.8-2.1-6.2-5.8-6.2
	c-2.5,0-4.3,1.1-5.2,3.1h-0.1V1.6h-3.8L57.8,24.1L57.8,24.1z M83.4,24.4c4.9,0,8-3.2,8-8.6c0-5.4-3.2-8.6-8-8.6s-8,3.3-8,8.6
	C75.3,21.2,78.5,24.4,83.4,24.4z M83.4,21.4c-2.5,0-4.1-2-4.1-5.5c0-3.5,1.6-5.5,4.1-5.5c2.5,0,4.1,2,4.1,5.5
	C87.4,19.4,85.8,21.4,83.4,21.4z M94,24.1h3.9v-9.6c0-2.4,1.4-4,3.7-4c2.2,0,3.3,1.3,3.3,3.6v10h3.9V13.4c0-3.9-2.1-6.2-5.7-6.2
	c-2.5,0-4.3,1.2-5.2,3.1h-0.1V7.6H94L94,24.1L94,24.1z M119.1,10.2c2.2,0,3.7,1.6,3.8,4h-7.7C115.4,11.9,116.9,10.2,119.1,10.2z
	 M123,19.2c-0.4,1.4-1.8,2.2-3.6,2.2c-2.5,0-4.2-1.8-4.2-4.4v-0.2h11.6v-1.2c0-5-2.9-8.3-7.6-8.3c-4.8,0-7.8,3.5-7.8,8.6
	c0,5.3,3,8.5,8,8.5c3.9,0,6.8-2.1,7.3-5.2H123z M143.1,10.2c2.2,0,3.7,1.6,3.8,4h-7.7C139.3,11.9,140.9,10.2,143.1,10.2L143.1,10.2z
	 M146.9,19.2c-0.4,1.4-1.8,2.2-3.6,2.2c-2.5,0-4.2-1.8-4.2-4.4v-0.2h11.6v-1.2c0-5-2.9-8.3-7.6-8.3c-4.8,0-7.8,3.5-7.8,8.6
	c0,5.3,3,8.5,8,8.5c3.9,0,6.8-2.1,7.3-5.2H146.9z M153,12.3c0,2.5,1.6,4,4.8,4.7l2.8,0.6c1.7,0.4,2.3,1,2.3,2c0,1.2-1.2,2-3.1,2
	c-2,0-3.1-0.8-3.4-2.4h-3.8c0.3,3.2,2.9,5.2,7.2,5.2c4.1,0,6.9-2.1,6.9-5.2c0-2.4-1.3-3.8-4.8-4.5l-2.8-0.6c-1.7-0.4-2.4-1-2.4-2
	c0-1.2,1.1-2,2.9-2c1.8,0,2.9,1,3.1,2.5h3.6c-0.1-3.1-2.7-5.3-6.7-5.3C155.7,7.2,153,9.3,153,12.3L153,12.3z M170.4,3.7v3.9H168v3
	h2.4v9.1c0,3.2,1.4,4.5,5,4.5c0.7,0,1.4,0,2-0.1v-3c-0.4,0-0.7,0.1-1.1,0c-1.4,0-2-0.6-2-2v-8.6h3.1v-3h-3.1V3.7L170.4,3.7
	L170.4,3.7z M186,21.4c-1.7,0-2.8-0.9-2.8-2.2c0-1.3,1.1-2.1,3-2.3l3.8-0.2V18C190,20,188.2,21.4,186,21.4L186,21.4z M184.9,24.4
	c2.1,0,4.1-1.1,5.2-2.9h0.1v2.6h3.8V12.7c0-3.4-2.7-5.5-6.8-5.5c-4.2,0-6.9,2.2-7,5.3h3.6c0.2-1.4,1.4-2.2,3.3-2.2
	c1.9,0,3.1,1,3.1,2.7v1.2l-4.4,0.2c-4,0.2-6.3,2-6.3,5C179.3,22.4,181.7,24.4,184.9,24.4L184.9,24.4z M188.3,5.3l3.7-4.9h-3.7
	l-2.7,4.9H188.3z M203.6,24.1h3.9V14c0-2,1.3-3.5,3.2-3.5c1.8,0,2.9,1.1,2.9,3v10.6h3.8V13.9c0-2,1.3-3.4,3.2-3.4c1.9,0,3,1.1,3,3.2
	v10.4h3.9V12.8c0-3.4-2.1-5.5-5.4-5.5c-2.3-0.1-4.3,1.3-5.2,3.4h-0.1c-0.6-2.1-2.3-3.4-4.6-3.4c-2.1,0-4,1.2-4.7,3.2h-0.1V7.6h-3.7
	L203.6,24.1L203.6,24.1z M245.4,7.6h-3.9v9.5c0,2.4-1.4,4-3.6,4c-2.2,0-3.3-1.3-3.3-3.6V7.6h-3.9v10.7c0,3.8,2.3,6.1,5.9,6.1
	c2.5,0,4.2-1.1,5.1-3.2h0.1v2.9h3.8V7.6z M248.8,24.1h3.9V7.6h-3.9V24.1z M250.7,5.1c1.2,0,2.1-1,2.1-2.1c0-1.2-1-2.1-2.2-2.1
	c-1.2,0-2.1,0.9-2.1,2.1C248.6,4.1,249.5,5.1,250.7,5.1L250.7,5.1z M257.1,3.7v3.9h-2.4v3h2.4v9.1c0,3.2,1.4,4.5,5,4.5
	c0.7,0,1.4,0,2-0.1v-3c-0.4,0-0.7,0.1-1.1,0c-1.4,0-2-0.6-2-2v-8.6h3.1v-3H261V3.7L257.1,3.7L257.1,3.7z M273.9,24.4
	c4.9,0,8-3.2,8-8.6c0-5.4-3.2-8.6-8-8.6s-8,3.2-8,8.6C265.9,21.2,269.1,24.4,273.9,24.4L273.9,24.4z M273.9,21.4
	c-2.5,0-4.1-2-4.1-5.5c0-3.5,1.6-5.5,4.1-5.5c2.5,0,4.1,2,4.1,5.5C278,19.4,276.4,21.4,273.9,21.4L273.9,21.4z M9.7,60.4
	c4.2,0,6.8-3.2,6.8-8.5s-2.7-8.5-6.8-8.5c-2.2-0.1-4.2,1.1-5.2,3.1H4.4v-8.8H0.5v22.5h3.8v-2.9h0.1C5.4,59.2,7.3,60.4,9.7,60.4
	L9.7,60.4z M8.5,46.5c2.5,0,4,2.1,4,5.4c0,3.3-1.5,5.4-4,5.4c-2.4,0-4.1-2.1-4.1-5.4C4.4,48.6,6.1,46.5,8.5,46.5L8.5,46.5z
	 M26.3,46.2c2.2,0,3.7,1.6,3.8,4h-7.7C22.5,47.9,24.1,46.2,26.3,46.2L26.3,46.2z M30.1,55.2c-0.4,1.4-1.8,2.2-3.6,2.2
	c-2.5,0-4.2-1.8-4.2-4.4v-0.2h11.6v-1.2c0-5-2.9-8.3-7.6-8.3c-4.8,0-7.8,3.5-7.8,8.6c0,5.3,3,8.5,8,8.5c3.9,0,6.8-2.1,7.3-5.2H30.1
	L30.1,55.2z M36.6,60.1h3.9V50c0-2,1.3-3.5,3.2-3.5c1.8,0,2.9,1.1,2.9,3v10.6h3.8V49.9c0-2,1.3-3.4,3.2-3.4c1.9,0,3,1.1,3,3.2v10.4
	h3.9V48.8c0-3.4-2.1-5.5-5.4-5.5c-2.3-0.1-4.3,1.3-5.2,3.4h-0.1c-0.6-2.1-2.3-3.4-4.6-3.4c-2.1,0-4,1.2-4.7,3.2h-0.1v-2.9h-3.7
	L36.6,60.1L36.6,60.1z M76.2,57.4c-1.7,0-2.8-0.9-2.8-2.2c0-1.3,1.1-2.1,3-2.3l3.8-0.2V54C80.2,56,78.4,57.4,76.2,57.4L76.2,57.4z
	 M75,60.4c2.1,0,4.1-1.1,5.2-2.9h0.1v2.6H84V48.7c0-3.4-2.7-5.5-6.8-5.5c-4.2,0-6.9,2.2-7,5.3h3.6c0.2-1.4,1.4-2.2,3.3-2.2
	c1.9,0,3.1,1,3.1,2.7v1.2l-4.4,0.2c-4,0.2-6.3,2-6.3,5C69.5,58.4,71.8,60.4,75,60.4L75,60.4z M101.9,49.5c-0.3-3.5-3-6.2-7.3-6.2
	c-4.8,0-7.9,3.3-7.9,8.6c0,5.4,3.1,8.6,8,8.6c4.2,0,7-2.4,7.3-6.1h-3.7c-0.2,1.8-1.8,3.1-3.6,3c-2.5,0-4.1-2-4.1-5.5
	c0-3.4,1.6-5.5,4-5.5c1.8-0.1,3.4,1.3,3.6,3.1H101.9z M111.6,60.4c4.9,0,8-3.2,8-8.6c0-5.4-3.2-8.6-8-8.6s-8,3.2-8,8.6
	C103.6,57.2,106.8,60.4,111.6,60.4L111.6,60.4z M111.6,57.4c-2.5,0-4.1-2-4.1-5.5c0-3.5,1.6-5.5,4.1-5.5c2.5,0,4.1,2,4.1,5.5
	C115.7,55.4,114.1,57.4,111.6,57.4L111.6,57.4z M122.3,60.1h3.9V50c0-2,1.3-3.5,3.2-3.5c1.8,0,2.9,1.1,2.9,3v10.6h3.8V49.9
	c0-2,1.3-3.4,3.2-3.4c1.9,0,3,1.1,3,3.2v10.4h3.9V48.8c0-3.4-2.1-5.5-5.4-5.5c-2.3-0.1-4.3,1.3-5.2,3.4h-0.1
	c-0.6-2.1-2.3-3.4-4.6-3.4c-2.1,0-4,1.2-4.7,3.2H126v-2.9h-3.7L122.3,60.1L122.3,60.1z M158.4,43.3c-2.2-0.1-4.3,1.2-5.2,3.1h-0.1
	v-2.9h-3.8v22h3.9v-8.2h0.1c0.9,1.9,2.8,3,5.2,3c4.2,0,6.8-3.2,6.8-8.5S162.6,43.3,158.4,43.3L158.4,43.3z M157.2,57.2
	c-2.4,0-4-2.1-4-5.4c0-3.2,1.6-5.4,4-5.4c2.5,0,4.1,2.1,4.1,5.4C161.3,55.1,159.8,57.2,157.2,57.2L157.2,57.2z M174,57.4
	c-1.7,0-2.8-0.9-2.8-2.2c0-1.3,1.1-2.1,3-2.3l3.8-0.2V54C177.9,56,176.2,57.4,174,57.4L174,57.4z M172.8,60.4c2.1,0,4.1-1.1,5.2-2.9
	h0.1v2.6h3.8V48.7c0-3.4-2.7-5.5-6.8-5.5c-4.2,0-6.9,2.2-7,5.3h3.6c0.2-1.4,1.4-2.2,3.3-2.2c1.9,0,3.1,1,3.1,2.7v1.2l-4.4,0.2
	c-4,0.2-6.3,2-6.3,5C167.3,58.4,169.6,60.4,172.8,60.4L172.8,60.4z M185,60.1h3.9v-9.6c0-2.4,1.4-4,3.7-4c2.2,0,3.3,1.3,3.3,3.6v10
	h3.9V49.4c0-3.9-2.1-6.2-5.7-6.2c-2.5,0-4.3,1.2-5.2,3.1h-0.1v-2.8H185L185,60.1L185,60.1z M203.1,60.1h3.9v-9.5c0-2.4,1.4-4,3.8-4
	c2.2,0,3.4,1.4,3.4,3.7v9.9h3.9V49.4c0-3.8-2.1-6.2-5.8-6.2c-2.5,0-4.3,1.1-5.2,3.1H207v-8.8h-3.8L203.1,60.1L203.1,60.1z
	 M227.4,57.4c-1.7,0-2.8-0.9-2.8-2.2c0-1.3,1.1-2.1,3-2.3l3.8-0.2V54C231.3,56,229.6,57.4,227.4,57.4L227.4,57.4z M226.2,60.4
	c2.1,0,4.1-1.1,5.2-2.9h0.1v2.6h3.8V48.7c0-3.4-2.7-5.5-6.8-5.5c-4.2,0-6.9,2.2-7,5.3h3.6c0.2-1.4,1.4-2.2,3.3-2.2
	c1.9,0,3.1,1,3.1,2.7v1.2l-4.4,0.2c-4,0.2-6.3,2-6.3,5C220.7,58.4,223,60.4,226.2,60.4L226.2,60.4z M244.6,60.4
	c2.2,0.1,4.2-1.1,5.2-3.1h0.1v2.9h3.8V37.6h-3.9v8.8h-0.1c-1-1.9-3-3.1-5.1-3c-4.2,0-6.9,3.3-6.9,8.5S240.5,60.4,244.6,60.4
	L244.6,60.4z M245.8,46.5c2.5,0,4.1,2.1,4.1,5.4c0,3.3-1.6,5.4-4.1,5.4c-2.5,0-4.1-2-4.1-5.4C241.7,48.6,243.3,46.5,245.8,46.5
	L245.8,46.5z M264.5,60.4c4.9,0,8-3.2,8-8.6c0-5.4-3.2-8.6-8-8.6s-8,3.2-8,8.6C256.4,57.2,259.6,60.4,264.5,60.4L264.5,60.4z
	 M264.5,57.4c-2.5,0-4.1-2-4.1-5.5c0-3.5,1.6-5.5,4.1-5.5c2.5,0,4.1,2,4.1,5.5C268.5,55.4,266.9,57.4,264.5,57.4L264.5,57.4z
	 M277.2,60.3c1.2,0,2.2-0.9,2.2-2.2c0,0,0-0.1,0-0.1c0-1.2-1-2.3-2.2-2.3c-1.2,0-2.3,1-2.3,2.2c0,0,0,0,0,0.1
	C274.9,59.2,275.9,60.2,277.2,60.3C277.1,60.3,277.2,60.3,277.2,60.3L277.2,60.3z"/>
</svg>
