<svg xmlns="http://www.w3.org/2000/svg" width="32" height="14" viewBox="0 0 64 28">
  <metadata><?xpacket begin="﻿" id="W5M0MpCehiHzreSzNTczkc9d"?>
<x:xmpmeta xmlns:x="adobe:ns:meta/" x:xmptk="Adobe XMP Core 5.6-c138 79.159824, 2016/09/14-01:09:01        ">
   <rdf:RDF xmlns:rdf="http://www.w3.org/1999/02/22-rdf-syntax-ns#">
      <rdf:Description rdf:about=""/>
   </rdf:RDF>
</x:xmpmeta>
                                                                                                    
                                                                                                    
                                                                                                    
                                                                                                    
                                                                                                    
                                                                                                    
                                                                                                    
                                                                                                    
                                                                                                    
                                                                                                    
                                                                                                    
                                                                                                    
                                                                                                    
                                                                                                    
                                                                                                    
                                                                                                    
                                                                                                    
                                                                                                    
                                                                                                    
                                                                                                    
                           
<?xpacket end="w"?></metadata>
<defs>
    <style>
      .cls-1 {
        fill: #111;
        fill-rule: evenodd;
      }
    </style>
  </defs>
  <path id="RX-S10_Title_5" class="cls-1" d="M465.874,15682.5v-20.3h7.388v-3.6H454.22v3.6h7.371v20.3h4.283Zm19.307-4.9c-0.6,1.3-2.009,2.1-4.051,2.1-2.706,0-4.449-1.9-4.549-5v-0.2h12.684v-1.3c0-5.7-3.1-9.1-8.284-9.1-5.263,0-8.533,3.6-8.533,9.5,0,5.8,3.22,9.3,8.566,9.3,4.283,0,7.321-2,8.068-5.3h-3.9Zm-4.217-10.3c2.474,0,4.1,1.7,4.184,4.5H476.6C476.781,15669,478.507,15667.3,480.964,15667.3Zm11.853,15.2h4.117v-25.1h-4.117v25.1Zm13.562,0.3a6.052,6.052,0,0,0,5.379-2.7h0.283v2.4h3.967v-12.4c0-3.8-2.623-6-7.288-6-4.316,0-7.321,2-7.653,5.2h3.885c0.381-1.3,1.676-2,3.569-2,2.225,0,3.42,1,3.42,2.8v1.6l-4.682.3c-4.416.2-6.889,2.1-6.889,5.4S502.876,15682.8,506.379,15682.8Zm1.212-3.1c-1.826,0-3.137-.9-3.137-2.5,0-1.5,1.079-2.4,3.386-2.5l4.1-.3v1.5C511.941,15678.1,510.081,15679.7,507.591,15679.7Z" transform="translate(-453.11 -15656.15)"/>
</svg>
