<?xml version="1.0" encoding="utf-8"?>
<!-- Generator: Adobe Illustrator 21.1.0, SVG Export Plug-In . SVG Version: 6.00 Build 0)  -->
<svg version="1.1" id="Layer_1" xmlns="http://www.w3.org/2000/svg" xmlns:xlink="http://www.w3.org/1999/xlink" x="0px" y="0px"
	 viewBox="0 0 100 20" style="enable-background:new 0 0 100 20;" xml:space="preserve">
<style type="text/css">
	.st0{fill:#111111;}
</style>
<path id="_50_S12_Title_3_medium_1x.svg" class="st0" d="M1.2,17.5h2.9V5.1H1.2V17.5z M2.6,3.2c0.9,0,1.6-0.7,1.6-1.6
	C4.1,0.7,3.4,0,2.6,0C1.7,0,1,0.7,1,1.6c0,0,0,0,0,0C1,2.5,1.7,3.2,2.6,3.2L2.6,3.2z M7,0.6v16.9h3v-5.6h3.4c3.4,0,5.8-2.2,5.8-5.6
	c0-3.4-2.3-5.6-5.7-5.6H7z M10,3h2.8c2.2,0,3.4,1.2,3.4,3.2c0,2-1.3,3.2-3.4,3.2H10V3z M21.4,17.5h2.9v-7.1c0-1.8,1.1-3,2.8-3
	c1.7,0,2.6,1,2.6,2.8v7.4h2.9v-8c0-2.9-1.6-4.6-4.3-4.6c-1.9,0-3.3,0.9-3.9,2.4h-0.1V0.6h-2.9V17.5z M40.6,17.7c3.6,0,6-2.4,6-6.5
	s-2.4-6.5-6-6.5s-6,2.5-6,6.5C34.6,15.3,37,17.7,40.6,17.7L40.6,17.7z M40.6,15.4c-1.8,0-3-1.5-3-4.1s1.2-4.1,3-4.1
	c1.8,0,3,1.5,3,4.1S42.5,15.4,40.6,15.4L40.6,15.4z M48.7,17.5h2.9v-7.2c0-1.8,1.1-3,2.7-3c1.7,0,2.5,1,2.5,2.8v7.5h2.9v-8
	c0-2.9-1.6-4.6-4.3-4.6c-1.9,0-3.2,0.9-3.9,2.4h-0.1V5.1h-2.8L48.7,17.5L48.7,17.5z M67.6,7.1c1.7,0,2.8,1.2,2.9,3h-5.8
	C64.8,8.3,66,7,67.6,7.1L67.6,7.1z M70.5,13.8c-0.3,1-1.3,1.7-2.7,1.7c-1.9,0-3.1-1.4-3.1-3.4V12h8.7v-1c0-3.8-2.2-6.2-5.7-6.2
	c-3.6,0-5.9,2.5-5.9,6.5s2.2,6.4,6,6.4c2.9,0,5.1-1.6,5.5-4L70.5,13.8L70.5,13.8z M84.7,17.5h3V0.6h-3l-4.4,3.1v2.8l4.4-3h0.1
	L84.7,17.5L84.7,17.5z M96,17.5h3V0.6h-3l-4.4,3.1v2.8l4.4-3H96L96,17.5L96,17.5z"/>
</svg>
