<?xml version="1.0" encoding="utf-8"?>
<!-- Generator: Adobe Illustrator 21.1.0, SVG Export Plug-In . SVG Version: 6.00 Build 0)  -->
<svg version="1.1" id="Layer_1" xmlns="http://www.w3.org/2000/svg" xmlns:xlink="http://www.w3.org/1999/xlink" x="0px" y="0px"
	 viewBox="0 0 74 18" style="enable-background:new 0 0 74 18;" xml:space="preserve">
<style type="text/css">
	.st0{fill:#1D1D1F;}
</style>
<path id="RX-S10_Title_6" class="st0" d="M7.9,17.6c3.6,0,5.8-1.8,5.8-4.8c0-2.2-1.6-3.9-3.9-4.1V8.6c1.8-0.3,3.1-1.9,3.1-3.7
	c0-2.5-2-4.2-5-4.2h-7v16.9L7.9,17.6L7.9,17.6z M3.9,3.1h3.2c1.8,0,2.8,0.8,2.8,2.3c0,1.6-1.2,2.5-3.3,2.5H3.9V3.1z M3.9,15.3V10
	h3.2c2.3,0,3.5,0.9,3.5,2.7c0,1.7-1.2,2.7-3.4,2.7L3.9,15.3L3.9,15.3z M20.1,15.6c-1.3,0-2.1-0.7-2.1-1.7s0.8-1.7,2.2-1.8l2.9-0.2v1
	C23.1,14.5,21.8,15.6,20.1,15.6z M19.2,17.8c1.6,0,3.1-0.8,3.9-2.2h0.1v2H26V9.1c0-2.5-2-4.2-5.1-4.2c-3.2,0-5.1,1.7-5.3,4h2.7
	c0.2-1,1.1-1.7,2.4-1.7c1.4,0,2.3,0.8,2.3,2v0.9l-3.3,0.2c-3,0.2-4.7,1.5-4.7,3.7C15.1,16.3,16.8,17.8,19.2,17.8L19.2,17.8z
	 M29.1,2.3v3h-1.8v2.2h1.8v6.8c0,2.4,1.1,3.3,3.7,3.3c0.5,0,1,0,1.5-0.1v-2.2c-0.3,0.1-0.6,0.1-0.8,0.1c-1,0-1.5-0.5-1.5-1.5V7.4
	h2.3V5.2h-2.3v-3L29.1,2.3L29.1,2.3z M41.5,7.2c1.7,0,2.8,1.2,2.9,3h-5.8C38.7,8.4,39.9,7.2,41.5,7.2L41.5,7.2z M44.4,13.9
	c-0.3,1-1.3,1.7-2.7,1.7c-1.9,0-3.1-1.3-3.1-3.3v-0.2h8.7v-1c0-3.8-2.2-6.2-5.7-6.2c-3.6,0-5.9,2.6-5.9,6.5s2.2,6.4,6,6.4
	c2.9,0,5.1-1.6,5.5-4H44.4L44.4,13.9z M49.1,17.6H52v-7.2c0-1.7,1-2.8,2.7-2.8c0.4,0,0.8,0.1,1.2,0.2V5.1C55.5,5,55.2,5,54.9,5
	c-1.4,0-2.7,1-3,2.4h-0.1V5.2h-2.8V17.6L49.1,17.6z M57.4,17.6h2.9V5.2h-2.9V17.6L57.4,17.6z M58.9,3.3c0.9,0,1.6-0.7,1.6-1.6
	c0-0.9-0.7-1.6-1.6-1.6c-0.9,0-1.5,0.7-1.6,1.5C57.3,2.6,58,3.3,58.9,3.3C58.8,3.3,58.8,3.3,58.9,3.3L58.9,3.3z M67.3,15.6
	c-1.3,0-2.1-0.7-2.1-1.7s0.8-1.7,2.2-1.8l2.9-0.2v1C70.3,14.5,69,15.6,67.3,15.6L67.3,15.6z M66.4,17.8c1.6,0,3.1-0.8,3.9-2.2h0.1v2
	h2.8V9.1c0-2.5-2-4.2-5.1-4.2c-3.2,0-5.1,1.7-5.3,4h2.7c0.2-1,1.1-1.7,2.4-1.7c1.4,0,2.3,0.8,2.3,2v0.9L67,10.4
	c-3,0.2-4.7,1.5-4.7,3.7C62.3,16.3,64,17.8,66.4,17.8L66.4,17.8z"/>
</svg>
