<?xml version="1.0" encoding="utf-8"?>
<!-- Generator: Adobe Illustrator 21.1.0, SVG Export Plug-In . SVG Version: 6.00 Build 0)  -->
<svg version="1.1" id="Layer_1" xmlns="http://www.w3.org/2000/svg" xmlns:xlink="http://www.w3.org/1999/xlink" x="0px" y="0px"
	 viewBox="0 0 44 8" style="enable-background:new 0 0 44 8;" xml:space="preserve">
<style type="text/css">
	.st0{fill:#111111;}
</style>
<path id="_50_S12_Title_3_small_1x.svg" class="st0" d="M1.3,7.6h1.3V2.2H1.3V7.6z M2,1.4c0.4,0,0.7-0.3,0.7-0.6C2.7,0.3,2.4,0,2,0
	C1.6,0,1.3,0.3,1.3,0.7c0,0,0,0,0,0C1.3,1.1,1.6,1.4,2,1.4L2,1.4z M3.7,0.2v7.4H5V5.2h1.5C7.9,5.3,9,4.3,9.1,3c0-0.1,0-0.2,0-0.3
	c0.1-1.3-1-2.4-2.3-2.5c-0.1,0-0.2,0-0.2,0L3.7,0.2L3.7,0.2z M5,1.3h1.2c1,0,1.5,0.5,1.5,1.4S7.2,4.1,6.2,4.1H5L5,1.3L5,1.3z
	 M9.9,7.6h1.3V4.5c-0.1-0.7,0.4-1.3,1.1-1.3c0.1,0,0.1,0,0.2,0c0.7,0,1.1,0.5,1.1,1.2v3.2h1.3V4.1c0-1.2-0.7-2-1.9-2
	c-0.7-0.1-1.4,0.3-1.7,1h0V0.2H9.9V7.6z M18.1,7.8c1.6,0,2.6-1.1,2.6-2.9s-1-2.8-2.6-2.8s-2.6,1-2.6,2.8S16.5,7.8,18.1,7.8L18.1,7.8
	z M18.1,6.7c-0.8,0-1.3-0.6-1.3-1.8s0.5-1.8,1.3-1.8s1.3,0.6,1.3,1.8S18.9,6.7,18.1,6.7L18.1,6.7z M21.4,7.7h1.3V4.5
	c-0.1-0.7,0.4-1.3,1.1-1.3c0,0,0.1,0,0.1,0c0.7,0,1.1,0.5,1.1,1.2v3.3h1.3V4.1c0-1.2-0.7-2-1.9-2c-0.7,0-1.4,0.4-1.7,1h0V2.2h-1.2
	L21.4,7.7L21.4,7.7z M29.5,3.1c0.7,0,1.3,0.6,1.3,1.3c0,0,0,0.1,0,0.1h-2.5C28.2,3.7,28.8,3.1,29.5,3.1C29.5,3,29.5,3,29.5,3.1
	L29.5,3.1z M30.8,6c-0.2,0.5-0.7,0.8-1.2,0.8c-0.7,0-1.4-0.6-1.4-1.3c0-0.1,0-0.1,0-0.2V5.2H32V4.8c0-1.6-1-2.7-2.5-2.7
	C28,2.1,27,3.2,27,5c0,1.7,1,2.8,2.6,2.8C30.9,7.8,31.8,7,32,6L30.8,6L30.8,6z M36.6,7.7h1.3V0.3h-1.3l-1.9,1.4v1.2l1.9-1.3h0
	L36.6,7.7L36.6,7.7z M41.4,7.7h1.3V0.3h-1.3l-1.9,1.4v1.2l1.9-1.3h0V7.7L41.4,7.7z"/>
</svg>
