<?xml version="1.0" encoding="utf-8"?>
<!-- Generator: Adobe Illustrator 21.1.0, SVG Export Plug-In . SVG Version: 6.00 Build 0)  -->
<svg version="1.1" id="Layer_1" xmlns="http://www.w3.org/2000/svg" xmlns:xlink="http://www.w3.org/1999/xlink" x="0px" y="0px"
	 viewBox="0 0 56 14" style="enable-background:new 0 0 56 14;" xml:space="preserve">
<style type="text/css">
	.st0{fill:#111111;}
</style>
<path id="RX-S10_Title_6" class="st0" d="M5.9,13.4c2.6,0,4.1-1.3,4.1-3.4c0-1.5-1.2-2.8-2.7-2.9V7c1.2-0.2,2.1-1.3,2.1-2.5
	c0-1.9-1.4-3-3.6-3h-5v12L5.9,13.4L5.9,13.4z M2.9,3.1h2.3c1.3,0,2.1,0.6,2.1,1.7c0,1-0.8,1.6-2.3,1.6H2.9L2.9,3.1L2.9,3.1z
	 M2.9,11.8V8h2.4c1.6,0,2.5,0.6,2.5,1.9c0,1.2-0.8,1.9-2.4,1.9H2.9L2.9,11.8z M14.2,13.6c1.1,0.1,2.1-0.5,2.7-1.4H17v1.2h2V7.2
	c0-1.9-1.3-3-3.6-3c-2.2,0-3.7,1-3.8,2.6h1.9c0.2-0.6,0.8-1,1.8-1c1.1,0,1.7,0.5,1.7,1.4V8l-2.3,0.1c-2.2,0.1-3.4,1.1-3.4,2.7
	C11.2,12.5,12.4,13.6,14.2,13.6z M14.8,12c-0.9,0-1.6-0.5-1.6-1.2c0-0.8,0.5-1.1,1.7-1.2L17,9.4v0.7C17,11.2,16.1,12,14.8,12z
	 M21.8,2.1v2.3h-1.4V6h1.4v5c0,1.8,0.8,2.5,2.9,2.5c0.4,0,0.7,0,1.1-0.1v-1.6c-0.2,0-0.5,0.1-0.7,0c-0.9,0-1.2-0.4-1.2-1.3V6h1.9
	V4.4h-1.9V2.1H21.8L21.8,2.1z M33.3,10.9c-0.3,0.7-1,1.1-2,1.1c-1.4,0-2.2-1-2.3-2.5V9.4h6.3V8.7c0-2.9-1.6-4.5-4.1-4.5
	c-2.6,0-4.3,1.9-4.3,4.8s1.6,4.7,4.3,4.7c2.1,0,3.7-1,4-2.7L33.3,10.9L33.3,10.9z M31.2,5.8c1.2,0,2,0.9,2.1,2.3H29
	C29.1,6.7,29.9,5.8,31.2,5.8L31.2,5.8z M37,13.4h2.1V8.1C39.1,6.9,40,6,41.3,6c0.4,0,0.7,0,1.1,0.1V4.3c-0.3-0.1-0.6-0.1-0.9-0.1
	c-1.1-0.1-2,0.6-2.4,1.6H39V4.3h-2L37,13.4L37,13.4z M44.8,2.8c0.7,0,1.2-0.6,1.2-1.2c0-0.7-0.6-1.2-1.2-1.2c-0.7,0-1.2,0.6-1.2,1.2
	c0,0,0,0,0,0C43.5,2.3,44.1,2.8,44.8,2.8L44.8,2.8z M43.7,13.4h2V4.3h-2V13.4z M50.5,13.6c1.1,0.1,2.1-0.5,2.7-1.4h0.1v1.2h2V7.2
	c0-1.9-1.3-3-3.6-3c-2.2,0-3.7,1-3.8,2.6h1.9c0.2-0.6,0.8-1,1.8-1c1.1,0,1.7,0.5,1.7,1.4V8l-2.3,0.1c-2.2,0.1-3.4,1.1-3.4,2.7
	C47.5,12.5,48.7,13.6,50.5,13.6L50.5,13.6z M51.1,12c-0.9,0-1.6-0.5-1.6-1.2c0-0.8,0.5-1.1,1.7-1.2l2-0.1v0.7
	C53.2,11.2,52.3,12,51.1,12L51.1,12z"/>
</svg>
