<?xml version="1.0" encoding="utf-8"?>
<!-- Generator: Adobe Illustrator 21.1.0, SVG Export Plug-In . SVG Version: 6.00 Build 0)  -->
<svg version="1.1" id="Layer_1" xmlns="http://www.w3.org/2000/svg" xmlns:xlink="http://www.w3.org/1999/xlink" x="0px" y="0px"
	 viewBox="0 0 116 24" style="enable-background:new 0 0 116 24;" xml:space="preserve">
<style type="text/css">
	.st0{fill:#111111;}
</style>
<path id="_50_S12_Title_3_large_1x.svg" class="st0" d="M1,20.3h3.4V5.9H1V20.3z M2.7,3.7c1,0,1.9-0.8,1.9-1.8c0-1-0.8-1.9-1.9-1.9
	c-1,0-1.9,0.8-1.9,1.9C0.9,2.9,1.7,3.7,2.7,3.7z M7.8,0.6v19.7h3.5v-6.5h4c4,0,6.8-2.7,6.8-6.6s-2.7-6.6-6.6-6.6L7.8,0.6L7.8,0.6z
	 M11.3,3.5h3.2c2.5,0,4,1.3,4,3.7c0,2.4-1.5,3.8-4,3.8h-3.2V3.5z M24.7,20.3h3.4V12c0-2.2,1.2-3.5,3.3-3.5c2,0,3,1.2,3,3.2v8.6h3.4
	V11c0-3.3-1.9-5.5-5.1-5.5c-2.2,0-3.8,1-4.6,2.8H28V0.6h-3.4L24.7,20.3L24.7,20.3z M47.1,20.6c4.2,0,7-2.8,7-7.5s-2.8-7.5-7-7.5
	s-7,2.8-7,7.5S42.8,20.6,47.1,20.6L47.1,20.6z M47.1,17.9c-2.2,0-3.6-1.8-3.6-4.8c0-3.1,1.4-4.8,3.6-4.8c2.2,0,3.6,1.8,3.6,4.8
	C50.6,16.2,49.2,17.9,47.1,17.9L47.1,17.9z M56.5,20.3h3.4V12c0-2.1,1.2-3.5,3.2-3.5c1.9,0,2.9,1.2,2.9,3.2v8.7h3.4V11
	c0-3.3-1.8-5.4-5-5.4c-2.2,0-3.8,1-4.6,2.8h-0.1V5.9h-3.3V20.3L56.5,20.3z M78.5,8.2c2,0,3.3,1.5,3.3,3.5h-6.8
	C75.2,9.7,76.6,8.2,78.5,8.2L78.5,8.2z M81.9,16c-0.4,1.2-1.6,2-3.2,2c-2.2,0-3.7-1.5-3.7-3.9v-0.2h10.1v-1.1c0-4.4-2.6-7.2-6.7-7.2
	c-4.2,0-6.8,3-6.8,7.6s2.6,7.5,7,7.5c3.4,0,6-1.9,6.4-4.6H81.9L81.9,16z M98.4,20.3h3.5V0.6h-3.5l-5.2,3.6v3.2L98.4,4h0.1L98.4,20.3
	L98.4,20.3z M111.7,20.3h3.5V0.6h-3.5l-5.2,3.6v3.2l5.1-3.5h0.1L111.7,20.3L111.7,20.3z"/>
</svg>
