<?xml version="1.0" encoding="utf-8"?>
<!-- Generator: Adobe Illustrator 21.1.0, SVG Export Plug-In . SVG Version: 6.00 Build 0)  -->
<svg version="1.1" id="Layer_1" xmlns="http://www.w3.org/2000/svg" xmlns:xlink="http://www.w3.org/1999/xlink" x="0px" y="0px"
	 viewBox="0 0 62 14" style="enable-background:new 0 0 62 14;" xml:space="preserve">
<style type="text/css">
	.st0{fill:#1D1D1F;}
</style>
<path id="RX-S10_Title_4" class="st0" d="M6.3,13.8c2.8,0,4.8-1.6,5.1-4H9.3c-0.3,1.4-1.4,2.2-3,2.2c-2,0-3.3-1.7-3.3-4.5
	c0-2.7,1.3-4.4,3.3-4.4c1.4,0,2.7,1,3,2.4h2.1C11.1,3,9,1.2,6.3,1.2c-3.4,0-5.5,2.4-5.5,6.3C0.8,11.4,2.9,13.8,6.3,13.8z M17.9,0.2
	h-2.1l-2.1,2.9h1.9l1.1-1.8h0.1l1.1,1.8H20L17.9,0.2z M15.7,13.6c1.1,0.1,2.1-0.5,2.7-1.4h0.1v1.2h2V7.2c0-1.9-1.3-3-3.6-3
	c-2.2,0-3.7,1-3.8,2.6H15c0.2-0.6,0.8-1,1.8-1c1.1,0,1.7,0.5,1.7,1.4V8l-2.3,0.1c-2.2,0.1-3.4,1-3.4,2.7S13.9,13.6,15.7,13.6
	L15.7,13.6z M16.3,12.1c-0.9,0-1.6-0.5-1.6-1.2s0.5-1.2,1.7-1.2l2.1-0.1v0.8C18.5,11.2,17.5,12.1,16.3,12.1L16.3,12.1z M22.6,13.5
	h2.1V8c0-1.1,0.8-2,1.8-2c0.8-0.1,1.6,0.6,1.6,1.4c0,0.1,0,0.2,0,0.2v5.9h2V7.8C30,6.8,30.7,6,31.7,6c0,0,0.1,0,0.1,0
	c1.1,0,1.7,0.6,1.7,1.8v5.7h2V7.2c0-1.9-1.1-3-2.9-3c-1.2,0-2.2,0.6-2.8,1.6h-0.1c-0.4-1-1.4-1.7-2.5-1.6c-1.1,0-2.1,0.6-2.5,1.6
	h-0.1V4.4h-2V13.5L22.6,13.5z M43.5,11c-0.3,0.6-1,1-2,1c-1.4,0-2.2-1-2.3-2.5V9.4h6.3V8.8c0-2.9-1.6-4.6-4.1-4.6
	c-2.6,0-4.3,1.9-4.3,4.8s1.6,4.7,4.3,4.7c2.1,0,3.7-1,4-2.6H43.5L43.5,11z M41.4,5.8c1.2,0,2,0.9,2.1,2.2h-4.3
	C39.3,6.7,40.2,5.8,41.4,5.8L41.4,5.8z M47.3,13.4h2.1V8.2c0-1.3,0.9-2.1,2.3-2.1c0.4,0,0.7,0,1.1,0.1V4.3c-0.3-0.1-0.6-0.1-0.9-0.1
	c-1.1-0.1-2,0.6-2.4,1.5h-0.1V4.4h-2L47.3,13.4L47.3,13.4z M56.4,13.6c1.1,0.1,2.1-0.5,2.7-1.4h0.1v1.2h2V7.2c0-1.9-1.3-3-3.6-3
	c-2.2,0-3.7,1-3.8,2.6h1.9c0.2-0.6,0.8-1,1.8-1c1.1,0,1.7,0.5,1.7,1.4V8l-2.3,0.1c-2.2,0.1-3.4,1-3.4,2.7S54.6,13.6,56.4,13.6
	L56.4,13.6z M57,12c-0.9,0-1.6-0.5-1.6-1.2s0.5-1.2,1.7-1.2l2-0.1v0.8C59.1,11.2,58.2,12.1,57,12L57,12z"/>
</svg>
