<?xml version="1.0" encoding="utf-8"?>
<!-- Generator: Adobe Illustrator 21.1.0, SVG Export Plug-In . SVG Version: 6.00 Build 0)  -->
<svg version="1.1" id="Layer_1" xmlns="http://www.w3.org/2000/svg" xmlns:xlink="http://www.w3.org/1999/xlink" x="0px" y="0px"
	 viewBox="0 0 60 8" style="enable-background:new 0 0 60 8;" xml:space="preserve">
<style type="text/css">
	.st0{fill:#111111;}
</style>
<path id="_50_S12_Title_1_small_1x.svg" class="st0" d="M0.3,7.6h1.3V2.2H0.3V7.6z M0.9,1.4c0.4,0,0.7-0.3,0.7-0.6
	C1.6,0.3,1.3,0,0.9,0C0.5,0,0.2,0.3,0.2,0.7c0,0,0,0,0,0C0.2,1.1,0.5,1.4,0.9,1.4L0.9,1.4z M2.6,0.2v7.4H4V5.2h1.5
	C6.8,5.3,7.9,4.3,8,3c0-0.1,0-0.2,0-0.3c0.1-1.3-1-2.4-2.3-2.5c-0.1,0-0.2,0-0.2,0L2.6,0.2L2.6,0.2z M4,1.3h1.2
	c0.9,0,1.5,0.5,1.5,1.4S6.1,4.1,5.2,4.1H4L4,1.3L4,1.3z M8.8,7.6h1.3V4.5c-0.1-0.7,0.4-1.3,1.1-1.3c0.1,0,0.1,0,0.2,0
	c0.7,0,1.1,0.5,1.1,1.2v3.2h1.3V4.1c0-1.2-0.7-2-1.9-2c-0.7-0.1-1.4,0.3-1.7,1h0V0.2H8.8L8.8,7.6L8.8,7.6z M17,7.8
	c1.6,0,2.6-1.1,2.6-2.9s-1-2.8-2.6-2.8s-2.6,1-2.6,2.8S15.4,7.8,17,7.8L17,7.8z M17,6.7c-0.8,0-1.3-0.6-1.3-1.8s0.5-1.8,1.3-1.8
	s1.3,0.6,1.3,1.8S17.8,6.7,17,6.7L17,6.7z M20.3,7.7h1.3V4.5c-0.1-0.7,0.4-1.3,1.1-1.3c0,0,0.1,0,0.1,0c0.7,0,1.1,0.5,1.1,1.2v3.3
	h1.3V4.1c0-1.2-0.7-2-1.9-2c-0.7,0-1.4,0.4-1.7,1h0V2.2h-1.2L20.3,7.7L20.3,7.7z M28.4,3.1c0.7,0,1.3,0.6,1.3,1.3c0,0,0,0.1,0,0.1
	h-2.5C27.1,3.7,27.7,3.1,28.4,3.1C28.4,3,28.4,3,28.4,3.1L28.4,3.1z M29.7,6c-0.2,0.5-0.7,0.8-1.2,0.8c-0.7,0-1.4-0.6-1.4-1.3
	c0-0.1,0-0.1,0-0.2V5.2h3.8V4.8c0-1.6-1-2.7-2.5-2.7c-1.6,0-2.6,1.1-2.6,2.9c0,1.7,1,2.8,2.6,2.8c1.3,0,2.2-0.7,2.4-1.8L29.7,6
	L29.7,6z M35.6,7.7h1.3V0.3h-1.3l-1.9,1.4v1.2l1.9-1.3h0V7.7L35.6,7.7z M40.3,7.7h1.3V0.3h-1.3l-1.9,1.4v1.2l1.9-1.3h0V7.7L40.3,7.7
	z M45.4,0.3v7.4h1.3V5.2h1.5c1.3,0.1,2.5-0.9,2.5-2.2c0-0.1,0-0.2,0-0.3c0.1-1.3-1-2.4-2.3-2.5c-0.1,0-0.2,0-0.2,0L45.4,0.3
	L45.4,0.3z M46.7,1.3h1.2c1,0,1.5,0.5,1.5,1.4s-0.6,1.4-1.5,1.4h-1.2L46.7,1.3L46.7,1.3z M51.5,7.7h1.3V4.5c-0.1-0.6,0.4-1.1,1-1.2
	c0.1,0,0.1,0,0.2,0c0.2,0,0.3,0,0.5,0V2.1c-0.1,0-0.2,0-0.4,0c-0.6,0-1.2,0.4-1.3,1h0v-1h-1.2L51.5,7.7L51.5,7.7z M57.2,7.8
	c1.6,0,2.6-1.1,2.6-2.9s-1-2.8-2.6-2.8s-2.6,1-2.6,2.8S55.6,7.8,57.2,7.8L57.2,7.8z M57.2,6.7c-0.8,0-1.3-0.6-1.3-1.8
	s0.5-1.8,1.3-1.8s1.3,0.6,1.3,1.8S58,6.7,57.2,6.7L57.2,6.7z"/>
</svg>
