<?xml version="1.0" encoding="utf-8"?>
<!-- Generator: Adobe Illustrator 21.1.0, SVG Export Plug-In . SVG Version: 6.00 Build 0)  -->
<svg version="1.1" id="Layer_1" xmlns="http://www.w3.org/2000/svg" xmlns:xlink="http://www.w3.org/1999/xlink" x="0px" y="0px"
	 viewBox="0 0 84 8" style="enable-background:new 0 0 84 8;" xml:space="preserve">
<style type="text/css">
	.st0{fill:#111111;}
</style>
<path id="_50_S12_Title_2_small_1x.svg" class="st0" d="M1.5,7.6h1.3V2.2H1.5V7.6z M2.1,1.4c0.4,0,0.7-0.3,0.7-0.6
	C2.8,0.3,2.5,0,2.1,0C1.7,0,1.4,0.3,1.4,0.7c0,0,0,0,0,0C1.4,1.1,1.7,1.4,2.1,1.4L2.1,1.4z M3.9,0.2v7.4h1.3V5.2h1.5
	C8,5.3,9.1,4.3,9.2,3c0-0.1,0-0.2,0-0.3c0.1-1.3-1-2.4-2.3-2.5c-0.1,0-0.2,0-0.2,0L3.9,0.2L3.9,0.2z M5.2,1.3h1.2
	c1,0,1.5,0.5,1.5,1.4S7.3,4.1,6.4,4.1H5.2L5.2,1.3L5.2,1.3z M10,7.6h1.3V4.5c-0.1-0.7,0.4-1.3,1.1-1.3c0.1,0,0.1,0,0.2,0
	c0.7,0,1.1,0.5,1.1,1.2v3.2h1.3V4.1c0-1.2-0.7-2-1.9-2c-0.7-0.1-1.4,0.3-1.7,1h0V0.2H10V7.6z M18.2,7.8c1.6,0,2.6-1.1,2.6-2.9
	s-1-2.8-2.6-2.8s-2.6,1-2.6,2.8S16.6,7.8,18.2,7.8z M18.2,6.7c-0.8,0-1.3-0.6-1.3-1.8s0.5-1.8,1.3-1.8s1.3,0.6,1.3,1.8
	S19,6.7,18.2,6.7L18.2,6.7z M21.6,7.7h1.3V4.5c-0.1-0.7,0.4-1.3,1.1-1.3c0,0,0.1,0,0.1,0c0.7,0,1.1,0.5,1.1,1.2v3.3h1.3V4.1
	c0-1.2-0.7-2-1.9-2c-0.7,0-1.4,0.4-1.7,1h0V2.2h-1.2V7.7L21.6,7.7z M29.7,3.1c0.7,0,1.3,0.6,1.3,1.3c0,0,0,0.1,0,0.1h-2.5
	C28.4,3.7,28.9,3.1,29.7,3.1C29.7,3,29.7,3,29.7,3.1L29.7,3.1z M30.9,6c-0.2,0.5-0.7,0.8-1.2,0.8c-0.7,0-1.4-0.6-1.4-1.3
	c0-0.1,0-0.1,0-0.2V5.2h3.8V4.8c0-1.6-1-2.7-2.5-2.7c-1.6,0-2.6,1.1-2.6,2.9c0,1.7,1,2.8,2.6,2.8C31,7.8,32,7,32.1,6L30.9,6L30.9,6z
	 M36.8,7.7h1.3V0.3h-1.3l-1.9,1.4v1.2l1.9-1.3h0L36.8,7.7L36.8,7.7z M41.6,7.7h1.3V0.3h-1.3l-1.9,1.4v1.2l1.9-1.3h0L41.6,7.7
	L41.6,7.7z M46.6,0.3v7.4h1.3V5.2h1.5C50.7,5.3,51.9,4.3,52,3c0-0.1,0-0.2,0-0.3c0.1-1.3-1-2.4-2.3-2.5c-0.1,0-0.2,0-0.2,0L46.6,0.3
	L46.6,0.3z M47.9,1.3h1.2c1,0,1.5,0.5,1.5,1.4s-0.6,1.4-1.5,1.4h-1.2L47.9,1.3L47.9,1.3z M52.7,7.7H54V4.5c-0.1-0.6,0.4-1.1,1-1.2
	c0.1,0,0.1,0,0.2,0c0.2,0,0.3,0,0.5,0V2.1c-0.1,0-0.2,0-0.4,0c-0.6,0-1.2,0.4-1.3,1h0v-1h-1.2L52.7,7.7L52.7,7.7z M58.4,7.8
	C60,7.8,61,6.7,61,4.9s-1-2.8-2.6-2.8s-2.6,1-2.6,2.8S56.8,7.8,58.4,7.8L58.4,7.8z M58.4,6.7c-0.8,0-1.3-0.6-1.3-1.8
	s0.5-1.8,1.3-1.8s1.3,0.6,1.3,1.8S59.2,6.7,58.4,6.7L58.4,6.7z M71.5,7.7V0.3H70l-2.3,5.6h0l-2.3-5.6h-1.5v7.4h1.2V2.4h0l2.1,5.2
	h0.9l2.1-5.2h0v5.2H71.5L71.5,7.7z M74.4,6.8c-0.4,0.1-0.8-0.2-0.9-0.7c0,0,0-0.1,0-0.1c0-0.4,0.4-0.7,1-0.8l1.3,0v0.4
	C75.7,6.3,75.1,6.8,74.4,6.8C74.4,6.8,74.4,6.8,74.4,6.8L74.4,6.8z M74,7.7c0.7,0,1.3-0.3,1.7-1h0v0.9H77V3.9c0-1.1-0.9-1.8-2.2-1.8
	c-1.4,0-2.2,0.7-2.3,1.7h1.2c0.1-0.5,0.5-0.7,1.1-0.7c0.5-0.1,0.9,0.2,1,0.7c0,0.1,0,0.1,0,0.2v0.4l-1.4,0.1
	c-1.3,0.1-2.1,0.6-2.1,1.6c0,0.9,0.7,1.7,1.7,1.7C73.9,7.7,74,7.7,74,7.7L74,7.7z M80,5.7l1.1,2h1.4l-1.7-2.8l1.8-2.7h-1.4l-1.1,1.9
	h0L79,2.2h-1.4l1.7,2.7l-1.8,2.8h1.4L80,5.7L80,5.7L80,5.7z"/>
</svg>
