<?xml version="1.0" encoding="utf-8"?>
<!-- Generator: Adobe Illustrator 21.1.0, SVG Export Plug-In . SVG Version: 6.00 Build 0)  -->
<svg version="1.1" id="Layer_1" xmlns="http://www.w3.org/2000/svg" xmlns:xlink="http://www.w3.org/1999/xlink" x="0px" y="0px"
	 viewBox="0 0 64 16" style="enable-background:new 0 0 64 16;" xml:space="preserve">
<style type="text/css">
	.st0{fill:#1D1D1F;}
</style>
<path id="RX-S10_Title_6" class="st0" d="M6.5,15.5c3.2,0,5.1-1.6,5.1-4.2c0-1.9-1.5-3.5-3.4-3.6V7.6c1.5-0.3,2.7-1.6,2.7-3.2
	c0-2.2-1.7-3.7-4.4-3.7H0.3v14.8L6.5,15.5L6.5,15.5z M3,2.8h2.8c1.6,0,2.5,0.8,2.5,2c0,1.4-1,2.2-2.9,2.2H3V2.8z M3,13.5V8.9h2.8
	c2,0,3.1,0.8,3.1,2.3s-1,2.4-3,2.4H3z M17.2,13.8c-1.1,0-1.8-0.6-1.8-1.5c0-0.9,0.7-1.5,1.9-1.5l2.5-0.1v0.8
	C19.8,12.8,18.7,13.8,17.2,13.8z M16.5,15.7c1.4,0,2.7-0.7,3.4-1.9h0.1v1.8h2.5V8c0-2.2-1.8-3.6-4.4-3.6c-2.8,0-4.5,1.5-4.6,3.5h2.4
	c0.2-0.9,0.9-1.5,2.1-1.5c1.3,0,2,0.6,2,1.8V9L17,9.2c-2.6,0.1-4.1,1.3-4.1,3.2S14.4,15.7,16.5,15.7L16.5,15.7z M25.1,2.1v2.5h-1.6
	v2h1.6v6c0,2.1,0.9,3,3.3,3c0.4,0,0.9,0,1.3-0.1v-2c-0.2,0-0.5,0-0.7,0c-0.9,0-1.3-0.4-1.3-1.3V6.6h2.1v-2h-2.1V2.1H25.1z M35.9,6.4
	c1.5,0,2.4,1.1,2.5,2.6h-5.1C33.5,7.5,34.5,6.4,35.9,6.4z M38.4,12.3c-0.3,0.9-1.2,1.5-2.4,1.5c-1.7,0-2.7-1.2-2.7-3v-0.1h7.6V9.9
	c0-3.3-1.9-5.5-5-5.5c-3.1,0-5.1,2.2-5.1,5.7s2,5.6,5.2,5.6c2.6,0,4.5-1.4,4.8-3.5H38.4L38.4,12.3z M42.6,15.5h2.6V9.2
	c0-1.5,0.9-2.5,2.3-2.5c0.4,0,0.7,0,1,0.1V4.6c-0.3-0.1-0.5-0.1-0.8-0.1c-1.2,0-2.3,0.8-2.6,2H45V4.6h-2.4L42.6,15.5L42.6,15.5z
	 M49.9,15.5h2.6V4.6h-2.6V15.5z M51.1,3c0.8,0,1.4-0.6,1.4-1.4c0-0.8-0.6-1.4-1.4-1.4c-0.8,0-1.4,0.6-1.4,1.4c0,0,0,0,0,0
	C49.7,2.4,50.3,3,51.1,3z M58.5,13.8c-1.1,0-1.8-0.6-1.8-1.5c0-0.9,0.7-1.5,1.9-1.5l2.5-0.1v0.8C61.1,12.8,60,13.8,58.5,13.8z
	 M57.7,15.7c1.4,0,2.7-0.7,3.4-1.9h0.1v1.8h2.5V8c0-2.2-1.8-3.6-4.4-3.6c-2.8,0-4.5,1.5-4.6,3.5h2.4c0.2-0.9,0.9-1.5,2.1-1.5
	c1.3,0,2,0.6,2,1.8V9l-2.9,0.2c-2.6,0.1-4.1,1.3-4.1,3.2S55.6,15.7,57.7,15.7L57.7,15.7z"/>
</svg>
