<?xml version="1.0" encoding="utf-8"?>
<!-- Generator: Adobe Illustrator 21.1.0, SVG Export Plug-In . SVG Version: 6.00 Build 0)  -->
<svg version="1.1" id="Layer_1" xmlns="http://www.w3.org/2000/svg" xmlns:xlink="http://www.w3.org/1999/xlink" x="0px" y="0px"
	 viewBox="0 0 168 24" style="enable-background:new 0 0 168 24;" xml:space="preserve">
<style type="text/css">
	.st0{fill:#111111;}
</style>
<path id="_50_S12_Title_1_large_1x.svg" class="st0" d="M1.8,20.3h3.4V5.8H1.8V20.3z M3.5,3.7c1,0,1.9-0.8,1.9-1.8
	c0-1-0.8-1.9-1.9-1.9c-1,0-1.9,0.8-1.9,1.9C1.7,2.9,2.5,3.7,3.5,3.7z M8.6,0.6v19.7h3.5v-6.5h4c4,0,6.8-2.7,6.8-6.6
	s-2.7-6.6-6.6-6.6L8.6,0.6L8.6,0.6z M12.2,3.5h3.2c2.5,0,4,1.3,4,3.8s-1.5,3.8-4,3.8h-3.2V3.5z M25.5,20.3h3.4V12
	c0-2.2,1.2-3.5,3.3-3.5c2,0,3,1.2,3,3.2v8.7h3.4V11c0-3.3-1.9-5.5-5.1-5.5c-2.2,0-3.8,1-4.6,2.8h-0.1V0.6h-3.4L25.5,20.3L25.5,20.3z
	 M47.9,20.6c4.3,0,7-2.8,7-7.5c0-4.7-2.8-7.5-7-7.5s-7,2.9-7,7.5C40.9,17.8,43.6,20.6,47.9,20.6L47.9,20.6z M47.9,17.9
	c-2.2,0-3.6-1.8-3.6-4.8c0-3,1.4-4.8,3.6-4.8c2.2,0,3.6,1.8,3.6,4.8C51.4,16.2,50.1,17.9,47.9,17.9L47.9,17.9z M57.3,20.3h3.4v-8.4
	c0-2,1.2-3.5,3.2-3.5c1.9,0,2.9,1.2,2.9,3.2v8.7h3.4V11c0-3.3-1.8-5.4-5-5.4c-2.2,0-3.8,1-4.6,2.8h-0.1V5.8h-3.3V20.3z M79.4,8.2
	c2,0,3.3,1.5,3.3,3.5h-6.8C76.1,9.6,77.4,8.2,79.4,8.2L79.4,8.2z M82.7,16c-0.4,1.2-1.6,2-3.2,2c-2.2,0-3.7-1.6-3.7-3.9v-0.2H86
	v-1.1c0-4.4-2.6-7.3-6.7-7.3c-4.2,0-6.8,3-6.8,7.6c0,4.7,2.6,7.5,7,7.5c3.4,0,6-1.9,6.4-4.6H82.7L82.7,16z M99.3,20.3h3.5V0.6h-3.5
	l-5.2,3.6v3.2L99.2,4h0.1L99.3,20.3L99.3,20.3z M112.5,20.3h3.5V0.6h-3.5l-5.2,3.6v3.2l5.1-3.5h0.1L112.5,20.3L112.5,20.3z
	 M126.9,0.6v19.7h3.5v-6.5h4c4,0,6.8-2.7,6.8-6.6s-2.7-6.6-6.6-6.6L126.9,0.6L126.9,0.6z M130.4,3.5h3.2c2.5,0,4,1.3,4,3.8
	s-1.5,3.8-4,3.8h-3.2V3.5z M143.6,20.3h3.4v-8.4c0-2,1.2-3.3,3.1-3.3c0.5,0,0.9,0.1,1.4,0.2V5.7c-0.3-0.1-0.7-0.1-1.1-0.2
	c-1.7,0-3,1-3.5,2.8h-0.1V5.8h-3.3L143.6,20.3L143.6,20.3z M159.3,20.6c4.2,0,7-2.8,7-7.5c0-4.7-2.8-7.5-7-7.5s-7,2.9-7,7.5
	C152.3,17.8,155.1,20.6,159.3,20.6L159.3,20.6z M159.3,17.9c-2.2,0-3.6-1.8-3.6-4.8c0-3,1.4-4.8,3.6-4.8c2.2,0,3.6,1.8,3.6,4.8
	C162.9,16.2,161.5,17.9,159.3,17.9L159.3,17.9z"/>
</svg>
