<svg xmlns="http://www.w3.org/2000/svg" width="142" height="30" viewBox="0 0 284 60">
  <metadata><?xpacket begin="﻿" id="W5M0MpCehiHzreSzNTczkc9d"?>
<x:xmpmeta xmlns:x="adobe:ns:meta/" x:xmptk="Adobe XMP Core 5.6-c138 79.159824, 2016/09/14-01:09:01        ">
   <rdf:RDF xmlns:rdf="http://www.w3.org/1999/02/22-rdf-syntax-ns#">
      <rdf:Description rdf:about=""/>
   </rdf:RDF>
</x:xmpmeta>
                                                                                                    
                                                                                                    
                                                                                                    
                                                                                                    
                                                                                                    
                                                                                                    
                                                                                                    
                                                                                                    
                                                                                                    
                                                                                                    
                                                                                                    
                                                                                                    
                                                                                                    
                                                                                                    
                                                                                                    
                                                                                                    
                                                                                                    
                                                                                                    
                                                                                                    
                                                                                                    
                           
<?xpacket end="w"?></metadata>
<defs>
    <style>
      .cls-1 {
        fill: #111;
        fill-rule: evenodd;
      }
    </style>
  </defs>
  <path id="RX-S10_Head" class="cls-1" d="M475.493,14532.1c10.656,0,18.031-5.8,19.437-15.5h-7.906c-1.25,5.5-5.531,8.7-11.5,8.7-7.812,0-12.75-6.4-12.75-16.5,0-10,4.969-16.4,12.719-16.4a11.28,11.28,0,0,1,11.5,9.4h7.937c-1-9.7-8.968-16.3-19.437-16.3-12.813,0-20.969,8.9-20.969,23.3C454.524,14523.3,462.618,14532.1,475.493,14532.1Zm39.662-.1c9.719,0,16.031-6.4,16.031-17.2,0-10.7-6.375-17.2-16.031-17.2s-16.031,6.5-16.031,17.2C499.124,14525.6,505.436,14532,515.155,14532Zm0-6.1c-4.937,0-8.125-4-8.125-11.1,0-7,3.219-11,8.125-11,4.938,0,8.125,4,8.125,11C523.28,14521.9,520.093,14525.9,515.155,14525.9Zm21.287,5.5h7.782v-20.3c0-4,2.625-6.9,6.375-6.9,3.625,0,5.875,2.3,5.875,6v21.2h7.562v-20.5c0-4,2.563-6.7,6.313-6.7,3.812,0,5.937,2.3,5.937,6.4v20.8h7.781v-22.7c0-6.7-4.281-11.1-10.812-11.1a10.706,10.706,0,0,0-10.312,6.7h-0.188c-1.219-4.3-4.563-6.7-9.25-6.7a9.819,9.819,0,0,0-9.438,6.4h-0.156v-5.7h-7.469v33.1Zm72.288-33.7a11.1,11.1,0,0,0-10.438,6.3h-0.156v-5.7h-7.594v44h7.781v-16.4h0.157c1.812,3.7,5.562,6,10.375,6,8.312,0,13.625-6.5,13.625-17.1S617.136,14497.7,608.73,14497.7Zm-2.375,27.8c-4.844,0-8.063-4.2-8.094-10.7,0.031-6.4,3.25-10.7,8.094-10.7,5.031,0,8.156,4.2,8.156,10.7C614.511,14521.4,611.386,14525.5,606.355,14525.5Zm33.474,0.5c-3.375,0-5.625-1.7-5.625-4.4,0-2.6,2.157-4.3,5.907-4.6l7.656-.4v2.5C647.767,14523.1,644.236,14526,639.829,14526Zm-2.343,5.9a11.685,11.685,0,0,0,10.312-5.8h0.156v5.3h7.5v-22.8c0-6.7-5.343-11-13.562-11-8.437,0-13.719,4.4-14.063,10.6h7.219c0.5-2.8,2.844-4.5,6.531-4.5,3.844,0,6.188,2,6.188,5.4v2.4l-8.75.5c-8.063.5-12.594,4-12.594,9.9C626.423,14527.9,631.079,14531.9,637.486,14531.9Zm24.475-.5h7.781v-19.3c0-4.7,2.656-7.5,7.062-7.5a11.8,11.8,0,0,1,3.156.4v-7a12.966,12.966,0,0,0-2.437-.3c-3.906,0-6.813,2.3-7.938,6.3h-0.156v-5.7h-7.468v33.1Zm33.63-5.4c-3.375,0-5.625-1.7-5.625-4.4,0-2.6,2.157-4.3,5.907-4.6l7.656-.4v2.5C703.529,14523.1,700,14526,695.591,14526Zm-2.343,5.9a11.685,11.685,0,0,0,10.312-5.8h0.156v5.3h7.5v-22.8c0-6.7-5.343-11-13.562-11-8.438,0-13.719,4.4-14.063,10.6h7.219c0.5-2.8,2.844-4.5,6.531-4.5,3.844,0,6.188,2,6.188,5.4v2.4l-8.75.5c-8.063.5-12.594,4-12.594,9.9C682.185,14527.9,686.842,14531.9,693.248,14531.9Zm24.474-.5H725.5v-19.3c0-4.7,2.656-7.5,7.062-7.5a11.8,11.8,0,0,1,3.156.4v-7a12.966,12.966,0,0,0-2.437-.3c-3.906,0-6.813,2.3-7.938,6.3h-0.156v-5.7h-7.469v33.1Z" transform="translate(-453.125 -14483.9)"/>
</svg>
