<?xml version="1.0" encoding="utf-8"?>
<!-- Generator: Adobe Illustrator 21.1.0, SVG Export Plug-In . SVG Version: 6.00 Build 0)  -->
<svg version="1.1" id="Layer_1" xmlns="http://www.w3.org/2000/svg" xmlns:xlink="http://www.w3.org/1999/xlink" x="0px" y="0px"
	 viewBox="0 0 228 24" style="enable-background:new 0 0 228 24;" xml:space="preserve">
<style type="text/css">
	.st0{fill:#111111;}
</style>
<path id="_50_S12_Title_2_large_1x.svg" class="st0" d="M2.1,20.3h3.4V5.9H2.1V20.3z M3.8,3.7c1,0,1.9-0.8,1.9-1.8
	c0-1-0.8-1.9-1.9-1.9C2.8,0,2,0.8,2,1.8C2,2.9,2.8,3.7,3.8,3.7z M8.9,0.6v19.7h3.5v-6.5h4c4,0,6.8-2.7,6.8-6.6s-2.7-6.6-6.6-6.6
	L8.9,0.6L8.9,0.6z M12.5,3.5h3.2c2.5,0,4,1.3,4,3.7c0,2.4-1.5,3.8-4,3.8h-3.2V3.5z M25.8,20.3h3.4V12c0-2.2,1.2-3.5,3.3-3.5
	c2,0,3,1.2,3,3.2v8.6h3.4V11c0-3.3-1.9-5.5-5.1-5.5c-2.2,0-3.8,1-4.6,2.8h-0.1V0.6h-3.4L25.8,20.3L25.8,20.3z M48.2,20.6
	c4.2,0,7-2.8,7-7.5s-2.8-7.5-7-7.5s-7,2.8-7,7.5S43.9,20.6,48.2,20.6L48.2,20.6z M48.2,17.9c-2.2,0-3.6-1.8-3.6-4.8
	c0-3.1,1.4-4.8,3.6-4.8c2.2,0,3.6,1.8,3.6,4.8C51.8,16.2,50.4,17.9,48.2,17.9L48.2,17.9z M57.6,20.3H61V12c0-2.1,1.2-3.5,3.2-3.5
	c1.9,0,2.9,1.2,2.9,3.2v8.7h3.4V11c0-3.3-1.8-5.4-5-5.4c-2.2,0-3.8,1-4.6,2.8h-0.1V5.9h-3.3V20.3L57.6,20.3z M79.7,8.2
	c2,0,3.3,1.5,3.3,3.5h-6.8C76.4,9.7,77.8,8.2,79.7,8.2L79.7,8.2z M83,16c-0.4,1.2-1.6,2-3.2,2c-2.2,0-3.7-1.5-3.7-3.9v-0.2h10.1
	v-1.1c0-4.4-2.6-7.2-6.7-7.2c-4.2,0-6.8,3-6.8,7.6s2.6,7.5,7,7.5c3.4,0,6-1.9,6.4-4.6H83L83,16z M99.6,20.3h3.5V0.6h-3.5l-5.2,3.6
	v3.2L99.5,4h0.1L99.6,20.3L99.6,20.3z M112.8,20.3h3.5V0.6h-3.5l-5.2,3.6v3.2l5.1-3.5h0.1L112.8,20.3L112.8,20.3z M127.2,0.6v19.7
	h3.5v-6.5h4c4,0,6.8-2.7,6.8-6.6s-2.7-6.6-6.6-6.6L127.2,0.6L127.2,0.6z M130.7,3.5h3.2c2.5,0,4,1.3,4,3.7c0,2.4-1.5,3.8-4,3.8h-3.2
	V3.5z M143.9,20.3h3.4v-8.4c0-2,1.2-3.3,3.1-3.3c0.5,0,0.9,0.1,1.4,0.2V5.7c-0.4-0.1-0.7-0.1-1.1-0.1c-1.7,0-3.1,1.1-3.5,2.8h-0.1
	V5.9h-3.3L143.9,20.3L143.9,20.3z M159.6,20.6c4.2,0,7-2.8,7-7.5s-2.8-7.5-7-7.5s-7,2.8-7,7.5S155.4,20.6,159.6,20.6L159.6,20.6z
	 M159.6,17.9c-2.2,0-3.6-1.8-3.6-4.8c0-3.1,1.4-4.8,3.6-4.8c2.2,0,3.6,1.8,3.6,4.8C163.2,16.2,161.8,17.9,159.6,17.9L159.6,17.9z
	 M195.5,20.3V0.6h-4.1l-6,15h-0.1l-6-15h-4.1v19.7h3.2v-14h0.1l5.7,14h2.4l5.7-14h0.1v14H195.5L195.5,20.3z M203.8,18
	c-1.5,0-2.5-0.8-2.5-2c0-1.2,0.9-1.9,2.6-2l3.3-0.2V15C207.3,16.8,205.7,18,203.8,18L203.8,18z M202.8,20.6c1.9,0,3.6-0.9,4.5-2.5
	h0.1v2.3h3.3v-10c0-2.9-2.3-4.8-5.9-4.8c-3.7,0-6,1.9-6.2,4.7h3.2c0.2-1.2,1.2-2,2.9-2c1.7,0,2.7,0.8,2.7,2.4v1l-3.8,0.2
	c-3.5,0.2-5.5,1.8-5.5,4.3S200,20.6,202.8,20.6L202.8,20.6z M219.2,15.2l3,5.2h3.7l-4.6-7.3l4.7-7.2h-3.7l-2.9,5h-0.1l-2.9-5h-3.8
	l4.6,7.2l-4.7,7.2h3.6L219.2,15.2L219.2,15.2z"/>
</svg>
