<?xml version="1.0" encoding="utf-8"?>
<!-- Generator: Adobe Illustrator 21.1.0, SVG Export Plug-In . SVG Version: 6.00 Build 0)  -->
<svg version="1.1" id="Layer_1" xmlns="http://www.w3.org/2000/svg" xmlns:xlink="http://www.w3.org/1999/xlink" x="0px" y="0px"
	 viewBox="0 0 144 20" style="enable-background:new 0 0 144 20;" xml:space="preserve">
<style type="text/css">
	.st0{fill:#111111;}
</style>
<path id="_50_S12_Title_1_medium_1x.svg" class="st0" d="M1.6,17.5h2.9V5H1.6V17.5z M3,3.2c0.9,0,1.6-0.7,1.6-1.6C4.6,0.7,3.9,0,3,0
	C2.1,0,1.4,0.7,1.4,1.6C1.4,2.4,2.1,3.1,3,3.2C3,3.1,3,3.1,3,3.2L3,3.2z M7.4,0.6v16.9h3v-5.6h3.4c3.4,0,5.8-2.3,5.8-5.6
	c0-3.4-2.3-5.6-5.7-5.6H7.4z M10.4,3h2.8c2.2,0,3.4,1.1,3.4,3.2s-1.3,3.2-3.4,3.2h-2.7V3L10.4,3z M21.8,17.5h2.9v-7.1
	c0-1.8,1.1-3,2.8-3c1.7,0,2.6,1,2.6,2.8v7.4h2.9v-8c0-2.9-1.6-4.6-4.4-4.6c-1.9,0-3.3,0.9-3.9,2.4h-0.1V0.6h-2.9L21.8,17.5
	L21.8,17.5z M41.1,17.7c3.6,0,6-2.5,6-6.5c0-4-2.4-6.5-6-6.5s-6,2.5-6,6.5S37.4,17.7,41.1,17.7L41.1,17.7z M41.1,15.4
	c-1.9,0-3-1.5-3-4.1s1.2-4.1,3-4.1c1.9,0,3,1.5,3,4.1S42.9,15.4,41.1,15.4L41.1,15.4z M49.1,17.5H52v-7.2c0-1.8,1.1-3,2.7-3
	c1.7,0,2.5,1,2.5,2.8v7.5h2.9v-8c0-2.9-1.6-4.6-4.3-4.6c-1.7-0.1-3.2,0.8-3.9,2.4h-0.1V5h-2.8L49.1,17.5L49.1,17.5z M68,7.1
	c1.7,0,2.8,1.2,2.9,3h-5.8C65.2,8.3,66.4,7,68,7.1L68,7.1z M70.9,13.8c-0.3,1-1.4,1.7-2.7,1.7c-1.9,0-3.1-1.4-3.1-3.4V12h8.7v-1
	c0-3.8-2.2-6.2-5.7-6.2c-3.6,0-5.9,2.6-5.9,6.5s2.2,6.4,6,6.4c2.9,0,5.1-1.6,5.5-4L70.9,13.8L70.9,13.8z M85.1,17.5h3V0.6h-3
	l-4.4,3.1v2.8l4.4-3h0.1V17.5z M96.5,17.5h3V0.6h-3L92,3.7v2.8l4.4-3h0.1V17.5z M108.8,0.6v16.9h3v-5.6h3.4c3.4,0,5.8-2.3,5.8-5.6
	c0-3.4-2.3-5.6-5.7-5.6H108.8L108.8,0.6z M111.8,3h2.8c2.2,0,3.4,1.1,3.4,3.2s-1.3,3.2-3.4,3.2h-2.7L111.8,3L111.8,3z M123.1,17.5
	h2.9v-7.2c0-1.8,1-2.8,2.6-2.8c0.4,0,0.8,0,1.2,0.1V5c-0.3-0.1-0.6-0.1-0.9-0.1c-1.4,0-2.7,1-3,2.4h-0.1V5h-2.8L123.1,17.5
	L123.1,17.5z M136.6,17.7c3.6,0,6-2.5,6-6.5c0-4-2.4-6.5-6-6.5s-6,2.5-6,6.5S132.9,17.7,136.6,17.7L136.6,17.7z M136.6,15.4
	c-1.9,0-3-1.5-3-4.1s1.2-4.1,3-4.1c1.9,0,3,1.5,3,4.1S138.4,15.4,136.6,15.4L136.6,15.4z"/>
</svg>
