<?xml version="1.0" encoding="utf-8"?>
<!-- Generator: Adobe Illustrator 21.1.0, SVG Export Plug-In . SVG Version: 6.00 Build 0)  -->
<svg version="1.1" id="Layer_1" xmlns="http://www.w3.org/2000/svg" xmlns:xlink="http://www.w3.org/1999/xlink" x="0px" y="0px"
	 viewBox="0 0 176 36" style="enable-background:new 0 0 176 36;" xml:space="preserve">
<style type="text/css">
	.st0{fill:#1D1D1F;}
</style>
<path id="RX-S10_Head" class="st0" d="M13.8,29.4c6.7,0,11.3-3.6,12.1-9.7H21c-0.8,3.4-3.5,5.5-7.2,5.5c-4.9,0-8-4-8-10.3
	S9,4.5,13.8,4.5c3.5-0.1,6.6,2.4,7.2,5.9h5c-0.6-6-5.6-10.1-12.1-10.1c-8,0-13.1,5.5-13.1,14.5C0.7,23.9,5.7,29.4,13.8,29.4z
	 M38.4,29.3c6.1,0,10-4,10-10.8s-4-10.8-10-10.8s-10,4.1-10,10.8S32.3,29.3,38.4,29.3L38.4,29.3z M38.4,25.5c-3.1,0-5.1-2.5-5.1-6.9
	s2-7,5.1-7c3.1,0,5.1,2.5,5.1,7S41.5,25.5,38.4,25.5L38.4,25.5z M51.6,28.9h4.9V16.2c0-2.5,1.6-4.3,4-4.3c2.3,0,3.7,1.4,3.7,3.8
	v13.2h4.7V16.1c0-2.5,1.6-4.2,3.9-4.2c2.4,0,3.7,1.5,3.7,4v13h4.9V14.7c0-4.1-2.7-6.9-6.8-6.9c-3,0-5.5,1.6-6.4,4.1H68
	c-0.8-2.6-2.9-4.1-5.8-4.1c-2.6-0.1-5,1.5-5.9,4h-0.1V8.2h-4.7L51.6,28.9L51.6,28.9z M96.6,7.9c-3,0-5.4,1.5-6.5,3.9H90V8.2h-4.7
	v27.5h4.9V25.5h0.1c1.1,2.3,3.5,3.8,6.5,3.8c5.2,0,8.5-4,8.5-10.6C105.2,11.9,101.8,7.9,96.6,7.9L96.6,7.9z M95.1,25.3
	c-3,0-5-2.6-5.1-6.7c0-4,2-6.7,5.1-6.7c3.1,0,5.1,2.6,5.1,6.7S98.2,25.3,95.1,25.3L95.1,25.3z M115.9,25.6c-2.1,0-3.5-1.1-3.5-2.8
	c0-1.6,1.3-2.6,3.7-2.9l4.8-0.2v1.5C120.8,23.7,118.6,25.6,115.9,25.6L115.9,25.6z M114.4,29.2c2.7,0,5.3-1.4,6.4-3.6h0.1v3.3h4.7
	V14.7c0-4.2-3.3-6.9-8.5-6.9c-5.3,0-8.6,2.8-8.8,6.6h4.5c0.3-1.7,1.8-2.9,4.1-2.9c2.4,0,3.9,1.2,3.9,3.5v1.5l-5.5,0.4
	c-5,0.3-7.9,2.5-7.9,6.1C107.5,26.7,110.4,29.2,114.4,29.2L114.4,29.2z M129.5,28.9h4.9v-12c0-2.9,1.7-4.7,4.4-4.7
	c0.7,0,1.3,0.1,2,0.2V8.1c-0.5-0.1-1-0.2-1.5-0.2c-2.4,0-4.3,1.5-5,4h-0.1V8.2h-4.7L129.5,28.9L129.5,28.9z M150.4,25.6
	c-2.1,0-3.5-1.1-3.5-2.8c0-1.6,1.3-2.6,3.7-2.9l4.8-0.2v1.5C155.4,23.7,153.1,25.6,150.4,25.6L150.4,25.6z M148.9,29.2
	c2.7,0,5.3-1.4,6.4-3.6h0.1v3.3h4.7V14.7c0-4.2-3.3-6.9-8.5-6.9c-5.3,0-8.6,2.8-8.8,6.6h4.5c0.3-1.7,1.8-2.9,4.1-2.9
	c2.4,0,3.9,1.2,3.9,3.5v1.5l-5.5,0.4c-5,0.3-7.9,2.5-7.9,6.1C142,26.7,144.9,29.2,148.9,29.2L148.9,29.2z M164.1,28.9h4.9v-12
	c0-2.9,1.7-4.7,4.4-4.7c0.7,0,1.3,0.1,2,0.2V8.1c-0.5-0.1-1-0.2-1.5-0.2c-2.4,0-4.3,1.5-5,4h-0.1V8.2h-4.7V28.9z"/>
</svg>
