<?xml version="1.0" encoding="utf-8"?>
<!-- Generator: Adobe Illustrator 21.1.0, SVG Export Plug-In . SVG Version: 6.00 Build 0)  -->
<svg version="1.1" id="Layer_1" xmlns="http://www.w3.org/2000/svg" xmlns:xlink="http://www.w3.org/1999/xlink" x="0px" y="0px"
	 viewBox="0 0 82 20" style="enable-background:new 0 0 82 20;" xml:space="preserve">
<style type="text/css">
	.st0{fill:#1D1D1F;}
</style>
<path id="RX-S10_Title_4" class="st0" d="M8.2,19c4,0,6.8-2.2,7.3-5.9h-3c-0.5,2-2.1,3.2-4.3,3.2c-2.9,0-4.8-2.4-4.8-6.1
	s1.9-6.1,4.8-6.1c2.1-0.1,4,1.4,4.3,3.5h3C15.1,4,12.1,1.5,8.2,1.5c-4.8,0-7.9,3.4-7.9,8.8S3.3,19,8.2,19z M22,16.7
	c-1.3,0-2.1-0.6-2.1-1.6s0.8-1.6,2.2-1.8l2.9-0.1v1C24.9,15.6,23.6,16.7,22,16.7L22,16.7z M21.1,18.9c1.6,0,3.1-0.8,3.9-2.2H25v2
	h2.8v-8.5c0-2.5-2-4.1-5.1-4.1c-3.2,0-5.1,1.7-5.3,4h2.7c0.2-1,1.1-1.7,2.4-1.7c1.4,0,2.3,0.8,2.3,2v0.9l-3.3,0.2
	c-3,0.1-4.7,1.5-4.7,3.7C16.9,17.4,18.7,18.9,21.1,18.9L21.1,18.9z M23.7,1h-2.2l-2.9,3.6h2.3l1.7-2.1h0.1l1.7,2.1h2.3L23.7,1z
	 M30.2,18.7h2.9v-7.6c0-1.5,1-2.6,2.4-2.6c1.1-0.1,2.1,0.8,2.2,1.9c0,0.1,0,0.2,0,0.3v8h2.8v-7.6c0-1.5,1-2.5,2.4-2.5
	c1.4,0,2.2,0.9,2.2,2.4v7.8H48v-8.5c0-2.5-1.6-4.1-4.1-4.1C42.3,6,40.7,7,40.1,8.6H40c-0.5-1.6-1.7-2.5-3.5-2.5C35,6,33.6,7,33,8.5
	H33V6.3h-2.8L30.2,18.7L30.2,18.7z M55.7,8.3c1.7,0,2.8,1.2,2.9,3h-5.8C52.9,9.6,54.1,8.3,55.7,8.3L55.7,8.3z M58.6,15
	c-0.3,1-1.3,1.7-2.7,1.7c-1.9,0-3.1-1.4-3.1-3.4v-0.1h8.7v-1c0-3.8-2.2-6.2-5.7-6.2c-3.6,0-5.9,2.6-5.9,6.5s2.2,6.4,6,6.4
	c2.9,0,5.1-1.6,5.5-4L58.6,15L58.6,15z M63.3,18.7h2.9v-7.2c0-1.7,1-2.8,2.7-2.8c0.4,0,0.8,0.1,1.2,0.1V6.2
	c-0.3-0.1-0.6-0.1-0.9-0.1c-1.4,0-2.7,1-3,2.4h-0.1V6.3h-2.8V18.7z M75.8,16.7c-1.3,0-2.1-0.6-2.1-1.6s0.8-1.6,2.2-1.8l2.9-0.1v1
	C78.8,15.6,77.5,16.7,75.8,16.7L75.8,16.7z M74.9,18.9c1.6,0,3.1-0.8,3.9-2.2h0.1v2h2.8v-8.5c0-2.5-2-4.1-5.1-4.1
	c-3.2,0-5.1,1.7-5.3,4H74c0.2-1,1.1-1.7,2.4-1.7c1.4,0,2.3,0.8,2.3,2v0.9l-3.3,0.2c-3,0.1-4.7,1.5-4.7,3.7
	C70.8,17.4,72.5,18.9,74.9,18.9L74.9,18.9z"/>
</svg>
