<?xml version="1.0" encoding="utf-8"?>
<!-- Generator: Adobe Illustrator 21.1.0, SVG Export Plug-In . SVG Version: 6.00 Build 0)  -->
<svg version="1.1" id="Layer_1" xmlns="http://www.w3.org/2000/svg" xmlns:xlink="http://www.w3.org/1999/xlink" x="0px" y="0px"
	 viewBox="0 0 64 16" style="enable-background:new 0 0 64 16;" xml:space="preserve">
<style type="text/css">
	.st0{fill:#1D1D1F;}
</style>
<path id="RX-S10_Title_5" class="st0" d="M7.4,15V2.5h4.4V0.2H0.3v2.2h4.4V15H7.4z M15.5,5.9C17,5.9,18,7,18,8.5h-5.1
	C13.1,7,14.1,5.9,15.5,5.9z M18,11.8c-0.3,0.9-1.2,1.5-2.4,1.5c-1.7,0-2.7-1.2-2.7-3v-0.1h7.6V9.4c0-3.3-1.9-5.5-5-5.5
	c-3.1,0-5.1,2.2-5.1,5.7s2,5.6,5.2,5.6c2.6,0,4.5-1.4,4.8-3.5H18L18,11.8z M22.2,15h2.6V0.2h-2.6V15z M30.9,13.3
	c-1.1,0-1.8-0.6-1.8-1.5c0-0.9,0.7-1.5,1.9-1.5l2.5-0.1V11C33.5,12.3,32.4,13.3,30.9,13.3L30.9,13.3z M30.2,15.2
	c1.4,0,2.7-0.7,3.4-1.9h0.1V15h2.5V7.5c0-2.2-1.8-3.6-4.4-3.6c-2.8,0-4.5,1.5-4.6,3.5h2.4c0.2-0.9,0.9-1.5,2.1-1.5
	c1.3,0,2,0.6,2,1.8v0.8l-2.9,0.2c-2.6,0.1-4.1,1.3-4.1,3.2S28.1,15.2,30.2,15.2L30.2,15.2z"/>
</svg>
