<?xml version="1.0" encoding="utf-8"?>
<!-- Generator: Adobe Illustrator 21.1.0, SVG Export Plug-In . SVG Version: 6.00 Build 0)  -->
<svg version="1.1" id="Layer_1" xmlns="http://www.w3.org/2000/svg" xmlns:xlink="http://www.w3.org/1999/xlink" x="0px" y="0px"
	 viewBox="0 0 196 20" style="enable-background:new 0 0 196 20;" xml:space="preserve">
<style type="text/css">
	.st0{fill:#111111;}
</style>
<path id="_50_S12_Title_2_medium_1x.svg" class="st0" d="M2.1,17.5h2.9V5H2.1V17.5z M3.6,3.2c0.9,0,1.6-0.7,1.6-1.6
	C5.2,0.7,4.5,0,3.6,0C2.7,0,2,0.7,2,1.6c0,0,0,0,0,0C2,2.5,2.7,3.2,3.6,3.2L3.6,3.2z M8,0.6v17h3v-5.6h3.4c3.4,0,5.8-2.3,5.8-5.6
	c0-3.4-2.3-5.7-5.7-5.7H8z M11,3.1h2.8c2.2,0,3.4,1.1,3.4,3.2s-1.3,3.2-3.4,3.2H11V3.1L11,3.1z M22.4,17.5h2.9v-7.1
	c0-1.9,1.1-3,2.8-3c1.7,0,2.6,1,2.6,2.8v7.4h2.9v-8c0-2.9-1.6-4.6-4.3-4.6c-1.9,0-3.3,0.9-3.9,2.4h-0.1V0.6h-2.9V17.5L22.4,17.5z
	 M41.6,17.8c3.6,0,6-2.5,6-6.5c0-4-2.4-6.5-6-6.5s-6,2.5-6,6.5C35.6,15.3,38,17.8,41.6,17.8L41.6,17.8z M41.6,15.4
	c-1.9,0-3-1.5-3-4.1c0-2.6,1.2-4.1,3-4.1c1.8,0,3,1.5,3,4.1C44.6,13.9,43.5,15.4,41.6,15.4L41.6,15.4z M49.7,17.5h2.9v-7.2
	c0-1.8,1.1-3,2.7-3c1.7,0,2.5,1,2.5,2.8v7.5h2.9v-8c0-2.9-1.6-4.6-4.3-4.6c-1.9,0-3.2,0.9-3.9,2.4h-0.1V5.1h-2.8L49.7,17.5
	L49.7,17.5z M68.6,7.1c1.7,0,2.8,1.2,2.9,3h-5.8C65.7,8.3,66.9,7,68.6,7.1L68.6,7.1z M71.4,13.8c-0.3,1-1.3,1.8-2.7,1.8
	c-1.9,0-3.1-1.4-3.1-3.4V12h8.7v-1c0-3.8-2.2-6.2-5.7-6.2c-3.6,0-5.9,2.6-5.9,6.5c0,4,2.2,6.5,6,6.5c2.9,0,5.1-1.6,5.5-4H71.4z
	 M85.6,17.5h3v-17h-3l-4.4,3.1v2.8l4.4-3h0.1L85.6,17.5L85.6,17.5z M97,17.5h3v-17h-3l-4.4,3.1v2.8l4.4-3H97L97,17.5L97,17.5z
	 M109.3,0.6v17h3v-5.6h3.4c3.4,0,5.8-2.3,5.8-5.6c0-3.4-2.3-5.7-5.7-5.7H109.3z M112.3,3.1h2.8c2.2,0,3.4,1.1,3.4,3.2
	s-1.3,3.2-3.4,3.2h-2.7V3.1L112.3,3.1z M123.7,17.5h2.9v-7.2c0-1.8,1-2.8,2.6-2.8c0.4,0,0.8,0,1.2,0.1V5c-0.3-0.1-0.6-0.1-0.9-0.1
	c-1.5,0-2.6,0.9-3,2.4h-0.1V5.1h-2.8L123.7,17.5L123.7,17.5z M137.1,17.8c3.6,0,6-2.5,6-6.5c0-4-2.4-6.5-6-6.5s-6,2.5-6,6.5
	C131.1,15.3,133.5,17.8,137.1,17.8L137.1,17.8z M137.1,15.4c-1.8,0-3-1.5-3-4.1c0-2.6,1.2-4.1,3-4.1c1.8,0,3,1.5,3,4.1
	C140.1,13.9,139,15.4,137.1,15.4L137.1,15.4z M167.9,17.5v-17h-3.5l-5.2,13h-0.1l-5.2-13h-3.5v17h2.7v-12h0.1l4.9,12h2.1l4.9-12h0.1
	v12H167.9z M175,15.5c-1.3,0-2.1-0.6-2.1-1.7c0-1,0.8-1.6,2.2-1.7L178,12v1C178,14.4,176.6,15.5,175,15.5L175,15.5z M174.1,17.7
	c1.6,0,3.1-0.8,3.9-2.2h0.1v2h2.8V9c0-2.5-2-4.1-5.1-4.1c-3.2,0-5.1,1.6-5.3,4h2.7c0.2-1,1.1-1.7,2.5-1.7c1.4,0,2.3,0.8,2.3,2v0.9
	l-3.3,0.1c-3,0.2-4.7,1.5-4.7,3.8S171.7,17.7,174.1,17.7L174.1,17.7z M188.2,13.1l2.6,4.5h3.2l-4-6.3l4-6.1h-3.2l-2.5,4.4h-0.1
	l-2.5-4.4h-3.3l4,6.2l-4,6.2h3.1L188.2,13.1L188.2,13.1L188.2,13.1z"/>
</svg>
