<svg xmlns="http://www.w3.org/2000/svg" width="210" height="44" viewBox="0 0 420 88">
  <metadata><?xpacket begin="﻿" id="W5M0MpCehiHzreSzNTczkc9d"?>
<x:xmpmeta xmlns:x="adobe:ns:meta/" x:xmptk="Adobe XMP Core 5.6-c138 79.159824, 2016/09/14-01:09:01        ">
   <rdf:RDF xmlns:rdf="http://www.w3.org/1999/02/22-rdf-syntax-ns#">
      <rdf:Description rdf:about=""/>
   </rdf:RDF>
</x:xmpmeta>
                                                                                                    
                                                                                                    
                                                                                                    
                                                                                                    
                                                                                                    
                                                                                                    
                                                                                                    
                                                                                                    
                                                                                                    
                                                                                                    
                                                                                                    
                                                                                                    
                                                                                                    
                                                                                                    
                                                                                                    
                                                                                                    
                                                                                                    
                                                                                                    
                                                                                                    
                                                                                                    
                           
<?xpacket end="w"?></metadata>
<defs>
    <style>
      .cls-1 {
        fill: #111;
        fill-rule: evenodd;
      }
    </style>
  </defs>
  <path id="RX-S10_Head" class="cls-1" d="M2057.07,14043.3c15.98,0,27.05-8.8,29.16-23.2h-11.86c-1.88,8.1-8.3,12.9-17.25,12.9-11.72,0-19.13-9.5-19.13-24.7,0-15.1,7.46-24.6,19.08-24.6,8.77,0,15.66,5.6,17.25,14h11.91c-1.5-14.5-13.46-24.3-29.16-24.3-19.22,0-31.45,13.4-31.45,34.9C2025.62,14030,2037.76,14043.3,2057.07,14043.3Zm58.82-.1c14.58,0,24.05-9.7,24.05-25.9,0-16-9.56-25.8-24.05-25.8s-24.05,9.8-24.05,25.8C2091.84,14033.5,2101.31,14043.2,2115.89,14043.2Zm0-9.3c-7.4,0-12.19-6-12.19-16.6,0-10.5,4.83-16.6,12.19-16.6,7.41,0,12.19,6.1,12.19,16.6C2128.08,14027.9,2123.3,14033.9,2115.89,14033.9Zm31.26,8.3h11.67v-30.4c0-6,3.94-10.4,9.56-10.4,5.44,0,8.82,3.4,8.82,9v31.8h11.34v-30.7c0-6,3.84-10.1,9.47-10.1,5.72,0,8.91,3.5,8.91,9.6v31.2h11.67v-34.1c0-9.9-6.42-16.5-16.22-16.5-7.17,0-13.08,3.8-15.47,9.9h-0.28c-1.83-6.3-6.84-9.9-13.88-9.9a14.63,14.63,0,0,0-14.15,9.5h-0.24v-8.6h-11.2v49.7Zm107.76-50.6a16.789,16.789,0,0,0-15.66,9.5h-0.23v-8.6h-11.39v66h11.67v-24.6h0.23c2.72,5.6,8.35,9.1,15.57,9.1,12.47,0,20.43-9.8,20.43-25.7S2267.52,13991.6,2254.91,13991.6Zm-3.56,41.8c-7.27,0-12.1-6.3-12.14-16.1,0.04-9.6,4.87-16,12.14-16,7.54,0,12.23,6.2,12.23,16C2263.58,14027.2,2258.89,14033.4,2251.35,14033.4Zm49.54,0.8c-5.07,0-8.44-2.6-8.44-6.7,0-3.9,3.23-6.5,8.86-6.8l11.48-.7v3.8C2312.79,14029.8,2307.5,14034.2,2300.89,14034.2Zm-3.52,8.8c6.38,0,12.61-3.4,15.47-8.7h0.23v7.9h11.25V14008c0-10-8.01-16.5-20.34-16.5-12.66,0-20.58,6.6-21.09,15.9h10.83c0.75-4.1,4.26-6.8,9.79-6.8,5.77,0,9.28,3,9.28,8.2v3.6l-13.12.7c-12.1.8-18.89,6.1-18.89,14.9C2280.78,14036.9,2287.76,14043,2297.37,14043Zm36.04-.8h11.67v-28.9c0-7,3.99-11.3,10.6-11.3a13.908,13.908,0,0,1,4.73.7v-10.6a15.524,15.524,0,0,0-3.65-.5c-5.86,0-10.22,3.5-11.91,9.6h-0.24v-8.7h-11.2v49.7Zm49.78-8c-5.07,0-8.44-2.6-8.44-6.7,0-3.9,3.23-6.5,8.86-6.8l11.48-.7v3.8C2395.09,14029.8,2389.8,14034.2,2383.19,14034.2Zm-3.52,8.8c6.38,0,12.61-3.4,15.47-8.7h0.23v7.9h11.25V14008c0-10-8.01-16.5-20.34-16.5-12.66,0-20.58,6.6-21.09,15.9h10.82c0.75-4.1,4.27-6.8,9.8-6.8,5.77,0,9.28,3,9.28,8.2v3.6l-13.12.7c-12.1.8-18.89,6.1-18.89,14.9C2363.08,14036.9,2370.06,14043,2379.67,14043Zm36.04-.8h11.67v-28.9c0-7,3.99-11.3,10.6-11.3a13.952,13.952,0,0,1,4.73.7v-10.6a15.621,15.621,0,0,0-3.66-.5c-5.86,0-10.21,3.5-11.9,9.6h-0.24v-8.7h-11.2v49.7Z" transform="translate(-2024.17 -13971.95)"/>
</svg>
