<?xml version="1.0" encoding="utf-8"?>
<!-- Generator: Adobe Illustrator 21.1.0, SVG Export Plug-In . SVG Version: 6.00 Build 0)  -->
<svg version="1.1" id="Layer_1" xmlns="http://www.w3.org/2000/svg" xmlns:xlink="http://www.w3.org/1999/xlink" x="0px" y="0px"
	 viewBox="0 0 42 18" style="enable-background:new 0 0 42 18;" xml:space="preserve">
<style type="text/css">
	.st0{fill:#1D1D1F;}
</style>
<path id="RX-S10_Title_5" class="st0" d="M8.7,17.3V3h5.1V0.4H0.6V3h5.1v14.4H8.7L8.7,17.3z M17.9,6.9c1.7,0,2.8,1.2,2.9,3H15
	C15.1,8.2,16.3,6.9,17.9,6.9z M20.8,13.6c-0.3,1-1.3,1.7-2.7,1.7C16.2,15.3,15,14,15,12v-0.1h8.7v-1c0-3.8-2.2-6.2-5.7-6.2
	c-3.6,0-5.9,2.6-5.9,6.5s2.2,6.4,6,6.4c2.9,0,5.1-1.6,5.5-4L20.8,13.6L20.8,13.6z M25.6,17.3h2.9V0.4h-2.9V17.3L25.6,17.3z
	 M35.6,15.3c-1.3,0-2.1-0.6-2.1-1.6s0.8-1.6,2.2-1.8l2.9-0.1v1C38.5,14.2,37.2,15.3,35.6,15.3L35.6,15.3z M34.7,17.5
	c1.6,0,3.1-0.8,3.9-2.2h0.1v2h2.8V8.8c0-2.5-2-4.1-5.1-4.1c-3.2,0-5.1,1.7-5.3,4h2.7c0.2-1,1.1-1.7,2.4-1.7c1.4,0,2.3,0.8,2.3,2v0.9
	l-3.3,0.2c-3,0.1-4.7,1.5-4.7,3.7C30.5,16,32.3,17.5,34.7,17.5L34.7,17.5z"/>
</svg>
