<?xml version="1.0" encoding="utf-8"?>
<!-- Generator: Adobe Illustrator 21.1.0, SVG Export Plug-In . SVG Version: 6.00 Build 0)  -->
<svg version="1.1" id="Layer_1" xmlns="http://www.w3.org/2000/svg" xmlns:xlink="http://www.w3.org/1999/xlink" x="0px" y="0px"
	 viewBox="0 0 72 16" style="enable-background:new 0 0 72 16;" xml:space="preserve">
<style type="text/css">
	.st0{fill:#1D1D1F;}
</style>
<path id="RX-S10_Title_4" class="st0" d="M7.4,15.9c3.5,0,5.9-2,6.4-5.1h-2.6c-0.4,1.8-1.8,2.9-3.8,2.9c-2.6,0-4.2-2.1-4.2-5.4
	s1.6-5.4,4.2-5.4c1.8-0.1,3.5,1.2,3.8,3h2.6c-0.3-3.1-2.9-5.3-6.4-5.3c-4.2,0-6.9,2.9-6.9,7.6S3.2,15.9,7.4,15.9z M19.4,13.9
	c-1.1,0-1.8-0.6-1.8-1.5c0-0.9,0.7-1.5,1.9-1.5l2.5-0.1v0.8C22,12.9,20.9,13.9,19.4,13.9z M18.7,15.8c1.4,0,2.7-0.7,3.4-1.9h0.1v1.8
	h2.5V8.1c0-2.2-1.8-3.6-4.4-3.6c-2.8,0-4.5,1.5-4.6,3.5h2.4C18,7.1,18.8,6.5,20,6.5c1.3,0,2,0.6,2,1.8v0.8l-2.9,0.2
	c-2.6,0.1-4.1,1.3-4.1,3.2S16.6,15.8,18.7,15.8L18.7,15.8z M21,0.1h-2l-2.6,3.1h2L20,1.4H20l1.5,1.9h2L21,0.1z M26.6,15.6h2.6V9
	c0-1.4,0.9-2.3,2.1-2.3c1.2,0,1.9,0.8,1.9,2v7h2.5V8.9c-0.1-1.1,0.7-2.1,1.9-2.2c0.1,0,0.1,0,0.2,0c1.2,0,1.9,0.8,1.9,2.1v6.9h2.6
	V8.2c0-2.2-1.4-3.6-3.6-3.6c-1.5-0.1-2.8,0.8-3.4,2.2h-0.1c-0.4-1.4-1.6-2.3-3-2.2c-1.4,0-2.6,0.8-3.1,2.1h-0.1V4.7h-2.4L26.6,15.6
	L26.6,15.6z M48.3,13.9c-1.1,0-1.8-0.6-1.8-1.5c0-0.9,0.7-1.5,1.9-1.5l2.5-0.1v0.8C50.9,12.9,49.7,13.9,48.3,13.9L48.3,13.9z
	 M47.5,15.8c1.4,0,2.7-0.7,3.4-1.9h0.1v1.8h2.5V8.1c0-2.2-1.8-3.6-4.4-3.6c-2.8,0-4.5,1.5-4.6,3.5h2.4c0.2-0.9,0.9-1.5,2.1-1.5
	c1.3,0,2,0.6,2,1.8v0.8L48,9.3c-2.6,0.1-4.1,1.3-4.1,3.2S45.4,15.8,47.5,15.8L47.5,15.8z M55.4,15.6H58V9.3c0-1.5,0.9-2.5,2.3-2.5
	c0.4,0,0.7,0,1,0.1V4.7c-0.3-0.1-0.5-0.1-0.8-0.1c-1.2,0-2.3,0.8-2.6,2h-0.1V4.7h-2.4L55.4,15.6L55.4,15.6z M66.4,13.9
	c-1.1,0-1.8-0.6-1.8-1.5c0-0.9,0.7-1.5,1.9-1.5l2.5-0.1v0.8C69,12.9,67.8,13.9,66.4,13.9L66.4,13.9z M65.6,15.8
	c1.4,0,2.7-0.7,3.4-1.9H69v1.8h2.5V8.1c0-2.2-1.8-3.6-4.4-3.6c-2.8,0-4.5,1.5-4.6,3.5h2.4C65,7.1,65.7,6.5,67,6.5c1.3,0,2,0.6,2,1.8
	v0.8l-2.9,0.2c-2.6,0.1-4.1,1.3-4.1,3.2S63.5,15.8,65.6,15.8L65.6,15.8z"/>
</svg>
