<?xml version="1.0" encoding="utf-8"?>
<!-- Generator: Adobe Illustrator 21.1.0, SVG Export Plug-In . SVG Version: 6.00 Build 0)  -->
<svg version="1.1" id="Layer_1" xmlns="http://www.w3.org/2000/svg" xmlns:xlink="http://www.w3.org/1999/xlink" x="0px" y="0px"
	 viewBox="0 0 598 38" style="enable-background:new 0 0 598 38;" xml:space="preserve">
<style type="text/css">
	.st0{fill:#1D1D1F;}
</style>
<path id="RX-S11_Title_1" class="st0" d="M18.8,26.2H5.6v-8h12.5v-4H5.6V6.5h13.2V2.2H0.6v28.2h18.2V26.2L18.8,26.2z M22.7,30.4h4.9
	v-12c0-3,1.8-5,4.6-5c2.8,0,4.1,1.6,4.1,4.6v12.4h4.9V17c0-4.8-2.6-7.7-7.2-7.7c-3.2,0-5.4,1.5-6.5,4h-0.1V9.7h-4.7V30.4L22.7,30.4z
	 M63.3,17c-0.3-4.4-3.7-7.8-9.2-7.8c-6,0-9.9,4.1-9.9,10.8c0,6.7,3.9,10.8,10,10.8c5.2,0,8.8-3,9.2-7.7h-4.6c-0.5,2.4-2,3.8-4.5,3.8
	c-3.1,0-5.1-2.5-5.1-6.8c0-4.2,2-6.9,5-6.9c2.6,0,4.1,1.6,4.5,3.9H63.3z M75.4,30.8c6.1,0,10-4,10-10.8s-4-10.8-10-10.8
	s-10,4.1-10,10.8S69.3,30.8,75.4,30.8L75.4,30.8z M75.4,26.9c-3.1,0-5.1-2.5-5.1-6.9s2-7,5.1-7c3.1,0,5.1,2.5,5.1,7
	S78.4,26.9,75.4,26.9L75.4,26.9z M88.5,30.4h4.9v-12c0-3,1.8-5,4.6-5c2.8,0,4.1,1.6,4.1,4.6v12.4h4.9V17c0-4.8-2.6-7.7-7.2-7.7
	c-3.2,0-5.4,1.5-6.5,4h-0.1V9.7h-4.7V30.4L88.5,30.4z M112.2,4.9v4.9h-3v3.8h3v11.5c0,4,1.8,5.6,6.2,5.6c0.8,0,1.7-0.1,2.5-0.2v-3.7
	c-0.5,0.1-0.9,0.1-1.4,0.1c-1.7,0-2.5-0.8-2.5-2.5V13.5h3.9V9.7H117V4.9H112.2z M124.2,30.4h4.9v-12c0-2.9,1.7-4.7,4.4-4.7
	c0.7,0,1.3,0.1,2,0.2V9.5c-0.5-0.1-1-0.2-1.5-0.2c-2.4,0-4.3,1.5-5,4h-0.1V9.7h-4.7L124.2,30.4L124.2,30.4z M146.1,13
	c2.8,0,4.7,2,4.8,5h-9.7C141.4,15.1,143.4,13,146.1,13L146.1,13z M150.9,24.2c-0.5,1.7-2.2,2.9-4.5,2.9c-3.2,0-5.2-2.2-5.2-5.5v-0.3
	h14.5v-1.5c0-6.3-3.7-10.4-9.5-10.4c-6,0-9.8,4.3-9.8,10.9c0,6.6,3.8,10.7,10,10.7c4.9,0,8.5-2.7,9.2-6.6L150.9,24.2L150.9,24.2z
	 M176,30.8c6.1,0,10-4,10-10.8s-4-10.8-10-10.8s-10,4.1-10,10.8S169.9,30.8,176,30.8L176,30.8z M176,27c-3.1,0-5.1-2.5-5.1-6.9
	s2-7,5.1-7c3.1,0,5.1,2.5,5.1,7S179.1,26.9,176,27L176,27z M197.2,30.4h4.9V9.7h-4.9L197.2,30.4L197.2,30.4z M199.6,6.6
	c1.5,0,2.7-1.2,2.7-2.6c0,0,0,0,0,0c0-1.5-1.3-2.6-2.7-2.6c-1.4,0-2.6,1.2-2.6,2.6C197,5.4,198.2,6.5,199.6,6.6L199.6,6.6z
	 M206.7,2.2v28.2h5V21h5.7c5.7,0,9.7-3.8,9.7-9.4c0-5.6-3.9-9.5-9.5-9.5L206.7,2.2L206.7,2.2z M211.7,6.3h4.6c3.6,0,5.7,2,5.7,5.4
	s-2.1,5.4-5.7,5.4h-4.6V6.3z M230.4,30.4h4.9V18.5c0-3,1.8-5.1,4.7-5.1c2.8,0,4.3,1.8,4.3,4.6v12.4h4.9V17c0-4.8-2.7-7.8-7.2-7.8
	c-3.1,0-5.4,1.4-6.5,4h-0.1v-11h-4.8L230.4,30.4L230.4,30.4z M262.2,30.8c6.1,0,10-4,10-10.8s-4-10.8-10-10.8s-10,4.1-10,10.8
	S256.1,30.8,262.2,30.8L262.2,30.8z M262.2,27c-3.1,0-5.1-2.5-5.1-6.9s2-7,5.1-7c3.1,0,5.1,2.5,5.1,7S265.3,26.9,262.2,27L262.2,27z
	 M275.3,30.4h4.9v-12c0-3,1.8-5,4.6-5c2.8,0,4.1,1.6,4.1,4.6v12.4h4.9V17c0-4.8-2.6-7.7-7.2-7.7c-3.2,0-5.4,1.5-6.5,4H280V9.7h-4.7
	V30.4L275.3,30.4z M306.6,13c2.8,0,4.7,2,4.8,5h-9.7C301.9,15.1,303.8,13,306.6,13L306.6,13z M311.4,24.2c-0.5,1.7-2.2,2.9-4.5,2.9
	c-3.2,0-5.2-2.2-5.2-5.5v-0.3h14.5v-1.5c0-6.3-3.7-10.4-9.5-10.4c-6,0-9.8,4.3-9.8,10.9c0,6.6,3.8,10.7,10,10.7
	c4.9,0,8.5-2.7,9.2-6.6L311.4,24.2L311.4,24.2z M327.3,30.4h4.9V9.7h-4.9V30.4z M329.8,6.6c1.5,0,2.7-1.2,2.7-2.6c0,0,0,0,0,0
	c0-1.5-1.3-2.6-2.7-2.6c-1.4,0-2.6,1.2-2.6,2.6C327.1,5.4,328.3,6.5,329.8,6.6L329.8,6.6z M344,30.7c3,0,5.4-1.5,6.5-3.9h0.1v3.5
	h4.8V2.2h-4.9v11h-0.1c-1.2-2.4-3.7-3.9-6.4-3.8c-5.2,0-8.6,4.1-8.6,10.6C335.4,26.6,338.8,30.7,344,30.7L344,30.7z M345.5,13.4
	c3.1,0,5.1,2.6,5.1,6.7s-2,6.7-5.1,6.7c-3.1,0-5.1-2.6-5.1-6.7S342.4,13.3,345.5,13.4L345.5,13.4z M368.4,13c2.8,0,4.7,2,4.8,5h-9.7
	C363.7,15.1,365.7,13,368.4,13L368.4,13z M373.2,24.2c-0.5,1.7-2.2,2.9-4.5,2.9c-3.2,0-5.2-2.2-5.2-5.5v-0.3H378v-1.5
	c0-6.3-3.7-10.4-9.6-10.4c-6,0-9.8,4.3-9.8,10.9c0,6.6,3.8,10.7,10,10.7c4.9,0,8.5-2.7,9.2-6.6L373.2,24.2L373.2,24.2z M388.6,27.1
	c-2.1,0-3.5-1.1-3.5-2.8c0-1.6,1.3-2.6,3.7-2.9l4.8-0.2v1.5C393.6,25.2,391.4,27,388.6,27.1L388.6,27.1z M387.2,30.7
	c2.7,0,5.3-1.4,6.4-3.6h0.1v3.3h4.7V16.2c0-4.2-3.3-6.9-8.5-6.9c-5.3,0-8.6,2.8-8.8,6.6h4.5c0.3-1.7,1.8-2.9,4.1-2.9
	c2.4,0,3.9,1.2,3.9,3.5V18l-5.5,0.4c-5,0.3-7.9,2.5-7.9,6.1C380.3,28.2,383.2,30.7,387.2,30.7L387.2,30.7z M402.4,30.4h4.9V2.2h-4.9
	V30.4z M430.8,9.4c-3,0-5.4,1.5-6.5,3.9h-0.1V9.7h-4.8v27.5h4.9V27h0.1c1.1,2.3,3.5,3.8,6.5,3.8c5.2,0,8.5-4,8.5-10.6
	C439.4,13.4,436.1,9.3,430.8,9.4L430.8,9.4z M429.3,26.8c-3,0-5-2.6-5.1-6.7c0-4,2-6.7,5.1-6.7c3.1,0,5.1,2.6,5.1,6.7
	S432.5,26.8,429.3,26.8L429.3,26.8z M450.1,27.1c-2.1,0-3.5-1.1-3.5-2.8c0-1.6,1.3-2.6,3.7-2.9l4.8-0.2v1.5
	C455.1,25.2,452.9,27,450.1,27.1L450.1,27.1z M448.6,30.7c2.7,0,5.3-1.4,6.4-3.6h0.1v3.3h4.7V16.2c0-4.2-3.3-6.9-8.5-6.9
	c-5.3,0-8.6,2.8-8.8,6.6h4.5c0.3-1.7,1.8-2.9,4.1-2.9c2.4,0,3.9,1.2,3.9,3.5V18l-5.5,0.4c-5,0.3-7.9,2.5-7.9,6.1
	C441.7,28.2,444.6,30.7,448.6,30.7L448.6,30.7z M463.8,30.4h4.9v-12c0-2.9,1.7-4.7,4.4-4.7c0.7,0,1.3,0.1,2,0.2V9.6
	c-0.5-0.1-1-0.2-1.5-0.2c-2.4,0-4.3,1.5-5,4h-0.1V9.7h-4.7L463.8,30.4L463.8,30.4z M484.6,27.1c-2.1,0-3.5-1.1-3.5-2.8
	c0-1.6,1.3-2.6,3.7-2.9l4.8-0.2v1.5C489.6,25.2,487.4,27,484.6,27.1L484.6,27.1z M483.2,30.7c2.7,0,5.3-1.4,6.5-3.6h0.1v3.3h4.7
	V16.2c0-4.2-3.3-6.9-8.5-6.9c-5.3,0-8.6,2.8-8.8,6.6h4.5c0.3-1.7,1.8-2.9,4.1-2.9c2.4,0,3.9,1.2,3.9,3.5V18l-5.5,0.4
	c-5,0.3-7.9,2.5-7.9,6.1C476.3,28.2,479.2,30.7,483.2,30.7L483.2,30.7z M524.5,9.7h-5.1l-4.8,16.2h-0.1l-4.8-16.2h-5.2l7.3,20.7h5.3
	L524.5,9.7z M535.3,30.8c6.1,0,10-4,10-10.8s-4-10.8-10-10.8s-10,4.1-10,10.8S529.3,30.8,535.3,30.8L535.3,30.8z M535.3,27
	c-3.1,0-5.1-2.5-5.1-6.9s2-7,5.1-7c3.1,0,5.1,2.5,5.1,7S538.4,26.9,535.3,27L535.3,27z M566.7,17.1c-0.3-4.4-3.7-7.8-9.2-7.8
	c-6,0-9.9,4.1-9.9,10.8c0,6.7,3.9,10.8,10,10.8c5.2,0,8.8-3,9.2-7.7h-4.6c-0.4,2.4-2,3.8-4.5,3.8c-3.1,0-5.1-2.5-5.1-6.8
	c0-4.2,2-6.9,5-6.9c2.6,0,4.1,1.6,4.5,3.9H566.7z M578.6,13c2.8,0,4.7,2,4.8,5h-9.7C573.9,15.1,575.8,13,578.6,13L578.6,13z
	 M583.3,24.2c-0.5,1.7-2.2,2.9-4.5,2.9c-3.2,0-5.2-2.2-5.2-5.5v-0.3h14.5v-1.5c0-6.3-3.7-10.4-9.5-10.4c-6,0-9.8,4.3-9.8,10.9
	c0,6.6,3.8,10.7,10,10.7c4.9,0,8.5-2.7,9.2-6.6L583.3,24.2L583.3,24.2z M580.4,0.8h-3.8l-4.9,6h3.9l2.8-3.6h0.1l2.8,3.6h3.9
	L580.4,0.8z M594.6,30.6c1.5,0,2.8-1.3,2.8-2.8c0-1.5-1.3-2.8-2.8-2.8c-1.5,0-2.8,1.3-2.8,2.8C591.8,29.3,593,30.6,594.6,30.6
	C594.6,30.6,594.6,30.6,594.6,30.6L594.6,30.6z"/>
</svg>
