<?xml version="1.0" encoding="utf-8"?>
<!-- Generator: Adobe Illustrator 21.1.0, SVG Export Plug-In . SVG Version: 6.00 Build 0)  -->
<svg version="1.1" id="Layer_1" xmlns="http://www.w3.org/2000/svg" xmlns:xlink="http://www.w3.org/1999/xlink" x="0px" y="0px"
	 viewBox="0 0 256 66" style="enable-background:new 0 0 256 66;" xml:space="preserve">
<style type="text/css">
	.st0{fill:#111111;}
</style>
<path id="RX-S11_Title_1" class="st0" d="M15.4,20.5H4.8v-6.4h10v-3.2h-10V4.8h10.6V1.4H0.8v22.5h14.6L15.4,20.5L15.4,20.5z
	 M18.6,23.9h3.9v-9.6c0-2.4,1.4-4,3.7-4c2.2,0,3.3,1.3,3.3,3.7v10h3.9V13.2c0-3.8-2.1-6.2-5.7-6.2c-2.5,0-4.3,1.2-5.2,3.2h-0.1V7.3
	h-3.7V23.9L18.6,23.9z M51.2,13.2c-0.3-3.5-3-6.2-7.3-6.2c-4.8,0-7.9,3.3-7.9,8.7c0,5.3,3.1,8.6,8,8.6c4.2,0,7-2.5,7.3-6.2h-3.7
	c-0.2,1.8-1.8,3.1-3.6,3c-2.5,0-4.1-2-4.1-5.5c0-3.4,1.6-5.5,4-5.5c1.8-0.1,3.4,1.2,3.6,3L51.2,13.2L51.2,13.2z M61,24.2
	c4.9,0,8-3.2,8-8.6S65.8,7,61,7s-8,3.3-8,8.7S56.1,24.2,61,24.2L61,24.2z M61,21.2c-2.5,0-4.1-2-4.1-5.5c0-3.5,1.6-5.5,4.1-5.5
	c2.5,0,4.1,2,4.1,5.5C65,19.2,63.4,21.2,61,21.2L61,21.2z M71.6,23.9h3.9v-9.6c0-2.4,1.4-4,3.7-4c2.2,0,3.3,1.3,3.3,3.7v10h3.9V13.2
	c0-3.8-2.1-6.2-5.7-6.2c-2.5,0-4.3,1.2-5.2,3.2h-0.1V7.3h-3.7V23.9L71.6,23.9z M90.7,3.5v3.8h-2.4v3h2.4v9.2c0,3.2,1.4,4.5,5,4.5
	c0.7,0,1.4,0,2-0.2v-3c-0.4,0-0.7,0.1-1.1,0c-1.4,0-2-0.6-2-2v-8.6h3.1v-3h-3.1V3.5H90.7z M100.5,23.9h3.9v-9.7
	c0-2.3,1.3-3.8,3.5-3.8c0.5,0,1.1,0.1,1.6,0.2V7.2c-0.4-0.1-0.8-0.1-1.2-0.2c-2,0-3.4,1.2-4,3.2h-0.1V7.3h-3.7V23.9L100.5,23.9z
	 M118.1,10c2.2,0,3.7,1.7,3.8,4h-7.7C114.3,11.7,115.9,10,118.1,10L118.1,10z M121.9,18.9c-0.4,1.4-1.8,2.3-3.6,2.3
	c-2.5,0-4.2-1.8-4.2-4.5v-0.2h11.6v-1.3c0-5-2.9-8.3-7.6-8.3c-4.8,0-7.8,3.5-7.8,8.7c0,5.3,3,8.5,8,8.5c3.9,0,6.8-2.2,7.3-5.3H121.9
	z M142.2,24.2c4.9,0,8-3.2,8-8.6S147,7,142.2,7s-8,3.3-8,8.7S137.4,24.2,142.2,24.2L142.2,24.2z M142.2,21.2c-2.5,0-4.1-2-4.1-5.5
	c0-3.5,1.6-5.5,4.1-5.5c2.5,0,4.1,2,4.1,5.5C146.3,19.2,144.7,21.2,142.2,21.2L142.2,21.2z M159.5,23.9h3.9V7.3h-3.9V23.9z
	 M161.4,4.8c1.2,0,2.1-1,2.1-2.1c0-1.2-1-2.1-2.1-2.1c-1.2,0-2.1,0.9-2.1,2.1C159.3,3.9,160.2,4.8,161.4,4.8L161.4,4.8z M167.2,1.4
	v22.5h4v-7.5h4.6c4.6,0,7.8-3,7.8-7.5s-3.1-7.5-7.6-7.5H167.2L167.2,1.4z M171.2,4.7h3.7c2.9,0,4.6,1.5,4.6,4.2
	c0,2.7-1.7,4.2-4.6,4.2h-3.7V4.7z M186.3,23.9h3.9v-9.5c0-2.5,1.4-4,3.8-4c2.2,0,3.4,1.4,3.4,3.7v9.9h3.9V13.2
	c0-3.8-2.1-6.2-5.8-6.2c-2.5,0-4.3,1.2-5.2,3.2h-0.1V1.4h-3.8V23.9L186.3,23.9z M211.8,24.2c4.9,0,8-3.2,8-8.6s-3.2-8.7-8-8.7
	s-8,3.3-8,8.7S207,24.2,211.8,24.2L211.8,24.2z M211.8,21.2c-2.5,0-4.1-2-4.1-5.5c0-3.5,1.6-5.5,4.1-5.5c2.5,0,4.1,2,4.1,5.5
	C215.9,19.2,214.3,21.2,211.8,21.2L211.8,21.2z M222.5,23.9h3.9v-9.6c0-2.4,1.4-4,3.7-4c2.2,0,3.3,1.3,3.3,3.7v10h3.9V13.2
	c0-3.8-2.1-6.2-5.7-6.2c-2.5,0-4.3,1.2-5.2,3.2h-0.1V7.3h-3.7L222.5,23.9L222.5,23.9z M247.6,10c2.2,0,3.7,1.7,3.8,4h-7.7
	C243.8,11.7,245.4,10,247.6,10L247.6,10z M251.4,18.9c-0.4,1.4-1.8,2.3-3.6,2.3c-2.5,0-4.2-1.8-4.2-4.5v-0.2h11.6v-1.3
	c0-5-2.9-8.3-7.6-8.3c-4.8,0-7.8,3.5-7.8,8.7c0,5.3,3,8.5,8,8.5c3.9,0,6.8-2.2,7.3-5.3H251.4L251.4,18.9z M19.2,59.9h3.9V43.3h-3.9
	L19.2,59.9L19.2,59.9z M21.1,40.8c1.2,0,2.1-1,2.1-2.1c0-1.2-1-2.1-2.1-2.1c-1.2,0-2.1,0.9-2.1,2.1C19,39.9,19.9,40.8,21.1,40.8
	L21.1,40.8z M32.6,60.2c2.2,0.1,4.2-1.1,5.2-3.1h0.1v2.8h3.8V37.4h-3.9v8.8h-0.1c-1-1.9-3-3.1-5.1-3c-4.2,0-6.9,3.3-6.9,8.5
	S28.5,60.2,32.6,60.2L32.6,60.2z M33.8,46.3c2.5,0,4.1,2.1,4.1,5.3c0,3.3-1.6,5.3-4.1,5.3c-2.5,0-4.1-2-4.1-5.3S31.3,46.3,33.8,46.3
	L33.8,46.3z M52.3,46c2.2,0,3.7,1.7,3.8,4h-7.7C48.5,47.7,50.1,46,52.3,46L52.3,46z M56.1,54.9c-0.4,1.4-1.8,2.3-3.6,2.3
	c-2.5,0-4.2-1.8-4.2-4.5v-0.2h11.6v-1.3c0-5-2.9-8.3-7.6-8.3c-4.8,0-7.8,3.5-7.8,8.7c0,5.3,3,8.5,8,8.5c3.9,0,6.8-2.2,7.3-5.3H56.1z
	 M68.6,57.2c-1.7,0-2.8-0.8-2.8-2.2s1.1-2.2,3-2.3l3.8-0.2v1.3C72.6,55.8,70.8,57.2,68.6,57.2L68.6,57.2z M67.4,60.2
	c2.1,0,4.1-1.1,5.2-2.9h0.1v2.7h3.8V48.5c0-3.3-2.7-5.5-6.8-5.5c-4.2,0-6.9,2.2-7,5.3h3.6c0.2-1.4,1.4-2.3,3.3-2.3
	c1.9,0,3.1,1,3.1,2.8V50l-4.4,0.2c-4,0.2-6.3,2-6.3,5C61.9,58.2,64.2,60.2,67.4,60.2L67.4,60.2z M79.8,59.9h3.9V37.4h-3.9V59.9z
	 M102.7,43.1c-2.2-0.1-4.2,1.1-5.2,3.1h-0.1v-2.8h-3.8v22h3.9v-8.2h0.1c0.9,1.8,2.8,3,5.2,3c4.2,0,6.8-3.2,6.8-8.5
	S106.9,43.1,102.7,43.1L102.7,43.1z M101.5,57c-2.4,0-4-2.1-4-5.3c0-3.2,1.6-5.3,4-5.3c2.5,0,4.1,2.1,4.1,5.3
	C105.6,54.9,104,57,101.5,57L101.5,57z M118.3,57.2c-1.7,0-2.8-0.8-2.8-2.2s1.1-2.2,3-2.3l3.8-0.2v1.3
	C122.2,55.8,120.5,57.2,118.3,57.2L118.3,57.2z M117.1,60.2c2.1,0,4.1-1.1,5.2-2.9h0.1v2.7h3.8V48.5c0-3.3-2.7-5.5-6.8-5.5
	c-4.2,0-6.9,2.2-7,5.3h3.6c0.2-1.4,1.4-2.3,3.3-2.3c1.9,0,3.1,1,3.1,2.8V50l-4.4,0.2c-4,0.2-6.3,2-6.3,5
	C111.6,58.2,113.9,60.2,117.1,60.2L117.1,60.2z M129.3,59.9h3.9v-9.7c0-2.3,1.3-3.8,3.5-3.8c0.5,0,1.1,0.1,1.6,0.2v-3.5
	c-0.4-0.1-0.8-0.1-1.2-0.2c-2,0-3.4,1.2-4,3.2h-0.1v-2.9h-3.7V59.9L129.3,59.9z M146.2,57.2c-1.7,0-2.8-0.8-2.8-2.2s1.1-2.2,3-2.3
	l3.8-0.2v1.3C150.1,55.8,148.4,57.2,146.2,57.2L146.2,57.2z M145,60.2c2.1,0,4.1-1.1,5.2-2.9h0.1v2.7h3.8V48.5
	c0-3.3-2.7-5.5-6.8-5.5c-4.2,0-6.9,2.2-7,5.3h3.6c0.2-1.4,1.4-2.3,3.3-2.3c1.9,0,3.1,1,3.1,2.8V50l-4.4,0.2c-4,0.2-6.3,2-6.3,5
	C139.4,58.2,141.8,60.2,145,60.2L145,60.2z M178.3,43.3h-4.1l-3.8,12.9h-0.1l-3.8-13h-4.2l5.9,16.6h4.3L178.3,43.3z M187.1,60.2
	c4.9,0,8-3.2,8-8.6s-3.2-8.7-8-8.7s-8,3.3-8,8.7S182.2,60.2,187.1,60.2L187.1,60.2z M187.1,57.2c-2.5,0-4.1-2-4.1-5.5
	c0-3.5,1.6-5.5,4.1-5.5c2.5,0,4.1,2,4.1,5.5C191.2,55.2,189.6,57.2,187.1,57.2L187.1,57.2z M212.3,49.2c-0.3-3.5-3-6.2-7.3-6.2
	c-4.8,0-7.9,3.3-7.9,8.7c0,5.3,3.1,8.6,8,8.6c4.2,0,7-2.5,7.3-6.2h-3.7c-0.2,1.8-1.8,3.1-3.6,3c-2.5,0-4.1-2-4.1-5.5
	c0-3.4,1.6-5.5,4-5.5c1.8-0.1,3.4,1.2,3.6,3L212.3,49.2L212.3,49.2z M221.9,46c2.2,0,3.7,1.7,3.8,4H218
	C218.2,47.7,219.7,46,221.9,46L221.9,46z M225.8,54.9c-0.4,1.4-1.8,2.3-3.6,2.3c-2.5,0-4.2-1.8-4.2-4.5v-0.2h11.6v-1.3
	c0-5-2.9-8.3-7.6-8.3c-4.8,0-7.8,3.5-7.8,8.7c0,5.3,3,8.5,8,8.5c3.9,0,6.8-2.2,7.3-5.3H225.8z M223.4,36.2h-3l-3.9,4.8h3.1l2.3-2.8
	h0.1l2.3,2.8h3.1L223.4,36.2z M234.9,60.1c1.2,0,2.2-1,2.2-2.2s-1-2.2-2.2-2.2s-2.2,1-2.2,2.2C232.6,59.1,233.6,60.1,234.9,60.1
	C234.9,60.1,234.9,60.1,234.9,60.1L234.9,60.1z"/>
</svg>
