<?xml version="1.0" encoding="utf-8"?>
<!-- Generator: Adobe Illustrator 21.1.0, SVG Export Plug-In . SVG Version: 6.00 Build 0)  -->
<svg version="1.1" id="Layer_1" xmlns="http://www.w3.org/2000/svg" xmlns:xlink="http://www.w3.org/1999/xlink" x="0px" y="0px"
	 viewBox="0 0 712 44" style="enable-background:new 0 0 712 44;" xml:space="preserve">
<style type="text/css">
	.st0{fill:#111111;}
</style>
<path id="RX-S11_Title_1" class="st0" d="M22.2,30.6H6.3v-9.7h15v-4.8h-15V6.9h15.8V1.9H0.3v33.8h21.9V30.6z M26.7,35.7h5.8V21.3
	c0-3.6,2.1-6,5.5-6c3.3,0,5,2,5,5.5v14.8h5.8v-16c0-5.8-3.1-9.2-8.6-9.2c-3.8,0-6.5,1.8-7.8,4.8h-0.1v-4.2h-5.6L26.7,35.7L26.7,35.7
	z M75.2,19.7c-0.4-5.2-4.5-9.4-11-9.4c-7.2,0-11.9,5-11.9,13c0,8,4.7,12.9,12,12.9c6.2,0,10.5-3.7,11-9.2h-5.5
	c-0.5,2.8-2.5,4.5-5.4,4.5c-3.7,0-6.1-3-6.1-8.2c0-5.1,2.4-8.2,6.1-8.2c3.1,0,5,2,5.4,4.7H75.2z M89.6,36.2c7.3,0,12-4.8,12-12.9
	s-4.8-13-12-13s-12,5-12,13C77.6,31.3,82.3,36.2,89.6,36.2L89.6,36.2z M89.6,31.6c-3.7,0-6.1-3-6.1-8.3c0-5.2,2.4-8.3,6.1-8.3
	c3.7,0,6.1,3,6.1,8.3C95.7,28.6,93.3,31.6,89.6,31.6L89.6,31.6z M105.2,35.7h5.8V21.3c0-3.6,2.1-6,5.5-6c3.3,0,5,2,5,5.5v14.8h5.8
	v-16c0-5.8-3.1-9.2-8.6-9.2c-3.8,0-6.5,1.8-7.8,4.8h-0.1v-4.2h-5.6L105.2,35.7L105.2,35.7z M133.5,5v5.8h-3.6v4.5h3.6V29
	c0,4.8,2.1,6.8,7.5,6.8c1,0,2-0.1,3-0.2v-4.5c-0.6,0.1-1.1,0.1-1.7,0.1c-2.1,0-3-0.9-3-3V15.3h4.7v-4.5h-4.7V5L133.5,5L133.5,5z
	 M147.8,35.7h5.8V21.2c0-3.5,2-5.6,5.3-5.6c0.8,0,1.6,0.1,2.4,0.3v-5.2c-0.6-0.2-1.2-0.2-1.8-0.2c-2.9,0-5.1,1.8-5.9,4.8h-0.1v-4.3
	h-5.6L147.8,35.7L147.8,35.7z M173.9,14.9c3.3,0,5.6,2.5,5.7,6h-11.6C168.3,17.4,170.7,14.9,173.9,14.9L173.9,14.9z M179.7,28.3
	c-0.6,2-2.7,3.4-5.4,3.4c-3.8,0-6.3-2.7-6.3-6.7v-0.3h17.4v-1.9c0-7.5-4.4-12.5-11.5-12.5c-7.2,0-11.7,5.2-11.7,13
	c0,7.9,4.5,12.8,11.9,12.8c5.9,0,10.2-3.2,11-7.9L179.7,28.3L179.7,28.3z M209.4,36.2c7.3,0,12-4.8,12-12.9s-4.8-13-12-13
	s-12,5-12,13C197.4,31.3,202.1,36.2,209.4,36.2L209.4,36.2z M209.4,31.6c-3.7,0-6.1-3-6.1-8.3c0-5.2,2.4-8.3,6.1-8.3
	c3.7,0,6.1,3,6.1,8.3C215.5,28.6,213.1,31.6,209.4,31.6L209.4,31.6z M234.7,35.7h5.8V10.9h-5.8V35.7z M237.6,7.1
	c1.8,0,3.2-1.4,3.2-3.2c0,0,0,0,0,0c0-1.8-1.4-3.2-3.2-3.2c-1.8,0-3.2,1.4-3.2,3.2l0,0C234.4,5.7,235.8,7.1,237.6,7.1L237.6,7.1z
	 M245.9,1.9v33.8h6V24.5h6.8c6.8,0,11.6-4.6,11.6-11.3S265.7,1.9,259,1.9H245.9z M251.9,6.8h5.5c4.3,0,6.8,2.3,6.8,6.3
	c0,4.1-2.5,6.5-6.9,6.5h-5.5V6.8L251.9,6.8z M274.2,35.7h5.8V21.4c0-3.7,2.1-6.1,5.6-6.1c3.4,0,5.1,2.1,5.1,5.5v14.8h5.8v-16
	c0-5.7-3.2-9.3-8.7-9.3c-3.8,0-6.5,1.7-7.8,4.8H280V1.9h-5.8V35.7z M312.2,36.2c7.3,0,12-4.8,12-12.9s-4.8-13-12-13s-12,5-12,13
	C300.1,31.3,304.9,36.2,312.2,36.2L312.2,36.2z M312.2,31.6c-3.7,0-6.1-3-6.1-8.3c0-5.2,2.4-8.3,6.1-8.3c3.7,0,6.1,3,6.1,8.3
	C318.3,28.6,315.9,31.6,312.2,31.6L312.2,31.6z M327.8,35.7h5.8V21.3c0-3.6,2.1-6,5.5-6c3.3,0,5,2,5,5.5v14.8h5.8v-16
	c0-5.8-3.1-9.2-8.6-9.2c-3.8,0-6.5,1.8-7.8,4.8h-0.1v-4.2h-5.6L327.8,35.7L327.8,35.7z M365.2,14.9c3.3,0,5.6,2.5,5.7,6h-11.6
	C359.5,17.4,361.9,14.9,365.2,14.9L365.2,14.9z M370.9,28.3c-0.6,2-2.7,3.4-5.4,3.4c-3.8,0-6.3-2.7-6.3-6.7v-0.3h17.4v-1.9
	c0-7.5-4.4-12.5-11.5-12.5c-7.2,0-11.7,5.2-11.7,13c0,7.9,4.5,12.8,12,12.8c5.9,0,10.2-3.2,11-7.9L370.9,28.3L370.9,28.3z
	 M389.8,35.7h5.8V10.9h-5.8V35.7z M392.7,7.1c1.8,0,3.2-1.4,3.2-3.2c0,0,0,0,0,0c0-1.8-1.4-3.2-3.2-3.2c-1.8,0-3.2,1.4-3.2,3.2l0,0
	C389.5,5.7,390.9,7.1,392.7,7.1L392.7,7.1z M409.7,36.1c3.6,0,6.5-1.8,7.8-4.6h0.1v4.2h5.7V1.9h-5.8V15h-0.1
	c-1.3-2.8-4.1-4.6-7.7-4.6c-6.3,0-10.3,5-10.3,12.8C399.4,31.1,403.4,36.1,409.7,36.1L409.7,36.1z M411.4,15.2c3.7,0,6.1,3.2,6.1,8
	s-2.4,8-6.1,8c-3.8,0-6.1-3.1-6.1-8C405.3,18.4,407.7,15.2,411.4,15.2L411.4,15.2z M438.8,14.9c3.3,0,5.6,2.5,5.7,6h-11.6
	C433.2,17.4,435.5,14.9,438.8,14.9L438.8,14.9z M444.5,28.3c-0.6,2-2.7,3.4-5.4,3.4c-3.8,0-6.3-2.7-6.3-6.7v-0.3h17.4v-1.9
	c0-7.5-4.4-12.5-11.5-12.5c-7.2,0-11.7,5.2-11.7,13c0,7.9,4.5,12.8,11.9,12.8c5.9,0,10.2-3.2,11-7.9L444.5,28.3L444.5,28.3z
	 M462.9,31.7c-2.5,0-4.2-1.3-4.2-3.3s1.6-3.2,4.4-3.5l5.7-0.3v1.9C468.9,29.5,466.2,31.6,462.9,31.7L462.9,31.7z M461.2,36.1
	c3.2,0,6.3-1.7,7.7-4.3h0.1v4h5.6V18.6c0-5-4-8.2-10.2-8.2c-6.3,0-10.3,3.3-10.5,8h5.4c0.4-2.1,2.1-3.4,4.9-3.4
	c2.9,0,4.6,1.5,4.6,4.1v1.8l-6.6,0.4c-6,0.3-9.4,3-9.4,7.4C452.9,33.1,456.4,36.1,461.2,36.1L461.2,36.1z M479.3,35.7h5.8V1.9h-5.8
	V35.7z M513.1,10.4c-3.3-0.1-6.4,1.7-7.8,4.7h-0.1v-4.2h-5.7v33h5.8V31.6h0.1c1.4,2.8,4.2,4.5,7.8,4.5c6.2,0,10.2-4.9,10.2-12.8
	C523.4,15.3,519.4,10.4,513.1,10.4L513.1,10.4z M511.3,31.3c-3.6,0-6-3.2-6.1-8c0-4.8,2.4-8,6.1-8c3.8,0,6.1,3.2,6.1,8
	S515.1,31.3,511.3,31.3L511.3,31.3z M536.1,31.7c-2.5,0-4.2-1.3-4.2-3.3s1.6-3.2,4.4-3.5l5.7-0.3v1.9
	C542.1,29.5,539.4,31.6,536.1,31.7L536.1,31.7z M534.3,36.1c3.2,0,6.3-1.7,7.7-4.3h0.1v4h5.6V18.6c0-5-4-8.2-10.2-8.2
	c-6.3,0-10.3,3.3-10.6,8h5.4c0.4-2.1,2.1-3.4,4.9-3.4c2.9,0,4.6,1.5,4.6,4.1v1.8l-6.6,0.4c-6,0.3-9.4,3-9.4,7.4
	C526,33.1,529.5,36.1,534.3,36.1L534.3,36.1z M552.4,35.7h5.8V21.2c0-3.5,2-5.6,5.3-5.6c0.8,0,1.6,0.1,2.4,0.3v-5.2
	c-0.6-0.2-1.2-0.2-1.8-0.2c-2.9,0-5.1,1.8-6,4.8H558v-4.3h-5.6L552.4,35.7L552.4,35.7z M577.3,31.7c-2.5,0-4.2-1.3-4.2-3.3
	s1.6-3.2,4.4-3.5l5.7-0.3v1.9C583.2,29.5,580.6,31.6,577.3,31.7L577.3,31.7z M575.5,36.1c3.2,0,6.3-1.7,7.7-4.3h0.1v4h5.6V18.6
	c0-5-4-8.2-10.2-8.2c-6.3,0-10.3,3.3-10.5,8h5.4c0.4-2.1,2.1-3.4,4.9-3.4c2.9,0,4.6,1.5,4.6,4.1v1.8l-6.6,0.4c-6,0.3-9.4,3-9.4,7.4
	C567.2,33.1,570.7,36.1,575.5,36.1L575.5,36.1z M624.8,10.9h-6.1L613,30.3h-0.1l-5.8-19.4h-6.2l8.8,24.8h6.4L624.8,10.9z
	 M637.7,36.2c7.3,0,12-4.8,12-12.9s-4.8-13-12-13s-12,5-12,13C625.6,31.3,630.4,36.2,637.7,36.2L637.7,36.2z M637.7,31.6
	c-3.7,0-6.1-3-6.1-8.3c0-5.2,2.4-8.3,6.1-8.3c3.7,0,6.1,3,6.1,8.3C643.8,28.6,641.4,31.6,637.7,31.6L637.7,31.6z M675.2,19.7
	c-0.4-5.2-4.4-9.4-11-9.4c-7.2,0-11.9,5-11.9,13c0,8,4.7,12.9,12,12.9c6.2,0,10.5-3.7,11-9.2h-5.5c-0.5,2.8-2.5,4.5-5.4,4.5
	c-3.7,0-6.1-3-6.1-8.2c0-5.1,2.4-8.2,6-8.2c3.1,0,5,2,5.4,4.7H675.2L675.2,19.7z M689.2,14.9c3.4,0,5.6,2.5,5.7,6h-11.6
	C683.6,17.4,686,14.9,689.2,14.9L689.2,14.9z M695,28.3c-0.6,2-2.7,3.4-5.4,3.4c-3.8,0-6.3-2.7-6.3-6.7v-0.3h17.4v-1.9
	c0-7.5-4.4-12.5-11.5-12.5c-7.2,0-11.7,5.2-11.7,13c0,7.9,4.5,12.8,11.9,12.8c5.9,0,10.2-3.2,11-7.9L695,28.3L695,28.3z M691.5,0.2
	H687l-5.9,7.2h4.7l3.4-4.3h0.1l3.4,4.3h4.7L691.5,0.2z M708.4,36c1.9,0,3.4-1.5,3.4-3.4c0-1.9-1.5-3.4-3.4-3.4
	c-1.9,0-3.4,1.5-3.4,3.3C705,34.4,706.4,35.9,708.4,36C708.3,36,708.3,36,708.4,36L708.4,36z"/>
</svg>
