<?xml version="1.0" encoding="utf-8"?>
<!-- Generator: Adobe Illustrator 21.1.0, SVG Export Plug-In . SVG Version: 6.00 Build 0)  -->
<svg version="1.1" id="Layer_1" xmlns="http://www.w3.org/2000/svg" xmlns:xlink="http://www.w3.org/1999/xlink" x="0px" y="0px"
	 viewBox="0 0 774 60" style="enable-background:new 0 0 774 60;" xml:space="preserve">
<style type="text/css">
	.st0{fill:#111111;}
</style>
<path id="RX-S1_Headline" class="st0" d="M27.2,58.7V10.8h16.8V2.3H0.3v8.5h16.9v47.8L27.2,58.7L27.2,58.7z M79,17.3h-9.7v23.9
	c0,6-3.5,10-9.1,10c-5.5,0-8.4-3.2-8.4-9.1V17.3h-9.7V44c0,9.6,5.7,15.4,14.7,15.4c6.3,0,10.5-2.9,12.7-7.9h0.2v7.2H79L79,17.3
	L79,17.3z M101.2,59.4c6.1,0,10.8-3.1,13.1-7.7h0.2v7.1h9.5V2.3h-9.7v21.9H114c-2.2-4.6-6.9-7.7-12.8-7.7C90.8,16.6,84,24.9,84,37.9
	C84,51.1,90.8,59.4,101.2,59.4L101.2,59.4z M104.1,24.6c6.1,0,10.2,5.3,10.2,13.4c0,8.2-4,13.4-10.2,13.4C97.8,51.4,94,46.2,94,38
	C94,29.8,97.9,24.6,104.1,24.6L104.1,24.6z M149.3,59.5c12.2,0,20-8.1,20-21.5c0-13.4-8-21.6-20-21.6s-20,8.2-20,21.6
	C129.2,51.4,137.1,59.5,149.3,59.5L149.3,59.5z M149.3,51.8c-6.2,0-10.2-5-10.2-13.8c0-8.8,4-13.8,10.2-13.8c6.2,0,10.2,5,10.2,13.8
	C159.4,46.8,155.4,51.8,149.3,51.8L149.3,51.8z M179.5,59.1c3.1,0,5.6-2.5,5.6-5.6s-2.5-5.6-5.6-5.6s-5.6,2.5-5.6,5.6l0,0
	c0,3.1,2.4,5.6,5.5,5.6C179.4,59.1,179.5,59.1,179.5,59.1L179.5,59.1z M214.2,58.7V19.2h0.3l28,39.5h8.7V2.3h-9.7v39.5h-0.3
	l-28-39.5h-8.8v56.4H214.2z M273.1,52c-4.2,0-7-2.1-7-5.5c0-3.3,2.7-5.4,7.4-5.7l9.6-0.6v3.2C283.1,48.3,278.6,52,273.1,52L273.1,52
	z M270.2,59.4c5.3,0,10.5-2.8,12.9-7.3h0.2v6.6h9.4V30.2c0-8.3-6.7-13.8-17-13.8c-10.5,0-17.2,5.5-17.6,13.3h9
	c0.6-3.4,3.6-5.7,8.2-5.7c4.8,0,7.7,2.5,7.7,6.8v3l-10.9,0.6c-10.1,0.6-15.7,5-15.7,12.4C256.4,54.3,262.2,59.4,270.2,59.4
	L270.2,59.4z M314.1,58.7h9.7V33.3c0-5,3.3-8.6,8-8.6c4.5,0,7.3,2.9,7.3,7.5v26.5h9.5V33.1c0-5,3.2-8.4,7.9-8.4c4.8,0,7.4,2.9,7.4,8
	v26h9.7V30.3c0-8.3-5.4-13.8-13.5-13.8c-6,0-10.9,3.2-12.9,8.3H347c-1.5-5.3-5.7-8.3-11.6-8.3c-5.6,0-10,3.2-11.8,8h-0.2v-7.2h-9.3
	L314.1,58.7L314.1,58.7z M398,24c5.6,0,9.3,4.1,9.5,10h-19.3C388.6,28.1,392.6,24,398,24L398,24z M407.6,46.3
	c-1.1,3.4-4.5,5.7-9,5.7c-6.4,0-10.4-4.5-10.4-11.1v-0.6h28.9v-3.2c0-12.6-7.3-20.7-19.1-20.7c-12,0-19.5,8.6-19.5,21.7
	c0,13.2,7.5,21.4,19.9,21.4c9.8,0,17.1-5.4,18.3-13.2H407.6L407.6,46.3z M437.6,59.4c6.1,0,10.8-3.1,13.1-7.7h0.2v7.1h9.5V2.3h-9.7
	v21.9h-0.2c-2.2-4.6-6.9-7.7-12.8-7.7c-10.4,0-17.2,8.3-17.2,21.4C420.4,51.1,427.2,59.4,437.6,59.4L437.6,59.4z M440.6,24.6
	c6.1,0,10.2,5.3,10.2,13.4c0,8.2-4,13.4-10.2,13.4c-6.3,0-10.2-5.2-10.2-13.4C430.4,29.8,434.3,24.6,440.6,24.6L440.6,24.6z
	 M467.6,58.7h9.7V17.3h-9.7V58.7L467.6,58.7z M472.4,11c2.9,0,5.3-2.4,5.2-5.3c0-2.9-2.4-5.3-5.3-5.2c-2.9,0-5.2,2.4-5.2,5.3
	C467.1,8.7,469.5,11,472.4,11C472.4,11,472.4,11,472.4,11L472.4,11z M499.8,59.4c6.1,0,10.8-3.1,13.1-7.7h0.2v7.1h9.5V2.3h-9.7v21.9
	h-0.2c-2.2-4.6-6.9-7.7-12.8-7.7c-10.4,0-17.2,8.3-17.2,21.4C482.6,51.1,489.3,59.4,499.8,59.4L499.8,59.4z M502.7,24.6
	c6.1,0,10.2,5.3,10.2,13.4c0,8.2-4,13.4-10.2,13.4c-6.3,0-10.2-5.2-10.2-13.4C492.5,29.8,496.4,24.6,502.7,24.6L502.7,24.6z
	 M544.6,52c-4.2,0-7-2.1-7-5.5c0-3.3,2.7-5.4,7.4-5.7l9.6-0.6v3.2C554.5,48.3,550.1,52,544.6,52L544.6,52z M541.7,59.4
	c5.3,0,10.5-2.8,12.9-7.3h0.2v6.6h9.4V30.2c0-8.3-6.7-13.8-16.9-13.8c-10.6,0-17.2,5.5-17.6,13.3h9c0.6-3.4,3.6-5.7,8.2-5.7
	c4.8,0,7.7,2.5,7.7,6.8v3l-10.9,0.6c-10.1,0.6-15.7,5-15.7,12.4C527.9,54.3,533.7,59.4,541.7,59.4L541.7,59.4z M622.1,32
	c-0.7-8.7-7.4-15.6-18.4-15.6c-12,0-19.8,8.3-19.8,21.6c0,13.4,7.8,21.5,19.9,21.5c10.4,0,17.5-6.1,18.3-15.4h-9.2
	c-0.9,4.7-4.1,7.5-9,7.5c-6.2,0-10.2-5-10.2-13.7c0-8.5,3.9-13.7,10.1-13.7c5.2,0,8.3,3.3,9.1,7.7L622.1,32L622.1,32z M644.5,24
	c5.6,0,9.3,4.1,9.5,10h-19.3C635.1,28.1,639.1,24,644.5,24L644.5,24z M654.1,46.3c-1.1,3.4-4.5,5.7-9,5.7c-6.4,0-10.4-4.5-10.4-11.1
	v-0.6h28.9v-3.2c0-12.6-7.3-20.7-19.1-20.7c-11.9,0-19.5,8.6-19.5,21.7c0,13.2,7.5,21.4,19.9,21.4c9.8,0,17.1-5.4,18.3-13.2H654.1
	L654.1,46.3z M668.6,58.7h9.7V34.6c0-5.8,3.3-9.4,8.8-9.4c1.3,0,2.7,0.2,3.9,0.5V17c-1-0.2-2-0.4-3.1-0.4c-4.9,0-8.5,2.9-9.9,7.9
	H678v-7.2h-9.3L668.6,58.7L668.6,58.7z M697.6,7.6v9.7h-5.9v7.5h5.9v22.9c0,8,3.5,11.2,12.5,11.2c1.7,0,3.4-0.1,5-0.4v-7.4
	c-0.9,0.1-1.8,0.2-2.8,0.2c-3.4,0-5-1.6-5-5V24.8h7.8v-7.5h-7.8V7.6L697.6,7.6L697.6,7.6z M735.1,52c-4.2,0-7-2.1-7-5.5
	c0-3.3,2.7-5.4,7.4-5.7l9.6-0.6v3.2C745.1,48.3,740.7,52,735.1,52L735.1,52z M732.2,59.4c5.3,0,10.5-2.8,12.9-7.3h0.2v6.6h9.4V30.2
	c0-8.3-6.7-13.8-17-13.8c-10.5,0-17.1,5.5-17.6,13.3h9c0.6-3.4,3.6-5.7,8.2-5.7c4.8,0,7.7,2.5,7.7,6.8v3l-10.9,0.6
	c-10.1,0.6-15.7,5-15.7,12.4C718.4,54.3,724.2,59.4,732.2,59.4L732.2,59.4z M768.1,59.1c3.1,0,5.6-2.5,5.6-5.6s-2.5-5.6-5.6-5.6
	s-5.6,2.5-5.6,5.6l0,0c0,3.1,2.4,5.6,5.5,5.6C768,59.1,768,59.1,768.1,59.1L768.1,59.1z"/>
</svg>
