<?xml version="1.0" encoding="utf-8"?>
<!-- Generator: Adobe Illustrator 21.1.0, SVG Export Plug-In . SVG Version: 6.00 Build 0)  -->
<svg version="1.1" id="Layer_1" xmlns="http://www.w3.org/2000/svg" xmlns:xlink="http://www.w3.org/1999/xlink" x="0px" y="0px"
	 viewBox="0 0 294 74" style="enable-background:new 0 0 294 74;" xml:space="preserve">
<style type="text/css">
	.st0{fill:#111111;}
</style>
<path id="RX-S1_Headline" class="st0" d="M112.3,28.9V5h8.4V0.7H98.8V5h8.4v23.9H112.3z M138.8,8.2h-4.9v12c0,3-1.7,5-4.6,5
	c-2.7,0-4.2-1.6-4.2-4.6V8.2h-4.9v13.4c0,4.8,2.9,7.7,7.3,7.7c3.1,0,5.2-1.4,6.3-4h0.1v3.6h4.7L138.8,8.2L138.8,8.2z M150.5,29.2
	c3,0,5.4-1.5,6.5-3.9h0.1v3.5h4.8V0.7H157v11h-0.1c-1.2-2.4-3.7-3.9-6.4-3.8c-5.2,0-8.6,4.1-8.6,10.7
	C141.9,25.1,145.2,29.2,150.5,29.2L150.5,29.2z M151.9,11.8c3.1,0,5.1,2.6,5.1,6.7c0,4.1-2,6.7-5.1,6.7c-3.1,0-5.1-2.6-5.1-6.7
	C146.8,14.4,148.8,11.8,151.9,11.8L151.9,11.8z M175.1,29.3c6.1,0,10-4,10-10.8c0-6.7-4-10.8-10-10.8s-10,4.1-10,10.8
	C165.1,25.2,169,29.3,175.1,29.3L175.1,29.3z M175.1,25.4c-3.1,0-5.1-2.5-5.1-6.9c0-4.4,2-6.9,5.1-6.9c3.1,0,5.1,2.5,5.1,6.9
	C180.2,22.9,178.2,25.4,175.1,25.4L175.1,25.4z M190.8,29.1c1.6,0,2.8-1.3,2.8-2.8c0-1.6-1.3-2.8-2.8-2.8s-2.8,1.3-2.8,2.8l0,0
	C188,27.8,189.2,29.1,190.8,29.1C190.8,29.1,190.8,29.1,190.8,29.1L190.8,29.1z M5.1,72.9V53.1h0.2l14,19.8h4.3V44.7h-4.8v19.7h-0.2
	l-14-19.7H0.2v28.2H5.1z M35.1,69.5c-2.1,0-3.5-1.1-3.5-2.8c0-1.6,1.4-2.7,3.7-2.9l4.8-0.3v1.6C40.1,67.7,37.9,69.5,35.1,69.5
	L35.1,69.5z M33.7,73.2c2.7,0,5.3-1.4,6.4-3.6h0.1v3.3h4.7V58.6c0-4.2-3.3-6.9-8.5-6.9c-5.3,0-8.6,2.8-8.8,6.6h4.5
	c0.3-1.7,1.8-2.8,4.1-2.8c2.4,0,3.9,1.3,3.9,3.4v1.5l-5.5,0.3c-5,0.3-7.9,2.5-7.9,6.2C26.8,70.7,29.7,73.2,33.7,73.2L33.7,73.2z
	 M56.8,72.9h4.9V60.2c0-2.5,1.6-4.3,4-4.3c2.3,0,3.7,1.4,3.7,3.7v13.3h4.7V60.1c0-2.5,1.6-4.2,3.9-4.2c2.4,0,3.7,1.4,3.7,4v13h4.9
	V58.7c0-4.1-2.7-6.9-6.8-6.9c-3,0-5.5,1.6-6.4,4.2h-0.1c-0.8-2.7-2.9-4.2-5.8-4.2c-2.6-0.1-5,1.5-5.9,4h-0.1v-3.6h-4.7L56.8,72.9
	L56.8,72.9z M99.4,55.5c2.8,0,4.7,2.1,4.8,5h-9.7C94.7,57.6,96.7,55.5,99.4,55.5z M104.2,66.7c-0.5,1.7-2.2,2.9-4.5,2.9
	c-3.2,0-5.2-2.2-5.2-5.5v-0.3h14.5v-1.6c0-6.3-3.7-10.4-9.6-10.4c-6,0-9.8,4.3-9.8,10.9c0,6.6,3.8,10.7,10,10.7
	c4.9,0,8.5-2.7,9.2-6.6L104.2,66.7L104.2,66.7z M119.8,73.2c3,0,5.4-1.5,6.5-3.9h0.1v3.5h4.8V44.7h-4.9v11h-0.1
	c-1.2-2.4-3.7-3.9-6.4-3.8c-5.2,0-8.6,4.1-8.6,10.7C111.2,69.1,114.6,73.2,119.8,73.2L119.8,73.2z M121.2,55.8
	c3.1,0,5.1,2.6,5.1,6.7c0,4.1-2,6.7-5.1,6.7c-3.1,0-5.1-2.6-5.1-6.7C116.2,58.4,118.1,55.8,121.2,55.8L121.2,55.8z M135.4,72.9h4.9
	V52.2h-4.9V72.9z M137.8,49.1c1.5,0,2.6-1.2,2.6-2.7c0-1.5-1.2-2.6-2.7-2.6c-1.4,0-2.6,1.2-2.6,2.6
	C135.1,47.9,136.3,49.1,137.8,49.1C137.8,49.1,137.8,49.1,137.8,49.1L137.8,49.1z M152,73.2c3,0,5.4-1.5,6.5-3.9h0.1v3.5h4.8V44.7
	h-4.9v11h-0.1c-1.2-2.4-3.7-3.9-6.4-3.8c-5.2,0-8.6,4.1-8.6,10.7C143.5,69.1,146.8,73.2,152,73.2L152,73.2z M153.5,55.8
	c3.1,0,5.1,2.6,5.1,6.7c0,4.1-2,6.7-5.1,6.7c-3.1,0-5.1-2.6-5.1-6.7C148.4,58.4,150.4,55.8,153.5,55.8L153.5,55.8z M175.1,69.5
	c-2.1,0-3.5-1.1-3.5-2.8c0-1.6,1.4-2.7,3.7-2.9l4.8-0.3v1.6C180,67.7,177.8,69.5,175.1,69.5L175.1,69.5z M173.6,73.2
	c2.7,0,5.3-1.4,6.4-3.6h0.1v3.3h4.7V58.6c0-4.2-3.3-6.9-8.5-6.9c-5.3,0-8.6,2.8-8.8,6.6h4.5c0.3-1.7,1.8-2.8,4.1-2.8
	c2.4,0,3.9,1.3,3.9,3.4v1.5l-5.5,0.3c-5,0.3-7.9,2.5-7.9,6.2C166.7,70.7,169.6,73.2,173.6,73.2L173.6,73.2z M215,59.6
	c-0.3-4.4-3.7-7.8-9.2-7.8c-6,0-9.9,4.2-9.9,10.8c0,6.7,3.9,10.8,10,10.8c5.2,0,8.8-3,9.2-7.7h-4.6c-0.5,2.3-2,3.8-4.5,3.8
	c-3.1,0-5.1-2.5-5.1-6.8c0-4.3,2-6.8,5-6.8c2.6,0,4.1,1.7,4.5,3.9L215,59.6L215,59.6z M226.8,55.5c2.8,0,4.7,2.1,4.8,5h-9.7
	C222.1,57.6,224.1,55.5,226.8,55.5z M231.6,66.7c-0.5,1.7-2.2,2.9-4.5,2.9c-3.2,0-5.2-2.2-5.2-5.5v-0.3h14.5v-1.6
	c0-6.3-3.7-10.4-9.6-10.4c-6,0-9.8,4.3-9.8,10.9c0,6.6,3.8,10.7,10,10.7c4.9,0,8.5-2.7,9.2-6.6L231.6,66.7L231.6,66.7z M239.5,72.9
	h4.9V60.8c0-2.9,1.7-4.7,4.4-4.7c0.7,0,1.3,0.1,2,0.3V52c-0.5-0.1-1-0.2-1.5-0.2c-2.4,0-4.3,1.4-5,4h-0.1v-3.6h-4.7L239.5,72.9
	L239.5,72.9z M254.6,47.3v4.8h-3v3.8h3v11.4c0,4,1.8,5.6,6.2,5.6c0.8,0,1.7-0.1,2.5-0.2v-3.7c-0.5,0.1-0.9,0.1-1.4,0.1
	c-1.7,0-2.5-0.8-2.5-2.5V55.9h3.9v-3.8h-3.9v-4.8L254.6,47.3L254.6,47.3z M273.9,69.5c-2.1,0-3.5-1.1-3.5-2.8c0-1.6,1.3-2.7,3.7-2.9
	l4.8-0.3v1.6C278.9,67.7,276.7,69.5,273.9,69.5L273.9,69.5z M272.5,73.2c2.7,0,5.3-1.4,6.4-3.6h0.1v3.3h4.7V58.6
	c0-4.2-3.3-6.9-8.5-6.9c-5.3,0-8.6,2.8-8.8,6.6h4.5c0.3-1.7,1.8-2.8,4.1-2.8c2.4,0,3.9,1.3,3.9,3.4v1.5l-5.5,0.3
	c-5,0.3-7.9,2.5-7.9,6.2C265.6,70.7,268.5,73.2,272.5,73.2L272.5,73.2z M291,73.1c1.6,0,2.8-1.3,2.8-2.8c0-1.6-1.3-2.8-2.8-2.8
	c-1.6,0-2.8,1.3-2.8,2.8C288.2,71.8,289.4,73.1,291,73.1C291,73.1,291,73.1,291,73.1L291,73.1z"/>
</svg>
