<?xml version="1.0" encoding="utf-8"?>
<!-- Generator: Adobe Illustrator 21.1.0, SVG Export Plug-In . SVG Version: 6.00 Build 0)  -->
<svg version="1.1" id="Layer_1" xmlns="http://www.w3.org/2000/svg" xmlns:xlink="http://www.w3.org/1999/xlink" x="0px" y="0px"
	 viewBox="0 0 628 48" style="enable-background:new 0 0 628 48;" xml:space="preserve">
<style type="text/css">
	.st0{fill:#111111;}
</style>
<path id="RX-S1_Headline" class="st0" d="M22.2,46.9V8.7h13.5V1.9h-35v6.8h13.5v38.3H22.2z M64,13.8h-7.8V33c0,4.8-2.8,8-7.3,8
	c-4.4,0-6.7-2.6-6.7-7.3V13.8h-7.8v21.4c0,7.7,4.6,12.3,11.7,12.3c5,0,8.4-2.3,10.1-6.3h0.2v5.8H64L64,13.8L64,13.8z M82.1,47.5
	c4.8,0,8.7-2.5,10.5-6.2h0.1v5.7h7.6V1.9h-7.8v17.5h-0.2c-1.8-3.7-5.5-6.1-10.2-6.1c-8.3,0-13.8,6.6-13.8,17.1
	C68.4,40.9,73.8,47.5,82.1,47.5L82.1,47.5z M84.4,19.7c4.9,0,8.1,4.2,8.1,10.7c0,6.6-3.2,10.7-8.1,10.7c-5,0-8.1-4.1-8.1-10.7
	C76.3,23.8,79.4,19.7,84.4,19.7L84.4,19.7z M120.9,47.6c9.7,0,16-6.5,16-17.2c0-10.7-6.4-17.2-16-17.2s-16,6.6-16,17.2
	C104.9,41.1,111.2,47.6,120.9,47.6L120.9,47.6z M120.9,41.4c-4.9,0-8.1-4-8.1-11.1c0-7,3.2-11.1,8.1-11.1c4.9,0,8.1,4,8.1,11.1
	C129.1,37.4,125.9,41.4,120.9,41.4L120.9,41.4z M145.5,47.3c2.5,0,4.5-2,4.5-4.5s-2-4.5-4.5-4.5s-4.5,2-4.5,4.5
	c0,2.4,1.9,4.5,4.4,4.5C145.5,47.3,145.5,47.3,145.5,47.3L145.5,47.3z M174,46.9V15.3h0.3l22.4,31.6h6.9V1.9h-7.8v31.6h-0.3
	L173.2,1.9h-7v45.1H174z M221.6,41.6c-3.4,0-5.6-1.7-5.6-4.4c0-2.6,2.2-4.3,5.9-4.6l7.7-0.5v2.5C229.5,38.7,226,41.6,221.6,41.6
	L221.6,41.6z M219.2,47.5c4.2,0,8.4-2.2,10.3-5.8h0.2v5.3h7.5V24.1c0-6.7-5.3-11-13.6-11c-8.4,0-13.7,4.4-14.1,10.6h7.2
	c0.5-2.8,2.8-4.5,6.5-4.5c3.8,0,6.2,2,6.2,5.5v2.4l-8.8,0.5c-8.1,0.5-12.6,4-12.6,9.9C208.2,43.4,212.8,47.5,219.2,47.5L219.2,47.5z
	 M255.1,46.9h7.8V26.7c0-4,2.6-6.9,6.4-6.9c3.6,0,5.9,2.3,5.9,6v21.2h7.6V26.5c0-4,2.6-6.7,6.3-6.7c3.8,0,5.9,2.3,5.9,6.4v20.8h7.8
	V24.2c0-6.6-4.3-11-10.8-11c-4.8,0-8.7,2.6-10.3,6.7h-0.2c-1.2-4.2-4.6-6.7-9.2-6.7c-4.5,0-8,2.5-9.4,6.4h-0.2v-5.8h-7.5L255.1,46.9
	L255.1,46.9z M322.7,19.2c4.5,0,7.5,3.3,7.6,8h-15.5C315.1,22.5,318.3,19.2,322.7,19.2L322.7,19.2z M330.3,37
	c-0.8,2.8-3.6,4.6-7.2,4.6c-5.1,0-8.3-3.6-8.3-8.9v-0.5h23.2v-2.5c0-10.1-5.9-16.6-15.3-16.6c-9.6,0-15.6,6.9-15.6,17.4
	c0,10.6,6,17.1,15.9,17.1c7.8,0,13.7-4.3,14.7-10.6H330.3L330.3,37z M354.7,47.5c4.8,0,8.7-2.5,10.5-6.2h0.1v5.7h7.6V1.9h-7.8v17.5
	H365c-1.8-3.7-5.5-6.1-10.2-6.1c-8.3,0-13.8,6.6-13.8,17.1C341,40.9,346.4,47.5,354.7,47.5L354.7,47.5z M357,19.7
	c4.9,0,8.1,4.2,8.1,10.7c0,6.6-3.2,10.7-8.1,10.7c-5,0-8.1-4.1-8.1-10.7C348.9,23.8,352,19.7,357,19.7L357,19.7z M379.1,46.9h7.8
	V13.8h-7.8V46.9z M382.9,8.8c2.3,0,4.2-1.9,4.2-4.2c0-2.3-1.9-4.2-4.2-4.2c-2.3,0-4.2,1.9-4.2,4.2C378.7,6.9,380.6,8.8,382.9,8.8
	L382.9,8.8z M405.2,47.5c4.8,0,8.7-2.5,10.5-6.2h0.1v5.7h7.6V1.9h-7.8v17.5h-0.2c-1.8-3.7-5.5-6.1-10.2-6.1
	c-8.3,0-13.8,6.6-13.8,17.1C391.4,40.9,396.8,47.5,405.2,47.5L405.2,47.5z M407.5,19.7c4.9,0,8.1,4.2,8.1,10.7
	c0,6.6-3.2,10.7-8.1,10.7c-5,0-8.1-4.1-8.1-10.7C399.4,23.8,402.5,19.7,407.5,19.7L407.5,19.7z M441.4,41.6c-3.4,0-5.6-1.7-5.6-4.4
	c0-2.6,2.2-4.3,5.9-4.6l7.7-0.5v2.5C449.4,38.7,445.8,41.6,441.4,41.6L441.4,41.6z M439.1,47.5c4.2,0,8.4-2.2,10.3-5.8h0.2v5.3h7.5
	V24.1c0-6.7-5.3-11-13.6-11c-8.4,0-13.7,4.4-14.1,10.6h7.2c0.5-2.8,2.8-4.5,6.5-4.5c3.8,0,6.2,2,6.2,5.5v2.4l-8.8,0.5
	c-8.1,0.5-12.6,4-12.6,9.9C428,43.4,432.7,47.5,439.1,47.5L439.1,47.5z M504.2,25.6c-0.5-7-5.9-12.5-14.7-12.5
	c-9.6,0-15.9,6.7-15.9,17.2c0,10.8,6.2,17.2,15.9,17.2c8.3,0,14-4.9,14.7-12.3h-7.3c-0.7,3.8-3.3,6-7.2,6c-4.9,0-8.1-4-8.1-10.9
	c0-6.8,3.2-10.9,8.1-10.9c4.2,0,6.6,2.7,7.2,6.2H504.2z M522.5,19.2c4.5,0,7.5,3.3,7.6,8h-15.5C515,22.5,518.2,19.2,522.5,19.2
	L522.5,19.2z M530.2,37c-0.8,2.8-3.6,4.6-7.2,4.6c-5.1,0-8.3-3.6-8.3-8.9v-0.5h23.2v-2.5c0-10.1-5.9-16.6-15.3-16.6
	c-9.6,0-15.6,6.9-15.6,17.4c0,10.6,6,17.1,15.9,17.1c7.8,0,13.7-4.3,14.7-10.6H530.2L530.2,37z M542.2,46.9h7.8V27.7
	c0-4.7,2.7-7.5,7.1-7.5c1.1,0,2.1,0.1,3.2,0.4v-7c-0.8-0.2-1.6-0.3-2.4-0.3c-3.9,0-6.8,2.3-7.9,6.3h-0.2v-5.8h-7.5L542.2,46.9
	L542.2,46.9z M565.8,6.1v7.8H561v6h4.8v18.3c0,6.4,2.8,9,10,9c1.4,0,2.7-0.1,4-0.3v-5.9c-0.7,0.1-1.5,0.2-2.2,0.2c-2.8,0-4-1.2-4-4
	V19.8h6.2v-6h-6.2V6.1H565.8z M596.2,41.6c-3.4,0-5.6-1.7-5.6-4.4c0-2.6,2.2-4.3,5.9-4.6l7.7-0.5v2.5
	C604.1,38.7,600.6,41.6,596.2,41.6L596.2,41.6z M593.8,47.5c4.2,0,8.4-2.2,10.3-5.8h0.2v5.3h7.5V24.1c0-6.7-5.3-11-13.6-11
	c-8.4,0-13.7,4.4-14.1,10.6h7.2c0.5-2.8,2.8-4.5,6.5-4.5c3.8,0,6.2,2,6.2,5.5v2.4l-8.8,0.5c-8.1,0.5-12.6,4-12.6,9.9
	C582.8,43.4,587.4,47.5,593.8,47.5L593.8,47.5z M622.9,47.3c2.5,0,4.5-2,4.5-4.5s-2-4.5-4.5-4.5s-4.5,2-4.5,4.5
	c0,2.4,1.9,4.5,4.4,4.5C622.8,47.3,622.9,47.3,622.9,47.3L622.9,47.3z"/>
</svg>
