<?xml version="1.0" encoding="utf-8"?>
<!-- Generator: Adobe Illustrator 21.1.0, SVG Export Plug-In . SVG Version: 6.00 Build 0)  -->
<svg version="1.1" id="Layer_1" xmlns="http://www.w3.org/2000/svg" xmlns:xlink="http://www.w3.org/1999/xlink" x="0px" y="0px"
	 viewBox="0 0 88 28" style="enable-background:new 0 0 88 28;" xml:space="preserve">
<style type="text/css">
	.st0{fill:#666666;}
</style>
<path id="_50_S2_Sub_1_large_1x.svg" class="st0" d="M1.8,0.6v19.7H9c5.9,0,9.4-3.7,9.4-9.9S14.9,0.6,9,0.6H1.8z M5.3,3.6h3.3
	c3.9,0,6.2,2.4,6.2,6.8c0,4.5-2.2,6.9-6.2,6.9H5.3L5.3,3.6L5.3,3.6z M27.3,8.2c2,0,3.3,1.4,3.3,3.5h-6.8C24,9.7,25.3,8.2,27.3,8.2z
	 M30.6,16c-0.4,1.2-1.6,2-3.2,2c-2.2,0-3.7-1.6-3.7-3.9v-0.2h10.1v-1.1c0-4.4-2.6-7.3-6.7-7.3c-4.2,0-6.8,3-6.8,7.6
	c0,4.6,2.6,7.5,7,7.5c3.4,0,6-1.9,6.4-4.6H30.6L30.6,16z M36.1,10c0,2.1,1.4,3.5,4.2,4.1l2.4,0.5c1.5,0.3,2,0.8,2,1.7
	c0,1.1-1,1.8-2.7,1.8c-1.7,0-2.7-0.7-3-2.1h-3.3c0.3,2.8,2.5,4.6,6.3,4.6c3.6,0,6.1-1.8,6.1-4.6c0-2.1-1.2-3.3-4.2-3.9l-2.4-0.5
	c-1.5-0.3-2.1-0.9-2.1-1.8c0-1.1,1-1.8,2.5-1.8c1.6,0,2.5,0.8,2.7,2.1h3.2c-0.1-2.7-2.3-4.6-5.8-4.6C38.4,5.6,36.1,7.4,36.1,10
	L36.1,10z M50.5,20.4h3.4V5.9h-3.4V20.4z M52.2,3.7c1,0,1.8-0.8,1.8-1.9S53.2,0,52.2,0c-1,0-1.8,0.8-1.8,1.8
	C50.3,2.9,51.2,3.7,52.2,3.7C52.2,3.7,52.2,3.7,52.2,3.7L52.2,3.7z M63.4,17.7c-2.1,0-3.5-1.7-3.5-4.6c0-2.8,1.4-4.7,3.5-4.7
	c2.2,0,3.6,1.8,3.6,4.7C67,15.9,65.5,17.7,63.4,17.7L63.4,17.7z M63.4,25.8c4.2,0,7-2.2,7-5.7V5.9H67v2.5H67
	c-0.9-1.7-2.6-2.8-4.6-2.7c-3.7,0-6,2.9-6,7.4c0,4.5,2.4,7.3,6,7.3c1.9,0.1,3.6-0.9,4.5-2.6H67v2.4c0,1.8-1.3,3.1-3.5,3.1
	c-1.6,0-2.9-0.8-3.2-1.9h-3.4C57.2,24,59.8,25.8,63.4,25.8L63.4,25.8z M73.3,20.4h3.4V12c0-2.1,1.2-3.5,3.2-3.5
	c1.9,0,2.9,1.2,2.9,3.2v8.7h3.4V11c0-3.3-1.8-5.4-5-5.4c-2.2,0-3.8,1-4.6,2.8h-0.1V5.9h-3.3V20.4z"/>
</svg>
