<?xml version="1.0" encoding="utf-8"?>
<!-- Generator: Adobe Illustrator 21.1.0, SVG Export Plug-In . SVG Version: 6.00 Build 0)  -->
<svg version="1.1" id="Layer_1" xmlns="http://www.w3.org/2000/svg" xmlns:xlink="http://www.w3.org/1999/xlink" x="0px" y="0px"
	 viewBox="0 0 64 20" style="enable-background:new 0 0 64 20;" xml:space="preserve">
<style type="text/css">
	.st0{fill:#666666;}
</style>
<path id="_50_S2_Sub_1_medium_1x.svg" class="st0" d="M0.1,0.5v14.8h5.4c4.4,0,7-2.7,7-7.4s-2.6-7.4-7-7.4H0.1z M2.8,2.7h2.5
	c3,0,4.6,1.8,4.6,5.1c0,3.4-1.6,5.2-4.6,5.2H2.8V2.7L2.8,2.7z M19.3,6.2c1.5,0,2.4,1.1,2.5,2.6h-5.1C16.8,7.3,17.9,6.2,19.3,6.2
	L19.3,6.2z M21.8,12c-0.3,0.9-1.2,1.5-2.4,1.5c-1.7,0-2.7-1.2-2.7-2.9v-0.2h7.6V9.6c0-3.3-1.9-5.4-5-5.4c-3.1,0-5.1,2.3-5.1,5.7
	c0,3.5,2,5.6,5.2,5.6c2.6,0,4.5-1.4,4.8-3.5H21.8L21.8,12z M26,7.5c0,1.6,1,2.6,3.1,3.1l1.8,0.4c1.1,0.3,1.5,0.6,1.5,1.3
	c0,0.8-0.8,1.3-2,1.3c-1.3,0-2-0.5-2.2-1.6h-2.5c0.2,2.1,1.9,3.5,4.7,3.5c2.7,0,4.6-1.4,4.6-3.4c0-1.6-0.9-2.4-3.1-2.9l-1.8-0.4
	c-1.1-0.3-1.6-0.7-1.6-1.3c0-0.8,0.8-1.3,1.9-1.3c1.2,0,1.9,0.6,2,1.6h2.4c-0.1-2.1-1.7-3.5-4.4-3.5C27.7,4.2,26,5.5,26,7.5L26,7.5z
	 M36.9,15.3h2.6V4.4h-2.6V15.3z M38.2,2.8c0.8,0,1.4-0.6,1.4-1.4c0-0.8-0.6-1.4-1.4-1.4c-0.8,0-1.4,0.6-1.4,1.4
	C36.8,2.2,37.4,2.8,38.2,2.8C38.2,2.8,38.2,2.8,38.2,2.8L38.2,2.8z M46.7,13.3C45,13.3,44,12,44,9.8c0-2.1,1-3.5,2.6-3.5
	c1.6,0,2.7,1.4,2.7,3.5C49.3,11.9,48.3,13.3,46.7,13.3L46.7,13.3z M46.6,19.4c3.2,0,5.2-1.7,5.2-4.3V4.4h-2.5v1.9h0
	c-0.6-1.3-2-2.1-3.4-2.1c-2.8,0-4.5,2.1-4.5,5.6c0,3.4,1.8,5.5,4.5,5.5c1.4,0.1,2.7-0.7,3.4-1.9h0.1v1.8c0,1.4-1,2.3-2.6,2.3
	c-1.2,0-2.1-0.6-2.4-1.4h-2.5C42,18,44,19.4,46.6,19.4L46.6,19.4z M54.2,15.3h2.6V9c0-1.6,0.9-2.6,2.4-2.6c1.5,0,2.2,0.9,2.2,2.4
	v6.5h2.6v-7c0-2.5-1.4-4.1-3.8-4.1c-1.5-0.1-2.8,0.7-3.4,2.1h-0.1V4.4h-2.4L54.2,15.3L54.2,15.3z"/>
</svg>
