<?xml version="1.0" encoding="utf-8"?>
<!-- Generator: Adobe Illustrator 21.1.0, SVG Export Plug-In . SVG Version: 6.00 Build 0)  -->
<svg version="1.1" id="Layer_1" xmlns="http://www.w3.org/2000/svg" xmlns:xlink="http://www.w3.org/1999/xlink" x="0px" y="0px"
	 viewBox="0 0 450 30" style="enable-background:new 0 0 450 30;" xml:space="preserve">
<style type="text/css">
	.st0{fill:#111111;}
</style>
<path id="RX-S2_Title_1" class="st0" d="M0,1.2v28.2h10.3c8.4,0,13.4-5.2,13.4-14.2s-5-14-13.4-14H0z M5,5.4h4.7
	c5.6,0,8.8,3.5,8.8,9.8c0,6.4-3.1,9.9-8.8,9.9H5L5,5.4L5,5.4z M36.1,12c2.8,0,4.7,2.1,4.8,5h-9.7C31.4,14.1,33.4,12,36.1,12L36.1,12
	z M40.9,23.2c-0.5,1.7-2.2,2.9-4.5,2.9c-3.2,0-5.2-2.2-5.2-5.6v-0.3h14.5v-1.6c0-6.3-3.7-10.4-9.6-10.4c-6,0-9.8,4.3-9.8,10.9
	c0,6.6,3.8,10.7,10,10.7c4.9,0,8.5-2.7,9.2-6.6H40.9L40.9,23.2z M48.9,29.3h4.9V8.6h-4.9V29.3z M51.3,5.5c1.5,0,2.6-1.2,2.6-2.7
	c0-1.5-1.2-2.6-2.7-2.6c-1.5,0-2.6,1.2-2.6,2.6C48.7,4.3,49.8,5.5,51.3,5.5C51.3,5.5,51.3,5.5,51.3,5.5L51.3,5.5z M65.9,21.9
	l4.3,7.4h5.3L69,18.9l6.7-10.2h-5.3l-4.1,7.3h-0.1l-4.2-7.3h-5.5L63,19l-6.7,10.3h5.2L65.9,21.9L65.9,21.9L65.9,21.9z M86.5,12
	c2.8,0,4.7,2.1,4.8,5h-9.7C81.8,14.1,83.8,12,86.5,12L86.5,12z M91.3,23.2c-0.5,1.7-2.2,2.9-4.5,2.9c-3.2,0-5.2-2.2-5.2-5.6v-0.3H96
	v-1.6c0-6.3-3.7-10.4-9.5-10.4c-6,0-9.8,4.3-9.8,10.9c0,6.6,3.8,10.7,10,10.7c4.9,0,8.5-2.7,9.2-6.6H91.3L91.3,23.2z M106.8,14.6
	c0,3.1,2,5,6,5.9l3.4,0.8c2.2,0.5,2.9,1.2,2.9,2.4c0,1.5-1.5,2.5-3.8,2.5c-2.5,0-3.9-1-4.2-3h-4.8c0.4,4,3.6,6.6,9,6.6
	c5.1,0,8.7-2.6,8.7-6.5c0-3-1.7-4.7-6-5.6l-3.4-0.8c-2.2-0.5-3-1.3-3-2.5c0-1.5,1.4-2.5,3.6-2.5c2.2,0,3.6,1.2,3.8,3.1h4.5
	c-0.1-3.9-3.3-6.6-8.4-6.6C110.1,8.2,106.8,10.8,106.8,14.6L106.8,14.6z M136,12c2.8,0,4.7,2.1,4.8,5h-9.7
	C131.3,14.1,133.3,12,136,12L136,12z M140.8,23.2c-0.5,1.7-2.2,2.9-4.5,2.9c-3.2,0-5.2-2.2-5.2-5.6v-0.3h14.5v-1.6
	c0-6.3-3.7-10.4-9.5-10.4c-6,0-9.8,4.3-9.8,10.9c0,6.6,3.8,10.7,10,10.7c4.9,0,8.5-2.7,9.2-6.6H140.8L140.8,23.2z M167,8.6h-4.9v12
	c0,3-1.7,5-4.5,5c-2.7,0-4.2-1.6-4.2-4.6V8.6h-4.9V22c0,4.8,2.9,7.7,7.3,7.7c3.1,0,5.2-1.4,6.3-4h0.1v3.6h4.7L167,8.6L167,8.6z
	 M186.7,29.7c3,0,5.4-1.5,6.5-3.9h0.1v3.5h4.8V1.2h-4.9v11h-0.1c-1.2-2.4-3.7-3.9-6.4-3.8c-5.2,0-8.6,4.1-8.6,10.7
	C178.1,25.6,181.5,29.7,186.7,29.7L186.7,29.7z M188.2,12.3c3.1,0,5.1,2.6,5.1,6.7c0,4.1-2,6.7-5.1,6.7c-3.1,0-5.1-2.6-5.1-6.7
	C183.1,14.9,185.1,12.3,188.2,12.3L188.2,12.3z M202.3,29.3h4.9V8.6h-4.9V29.3z M204.7,5.5c1.5,0,2.6-1.2,2.6-2.7
	c0-1.5-1.2-2.6-2.7-2.6c-1.5,0-2.6,1.2-2.6,2.6C202,4.3,203.2,5.5,204.7,5.5C204.7,5.5,204.7,5.5,204.7,5.5L204.7,5.5z M218.8,26
	c-2.1,0-3.5-1.1-3.5-2.8c0-1.6,1.4-2.7,3.7-2.8l4.8-0.3v1.6C223.8,24.2,221.6,26,218.8,26L218.8,26z M217.3,29.7
	c2.7,0,5.3-1.4,6.4-3.6h0.1v3.3h4.7V15.1c0-4.2-3.3-6.9-8.5-6.9c-5.3,0-8.6,2.8-8.8,6.6h4.5c0.3-1.7,1.8-2.8,4.1-2.8
	c2.4,0,3.9,1.2,3.9,3.4v1.5l-5.5,0.3c-5,0.3-7.9,2.5-7.9,6.2C210.4,27.2,213.3,29.7,217.3,29.7L217.3,29.7z M240.5,29.3h4.9V16.7
	c0-2.5,1.6-4.3,4-4.3c2.3,0,3.7,1.4,3.7,3.7v13.3h4.7V16.6c0-2.5,1.6-4.2,3.9-4.2c2.4,0,3.7,1.4,3.7,4v13h4.9V15.1
	c0-4.1-2.7-6.9-6.8-6.9c-3,0-5.5,1.6-6.4,4.2h-0.1c-0.8-2.7-2.9-4.2-5.8-4.2c-2.6-0.1-5,1.5-5.9,4h-0.1V8.6h-4.7L240.5,29.3
	L240.5,29.3z M281.7,26c-2.1,0-3.5-1.1-3.5-2.8c0-1.6,1.4-2.7,3.7-2.8l4.8-0.3v1.6C286.7,24.2,284.4,26,281.7,26L281.7,26z
	 M280.2,29.7c2.7,0,5.3-1.4,6.4-3.6h0.1v3.3h4.7V15.1c0-4.2-3.3-6.9-8.5-6.9c-5.3,0-8.6,2.8-8.8,6.6h4.5c0.3-1.7,1.8-2.8,4.1-2.8
	c2.4,0,3.9,1.2,3.9,3.4v1.5l-5.5,0.3c-5,0.3-7.9,2.5-7.9,6.2C273.3,27.2,276.2,29.7,280.2,29.7L280.2,29.7z M295.5,29.3h4.9V8.6
	h-4.9L295.5,29.3L295.5,29.3z M297.9,5.5c1.5,0,2.6-1.2,2.6-2.7c0-1.5-1.2-2.6-2.7-2.6c-1.5,0-2.6,1.2-2.6,2.6
	C295.2,4.3,296.4,5.5,297.9,5.5C297.9,5.5,297.9,5.5,297.9,5.5L297.9,5.5z M304,14.6c0,3.1,2,5,6,5.9l3.4,0.8
	c2.2,0.5,2.9,1.2,2.9,2.4c0,1.5-1.5,2.5-3.8,2.5c-2.5,0-3.9-1-4.2-3h-4.8c0.4,4,3.6,6.6,9,6.6c5.1,0,8.7-2.6,8.7-6.5
	c0-3-1.7-4.7-6-5.6l-3.4-0.8c-2.2-0.5-3-1.3-3-2.5c0-1.5,1.4-2.5,3.6-2.5c2.2,0,3.6,1.2,3.8,3.1h4.5c-0.1-3.9-3.3-6.6-8.4-6.6
	C307.4,8.2,304.1,10.8,304,14.6L304,14.6z M343.9,29.7c5.2,0,8.5-4.1,8.5-10.7s-3.3-10.7-8.5-10.7c-2.7-0.1-5.3,1.4-6.5,3.9h-0.1
	v-11h-4.9v28.2h4.8v-3.5h0.1C338.5,28.2,340.9,29.7,343.9,29.7L343.9,29.7z M342.4,12.3c3.1,0,5.1,2.6,5.1,6.7
	c0,4.1-1.9,6.7-5.1,6.7c-3,0-5.1-2.6-5.1-6.7C337.3,15,339.4,12.3,342.4,12.3L342.4,12.3z M364.7,29.8c6.1,0,10-4,10-10.8
	c0-6.7-4-10.8-10-10.8s-10,4.1-10,10.8C354.7,25.7,358.7,29.8,364.7,29.8L364.7,29.8z M364.7,25.9c-3.1,0-5.1-2.5-5.1-6.9
	c0-4.4,2-6.9,5.1-6.9c3.1,0,5.1,2.5,5.1,6.9C369.8,23.4,367.8,25.9,364.7,25.9L364.7,25.9z M377.9,29.3h4.9v-12c0-3,1.8-5,4.6-5
	c2.8,0,4.1,1.6,4.1,4.6v12.4h4.9V16c0-4.8-2.6-7.7-7.2-7.7c-3.2,0-5.4,1.5-6.5,3.9h-0.1V8.6h-4.7L377.9,29.3L377.9,29.3z
	 M400.3,29.3h4.9V8.6h-4.9V29.3z M402.7,5.5c1.5,0,2.6-1.2,2.6-2.7c0-1.5-1.2-2.6-2.7-2.6c-1.4,0-2.6,1.2-2.6,2.6
	C400.1,4.3,401.3,5.5,402.7,5.5C402.7,5.5,402.7,5.5,402.7,5.5L402.7,5.5z M410.6,3.8v4.8h-3v3.8h3v11.4c0,4,1.8,5.6,6.2,5.6
	c0.8,0,1.7,0,2.5-0.2v-3.7c-0.5,0.1-0.9,0.1-1.4,0.1c-1.7,0-2.5-0.8-2.5-2.5V12.4h3.9V8.6h-3.9V3.8H410.6L410.6,3.8z M431.5,29.8
	c6.1,0,10-4,10-10.8c0-6.7-4-10.8-10-10.8s-10,4.1-10,10.8C421.4,25.7,425.4,29.8,431.5,29.8L431.5,29.8z M431.5,25.9
	c-3.1,0-5.1-2.5-5.1-6.9c0-4.4,2-6.9,5.1-6.9c3.1,0,5.1,2.5,5.1,6.9C436.5,23.4,434.5,25.9,431.5,25.9L431.5,25.9z M447.2,29.6
	c1.6,0,2.8-1.3,2.8-2.8c0-1.6-1.3-2.8-2.8-2.8s-2.8,1.3-2.8,2.8l0,0C444.4,28.3,445.6,29.5,447.2,29.6
	C447.1,29.6,447.2,29.6,447.2,29.6L447.2,29.6z"/>
</svg>
