<?xml version="1.0" encoding="utf-8"?>
<!-- Generator: Adobe Illustrator 21.1.0, SVG Export Plug-In . SVG Version: 6.00 Build 0)  -->
<svg version="1.1" id="Layer_1" xmlns="http://www.w3.org/2000/svg" xmlns:xlink="http://www.w3.org/1999/xlink" x="0px" y="0px"
	 viewBox="0 0 186 60" style="enable-background:new 0 0 186 60;" xml:space="preserve">
<style type="text/css">
	.st0{fill:#111111;}
</style>
<path id="RX-S2_Title_1" class="st0" d="M1,0.9v22.5h8.2c6.8,0,10.7-4.2,10.7-11.3S16,0.9,9.2,0.9L1,0.9L1,0.9z M5,4.3h3.8
	c4.5,0,7,2.8,7,7.8c0,5.1-2.5,7.9-7,7.9H5V4.3z M30,9.6c2.2,0,3.7,1.6,3.8,4h-7.7C26.3,11.3,27.8,9.6,30,9.6L30,9.6z M33.9,18.5
	c-0.4,1.4-1.8,2.3-3.6,2.3c-2.5,0-4.2-1.8-4.2-4.4v-0.2h11.6v-1.3c0-5-2.9-8.3-7.6-8.3c-4.8,0-7.8,3.5-7.8,8.7c0,5.3,3,8.5,8,8.5
	c3.9,0,6.8-2.2,7.3-5.3H33.9z M40.4,23.5h3.9V6.9h-3.9V23.5L40.4,23.5z M42.3,4.4c1.2,0,2.1-1,2.1-2.1c0-1.2-1-2.1-2.1-2.1
	c-1.2,0-2.1,1-2.1,2.1C40.2,3.5,41.1,4.4,42.3,4.4C42.3,4.4,42.3,4.4,42.3,4.4L42.3,4.4z M54.1,17.5l3.4,5.9h4.2l-5.3-8.4l5.3-8.2
	h-4.3l-3.3,5.8h-0.1l-3.3-5.8h-4.4l5.3,8.3l-5.3,8.3h4.1L54.1,17.5L54.1,17.5L54.1,17.5z M70.7,9.6c2.2,0,3.7,1.6,3.8,4h-7.7
	C67,11.3,68.5,9.6,70.7,9.6L70.7,9.6z M74.6,18.5c-0.4,1.4-1.8,2.3-3.6,2.3c-2.5,0-4.2-1.8-4.2-4.4v-0.2h11.6v-1.3
	c0-5-2.9-8.3-7.6-8.3c-4.8,0-7.8,3.5-7.8,8.7c0,5.3,3,8.5,8,8.5c3.9,0,6.8-2.2,7.3-5.3H74.6z M87.2,11.7c0,2.5,1.6,4,4.8,4.7
	l2.8,0.6c1.7,0.4,2.3,1,2.3,2c0,1.2-1.2,2-3.1,2c-2,0-3.1-0.8-3.4-2.4h-3.8c0.3,3.2,2.9,5.3,7.2,5.3c4.1,0,6.9-2.1,6.9-5.2
	c0-2.4-1.3-3.7-4.8-4.5l-2.8-0.6c-1.7-0.4-2.4-1-2.4-2c0-1.2,1.1-2,2.9-2c1.8,0,2.9,1,3.1,2.5h3.6c-0.1-3.1-2.7-5.3-6.7-5.3
	C89.9,6.6,87.2,8.6,87.2,11.7L87.2,11.7z M110.7,9.6c2.2,0,3.7,1.6,3.8,4h-7.7C106.9,11.3,108.5,9.6,110.7,9.6L110.7,9.6z
	 M114.5,18.5c-0.4,1.4-1.8,2.3-3.6,2.3c-2.5,0-4.2-1.8-4.2-4.4v-0.2h11.6v-1.3c0-5-2.9-8.3-7.6-8.3c-4.8,0-7.8,3.5-7.8,8.7
	c0,5.3,3,8.5,8,8.5c3.9,0,6.8-2.2,7.3-5.3H114.5L114.5,18.5z M135.6,6.9h-3.9v9.6c0,2.4-1.4,4-3.6,4c-2.2,0-3.3-1.3-3.3-3.7V6.9
	h-3.9v10.7c0,3.8,2.3,6.2,5.9,6.2c2.5,0,4.2-1.2,5.1-3.2h0.1v2.9h3.8L135.6,6.9L135.6,6.9z M151.7,23.7c2.2,0.1,4.2-1.1,5.2-3.1h0.1
	v2.8h3.8V0.9h-3.9v8.8h-0.1c-1-1.9-3-3.1-5.1-3.1c-4.2,0-6.9,3.3-6.9,8.5C144.8,20.5,147.5,23.7,151.7,23.7L151.7,23.7z M152.8,9.8
	c2.5,0,4.1,2.1,4.1,5.4c0,3.3-1.6,5.4-4.1,5.4c-2.5,0-4.1-2.1-4.1-5.4C148.8,11.9,150.3,9.8,152.8,9.8L152.8,9.8z M164.2,23.5h3.9
	V6.9h-3.9V23.5L164.2,23.5z M166.2,4.4c1.2,0,2.1-1,2.1-2.1c0-1.2-1-2.1-2.1-2.1c-1.2,0-2.1,1-2.1,2.1C164.1,3.5,165,4.4,166.2,4.4
	C166.2,4.4,166.2,4.4,166.2,4.4L166.2,4.4z M177.6,20.8c-1.7,0-2.8-0.9-2.8-2.2c0-1.3,1.1-2.2,3-2.3l3.8-0.2v1.3
	C181.5,19.3,179.8,20.8,177.6,20.8L177.6,20.8z M176.4,23.7c2.1,0,4.1-1.1,5.2-2.9h0.1v2.6h3.8V12.1c0-3.3-2.7-5.5-6.8-5.5
	c-4.2,0-6.9,2.2-7,5.3h3.6c0.2-1.4,1.4-2.3,3.3-2.3c1.9,0,3.1,1,3.1,2.7v1.2l-4.4,0.2c-4,0.2-6.3,2-6.3,5
	C170.9,21.7,173.2,23.7,176.4,23.7L176.4,23.7z M0.6,59.5h3.9V49.3c0-2,1.3-3.5,3.2-3.5c1.8,0,2.9,1.1,2.9,3v10.6h3.8V49.2
	c0-2,1.3-3.4,3.2-3.4c1.9,0,3,1.2,3,3.2v10.4h3.9V48.1c0-3.3-2.1-5.5-5.4-5.5c-2.2-0.1-4.3,1.2-5.2,3.3h-0.1
	c-0.6-2.1-2.3-3.3-4.6-3.3c-2.1-0.1-4,1.2-4.7,3.2H4.3v-2.9H0.6L0.6,59.5L0.6,59.5z M33.7,56.8c-1.7,0-2.8-0.9-2.8-2.2
	c0-1.3,1.1-2.2,3-2.3l3.8-0.2v1.3C37.7,55.3,35.9,56.8,33.7,56.8L33.7,56.8z M32.5,59.7c2.1,0,4.1-1.1,5.2-2.9h0.1v2.6h3.8V48.1
	c0-3.3-2.7-5.5-6.8-5.5c-4.2,0-6.9,2.2-7,5.3h3.6c0.2-1.4,1.4-2.3,3.3-2.3c1.9,0,3.1,1,3.1,2.7v1.2l-4.4,0.2c-4,0.2-6.3,2-6.3,5
	C27,57.7,29.3,59.7,32.5,59.7L32.5,59.7z M44.9,59.5h3.9V42.9h-3.9V59.5z M46.8,40.4c1.2,0,2.1-1,2.1-2.1c0-1.2-1-2.1-2.1-2.1
	c-1.2,0-2.1,1-2.1,2.1C44.7,39.5,45.6,40.4,46.8,40.4L46.8,40.4z M51.9,47.7c0,2.5,1.6,4,4.8,4.7l2.8,0.6c1.7,0.4,2.3,1,2.3,2
	c0,1.2-1.2,2-3.1,2c-2,0-3.1-0.8-3.4-2.4h-3.8c0.3,3.2,2.9,5.3,7.2,5.3c4.1,0,6.9-2.1,6.9-5.2c0-2.4-1.3-3.7-4.8-4.5l-2.8-0.6
	c-1.7-0.4-2.4-1-2.4-2c0-1.2,1.1-2,2.9-2c1.8,0,2.9,1,3.1,2.5h3.6c-0.1-3.1-2.7-5.3-6.7-5.3C54.5,42.6,51.8,44.6,51.9,47.7
	L51.9,47.7z M84,59.7c4.2,0,6.8-3.2,6.8-8.5s-2.7-8.6-6.8-8.6c-2.2-0.1-4.2,1.2-5.2,3.1h-0.1v-8.8h-3.9v22.5h3.8v-2.8h0.1
	C79.7,58.6,81.8,59.8,84,59.7L84,59.7z M82.8,45.8c2.5,0,4,2.1,4,5.4c0,3.3-1.5,5.4-4,5.4c-2.4,0-4.1-2.1-4.1-5.4
	C78.7,48,80.4,45.8,82.8,45.8L82.8,45.8z M100.8,59.8c4.9,0,8-3.2,8-8.6c0-5.4-3.2-8.6-8-8.6s-8,3.3-8,8.6
	C92.8,56.6,95.9,59.8,100.8,59.8L100.8,59.8z M100.8,56.7c-2.5,0-4.1-2-4.1-5.5c0-3.5,1.6-5.5,4.1-5.5c2.5,0,4.1,2,4.1,5.5
	C104.8,54.7,103.2,56.7,100.8,56.7L100.8,56.7z M111.4,59.5h3.9v-9.6c0-2.4,1.4-4,3.7-4c2.2,0,3.3,1.3,3.3,3.7v9.9h3.9V48.8
	c0-3.8-2.1-6.2-5.7-6.2c-2.5,0-4.3,1.2-5.2,3.2h-0.1v-2.8h-3.7V59.5z M129.5,59.5h3.9V42.9h-3.9L129.5,59.5L129.5,59.5z M131.4,40.4
	c1.2,0,2.1-1,2.1-2.1c0-1.2-1-2.1-2.1-2.1c-1.2,0-2.1,1-2.1,2.1C129.3,39.5,130.3,40.4,131.4,40.4L131.4,40.4z M137.9,39v3.9h-2.4v3
	h2.4v9.2c0,3.2,1.4,4.5,5,4.5c0.7,0,1.4,0,2-0.2v-3c-0.4,0.1-0.7,0.1-1.1,0.1c-1.4,0-2-0.6-2-2v-8.6h3.1v-3h-3.1V39L137.9,39
	L137.9,39z M154.7,59.8c4.9,0,8-3.2,8-8.6c0-5.4-3.2-8.6-8-8.6s-8,3.3-8,8.6C146.7,56.6,149.8,59.8,154.7,59.8L154.7,59.8z
	 M154.7,56.7c-2.5,0-4.1-2-4.1-5.5c0-3.5,1.6-5.5,4.1-5.5c2.5,0,4.1,2,4.1,5.5C158.7,54.7,157.1,56.7,154.7,56.7L154.7,56.7z
	 M167.4,59.6c1.2,0,2.2-1,2.2-2.2s-1-2.2-2.2-2.2s-2.2,1-2.2,2.2C165.1,58.6,166.1,59.6,167.4,59.6
	C167.3,59.7,167.4,59.7,167.4,59.6L167.4,59.6z"/>
</svg>
