<?xml version="1.0" encoding="utf-8"?>
<!-- Generator: Adobe Illustrator 21.1.0, SVG Export Plug-In . SVG Version: 6.00 Build 0)  -->
<svg version="1.1" id="Layer_1" xmlns="http://www.w3.org/2000/svg" xmlns:xlink="http://www.w3.org/1999/xlink" x="0px" y="0px"
	 viewBox="0 0 706 48" style="enable-background:new 0 0 706 48;" xml:space="preserve">
<style type="text/css">
	.st0{fill:#111111;}
</style>
<path id="RX-S2_Title_1" class="st0" d="M0.2,1.9v45.1h16.5c13.5,0,21.4-8.4,21.4-22.7s-8-22.4-21.4-22.4H0.2z M8.3,8.7h7.6
	c9,0,14.1,5.6,14.1,15.7c0,10.3-5,15.8-14.1,15.8H8.3V8.7z M57.4,19.2c4.5,0,7.5,3.3,7.6,8H49.6C49.9,22.5,53.1,19.2,57.4,19.2z
	 M65.1,37c-0.8,2.8-3.6,4.6-7.2,4.6c-5.1,0-8.3-3.6-8.3-8.9v-0.5h23.2v-2.5c0-10.1-5.9-16.6-15.3-16.6c-9.6,0-15.6,6.9-15.6,17.4
	c0,10.6,6,17.1,15.9,17.1c7.8,0,13.7-4.3,14.7-10.6H65.1z M77.3,46.9h7.8V13.8h-7.8V46.9z M81.1,8.8c2.3,0,4.2-1.9,4.2-4.2
	c0-2.3-1.9-4.2-4.2-4.2c-2.3,0-4.2,1.9-4.2,4.2C76.9,6.9,78.8,8.8,81.1,8.8C81.1,8.8,81.1,8.8,81.1,8.8L81.1,8.8z M104,35.1
	l6.9,11.9h8.5l-10.5-16.8l10.7-16.4h-8.5l-6.6,11.6h-0.2l-6.7-11.6h-8.8l10.6,16.6L88.7,46.9h8.3l6.9-11.9H104L104,35.1z
	 M136.3,19.2c4.5,0,7.5,3.3,7.6,8h-15.5C128.8,22.5,132,19.2,136.3,19.2L136.3,19.2z M144,37c-0.8,2.8-3.6,4.6-7.2,4.6
	c-5.1,0-8.3-3.6-8.3-8.9v-0.5h23.2v-2.5c0-10.1-5.9-16.6-15.3-16.6c-9.6,0-15.6,6.9-15.6,17.4c0,10.6,6,17.1,15.9,17.1
	c7.8,0,13.7-4.3,14.7-10.6H144L144,37z M167.6,23.3c0,4.9,3.2,8,9.5,9.4l5.5,1.2c3.5,0.8,4.7,1.9,4.7,3.9c0,2.5-2.3,4-6.1,4
	c-3.9,0-6.2-1.6-6.8-4.8h-7.7c0.6,6.4,5.8,10.5,14.4,10.5c8.1,0,13.9-4.2,13.9-10.5c0-4.8-2.7-7.5-9.5-9l-5.5-1.2
	c-3.5-0.8-4.8-2.1-4.8-4c0-2.4,2.3-4.1,5.7-4.1c3.6,0,5.8,1.9,6.1,4.9h7.2c-0.2-6.3-5.3-10.6-13.4-10.6
	C172.9,13.1,167.6,17.3,167.6,23.3L167.6,23.3z M213.8,19.2c4.5,0,7.5,3.3,7.6,8h-15.5C206.2,22.5,209.4,19.2,213.8,19.2L213.8,19.2
	z M221.4,37c-0.8,2.8-3.6,4.6-7.2,4.6c-5.1,0-8.3-3.6-8.3-8.9v-0.5H229v-2.5c0-10.1-5.9-16.6-15.3-16.6c-9.6,0-15.6,6.9-15.6,17.4
	c0,10.6,6,17.1,15.9,17.1c7.8,0,13.7-4.3,14.7-10.6H221.4z M262.8,13.8H255V33c0,4.8-2.8,8-7.3,8c-4.4,0-6.7-2.6-6.7-7.3V13.8h-7.8
	v21.4c0,7.7,4.6,12.3,11.8,12.3c5,0,8.4-2.3,10.1-6.3h0.2v5.8h7.5L262.8,13.8L262.8,13.8z M293.2,47.5c4.8,0,8.7-2.5,10.5-6.2h0.1
	v5.7h7.6V1.9h-7.8v17.5h-0.2c-1.8-3.7-5.5-6.1-10.2-6.1c-8.3,0-13.8,6.6-13.8,17.1C279.4,40.9,284.8,47.5,293.2,47.5z M295.5,19.7
	c4.9,0,8.1,4.2,8.1,10.7c0,6.6-3.2,10.7-8.1,10.7c-5,0-8.1-4.1-8.1-10.7C287.4,23.8,290.5,19.7,295.5,19.7z M317.6,46.9h7.8V13.8
	h-7.8V46.9z M321.4,8.8c2.3,0,4.2-1.9,4.2-4.2c0-2.3-1.9-4.2-4.2-4.2c-2.3,0-4.2,1.9-4.2,4.2C317.2,6.9,319.1,8.8,321.4,8.8
	L321.4,8.8L321.4,8.8z M343.4,41.6c-3.4,0-5.6-1.7-5.6-4.4c0-2.6,2.2-4.3,5.9-4.6l7.7-0.5v2.5C351.3,38.7,347.8,41.6,343.4,41.6
	L343.4,41.6z M341,47.5c4.2,0,8.4-2.2,10.3-5.8h0.2v5.3h7.5V24.1c0-6.7-5.3-11-13.6-11c-8.4,0-13.7,4.4-14.1,10.6h7.2
	c0.5-2.8,2.8-4.5,6.5-4.5c3.8,0,6.2,2,6.2,5.5v2.4l-8.8,0.5c-8.1,0.5-12.6,4-12.6,9.9C330,43.4,334.6,47.5,341,47.5z M376.9,46.9
	h7.8V26.7c0-4,2.6-6.9,6.4-6.9c3.6,0,5.9,2.3,5.9,6v21.2h7.6V26.5c0-4,2.6-6.7,6.3-6.7c3.8,0,5.9,2.3,5.9,6.4V47h7.8V24.2
	c0-6.6-4.3-11-10.8-11c-4.8,0-8.7,2.6-10.3,6.7h-0.2c-1.2-4.2-4.6-6.7-9.2-6.7c-4.5,0-8,2.5-9.4,6.4h-0.2v-5.8h-7.5V46.9z
	 M442.3,41.6c-3.4,0-5.6-1.7-5.6-4.4c0-2.6,2.2-4.3,5.9-4.6l7.7-0.5v2.5C450.2,38.7,446.7,41.6,442.3,41.6L442.3,41.6z M439.9,47.5
	c4.2,0,8.4-2.2,10.3-5.8h0.2v5.3h7.5V24.1c0-6.7-5.3-11-13.6-11c-8.4,0-13.7,4.4-14.1,10.6h7.2c0.5-2.8,2.8-4.5,6.5-4.5
	c3.8,0,6.2,2,6.2,5.5v2.4l-8.8,0.5c-8.1,0.5-12.6,4-12.6,9.9C428.9,43.4,433.5,47.5,439.9,47.5z M463.8,46.9h7.8V13.8h-7.8V46.9z
	 M467.6,8.8c2.3,0,4.2-1.9,4.2-4.2c0-2.3-1.9-4.2-4.2-4.2c-2.3,0-4.2,1.9-4.2,4.2C463.4,6.9,465.3,8.8,467.6,8.8
	C467.6,8.8,467.6,8.8,467.6,8.8L467.6,8.8z M476.9,23.3c0,4.9,3.2,8,9.5,9.4l5.5,1.2c3.5,0.8,4.7,1.9,4.7,3.9c0,2.5-2.3,4-6.1,4
	c-3.9,0-6.2-1.6-6.8-4.8h-7.7c0.6,6.4,5.8,10.5,14.4,10.5c8.1,0,13.9-4.2,13.9-10.5c0-4.8-2.7-7.5-9.5-9l-5.5-1.2
	c-3.5-0.8-4.8-2.1-4.8-4c0-2.4,2.3-4.1,5.7-4.1c3.6,0,5.8,1.9,6.1,4.9h7.2c-0.2-6.3-5.3-10.6-13.4-10.6
	C482.2,13.1,476.9,17.3,476.9,23.3z M539.5,47.5c8.4,0,13.7-6.5,13.7-17.1s-5.3-17.1-13.7-17.1c-4.7,0-8.5,2.4-10.3,6.2H529V1.9
	h-7.8v45.1h7.6v-5.7h0.2C530.9,45.1,534.6,47.5,539.5,47.5L539.5,47.5z M537.1,19.7c5,0,8.1,4.2,8.1,10.7c0,6.6-3.1,10.7-8.1,10.7
	c-4.8,0-8.2-4.2-8.2-10.7C528.9,23.9,532.3,19.7,537.1,19.7L537.1,19.7z M572.3,47.6c9.7,0,16-6.5,16-17.2c0-10.7-6.4-17.2-16-17.2
	s-16,6.6-16,17.2C556.2,41.1,562.6,47.6,572.3,47.6L572.3,47.6z M572.3,41.4c-4.9,0-8.1-4-8.1-11.1c0-7,3.2-11.1,8.1-11.1
	c4.9,0,8.1,4,8.1,11.1C580.4,37.4,577.2,41.4,572.3,41.4L572.3,41.4z M592.7,46.9h7.8V27.8c0-4.8,2.8-8,7.3-8c4.4,0,6.6,2.6,6.6,7.3
	v19.8h7.8V25.5c0-7.7-4.2-12.3-11.5-12.3c-5.1,0-8.6,2.4-10.4,6.3h-0.2v-5.7h-7.5V46.9z M628.1,46.9h7.8V13.8h-7.8V46.9z M631.9,8.8
	c2.3,0,4.2-1.9,4.2-4.2c0-2.3-1.9-4.2-4.2-4.2c-2.3,0-4.2,1.9-4.2,4.2C627.7,6.9,629.6,8.8,631.9,8.8C631.9,8.8,631.9,8.8,631.9,8.8
	L631.9,8.8z M644,6.1v7.8h-4.8v6h4.8v18.3c0,6.4,2.8,9,10,9c1.4,0,2.7-0.1,4-0.3v-5.9c-0.7,0.1-1.5,0.2-2.2,0.2c-2.8,0-4-1.2-4-4
	V19.8h6.2v-6h-6.2V6.1H644z M676.7,47.6c9.7,0,16-6.5,16-17.2c0-10.7-6.4-17.2-16-17.2s-16,6.6-16,17.2
	C660.7,41.1,667,47.6,676.7,47.6L676.7,47.6z M676.7,41.4c-4.9,0-8.1-4-8.1-11.1c0-7,3.2-11.1,8.1-11.1c4.9,0,8.1,4,8.1,11.1
	C684.8,37.4,681.7,41.4,676.7,41.4L676.7,41.4z M701.3,47.3c2.5,0,4.5-2,4.5-4.5s-2-4.5-4.5-4.5s-4.5,2-4.5,4.5l0,0
	c0,2.4,1.9,4.5,4.4,4.5C701.2,47.3,701.3,47.3,701.3,47.3L701.3,47.3z"/>
</svg>
