<?xml version="1.0" encoding="utf-8"?>
<!-- Generator: Adobe Illustrator 21.1.0, SVG Export Plug-In . SVG Version: 6.00 Build 0)  -->
<svg version="1.1" id="Layer_1" xmlns="http://www.w3.org/2000/svg" xmlns:xlink="http://www.w3.org/1999/xlink" x="0px" y="0px"
	 viewBox="0 0 116 22" style="enable-background:new 0 0 116 22;" xml:space="preserve">
<style type="text/css">
	.st0{fill:#666666;}
</style>
<path id="RX-S3_Sub_2" class="st0" d="M12,21.2l6.9-19.7h-3.8l-5,15.9H10L5,1.5H1.1L8,21.2H12L12,21.2z M20.7,21.2h3.4V6.7h-3.4
	V21.2z M23.6,4.7l3.2-4.2h-3.2l-2.4,4.2H23.6z M32.5,21.4c1.9,0.1,3.7-1,4.6-2.7h0.1v2.5h3.3V1.5h-3.4v7.7H37
	c-0.8-1.7-2.6-2.7-4.5-2.7c-3.7,0-6,2.9-6,7.5C26.5,18.6,28.9,21.4,32.5,21.4L32.5,21.4z M33.6,9.3c2.2,0,3.6,1.8,3.6,4.7
	c0,2.9-1.4,4.7-3.6,4.7c-2.2,0-3.6-1.8-3.6-4.7C30,11.1,31.4,9.3,33.6,9.3L33.6,9.3z M49.8,9.1c2,0,3.3,1.4,3.3,3.5h-6.8
	C46.5,10.5,47.9,9.1,49.8,9.1L49.8,9.1z M53.2,16.9c-0.4,1.2-1.6,2-3.2,2c-2.2,0-3.7-1.6-3.7-3.9v-0.2h10.1v-1.1
	c0-4.4-2.6-7.3-6.7-7.3c-4.2,0-6.8,3-6.8,7.6c0,4.6,2.6,7.5,7,7.5c3.4,0,6-1.9,6.4-4.6L53.2,16.9L53.2,16.9z M65.3,21.5
	c4.3,0,7-2.8,7-7.5c0-4.7-2.8-7.5-7-7.5s-7,2.9-7,7.5C58.3,18.7,61,21.5,65.3,21.5L65.3,21.5z M65.3,18.8c-2.2,0-3.6-1.8-3.6-4.8
	c0-3.1,1.4-4.8,3.6-4.8c2.2,0,3.6,1.8,3.6,4.8C68.8,17.1,67.4,18.8,65.3,18.8L65.3,18.8z M89.9,21.2h3.4v-3.8H96v-2.9h-2.7v-13h-5
	c-4.3,6.2-6.5,9.7-8.2,12.9v3h9.8V21.2z M83.3,14.5c2-3.6,4.3-7.1,6.7-10.4H90v10.5L83.3,14.5L83.3,14.5z M102.2,21.2v-6.3l1.9-2.3
	l6.4,8.6h4.3l-8.2-11l7.6-8.8h-4.1l-7.9,9.2h-0.1V1.5h-3.5v19.7L102.2,21.2L102.2,21.2z"/>
</svg>
