<?xml version="1.0" encoding="utf-8"?>
<!-- Generator: Adobe Illustrator 21.1.0, SVG Export Plug-In . SVG Version: 6.00 Build 0)  -->
<svg version="1.1" id="Layer_1" xmlns="http://www.w3.org/2000/svg" xmlns:xlink="http://www.w3.org/1999/xlink" x="0px" y="0px"
	 viewBox="0 0 96 22" style="enable-background:new 0 0 96 22;" xml:space="preserve">
<style type="text/css">
	.st0{fill:#666666;}
</style>
<path id="RX-S3_Sub_1" class="st0" d="M9.2,21.5c4.7,0,7.9-2.6,8.5-6.8h-3.5c-0.5,2.4-2.4,3.8-5,3.8c-3.4,0-5.6-2.8-5.6-7.2
	c0-4.4,2.2-7.2,5.6-7.2c2.5-0.1,4.6,1.7,5,4.1h3.5C17.3,4,13.8,1.1,9.2,1.1C3.6,1.1,0.1,5,0.1,11.3C0.1,17.7,3.6,21.5,9.2,21.5z
	 M25.5,18.9c-1.5,0-2.5-0.8-2.5-1.9c0-1.1,0.9-1.9,2.6-2l3.3-0.2v1.1C29,17.6,27.4,18.9,25.5,18.9z M24.5,21.4
	c1.9,0,3.6-0.9,4.5-2.5h0.1v2.3h3.3v-10c0-2.9-2.3-4.8-5.9-4.8c-3.7,0-6,1.9-6.2,4.6h3.2c0.2-1.2,1.2-2,2.9-2c1.7,0,2.7,0.9,2.7,2.4
	v1l-3.8,0.2c-3.5,0.2-5.5,1.8-5.5,4.3C19.6,19.7,21.7,21.4,24.5,21.4z M27.6,0.5H25l-3.4,4.2h2.7l2-2.5h0.1l2,2.5H31L27.6,0.5z
	 M35.3,21.2h3.4v-8.9c0-1.8,1.2-3,2.8-3c1.6,0,2.6,1,2.6,2.6v9.3h3.3v-9c0-1.7,1.1-2.9,2.8-2.9c1.7,0,2.6,1,2.6,2.8v9.1h3.4v-9.9
	c0-2.9-1.9-4.8-4.7-4.8c-2-0.1-3.8,1.1-4.5,2.9h-0.1c-0.5-1.9-2-2.9-4.1-2.9c-1.8-0.1-3.5,1.1-4.1,2.8h-0.1V6.7h-3.3L35.3,21.2
	L35.3,21.2z M65.3,9c2,0,3.3,1.4,3.3,3.5h-6.8C62,10.5,63.4,9,65.3,9z M68.6,16.9c-0.4,1.2-1.6,2-3.2,2c-2.2,0-3.7-1.6-3.7-3.9v-0.2
	h10.1v-1.1c0-4.4-2.6-7.3-6.7-7.3c-4.2,0-6.8,3-6.8,7.6c0,4.6,2.6,7.5,7,7.5c3.4,0,6-1.9,6.4-4.6H68.6L68.6,16.9z M74.3,21.2h3.4
	v-8.4c0-2,1.2-3.3,3.1-3.3c0.5,0,0.9,0.1,1.4,0.2V6.6c-0.4-0.1-0.7-0.1-1.1-0.1c-1.7,0-3,1-3.5,2.8h-0.1V6.7h-3.3L74.3,21.2
	L74.3,21.2z M89.1,18.9c-1.5,0-2.5-0.8-2.5-1.9c0-1.1,0.9-1.9,2.6-2l3.3-0.2v1.1C92.6,17.6,91,18.9,89.1,18.9L89.1,18.9z M88.1,21.4
	c1.9,0,3.6-0.9,4.5-2.5h0.1v2.3h3.3v-10c0-2.9-2.3-4.8-5.9-4.8c-3.7,0-6,1.9-6.2,4.6H87c0.2-1.2,1.2-2,2.9-2c1.7,0,2.7,0.9,2.7,2.4
	v1l-3.8,0.2c-3.5,0.2-5.5,1.8-5.5,4.3C83.3,19.7,85.3,21.4,88.1,21.4L88.1,21.4z"/>
</svg>
