<?xml version="1.0" encoding="utf-8"?>
<!-- Generator: Adobe Illustrator 21.1.0, SVG Export Plug-In . SVG Version: 6.00 Build 0)  -->
<svg version="1.1" id="Layer_1" xmlns="http://www.w3.org/2000/svg" xmlns:xlink="http://www.w3.org/1999/xlink" x="0px" y="0px"
	 viewBox="0 0 86 16" style="enable-background:new 0 0 86 16;" xml:space="preserve">
<style type="text/css">
	.st0{fill:#666666;}
</style>
<path id="RX-S3_Sub_2" class="st0" d="M8.2,15.7l5.1-14.8h-2.8l-3.8,12H6.7L3,0.9H0.1l5.1,14.8H8.2L8.2,15.7z M14.8,15.7h2.6V4.8
	h-2.6L14.8,15.7L14.8,15.7z M17,3.3l2.4-3.2h-2.4l-1.8,3.2H17L17,3.3z M23.8,15.8c1.4,0.1,2.8-0.7,3.4-2h0v1.9h2.5V0.9h-2.6v5.7
	h-0.1c-0.6-1.3-1.9-2.1-3.4-2c-2.7,0-4.5,2.2-4.5,5.6C19.3,13.7,21,15.8,23.8,15.8L23.8,15.8z M24.5,6.7c1.6,0,2.7,1.4,2.7,3.5
	c0,2.2-1.1,3.5-2.7,3.5c-1.6,0-2.7-1.4-2.7-3.5C21.9,8.1,22.9,6.7,24.5,6.7L24.5,6.7z M36.8,6.5c1.5,0,2.4,1.1,2.5,2.6h-5.1
	C34.3,7.6,35.4,6.5,36.8,6.5L36.8,6.5z M39.3,12.4c-0.3,0.9-1.2,1.5-2.4,1.5c-1.7,0-2.7-1.2-2.7-2.9v-0.2h7.6V10
	c0-3.3-1.9-5.4-5-5.4c-3.1,0-5.1,2.3-5.1,5.7c0,3.5,2,5.6,5.2,5.6c2.6,0,4.5-1.4,4.8-3.5L39.3,12.4L39.3,12.4z M48.5,15.9
	c3.2,0,5.3-2.1,5.3-5.6c0-3.5-2.1-5.7-5.3-5.7s-5.3,2.2-5.3,5.7C43.2,13.8,45.3,15.9,48.5,15.9L48.5,15.9z M48.5,13.9
	c-1.6,0-2.7-1.3-2.7-3.6c0-2.3,1.1-3.6,2.7-3.6c1.6,0,2.7,1.3,2.7,3.6C51.2,12.5,50.1,13.9,48.5,13.9L48.5,13.9z M67.2,15.7h2.5
	v-2.8h2v-2.2h-2V0.9h-3.8c-3.2,4.7-4.9,7.3-6.1,9.7v2.3h7.4V15.7z M62.2,10.6c1.5-2.7,3.2-5.3,5-7.8h0v7.9L62.2,10.6L62.2,10.6
	L62.2,10.6z M76.5,15.7v-4.8l1.5-1.7l4.8,6.5H86l-6.1-8.2l5.7-6.6h-3l-5.9,6.9h-0.1V0.9h-2.6v14.8H76.5L76.5,15.7z"/>
</svg>
