<?xml version="1.0" encoding="utf-8"?>
<!-- Generator: Adobe Illustrator 21.1.0, SVG Export Plug-In . SVG Version: 6.00 Build 0)  -->
<svg version="1.1" id="Layer_1" xmlns="http://www.w3.org/2000/svg" xmlns:xlink="http://www.w3.org/1999/xlink" x="0px" y="0px"
	 viewBox="0 0 108 16" style="enable-background:new 0 0 108 16;" xml:space="preserve">
<style type="text/css">
	.st0{fill:#666666;}
</style>
<path id="RX-S3_Sub_3" class="st0" d="M15.6,15.5V0.7h-3.1L8,12H7.9L3.4,0.7H0.3v14.8h2.4V5h0.1L7,15.5h1.8L13.1,5h0.1v10.5H15.6
	L15.6,15.5z M23,15.7c3.2,0,5.3-2.1,5.3-5.6c0-3.5-2.1-5.7-5.3-5.7s-5.3,2.2-5.3,5.7C17.7,13.6,19.8,15.7,23,15.7z M23,13.7
	c-1.6,0-2.7-1.3-2.7-3.6c0-2.3,1.1-3.6,2.7-3.6c1.6,0,2.7,1.3,2.7,3.6C25.6,12.4,24.6,13.7,23,13.7z M34.2,15.7
	c1.4,0.1,2.8-0.7,3.4-2h0v1.9h2.5V0.7h-2.6v5.8h-0.1c-0.6-1.3-1.9-2.1-3.4-2c-2.7,0-4.5,2.2-4.5,5.6C29.6,13.5,31.4,15.7,34.2,15.7z
	 M34.9,6.6c1.6,0,2.7,1.4,2.7,3.5c0,2.2-1.1,3.5-2.7,3.5c-1.7,0-2.7-1.4-2.7-3.5C32.3,7.9,33.3,6.6,34.9,6.6z M47.3,15.7
	c3.2,0,5.3-2.1,5.3-5.6c0-3.5-2.1-5.7-5.3-5.7s-5.3,2.2-5.3,5.7C42.1,13.6,44.1,15.7,47.3,15.7L47.3,15.7z M47.3,13.7
	c-1.6,0-2.7-1.3-2.7-3.6c0-2.3,1.1-3.6,2.7-3.6c1.6,0,2.7,1.3,2.7,3.6C50,12.4,48.9,13.7,47.3,13.7L47.3,13.7z M61.7,15.5V5.2h0.1
	l7.3,10.4h2.3V0.7h-2.5v10.4h-0.1L61.4,0.7h-2.3v14.8H61.7L61.7,15.5z M78.8,15.7c3.2,0,5.3-2.1,5.3-5.6c0-3.5-2.1-5.7-5.3-5.7
	s-5.3,2.2-5.3,5.7C73.6,13.6,75.6,15.7,78.8,15.7L78.8,15.7z M78.8,13.7c-1.6,0-2.7-1.3-2.7-3.6c0-2.3,1.1-3.6,2.7-3.6
	c1.6,0,2.7,1.3,2.7,3.6C81.5,12.4,80.4,13.7,78.8,13.7L78.8,13.7z M86,15.5h2.6V4.7H86V15.5z M87.3,3c0.8,0,1.4-0.6,1.4-1.4
	c0-0.8-0.6-1.4-1.4-1.4c-0.8,0-1.4,0.6-1.4,1.4C85.9,2.4,86.5,3,87.3,3C87.3,3,87.3,3,87.3,3L87.3,3z M91.6,2.1v2.5h-1.6v2h1.6v6
	c0,2.1,0.9,2.9,3.3,2.9c0.4,0,0.9,0,1.3-0.1v-1.9c-0.2,0-0.5,0.1-0.7,0.1c-0.9,0-1.3-0.4-1.3-1.3V6.6h2v-2h-2V2.1L91.6,2.1L91.6,2.1
	z M102.7,6.4c1.5,0,2.5,1.1,2.5,2.6h-5.1C100.2,7.5,101.3,6.4,102.7,6.4L102.7,6.4z M105.2,12.3c-0.3,0.9-1.2,1.5-2.4,1.5
	c-1.7,0-2.7-1.2-2.7-2.9v-0.2h7.6V9.9c0-3.3-1.9-5.4-5-5.4c-3.1,0-5.1,2.3-5.1,5.7c0,3.5,2,5.6,5.2,5.6c2.6,0,4.5-1.4,4.8-3.5
	L105.2,12.3L105.2,12.3z"/>
</svg>
