<?xml version="1.0" encoding="utf-8"?>
<!-- Generator: Adobe Illustrator 21.1.0, SVG Export Plug-In . SVG Version: 6.00 Build 0)  -->
<svg version="1.1" id="Layer_1" xmlns="http://www.w3.org/2000/svg" xmlns:xlink="http://www.w3.org/1999/xlink" x="0px" y="0px"
	 viewBox="0 0 74 16" style="enable-background:new 0 0 74 16;" xml:space="preserve">
<style type="text/css">
	.st0{fill:#666666;}
</style>
<path id="RX-S3_Sub_1" class="st0" d="M7.7,15.9c3.5,0,5.9-1.9,6.4-5.1h-2.6c-0.4,1.8-1.8,2.8-3.8,2.8c-2.6,0-4.2-2.1-4.2-5.4
	c0-3.3,1.6-5.4,4.2-5.4c1.8-0.1,3.5,1.3,3.8,3.1h2.6c-0.3-3.2-2.9-5.3-6.4-5.3c-4.2,0-6.9,2.9-6.9,7.6C0.8,13,3.5,15.9,7.7,15.9z
	 M20,13.9c-1.1,0-1.8-0.6-1.8-1.5c0-0.9,0.7-1.4,1.9-1.5l2.5-0.2v0.8C22.6,12.9,21.4,13.9,20,13.9z M19.2,15.8
	c1.4,0,2.7-0.7,3.4-1.9h0.1v1.7h2.5V8.2c0-2.2-1.8-3.6-4.4-3.6c-2.8,0-4.5,1.5-4.6,3.5h2.4c0.2-0.9,0.9-1.5,2.1-1.5
	c1.3,0,2,0.7,2,1.8v0.8l-2.9,0.2c-2.6,0.2-4.1,1.3-4.1,3.2C15.6,14.5,17.1,15.8,19.2,15.8z M21.6,0.1h-2L17,3.3h2l1.5-1.9h0.1
	l1.5,1.9h2L21.6,0.1z M27.4,15.7H30V9c-0.1-1.2,0.8-2.2,1.9-2.3c0.1,0,0.1,0,0.2,0c1-0.1,1.9,0.7,1.9,1.7c0,0.1,0,0.2,0,0.3v7h2.5
	V8.9c-0.1-1.1,0.7-2.1,1.9-2.2c0.1,0,0.1,0,0.2,0c1.2,0,2,0.8,2,2.1v6.8H43V8.2c0-2.2-1.4-3.6-3.5-3.6c-1.5-0.1-2.8,0.8-3.4,2.2H36
	c-0.4-1.4-1.6-2.3-3-2.2c-1.4,0-2.6,0.8-3.1,2.1h0V4.8h-2.4L27.4,15.7L27.4,15.7z M50,6.5c1.5,0,2.5,1.1,2.5,2.6h-5.1
	C47.5,7.6,48.6,6.5,50,6.5L50,6.5z M52.5,12.4c-0.3,0.9-1.2,1.5-2.4,1.5c-1.7,0-2.7-1.2-2.7-2.9v-0.2H55V10c0-3.3-1.9-5.4-5-5.4
	c-3.1,0-5.1,2.3-5.1,5.7c0,3.5,2,5.6,5.2,5.6c2.6,0,4.5-1.4,4.8-3.5H52.5L52.5,12.4z M56.9,15.7h2.6V9.3c0-1.5,0.9-2.5,2.3-2.5
	c0.4,0,0.7,0,1,0.1V4.7c-0.3-0.1-0.5-0.1-0.8-0.1c-1.3,0-2.4,0.9-2.6,2.1h0V4.8h-2.5L56.9,15.7L56.9,15.7z M68,13.9
	c-1.1,0-1.8-0.6-1.8-1.5c0-0.9,0.7-1.4,1.9-1.5l2.5-0.2v0.8C70.7,12.9,69.5,13.9,68,13.9L68,13.9z M67.3,15.8c1.4,0,2.7-0.7,3.4-1.9
	h0v1.7h2.5V8.2c0-2.2-1.8-3.6-4.5-3.6C66,4.6,64.2,6,64.1,8h2.4c0.2-0.9,0.9-1.5,2.1-1.5c1.3,0,2,0.7,2,1.8v0.8l-2.9,0.2
	c-2.6,0.2-4.1,1.3-4.1,3.2C63.6,14.5,65.2,15.8,67.3,15.8L67.3,15.8z"/>
</svg>
