<svg xmlns="http://www.w3.org/2000/svg" width="206" height="62" viewBox="0 0 412 124">
  <metadata><?xpacket begin="﻿" id="W5M0MpCehiHzreSzNTczkc9d"?>
<x:xmpmeta xmlns:x="adobe:ns:meta/" x:xmptk="Adobe XMP Core 5.6-c138 79.159824, 2016/09/14-01:09:01        ">
   <rdf:RDF xmlns:rdf="http://www.w3.org/1999/02/22-rdf-syntax-ns#">
      <rdf:Description rdf:about=""/>
   </rdf:RDF>
</x:xmpmeta>
                                                                                                    
                                                                                                    
                                                                                                    
                                                                                                    
                                                                                                    
                                                                                                    
                                                                                                    
                                                                                                    
                                                                                                    
                                                                                                    
                                                                                                    
                                                                                                    
                                                                                                    
                                                                                                    
                                                                                                    
                                                                                                    
                                                                                                    
                                                                                                    
                                                                                                    
                                                                                                    
                           
<?xpacket end="w"?></metadata>
<defs>
    <style>
      .cls-1 {
        fill: #111;
        fill-rule: evenodd;
      }
    </style>
  </defs>
  <path id="RX-S3_Title_2" class="cls-1" d="M453.93,4655.64c0.375,8.25,7.281,13.34,17.718,13.34,10.844,0,17.625-5.44,17.625-14.06,0-6.69-3.968-10.5-13.468-12.47l-4.875-1c-5.625-1.19-7.875-3.16-7.875-6.22,0-3.78,3.562-6.16,8.562-6.16,5.156,0,8.719,2.57,9.094,6.82h7.719c-0.188-8.07-6.782-13.5-16.75-13.5-9.782,0-16.75,5.37-16.75,13.31,0,6.59,4.218,10.84,13.25,12.69l4.843,1c5.875,1.22,8.125,3.22,8.125,6.46,0,3.75-3.781,6.44-9.218,6.44-5.625,0-9.688-2.5-10.282-6.65H453.93Zm55.131-15.19c4.468,0,7.468,3.28,7.625,7.97H501.217C501.529,4643.79,504.686,4640.45,509.061,4640.45Zm7.656,17.87c-0.844,2.75-3.594,4.57-7.219,4.57-5.094,0-8.344-3.57-8.344-8.88v-0.47h23.157v-2.53c0-10.06-5.875-16.59-15.282-16.59-9.562,0-15.625,6.9-15.625,17.37,0,10.56,6,17.1,15.938,17.1,7.844,0,13.656-4.32,14.656-10.57h-7.281Zm42.225-23.21H551.16v19.15c0,4.81-2.781,8-7.281,8-4.375,0-6.687-2.56-6.687-7.31v-19.84H529.41v21.4c0,7.66,4.563,12.31,11.75,12.31,5.032,0,8.375-2.31,10.125-6.34h0.157v5.75h7.5v-33.12Zm6.006,9.5c0,4.9,3.187,8.03,9.531,9.43l5.5,1.22c3.469,0.78,4.656,1.91,4.656,3.91,0,2.47-2.344,4.03-6.125,4.03-3.937,0-6.156-1.63-6.75-4.85H564.1c0.625,6.41,5.75,10.54,14.406,10.54,8.125,0,13.875-4.22,13.875-10.47,0-4.82-2.656-7.47-9.531-9l-5.5-1.22c-3.469-.78-4.844-2.09-4.844-4,0-2.44,2.281-4.06,5.719-4.06,3.594,0,5.812,1.9,6.125,4.9h7.25c-0.188-6.28-5.313-10.62-13.375-10.62C570.229,4634.42,564.948,4638.54,564.948,4644.61Zm74.887-9.5H631.71l-7.688,25.9h-0.156l-7.688-25.9h-8.312l11.75,33.12h8.562Zm4.006,33.12h7.781v-33.12h-7.781v33.12Zm6.625-37.72,7.343-9.65H650.4l-5.437,9.65h5.5Zm20.318,38.25a11.264,11.264,0,0,0,10.469-6.19h0.125v5.66H689v-45.09h-7.781v17.53h-0.188a11.019,11.019,0,0,0-10.25-6.13c-8.344,0-13.75,6.63-13.75,17.1C657.034,4662.17,662.44,4668.76,670.784,4668.76Zm2.344-27.81c4.906,0,8.125,4.22,8.125,10.72,0,6.56-3.219,10.72-8.125,10.72-5.031,0-8.125-4.13-8.125-10.72C665,4645.11,668.128,4640.95,673.128,4640.95Zm36.943-.5c4.469,0,7.469,3.28,7.625,7.97H702.228C702.54,4643.79,705.7,4640.45,710.071,4640.45Zm7.657,17.87c-0.844,2.75-3.594,4.57-7.219,4.57-5.094,0-8.344-3.57-8.344-8.88v-0.47h23.156v-2.53c0-10.06-5.875-16.59-15.281-16.59-9.562,0-15.625,6.9-15.625,17.37,0,10.56,6,17.1,15.938,17.1,7.843,0,13.656-4.32,14.656-10.57h-7.281Zm27.506,10.57c9.718,0,16.031-6.47,16.031-17.22,0-10.72-6.375-17.25-16.031-17.25s-16.032,6.56-16.032,17.25C729.2,4662.42,735.515,4668.89,745.234,4668.89Zm0-6.16c-4.938,0-8.125-4-8.125-11.06,0-7.03,3.218-11.06,8.125-11.06,4.937,0,8.125,4.03,8.125,11.06C753.359,4658.73,750.171,4662.73,745.234,4662.73Zm20.693-18.12c0,4.9,3.188,8.03,9.531,9.43l5.5,1.22c3.469,0.78,4.657,1.91,4.657,3.91,0,2.47-2.344,4.03-6.125,4.03-3.938,0-6.157-1.63-6.75-4.85h-7.657c0.625,6.41,5.75,10.54,14.407,10.54,8.125,0,13.875-4.22,13.875-10.47,0-4.82-2.657-7.47-9.532-9l-5.5-1.22c-3.468-.78-4.843-2.09-4.843-4,0-2.44,2.281-4.06,5.718-4.06,3.594,0,5.813,1.9,6.125,4.9h7.25c-0.187-6.28-5.312-10.62-13.375-10.62C771.208,4634.42,765.927,4638.54,765.927,4644.61ZM484.18,4707.1h-8.125l-7.688,25.91h-0.156l-7.688-25.91h-8.312l11.75,33.13h8.562Zm4.006,33.13h7.781V4707.1h-7.781v33.13Zm3.843-38.13a4.215,4.215,0,1,0-4.25-4.21A4.229,4.229,0,0,0,492.029,4702.1Zm10.725,38.13h7.781v-19.28c0-4.66,2.657-7.5,7.063-7.5a9.864,9.864,0,0,1,3.156.44v-7.04a11.385,11.385,0,0,0-2.437-.31c-3.907,0-6.813,2.31-7.938,6.35h-0.156v-5.79h-7.469v33.13Zm33.631-5.34c-3.375,0-5.625-1.72-5.625-4.44,0-2.63,2.156-4.31,5.906-4.56l7.657-.47v2.53C544.323,4731.95,540.791,4734.89,536.385,4734.89Zm-2.344,5.87a11.716,11.716,0,0,0,10.313-5.81h0.156v5.28h7.5v-22.81c0-6.66-5.344-11-13.562-11-8.438,0-13.719,4.43-14.063,10.62H531.6c0.5-2.75,2.844-4.53,6.531-4.53,3.844,0,6.188,2,6.188,5.47v2.37l-8.75.5c-8.063.5-12.594,4.04-12.594,9.91C522.979,4736.73,527.635,4740.76,534.041,4740.76Zm24.475-.53H566.3v-20.28c0-4,2.625-6.91,6.375-6.91,3.625,0,5.875,2.28,5.875,5.97v21.22h7.563v-20.47c0-3.97,2.562-6.72,6.312-6.72,3.813,0,5.938,2.31,5.938,6.38v20.81h7.781v-22.72c0-6.62-4.281-11.03-10.812-11.03a10.674,10.674,0,0,0-10.313,6.66h-0.187c-1.219-4.25-4.563-6.66-9.25-6.66a9.741,9.741,0,0,0-9.438,6.37h-0.156v-5.75h-7.469v33.13Zm81.45-27.78c4.468,0,7.468,3.28,7.625,7.97H632.122C632.434,4715.79,635.591,4712.45,639.966,4712.45Zm7.656,17.87c-0.844,2.75-3.594,4.57-7.219,4.57-5.094,0-8.344-3.57-8.344-8.88v-0.47h23.157v-2.53c0-10.06-5.875-16.59-15.282-16.59-9.562,0-15.625,6.9-15.625,17.37,0,10.56,6,17.1,15.938,17.1,7.844,0,13.656-4.32,14.656-10.57h-7.281Zm12.256-13.72c0,4.91,3.187,8.04,9.531,9.44l5.5,1.22c3.469,0.78,4.656,1.91,4.656,3.91,0,2.47-2.343,4.03-6.125,4.03-3.937,0-6.156-1.63-6.75-4.85h-7.656c0.625,6.41,5.75,10.54,14.406,10.54,8.125,0,13.875-4.22,13.875-10.47,0-4.82-2.656-7.47-9.531-9l-5.5-1.22c-3.469-.78-4.844-2.1-4.844-4,0-2.44,2.282-4.06,5.719-4.06,3.594,0,5.813,1.9,6.125,4.9h7.25c-0.187-6.28-5.312-10.62-13.375-10.62C665.159,4706.42,659.878,4710.54,659.878,4716.6Zm34.818-17.25v7.75h-4.75v6h4.75v18.32c0,6.43,2.813,8.97,9.969,8.97a21.063,21.063,0,0,0,4.031-.32v-5.93a15.7,15.7,0,0,1-2.218.15c-2.75,0-4-1.25-4-3.97V4713.1h6.25v-6h-6.25v-7.75H694.7Zm19.569,40.88h7.781v-19.28c0-4.66,2.656-7.5,7.063-7.5a9.864,9.864,0,0,1,3.156.44v-7.04a11.405,11.405,0,0,0-2.438-.31c-3.906,0-6.812,2.31-7.937,6.35h-0.156v-5.79h-7.469v33.13Zm35.287-27.78c4.469,0,7.469,3.28,7.625,7.97H741.708C742.021,4715.79,745.177,4712.45,749.552,4712.45Zm7.656,17.87c-0.843,2.75-3.593,4.57-7.218,4.57-5.094,0-8.344-3.57-8.344-8.88v-0.47H764.8v-2.53c0-10.06-5.875-16.59-15.281-16.59-9.563,0-15.625,6.9-15.625,17.37,0,10.56,6,17.1,15.937,17.1,7.844,0,13.657-4.32,14.657-10.57h-7.282Zm13.069,9.91h7.781v-45.09h-7.781v45.09Zm26.756-5.34c-3.375,0-5.625-1.72-5.625-4.44,0-2.63,2.156-4.31,5.906-4.56l7.656-.47v2.53C804.97,4731.95,801.439,4734.89,797.033,4734.89Zm-2.344,5.87A11.717,11.717,0,0,0,805,4734.95h0.156v5.28h7.5v-22.81c0-6.66-5.344-11-13.563-11-8.437,0-13.718,4.43-14.062,10.62h7.219c0.5-2.75,2.843-4.53,6.531-4.53,3.844,0,6.187,2,6.187,5.47v2.37l-8.75.5c-8.062.5-12.593,4.04-12.593,9.91C783.627,4736.73,788.283,4740.76,794.689,4740.76Zm23.881-24.16c0,4.91,3.188,8.04,9.531,9.44l5.5,1.22c3.469,0.78,4.657,1.91,4.657,3.91,0,2.47-2.344,4.03-6.125,4.03-3.938,0-6.157-1.63-6.75-4.85h-7.657c0.625,6.41,5.75,10.54,14.407,10.54,8.125,0,13.875-4.22,13.875-10.47,0-4.82-2.657-7.47-9.532-9l-5.5-1.22c-3.468-.78-4.843-2.1-4.843-4,0-2.44,2.281-4.06,5.718-4.06,3.594,0,5.813,1.9,6.125,4.9h7.25c-0.187-6.28-5.312-10.62-13.375-10.62C823.851,4706.42,818.57,4710.54,818.57,4716.6Zm38.1,23.97a4.5,4.5,0,1,0-4.5-4.5A4.436,4.436,0,0,0,856.67,4740.57Z" transform="translate(-450.672 -4618.86)"/>
</svg>
