<?xml version="1.0" encoding="utf-8"?>
<!-- Generator: Adobe Illustrator 21.1.0, SVG Export Plug-In . SVG Version: 6.00 Build 0)  -->
<svg version="1.1" id="Layer_1" xmlns="http://www.w3.org/2000/svg" xmlns:xlink="http://www.w3.org/1999/xlink" x="0px" y="0px"
	 viewBox="0 0 212 96" style="enable-background:new 0 0 212 96;" xml:space="preserve">
<style type="text/css">
	.st0{fill:#111111;}
</style>
<path id="RX-S3_Title_1" class="st0" d="M16.4,19.7H5.8v-6.4h10v-3.2h-10V4h10.6V0.6H1.8v22.5h14.6V19.7L16.4,19.7z M26.1,17.2
	l3.4,5.9h4.2l-5.3-8.4l5.3-8.2h-4.3l-3.3,5.8h-0.1l-3.3-5.8h-4.4l5.3,8.3l-5.3,8.3h4.1L26.1,17.2L26.1,17.2L26.1,17.2z M45,6.3
	c-2.2-0.1-4.3,1.2-5.2,3.1h-0.1V6.5H36v22h3.9v-8.2h0.1c0.9,1.9,2.8,3,5.2,3c4.2,0,6.8-3.3,6.8-8.5C51.9,9.5,49.3,6.3,45,6.3L45,6.3
	z M43.9,20.2c-2.4,0-4-2.1-4-5.4c0-3.2,1.6-5.4,4-5.4c2.5,0,4.1,2.1,4.1,5.4C47.9,18.1,46.4,20.2,43.9,20.2z M60.6,20.4
	c-1.7,0-2.8-0.9-2.8-2.2c0-1.3,1.1-2.2,3-2.3l3.8-0.2V17C64.6,19,62.8,20.4,60.6,20.4z M59.4,23.4c2.1,0,4.1-1.1,5.2-2.9h0.1v2.6
	h3.7V11.7c0-3.3-2.7-5.5-6.8-5.5c-4.2,0-6.9,2.2-7,5.3h3.6c0.2-1.4,1.4-2.3,3.3-2.3c1.9,0,3.1,1,3.1,2.7v1.2l-4.4,0.2
	c-4,0.2-6.3,2-6.3,4.9C53.9,21.4,56.2,23.4,59.4,23.4z M71.7,23.1h3.9v-9.6c0-2.4,1.4-4,3.7-4c2.2,0,3.3,1.3,3.3,3.7v9.9h3.9V12.4
	c0-3.8-2.1-6.2-5.7-6.2c-2.5,0-4.3,1.2-5.2,3.2h-0.1V6.6h-3.7V23.1L71.7,23.1z M95.8,23.4c2.2,0.1,4.2-1.1,5.2-3.1h0.1v2.8h3.8V0.6
	h-3.9v8.8H101c-1-1.9-3-3.1-5.1-3.1c-4.2,0-6.9,3.3-6.9,8.6C89,20.1,91.7,23.4,95.8,23.4L95.8,23.4z M97,9.5c2.5,0,4.1,2.1,4.1,5.4
	c0,3.3-1.6,5.4-4.1,5.4c-2.5,0-4.1-2.1-4.1-5.4C92.9,11.6,94.5,9.5,97,9.5L97,9.5z M114.4,20.4c-1.7,0-2.8-0.9-2.8-2.2
	c0-1.3,1.1-2.2,3-2.3l3.8-0.2V17C118.4,19,116.6,20.4,114.4,20.4z M113.2,23.4c2.1,0,4.1-1.1,5.2-2.9h0.1v2.6h3.7V11.7
	c0-3.3-2.7-5.5-6.8-5.5c-4.2,0-6.9,2.2-7,5.3h3.6c0.2-1.4,1.4-2.3,3.3-2.3c1.9,0,3.1,1,3.1,2.7v1.2l-4.4,0.2c-4,0.2-6.3,2-6.3,4.9
	C107.7,21.4,110,23.4,113.2,23.4L113.2,23.4z M139.3,23.4c4.9,0,8-3.2,8-8.6c0-5.4-3.2-8.6-8-8.6s-8,3.3-8,8.6
	C131.3,20.2,134.5,23.4,139.3,23.4L139.3,23.4z M139.3,20.4c-2.5,0-4.1-2-4.1-5.5c0-3.5,1.6-5.5,4.1-5.5c2.5,0,4.1,2,4.1,5.5
	C143.4,18.4,141.8,20.4,139.3,20.4L139.3,20.4z M149.7,11.3c0,2.4,1.6,4,4.8,4.7l2.8,0.6c1.7,0.4,2.3,1,2.3,2c0,1.2-1.2,2-3.1,2
	c-2,0-3.1-0.8-3.4-2.4h-3.8c0.3,3.2,2.9,5.3,7.2,5.3c4.1,0,6.9-2.1,6.9-5.2c0-2.4-1.3-3.7-4.8-4.5l-2.8-0.6c-1.7-0.4-2.4-1-2.4-2
	c0-1.2,1.1-2,2.9-2c1.8,0,2.9,0.9,3.1,2.4h3.6c-0.1-3.1-2.7-5.3-6.7-5.3C152.3,6.2,149.7,8.3,149.7,11.3L149.7,11.3z M1.5,59.1h3.9
	v-9.5c0-2.4,1.4-4.1,3.8-4.1c2.2,0,3.4,1.4,3.4,3.7v9.9h3.9V48.4c0-3.8-2.1-6.2-5.8-6.2c-2.5,0-4.3,1.1-5.2,3.2H5.4v-8.8H1.5
	L1.5,59.1L1.5,59.1z M27,59.4c4.9,0,8-3.2,8-8.6c0-5.4-3.2-8.6-8-8.6s-8,3.3-8,8.6C19,56.2,22.2,59.4,27,59.4L27,59.4z M27,56.4
	c-2.5,0-4.1-2-4.1-5.5c0-3.5,1.6-5.5,4.1-5.5c2.5,0,4.1,2,4.1,5.5C31.1,54.4,29.5,56.4,27,56.4L27,56.4z M37.7,59.1h3.9v-9.6
	c0-2.3,1.3-3.7,3.5-3.7c0.5,0,1.1,0.1,1.6,0.2v-3.5c-0.4-0.1-0.8-0.1-1.2-0.2c-2,0-3.4,1.2-4,3.2h-0.1v-2.9h-3.7V59.1L37.7,59.1z
	 M48.9,59.1h3.9V42.6h-3.9L48.9,59.1L48.9,59.1z M50.8,40.1c1.2,0,2.1-1,2.1-2.1c0-1.2-1-2.1-2.1-2.1c-1.2,0-2.1,1-2.1,2.1
	C48.7,39.1,49.7,40.1,50.8,40.1L50.8,40.1z M55.9,59.1h13.2v-3h-8.4V56l8.2-10.9v-2.6h-13v3h8.5v0.1l-8.6,11.1L55.9,59.1L55.9,59.1z
	 M79,59.4c4.9,0,8-3.2,8-8.6c0-5.4-3.2-8.6-8-8.6c-4.8,0-8,3.3-8,8.6C70.9,56.2,74.1,59.4,79,59.4L79,59.4z M79,56.4
	c-2.5,0-4.1-2-4.1-5.5c0-3.5,1.6-5.5,4.1-5.5c2.5,0,4.1,2,4.1,5.5C83,54.4,81.4,56.4,79,56.4L79,56.4z M89.6,59.1h3.9v-9.6
	c0-2.4,1.4-4,3.7-4c2.2,0,3.3,1.3,3.3,3.7v9.9h3.9V48.4c0-3.8-2.1-6.2-5.7-6.2c-2.5,0-4.3,1.2-5.2,3.2h-0.1v-2.8h-3.7L89.6,59.1
	L89.6,59.1z M108.7,38.7v3.9h-2.4v3h2.4v9.2c0,3.2,1.4,4.5,5,4.5c0.7,0,1.4,0,2-0.2v-3c-0.4,0.1-0.7,0.1-1.1,0.1c-1.4,0-2-0.6-2-2
	v-8.6h3.1v-3h-3.1v-3.9H108.7z M125.3,45.2c2.2,0,3.7,1.6,3.8,4h-7.7C121.5,46.9,123.1,45.2,125.3,45.2L125.3,45.2z M129.1,54.2
	c-0.4,1.4-1.8,2.3-3.6,2.3c-2.5,0-4.2-1.8-4.2-4.4v-0.2h11.6v-1.3c0-5-2.9-8.3-7.6-8.3c-4.8,0-7.8,3.4-7.8,8.7c0,5.3,3,8.6,8,8.6
	c3.9,0,6.8-2.2,7.3-5.3L129.1,54.2L129.1,54.2z M135.2,47.3c0,2.5,1.6,4,4.8,4.7l2.7,0.6c1.7,0.4,2.3,1,2.3,2c0,1.2-1.2,2-3.1,2
	c-2,0-3.1-0.8-3.4-2.4h-3.8c0.3,3.2,2.9,5.3,7.2,5.3c4.1,0,6.9-2.1,6.9-5.2c0-2.4-1.3-3.7-4.8-4.5l-2.7-0.6c-1.7-0.4-2.4-1.1-2.4-2
	c0-1.2,1.1-2,2.9-2c1.8,0,2.9,0.9,3.1,2.4h3.6c-0.1-3.1-2.7-5.3-6.7-5.3C137.9,42.2,135.2,44.3,135.2,47.3L135.2,47.3z M7.6,95.4
	c2.2,0.1,4.2-1.1,5.2-3.1h0.1v2.8h3.8V72.6h-3.9v8.8h-0.1c-1-1.9-3-3.1-5.1-3.1c-4.2,0-6.9,3.3-6.9,8.6C0.7,92.1,3.4,95.4,7.6,95.4z
	 M8.8,81.5c2.5,0,4.1,2.1,4.1,5.4c0,3.3-1.6,5.4-4.1,5.4c-2.5,0-4.1-2.1-4.1-5.4C4.7,83.5,6.3,81.5,8.8,81.5L8.8,81.5z M26.1,92.4
	c-1.7,0-2.8-0.9-2.8-2.2c0-1.3,1.1-2.2,3-2.3l3.8-0.2V89C30.1,91,28.3,92.4,26.1,92.4z M25,95.4c2.1,0,4.1-1.1,5.2-2.9h0.1v2.6H34
	V83.7c0-3.3-2.7-5.5-6.8-5.5c-4.2,0-6.9,2.2-7,5.3h3.6c0.2-1.4,1.4-2.3,3.3-2.3c1.9,0,3.1,1,3.1,2.7v1.2l-4.4,0.2
	c-4,0.2-6.3,2-6.3,5C19.4,93.4,21.8,95.4,25,95.4L25,95.4z M36.9,83.3c0,2.5,1.6,4,4.8,4.7l2.7,0.6c1.7,0.4,2.3,1,2.3,2
	c0,1.2-1.2,2-3.1,2c-2,0-3.1-0.8-3.4-2.4h-3.8c0.3,3.2,2.9,5.3,7.2,5.3c4.1,0,6.9-2.1,6.9-5.2c0-2.4-1.3-3.7-4.8-4.5l-2.7-0.6
	c-1.7-0.4-2.4-1.1-2.4-2c0-1.2,1.1-2,2.9-2c1.8,0,2.9,0.9,3.1,2.4h3.6c-0.1-3.1-2.7-5.3-6.7-5.3C39.5,78.2,36.9,80.3,36.9,83.3
	L36.9,83.3z M59.5,83.3c0,2.5,1.6,4,4.8,4.7l2.7,0.6c1.7,0.4,2.3,1,2.3,2c0,1.2-1.2,2-3.1,2c-2,0-3.1-0.8-3.4-2.4h-3.8
	c0.3,3.2,2.9,5.3,7.2,5.3c4.1,0,6.9-2.1,6.9-5.2c0-2.4-1.3-3.7-4.8-4.5l-2.7-0.6c-1.7-0.4-2.4-1.1-2.4-2c0-1.2,1.1-2,2.9-2
	c1.8,0,2.9,0.9,3.1,2.4h3.6c-0.1-3.1-2.7-5.3-6.7-5.3C62.1,78.2,59.5,80.3,59.5,83.3L59.5,83.3z M90.5,78.5h-3.9v9.6
	c0,2.4-1.4,4-3.6,4c-2.2,0-3.3-1.3-3.3-3.7v-9.9h-3.9v10.7c0,3.8,2.3,6.2,5.9,6.2c2.5,0,4.2-1.2,5.1-3.2h0.1v2.9h3.7V78.5z
	 M99.8,92.4c-1.7,0-2.8-0.9-2.8-2.2c0-1.3,1.1-2.2,3-2.3l3.8-0.2V89C103.8,91,102,92.4,99.8,92.4L99.8,92.4z M98.7,95.4
	c2.1,0,4.1-1.1,5.2-2.9h0.1v2.6h3.7V83.7c0-3.3-2.7-5.5-6.8-5.5c-4.2,0-6.9,2.2-7,5.3h3.6c0.2-1.4,1.4-2.3,3.3-2.3
	c1.9,0,3.1,1,3.1,2.7v1.2l-4.4,0.2c-4,0.2-6.3,2-6.3,5C93.1,93.4,95.5,95.4,98.7,95.4L98.7,95.4z M110.6,83.3c0,2.5,1.6,4,4.8,4.7
	l2.7,0.6c1.7,0.4,2.3,1,2.3,2c0,1.2-1.2,2-3.1,2c-2,0-3.1-0.8-3.4-2.4h-3.8c0.3,3.2,2.9,5.3,7.2,5.3c4.1,0,6.9-2.1,6.9-5.2
	c0-2.4-1.3-3.7-4.8-4.5l-2.7-0.6c-1.7-0.4-2.4-1.1-2.4-2c0-1.2,1.1-2,2.9-2c1.8,0,2.9,0.9,3.1,2.4h3.6c-0.1-3.1-2.7-5.3-6.7-5.3
	C113.3,78.2,110.6,80.3,110.6,83.3L110.6,83.3z M134.6,95.1h3.9V81.5h3.2v-2.9h-3.3v-1.4c0-1.3,0.7-2,2.2-2c0.4,0,0.8,0,1.2,0.1
	v-2.7c-0.7-0.1-1.4-0.2-2.1-0.2c-3.6,0-5.1,1.5-5.1,4.7v1.5h-2.3v2.9h2.3L134.6,95.1L134.6,95.1z M151.1,95.4c4.9,0,8-3.2,8-8.6
	c0-5.4-3.2-8.6-8-8.6s-8,3.3-8,8.6C143.1,92.2,146.3,95.4,151.1,95.4L151.1,95.4z M151.1,92.4c-2.5,0-4.1-2-4.1-5.5
	c0-3.5,1.6-5.5,4.1-5.5c2.5,0,4.1,2,4.1,5.5C155.2,90.4,153.6,92.4,151.1,92.4L151.1,92.4z M162.9,74.7v3.9h-2.4v3h2.4v9.2
	c0,3.2,1.4,4.5,5,4.5c0.7,0,1.4,0,2-0.2v-3c-0.4,0.1-0.7,0.1-1.1,0.1c-1.4,0-2-0.6-2-2v-8.6h3.1v-3h-3.1v-3.9L162.9,74.7L162.9,74.7
	z M179.7,95.4c4.9,0,8-3.2,8-8.6c0-5.4-3.2-8.6-8-8.6c-4.8,0-8,3.3-8,8.6C171.6,92.2,174.8,95.4,179.7,95.4L179.7,95.4z M179.7,92.4
	c-2.5,0-4.1-2-4.1-5.5c0-3.5,1.6-5.5,4.1-5.5c2.5,0,4.1,2,4.1,5.5C183.7,90.4,182.1,92.4,179.7,92.4L179.7,92.4z M190,83.3
	c0,2.5,1.6,4,4.8,4.7l2.8,0.6c1.7,0.4,2.3,1,2.3,2c0,1.2-1.2,2-3.1,2c-2,0-3.1-0.8-3.4-2.4h-3.8c0.3,3.2,2.9,5.3,7.2,5.3
	c4.1,0,6.9-2.1,6.9-5.2c0-2.4-1.3-3.7-4.8-4.5l-2.8-0.6c-1.7-0.4-2.4-1.1-2.4-2c0-1.2,1.1-2,2.9-2c1.8,0,2.9,0.9,3.1,2.4h3.6
	c-0.1-3.1-2.7-5.3-6.7-5.3C192.6,78.2,190,80.3,190,83.3L190,83.3z M209.1,95.3c1.2,0,2.2-1,2.2-2.2c0-1.2-1-2.2-2.2-2.2
	s-2.2,1-2.2,2.2l0,0C206.8,94.3,207.8,95.3,209.1,95.3C209,95.3,209,95.3,209.1,95.3L209.1,95.3z"/>
</svg>
