<?xml version="1.0" encoding="utf-8"?>
<!-- Generator: Adobe Illustrator 21.1.0, SVG Export Plug-In . SVG Version: 6.00 Build 0)  -->
<svg version="1.1" id="Layer_1" xmlns="http://www.w3.org/2000/svg" xmlns:xlink="http://www.w3.org/1999/xlink" x="0px" y="0px"
	 viewBox="0 0 290 74" style="enable-background:new 0 0 290 74;" xml:space="preserve">
<style type="text/css">
	.st0{fill:#111111;}
</style>
<path id="RX-S3_Title_3" class="st0" d="M7.3,28.9V17.4h11.8v-4.1H7.3V5h12.9V0.7h-18v28.2H7.3z M31.9,29.3c6.1,0,10-4,10-10.8
	c0-6.7-4-10.8-10-10.8s-10,4.1-10,10.8C21.9,25.3,25.9,29.3,31.9,29.3z M31.9,25.4c-3.1,0-5.1-2.5-5.1-6.9c0-4.4,2-6.9,5.1-6.9
	c3.1,0,5.1,2.5,5.1,6.9C37,22.9,35,25.4,31.9,25.4z M46.4,3.3v4.8h-3v3.8h3v11.4c0,4,1.8,5.6,6.2,5.6c0.8,0,1.7-0.1,2.5-0.2v-3.7
	c-0.5,0.1-0.9,0.1-1.4,0.1c-1.7,0-2.5-0.8-2.5-2.5V11.9h3.9V8.2h-3.9V3.3H46.4z M67.3,29.3c6.1,0,10-4,10-10.8c0-6.7-4-10.8-10-10.8
	s-10,4.1-10,10.8C57.2,25.3,61.2,29.3,67.3,29.3L67.3,29.3z M67.3,25.4c-3.1,0-5.1-2.5-5.1-6.9c0-4.4,2-6.9,5.1-6.9
	c3.1,0,5.1,2.5,5.1,6.9C72.3,22.9,70.4,25.4,67.3,25.4L67.3,25.4z M80,14.1c0,3.1,2,5,6,5.9l3.4,0.8c2.2,0.5,2.9,1.2,2.9,2.4
	c0,1.5-1.5,2.5-3.8,2.5c-2.5,0-3.8-1-4.2-3h-4.8c0.4,4,3.6,6.6,9,6.6c5.1,0,8.7-2.6,8.7-6.5c0-3-1.7-4.7-6-5.6l-3.4-0.8
	c-2.2-0.5-3-1.3-3-2.5c0-1.5,1.4-2.5,3.6-2.5c2.2,0,3.6,1.2,3.8,3.1h4.5c-0.1-3.9-3.3-6.6-8.4-6.6C83.3,7.8,80,10.3,80,14.1L80,14.1
	z M107.9,14.1c0,3.1,2,5,6,5.9l3.4,0.8c2.2,0.5,2.9,1.2,2.9,2.4c0,1.5-1.5,2.5-3.8,2.5c-2.5,0-3.8-1-4.2-3h-4.8c0.4,4,3.6,6.6,9,6.6
	c5.1,0,8.7-2.6,8.7-6.5c0-3-1.7-4.7-6-5.6l-3.4-0.8c-2.2-0.5-3-1.3-3-2.5c0-1.5,1.4-2.5,3.6-2.5c2.2,0,3.6,1.2,3.8,3.1h4.5
	c-0.1-3.9-3.3-6.6-8.4-6.6C111.2,7.8,107.9,10.3,107.9,14.1L107.9,14.1z M137.1,11.5c2.8,0,4.7,2.1,4.8,5h-9.7
	C132.4,13.6,134.4,11.5,137.1,11.5L137.1,11.5z M141.9,22.7c-0.5,1.7-2.2,2.9-4.5,2.9c-3.2,0-5.2-2.2-5.2-5.5v-0.3h14.5v-1.6
	c0-6.3-3.7-10.4-9.5-10.4c-6,0-9.8,4.3-9.8,10.9c0,6.6,3.8,10.7,10,10.7c4.9,0,8.5-2.7,9.2-6.6H141.9L141.9,22.7z M149.8,28.9h4.9
	V16.2c0-2.5,1.6-4.3,4-4.3c2.3,0,3.7,1.4,3.7,3.7v13.3h4.7V16.1c0-2.5,1.6-4.2,3.9-4.2c2.4,0,3.7,1.4,3.7,4v13h4.9V14.7
	c0-4.1-2.7-6.9-6.8-6.9c-3,0-5.5,1.6-6.4,4.2h-0.1c-0.8-2.7-2.8-4.2-5.8-4.2c-2.6-0.1-5,1.5-5.9,4h-0.1V8.2h-4.7L149.8,28.9
	L149.8,28.9z M191.4,28.9h4.9V16.2c0-2.5,1.6-4.3,4-4.3c2.3,0,3.7,1.4,3.7,3.7v13.3h4.7V16.1c0-2.5,1.6-4.2,3.9-4.2
	c2.4,0,3.7,1.4,3.7,4v13h4.9V14.7c0-4.1-2.7-6.9-6.8-6.9c-3,0-5.5,1.6-6.4,4.2h-0.1c-0.8-2.7-2.8-4.2-5.8-4.2c-2.6-0.1-5,1.5-5.9,4
	h-0.1V8.2h-4.7L191.4,28.9L191.4,28.9z M234,11.5c2.8,0,4.7,2.1,4.8,5h-9.7C229.3,13.6,231.3,11.5,234,11.5L234,11.5z M238.8,22.7
	c-0.5,1.7-2.2,2.9-4.5,2.9c-3.2,0-5.2-2.2-5.2-5.5v-0.3h14.5v-1.6c0-6.3-3.7-10.4-9.5-10.4c-6,0-9.8,4.3-9.8,10.9
	c0,6.6,3.8,10.7,10,10.7c4.9,0,8.5-2.7,9.2-6.6H238.8L238.8,22.7z M254.4,29.2c3,0,5.4-1.5,6.5-3.9h0.1v3.5h4.8V0.7h-4.9v11h-0.1
	c-1.2-2.4-3.7-3.9-6.4-3.8c-5.2,0-8.6,4.1-8.6,10.7C245.8,25.1,249.2,29.2,254.4,29.2L254.4,29.2z M255.9,11.8
	c3.1,0,5.1,2.6,5.1,6.7c0,4.1-2,6.7-5.1,6.7c-3.1,0-5.1-2.6-5.1-6.7C250.8,14.4,252.7,11.8,255.9,11.8L255.9,11.8z M279,29.3
	c6.1,0,10-4,10-10.8c0-6.7-4-10.8-10-10.8s-10,4.1-10,10.8C269,25.3,273,29.3,279,29.3L279,29.3z M279,25.4c-3.1,0-5.1-2.5-5.1-6.9
	c0-4.4,2-6.9,5.1-6.9c3.1,0,5.1,2.5,5.1,6.9C284.1,22.9,282.1,25.4,279,25.4L279,25.4z M9.6,73.2c3,0,5.4-1.5,6.5-3.9h0.1v3.5h4.8
	V44.7h-4.9v11H16c-1.2-2.4-3.7-3.9-6.4-3.8C4.3,51.8,1,56,1,62.5C1,69.1,4.3,73.2,9.6,73.2L9.6,73.2z M11,55.8
	c3.1,0,5.1,2.6,5.1,6.7c0,4.1-2,6.7-5.1,6.7c-3.1,0-5.1-2.6-5.1-6.7C5.9,58.4,7.9,55.8,11,55.8L11,55.8z M34.2,73.3
	c6.1,0,10-4,10-10.8c0-6.7-4-10.8-10-10.8s-10,4.1-10,10.8C24.2,69.3,28.1,73.3,34.2,73.3L34.2,73.3z M34.2,69.4
	c-3.1,0-5.1-2.5-5.1-6.9c0-4.4,2-6.9,5.1-6.9c3.1,0,5.1,2.5,5.1,6.9C39.3,66.9,37.3,69.4,34.2,69.4L34.2,69.4z M64.3,55.5
	c2.8,0,4.7,2.1,4.8,5h-9.7C59.6,57.6,61.5,55.5,64.3,55.5L64.3,55.5z M69,66.7c-0.5,1.7-2.2,2.9-4.5,2.9c-3.2,0-5.2-2.2-5.2-5.5
	v-0.3h14.5v-1.6c0-6.3-3.7-10.4-9.5-10.4c-6,0-9.8,4.3-9.8,10.9c0,6.6,3.8,10.7,10,10.7c4.9,0,8.5-2.7,9.2-6.6H69L69,66.7z
	 M76.5,58.1c0,3.1,2,5,6,5.9l3.4,0.8c2.2,0.5,2.9,1.2,2.9,2.4c0,1.5-1.5,2.5-3.8,2.5c-2.5,0-3.8-1-4.2-3H76c0.4,4,3.6,6.6,9,6.6
	c5.1,0,8.7-2.6,8.7-6.5c0-3-1.7-4.7-6-5.6l-3.4-0.8c-2.2-0.5-3-1.3-3-2.5c0-1.5,1.4-2.5,3.6-2.5c2.2,0,3.6,1.2,3.8,3.1h4.5
	c-0.1-3.9-3.3-6.6-8.4-6.6C79.8,51.8,76.5,54.3,76.5,58.1L76.5,58.1z M115,59.6c-0.3-4.4-3.7-7.8-9.2-7.8c-6,0-9.9,4.2-9.9,10.8
	c0,6.7,3.9,10.8,10,10.8c5.2,0,8.8-3,9.2-7.7h-4.6c-0.5,2.3-2,3.8-4.5,3.8c-3.1,0-5.1-2.5-5.1-6.8c0-4.3,2-6.8,5-6.8
	c2.6,0,4.1,1.7,4.5,3.9H115z M136.3,52.2h-4.9v12c0,3-1.7,5-4.5,5c-2.7,0-4.2-1.6-4.2-4.6V52.2h-4.9v13.4c0,4.8,2.9,7.7,7.3,7.7
	c3.1,0,5.2-1.4,6.3-4h0.1v3.6h4.7V52.2z M140.3,72.9h4.9V60.8c0-2.9,1.7-4.7,4.4-4.7c0.7,0,1.3,0.1,2,0.3V52c-0.5-0.1-1-0.2-1.5-0.2
	c-2.4,0-4.3,1.4-5,4h-0.1v-3.6h-4.7L140.3,72.9L140.3,72.9z M162.4,73.3c6.1,0,10-4,10-10.8c0-6.7-4-10.8-10-10.8s-10,4.1-10,10.8
	C152.4,69.3,156.3,73.3,162.4,73.3L162.4,73.3z M162.4,69.4c-3.1,0-5.1-2.5-5.1-6.9c0-4.4,2-6.9,5.1-6.9c3.1,0,5.1,2.5,5.1,6.9
	C167.5,66.9,165.5,69.4,162.4,69.4L162.4,69.4z M178.1,73.1c1.6,0,2.8-1.3,2.8-2.8c0-1.6-1.3-2.8-2.8-2.8s-2.8,1.3-2.8,2.8
	C175.3,71.8,176.5,73.1,178.1,73.1C178.1,73.1,178.1,73.1,178.1,73.1L178.1,73.1z"/>
</svg>
