<?xml version="1.0" encoding="utf-8"?>
<!-- Generator: Adobe Illustrator 21.1.0, SVG Export Plug-In . SVG Version: 6.00 Build 0)  -->
<svg version="1.1" id="Layer_1" xmlns="http://www.w3.org/2000/svg" xmlns:xlink="http://www.w3.org/1999/xlink" x="0px" y="0px"
	 viewBox="0 0 454 114" style="enable-background:new 0 0 454 114;" xml:space="preserve">
<style type="text/css">
	.st0{fill:#111111;}
</style>
<path id="RX-S3_Title_3" class="st0" d="M10.5,45.2V26.8h18.9v-6.6H10.5V6.9h20.7V0.1H2.4v45.1L10.5,45.2L10.5,45.2z M49.3,45.9
	c9.7,0,16-6.5,16-17.2c0-10.7-6.4-17.2-16-17.2s-16,6.6-16,17.2C33.2,39.4,39.5,45.9,49.3,45.9L49.3,45.9z M49.3,39.7
	c-4.9,0-8.1-4-8.1-11.1c0-7,3.2-11.1,8.1-11.1c4.9,0,8.1,4,8.1,11.1C57.4,35.7,54.2,39.7,49.3,39.7z M71.9,4.3v7.8h-4.8v6h4.8v18.3
	c0,6.4,2.8,9,10,9c1.4,0,2.7-0.1,4-0.3v-5.9c-0.7,0.1-1.5,0.2-2.2,0.2c-2.8,0-4-1.2-4-4V18.1h6.2v-6h-6.2V4.3H71.9z M104.6,45.9
	c9.7,0,16-6.5,16-17.2c0-10.7-6.4-17.2-16-17.2s-16,6.6-16,17.2C88.6,39.4,94.9,45.9,104.6,45.9L104.6,45.9z M104.6,39.7
	c-4.9,0-8.1-4-8.1-11.1c0-7,3.2-11.1,8.1-11.1c4.9,0,8.1,4,8.1,11.1C112.8,35.7,109.6,39.7,104.6,39.7L104.6,39.7z M124.5,21.6
	c0,4.9,3.2,8,9.5,9.4l5.5,1.2c3.5,0.8,4.7,1.9,4.7,3.9c0,2.5-2.3,4-6.1,4c-3.9,0-6.2-1.6-6.8-4.8h-7.7c0.6,6.4,5.8,10.5,14.4,10.5
	c8.1,0,13.9-4.2,13.9-10.5c0-4.8-2.7-7.5-9.5-9l-5.5-1.2c-3.5-0.8-4.8-2.1-4.8-4c0-2.4,2.3-4.1,5.7-4.1c3.6,0,5.8,1.9,6.1,4.9h7.2
	c-0.2-6.3-5.3-10.6-13.4-10.6C129.8,11.4,124.5,15.5,124.5,21.6z M168,21.6c0,4.9,3.2,8,9.5,9.4l5.5,1.2c3.5,0.8,4.7,1.9,4.7,3.9
	c0,2.5-2.3,4-6.1,4c-3.9,0-6.2-1.6-6.8-4.8h-7.7c0.6,6.4,5.8,10.5,14.4,10.5c8.1,0,13.9-4.2,13.9-10.5c0-4.8-2.7-7.5-9.5-9l-5.5-1.2
	c-3.5-0.8-4.8-2.1-4.8-4c0-2.4,2.3-4.1,5.7-4.1c3.6,0,5.8,1.9,6.1,4.9h7.2c-0.2-6.3-5.3-10.6-13.4-10.6
	C173.3,11.4,168,15.5,168,21.6z M214.1,17.4c4.5,0,7.5,3.3,7.6,8h-15.5C206.6,20.8,209.7,17.4,214.1,17.4z M221.7,35.3
	c-0.8,2.8-3.6,4.6-7.2,4.6c-5.1,0-8.3-3.6-8.3-8.9v-0.5h23.2V28c0-10.1-5.9-16.6-15.3-16.6c-9.6,0-15.6,6.9-15.6,17.4
	c0,10.6,6,17.1,15.9,17.1c7.8,0,13.7-4.3,14.7-10.6H221.7z M233.8,45.2h7.8V24.9c0-4,2.6-6.9,6.4-6.9c3.6,0,5.9,2.3,5.9,6v21.2h7.6
	V24.7c0-4,2.6-6.7,6.3-6.7c3.8,0,5.9,2.3,5.9,6.4v20.8h7.8V22.5c0-6.6-4.3-11-10.8-11c-4.8,0-8.7,2.6-10.3,6.7h-0.2
	c-1.2-4.2-4.6-6.7-9.2-6.7c-4.5,0-8,2.5-9.4,6.4h-0.2v-5.8h-7.5L233.8,45.2L233.8,45.2z M299.3,45.2h7.8V24.9c0-4,2.6-6.9,6.4-6.9
	c3.6,0,5.9,2.3,5.9,6v21.2h7.6V24.7c0-4,2.6-6.7,6.3-6.7c3.8,0,5.9,2.3,5.9,6.4v20.8h7.8V22.5c0-6.6-4.3-11-10.8-11
	c-4.8,0-8.7,2.6-10.3,6.7h-0.2c-1.2-4.2-4.6-6.7-9.2-6.7c-4.5,0-8,2.5-9.4,6.4h-0.2v-5.8h-7.5V45.2L299.3,45.2z M366.8,17.4
	c4.5,0,7.5,3.3,7.6,8H359C359.3,20.8,362.4,17.4,366.8,17.4L366.8,17.4z M374.5,35.3c-0.8,2.8-3.6,4.6-7.2,4.6
	c-5.1,0-8.3-3.6-8.3-8.9v-0.5h23.2V28c0-10.1-5.9-16.6-15.3-16.6c-9.6,0-15.6,6.9-15.6,17.4c0,10.6,6,17.1,15.9,17.1
	c7.8,0,13.7-4.3,14.7-10.6H374.5L374.5,35.3z M398.9,45.7c4.8,0,8.7-2.5,10.5-6.2h0.1v5.7h7.6V0.1h-7.8v17.5h-0.2
	c-1.8-3.7-5.5-6.1-10.2-6.1c-8.3,0-13.8,6.6-13.8,17.1C385.1,39.2,390.5,45.7,398.9,45.7L398.9,45.7z M401.2,17.9
	c4.9,0,8.1,4.2,8.1,10.7c0,6.6-3.2,10.7-8.1,10.7c-5,0-8.1-4.1-8.1-10.7C393.1,22.1,396.2,17.9,401.2,17.9L401.2,17.9z M437.7,45.9
	c9.7,0,16-6.5,16-17.2c0-10.7-6.4-17.2-16-17.2s-16,6.6-16,17.2C421.7,39.4,428,45.9,437.7,45.9L437.7,45.9z M437.7,39.7
	c-4.9,0-8.1-4-8.1-11.1c0-7,3.2-11.1,8.1-11.1c4.9,0,8.1,4,8.1,11.1C445.8,35.7,442.6,39.7,437.7,39.7L437.7,39.7z M14,113.7
	c4.8,0,8.7-2.5,10.5-6.2h0.1v5.7h7.6V68.1h-7.8v17.5h-0.2c-1.8-3.7-5.5-6.1-10.2-6.1c-8.3,0-13.8,6.6-13.8,17.1
	C0.3,107.2,5.7,113.7,14,113.7z M16.4,85.9c4.9,0,8.1,4.2,8.1,10.7c0,6.6-3.2,10.7-8.1,10.7c-5,0-8.1-4.1-8.1-10.7
	C8.2,90.1,11.4,85.9,16.4,85.9L16.4,85.9z M52.8,113.9c9.7,0,16-6.5,16-17.2c0-10.7-6.4-17.2-16-17.2s-16,6.6-16,17.2
	C36.8,107.4,43.1,113.9,52.8,113.9L52.8,113.9z M52.8,107.7c-4.9,0-8.1-4-8.1-11.1c0-7,3.2-11.1,8.1-11.1c4.9,0,8.1,4,8.1,11.1
	C61,103.7,57.8,107.7,52.8,107.7L52.8,107.7z M99.8,85.4c4.5,0,7.5,3.3,7.6,8H92C92.3,88.8,95.5,85.4,99.8,85.4L99.8,85.4z
	 M107.5,103.3c-0.8,2.8-3.6,4.6-7.2,4.6c-5.1,0-8.3-3.6-8.3-8.9v-0.5h23.2V96c0-10.1-5.9-16.6-15.3-16.6c-9.6,0-15.6,6.9-15.6,17.4
	c0,10.6,6,17.1,15.9,17.1c7.8,0,13.7-4.3,14.7-10.6H107.5L107.5,103.3z M118.9,89.6c0,4.9,3.2,8,9.5,9.4l5.5,1.2
	c3.5,0.8,4.7,1.9,4.7,3.9c0,2.5-2.3,4-6.1,4c-3.9,0-6.2-1.6-6.8-4.8h-7.7c0.6,6.4,5.8,10.5,14.4,10.5c8.1,0,13.9-4.2,13.9-10.5
	c0-4.8-2.7-7.5-9.5-9l-5.5-1.2c-3.5-0.8-4.8-2.1-4.8-4c0-2.4,2.3-4.1,5.7-4.1c3.6,0,5.8,1.9,6.1,4.9h7.2
	c-0.2-6.3-5.3-10.6-13.4-10.6C124.2,79.4,118.9,83.5,118.9,89.6L118.9,89.6z M179.9,91.9c-0.5-7-5.9-12.5-14.7-12.5
	c-9.6,0-15.9,6.7-15.9,17.2c0,10.8,6.2,17.2,15.9,17.2c8.3,0,14-4.9,14.7-12.3h-7.3c-0.7,3.8-3.3,6-7.2,6c-4.9,0-8.1-4-8.1-10.9
	c0-6.8,3.2-10.9,8.1-10.9c4.2,0,6.6,2.7,7.2,6.2H179.9z M213.4,80.1h-7.8v19.2c0,4.8-2.8,8-7.3,8c-4.4,0-6.7-2.6-6.7-7.3V80.1h-7.8
	v21.4c0,7.7,4.6,12.3,11.8,12.3c5,0,8.4-2.3,10.1-6.3h0.2v5.8h7.5L213.4,80.1L213.4,80.1z M219.1,113.2h7.8V93.9
	c0-4.7,2.7-7.5,7.1-7.5c1.1,0,2.1,0.1,3.2,0.4v-7c-0.8-0.2-1.6-0.3-2.4-0.3c-3.9,0-6.8,2.3-7.9,6.3h-0.2v-5.8h-7.5V113.2z
	 M254,113.9c9.7,0,16-6.5,16-17.2c0-10.7-6.4-17.2-16-17.2s-16,6.6-16,17.2C237.9,107.4,244.3,113.9,254,113.9L254,113.9z
	 M254,107.7c-4.9,0-8.1-4-8.1-11.1c0-7,3.2-11.1,8.1-11.1c4.9,0,8.1,4,8.1,11.1C262.1,103.7,258.9,107.7,254,107.7L254,107.7z
	 M278.6,113.6c2.5,0,4.5-2,4.5-4.5s-2-4.5-4.5-4.5s-4.5,2-4.5,4.5l0,0c0,2.5,1.9,4.5,4.4,4.5C278.5,113.6,278.5,113.6,278.6,113.6
	L278.6,113.6z"/>
</svg>
