<?xml version="1.0" encoding="utf-8"?>
<!-- Generator: Adobe Illustrator 21.1.0, SVG Export Plug-In . SVG Version: 6.00 Build 0)  -->
<svg version="1.1" id="Layer_1" xmlns="http://www.w3.org/2000/svg" xmlns:xlink="http://www.w3.org/1999/xlink" x="0px" y="0px"
	 viewBox="0 0 316 76" style="enable-background:new 0 0 316 76;" xml:space="preserve">
<style type="text/css">
	.st0{fill:#111111;}
</style>
<path id="RX-S3_Title_2" class="st0" d="M0.4,22.7c0.2,5.2,4.6,8.3,11.1,8.3c6.8,0,11-3.4,11-8.8c0-4.2-2.5-6.6-8.4-7.8l-3-0.6
	c-3.5-0.7-4.9-2-4.9-3.9c0-2.4,2.2-3.8,5.4-3.8c3.2,0,5.4,1.6,5.7,4.3h4.8c-0.1-5-4.2-8.4-10.5-8.4C5.3,1.9,1,5.3,1,10.3
	c0,4.1,2.6,6.8,8.3,7.9l3,0.6c3.7,0.8,5.1,2,5.1,4c0,2.3-2.4,4-5.8,4c-3.5,0-6.1-1.6-6.4-4.2H0.4z M34.7,13.2c2.8,0,4.7,2.1,4.8,5
	h-9.7C29.9,15.3,31.9,13.2,34.7,13.2L34.7,13.2z M39.4,24.4c-0.5,1.7-2.2,2.9-4.5,2.9c-3.2,0-5.2-2.2-5.2-5.5v-0.3h14.5v-1.6
	c0-6.3-3.7-10.4-9.6-10.4c-6,0-9.8,4.3-9.8,10.9c0,6.6,3.8,10.7,10,10.7c4.9,0,8.5-2.7,9.2-6.6H39.4L39.4,24.4z M65.7,9.9h-4.9v12
	c0,3-1.7,5-4.6,5c-2.7,0-4.2-1.6-4.2-4.6V9.9h-4.9v13.4c0,4.8,2.9,7.7,7.3,7.7c3.1,0,5.2-1.4,6.3-4H61v3.6h4.7V9.9z M69.3,15.8
	c0,3.1,2,5,6,5.9l3.4,0.8c2.2,0.5,2.9,1.2,2.9,2.4c0,1.5-1.5,2.5-3.8,2.5c-2.5,0-3.9-1-4.2-3h-4.8c0.4,4,3.6,6.6,9,6.6
	c5.1,0,8.7-2.6,8.7-6.5c0-3-1.7-4.7-6-5.6L77,18.1c-2.2-0.5-3-1.3-3-2.5c0-1.5,1.4-2.5,3.6-2.5c2.2,0,3.6,1.2,3.8,3.1h4.5
	c-0.1-3.9-3.3-6.6-8.4-6.6C72.6,9.5,69.3,12,69.3,15.8z M115.7,9.9h-5.1l-4.8,16.2h-0.1L101,9.9h-5.2l7.3,20.7h5.4L115.7,9.9z
	 M118.1,30.6h4.9V9.9h-4.9V30.6z M122.2,7l4.6-6h-4.6l-3.4,6H122.2L122.2,7z M134.8,30.9c3,0,5.4-1.5,6.5-3.9h0.1v3.5h4.8V2.4h-4.9
	v11h-0.1c-1.2-2.4-3.7-3.9-6.4-3.8c-5.2,0-8.6,4.1-8.6,10.7C126.2,26.8,129.6,30.9,134.8,30.9L134.8,30.9z M136.2,13.5
	c3.1,0,5.1,2.6,5.1,6.7c0,4.1-2,6.7-5.1,6.7c-3.1,0-5.1-2.6-5.1-6.7C131.2,16.1,133.1,13.5,136.2,13.5L136.2,13.5z M159.2,13.2
	c2.8,0,4.7,2.1,4.8,5h-9.7C154.5,15.3,156.4,13.2,159.2,13.2L159.2,13.2z M163.9,24.4c-0.5,1.7-2.2,2.9-4.5,2.9
	c-3.2,0-5.2-2.2-5.2-5.5v-0.3h14.5v-1.6c0-6.3-3.7-10.4-9.5-10.4c-6,0-9.8,4.3-9.8,10.9c0,6.6,3.8,10.7,10,10.7
	c4.9,0,8.5-2.7,9.2-6.6H163.9L163.9,24.4z M181,31c6.1,0,10-4,10-10.8c0-6.7-4-10.8-10-10.8s-10,4.1-10,10.8C171,27,174.9,31,181,31
	L181,31z M181,27.2c-3.1,0-5.1-2.5-5.1-6.9c0-4.4,2-6.9,5.1-6.9c3.1,0,5.1,2.5,5.1,6.9C186.1,24.7,184.1,27.2,181,27.2L181,27.2z
	 M193.8,15.8c0,3.1,2,5,6,5.9l3.4,0.8c2.2,0.5,2.9,1.2,2.9,2.4c0,1.5-1.5,2.5-3.8,2.5c-2.5,0-3.9-1-4.2-3h-4.8c0.4,4,3.6,6.6,9,6.6
	c5.1,0,8.7-2.6,8.7-6.5c0-3-1.7-4.7-6-5.6l-3.4-0.8c-2.2-0.5-3-1.3-3-2.5c0-1.5,1.4-2.5,3.6-2.5c2.2,0,3.6,1.2,3.8,3.1h4.5
	c-0.1-3.9-3.3-6.6-8.4-6.6C197.1,9.5,193.8,12,193.8,15.8L193.8,15.8z M240.2,9.9h-5.1l-4.8,16.2h-0.1l-4.8-16.2h-5.2l7.3,20.7h5.4
	L240.2,9.9z M242.6,30.6h4.9V9.9h-4.9V30.6z M245,6.8c1.5,0,2.6-1.2,2.6-2.7c0-1.5-1.2-2.6-2.7-2.6c-1.4,0-2.6,1.2-2.6,2.6
	C242.3,5.6,243.5,6.8,245,6.8L245,6.8z M251.5,30.6h4.9V18.5c0-2.9,1.7-4.7,4.4-4.7c0.7,0,1.3,0.1,2,0.3V9.7c-0.5-0.1-1-0.2-1.5-0.2
	c-2.4,0-4.3,1.4-5,4h-0.1V9.9h-4.7L251.5,30.6L251.5,30.6z M272.4,27.3c-2.1,0-3.5-1.1-3.5-2.8c0-1.6,1.3-2.7,3.7-2.9l4.8-0.3v1.6
	C277.3,25.4,275.1,27.3,272.4,27.3L272.4,27.3z M270.9,30.9c2.7,0,5.3-1.4,6.4-3.6h0.1v3.3h4.7V16.3c0-4.2-3.3-6.9-8.5-6.9
	c-5.3,0-8.6,2.8-8.8,6.6h4.5c0.3-1.7,1.8-2.8,4.1-2.8c2.4,0,3.9,1.2,3.9,3.4v1.5l-5.5,0.3c-5,0.3-7.9,2.5-7.9,6.2
	C264,28.4,266.9,30.9,270.9,30.9L270.9,30.9z M286.1,30.6h4.9V17.9c0-2.5,1.6-4.3,4-4.3c2.3,0,3.7,1.4,3.7,3.7v13.3h4.7V17.8
	c0-2.5,1.6-4.2,3.9-4.2c2.4,0,3.7,1.4,3.7,4v13h4.9V16.4c0-4.1-2.7-6.9-6.8-6.9c-3,0-5.5,1.6-6.4,4.2h-0.1c-0.8-2.7-2.9-4.2-5.8-4.2
	c-2.6-0.1-5,1.5-5.9,4h-0.1V9.9h-4.7L286.1,30.6L286.1,30.6z M10,57.2c2.8,0,4.7,2.1,4.8,5H5.1C5.3,59.3,7.2,57.2,10,57.2L10,57.2z
	 M14.7,68.4c-0.5,1.7-2.2,2.9-4.5,2.9C7.1,71.3,5,69,5,65.7v-0.3h14.5v-1.6c0-6.3-3.7-10.4-9.6-10.4c-6,0-9.8,4.3-9.8,10.9
	c0,6.6,3.8,10.7,10,10.7c4.9,0,8.5-2.7,9.2-6.6H14.7L14.7,68.4z M22.2,59.8c0,3.1,2,5,6,5.9l3.4,0.8c2.2,0.5,2.9,1.2,2.9,2.4
	c0,1.5-1.5,2.5-3.8,2.5c-2.5,0-3.8-1-4.2-3h-4.8c0.4,4,3.6,6.6,9,6.6c5.1,0,8.7-2.6,8.7-6.5c0-3-1.7-4.7-6-5.6L30,62.1
	c-2.2-0.5-3-1.3-3-2.5c0-1.5,1.4-2.5,3.6-2.5c2.2,0,3.6,1.2,3.8,3.1h4.5c-0.1-3.9-3.3-6.6-8.4-6.6C25.5,53.5,22.2,56,22.2,59.8
	L22.2,59.8z M43.8,49v4.8h-3v3.8h3v11.4c0,4,1.8,5.6,6.2,5.6c0.8,0,1.7-0.1,2.5-0.2v-3.7c-0.5,0.1-0.9,0.1-1.4,0.1
	c-1.7,0-2.5-0.8-2.5-2.5V57.6h3.9v-3.8h-3.9V49H43.8z M55.9,74.6h4.9V62.5c0-2.9,1.7-4.7,4.4-4.7c0.7,0,1.3,0.1,2,0.3v-4.4
	c-0.5-0.1-1-0.2-1.5-0.2c-2.4,0-4.3,1.4-5,4h-0.1v-3.6h-4.7L55.9,74.6L55.9,74.6z M77.8,57.2c2.8,0,4.7,2.1,4.8,5h-9.7
	C73.1,59.3,75.1,57.2,77.8,57.2L77.8,57.2z M82.6,68.4c-0.5,1.7-2.2,2.9-4.5,2.9c-3.2,0-5.2-2.2-5.2-5.5v-0.3h14.5v-1.6
	c0-6.3-3.7-10.4-9.5-10.4c-6,0-9.8,4.3-9.8,10.9C68,70.9,71.8,75,78,75c4.9,0,8.5-2.7,9.2-6.6H82.6L82.6,68.4z M90.6,74.6h4.9V46.4
	h-4.9V74.6z M107.2,71.3c-2.1,0-3.5-1.1-3.5-2.8c0-1.6,1.4-2.7,3.7-2.9l4.8-0.3v1.6C112.1,69.4,109.9,71.3,107.2,71.3L107.2,71.3z
	 M105.7,74.9c2.7,0,5.3-1.4,6.4-3.6h0.1v3.3h4.7V60.3c0-4.2-3.3-6.9-8.5-6.9c-5.3,0-8.6,2.8-8.8,6.6h4.5c0.3-1.7,1.8-2.8,4.1-2.8
	c2.4,0,3.9,1.2,3.9,3.4v1.5l-5.5,0.3c-5,0.3-7.9,2.5-7.9,6.2C98.8,72.4,101.7,74.9,105.7,74.9L105.7,74.9z M120.5,59.8
	c0,3.1,2,5,6,5.9l3.4,0.8c2.2,0.5,2.9,1.2,2.9,2.4c0,1.5-1.5,2.5-3.8,2.5c-2.5,0-3.8-1-4.2-3h-4.8c0.4,4,3.6,6.6,9,6.6
	c5.1,0,8.7-2.6,8.7-6.5c0-3-1.7-4.7-6-5.6l-3.4-0.8c-2.2-0.5-3-1.3-3-2.5c0-1.5,1.4-2.5,3.6-2.5c2.2,0,3.6,1.2,3.8,3.1h4.5
	c-0.1-3.9-3.3-6.6-8.4-6.6C123.8,53.5,120.5,56,120.5,59.8L120.5,59.8z M144.1,74.8c1.6,0,2.8-1.3,2.8-2.8s-1.3-2.8-2.8-2.8
	c-1.6,0-2.8,1.3-2.8,2.8c0,0,0,0,0,0C141.3,73.5,142.5,74.8,144.1,74.8C144.1,74.8,144.1,74.8,144.1,74.8L144.1,74.8z"/>
</svg>
