<?xml version="1.0" encoding="utf-8"?>
<!-- Generator: Adobe Illustrator 21.1.0, SVG Export Plug-In . SVG Version: 6.00 Build 0)  -->
<svg version="1.1" id="Layer_1" xmlns="http://www.w3.org/2000/svg" xmlns:xlink="http://www.w3.org/1999/xlink" x="0px" y="0px"
	 viewBox="0 0 398 118" style="enable-background:new 0 0 398 118;" xml:space="preserve">
<style type="text/css">
	.st0{fill:#111111;}
</style>
<path id="RX-S3_Title_2" class="st0" d="M2.1,35.8C2.4,44,9.3,49.1,19.8,49.1c10.8,0,17.6-5.4,17.6-14.1c0-6.7-4-10.5-13.5-12.5
	l-4.9-1c-5.6-1.2-7.9-3.2-7.9-6.2c0-3.8,3.6-6.2,8.6-6.2c5.2,0,8.7,2.6,9.1,6.8h7.7C36.4,8,29.8,2.5,19.8,2.5
	C10,2.5,3.1,7.9,3.1,15.8c0,6.6,4.2,10.8,13.2,12.7l4.8,1c5.9,1.2,8.1,3.2,8.1,6.5c0,3.8-3.8,6.4-9.2,6.4c-5.6,0-9.7-2.5-10.3-6.7
	H2.1L2.1,35.8z M56.4,20.6c4.5,0,7.5,3.3,7.6,8H48.5C48.8,23.9,52,20.6,56.4,20.6z M64,38.5c-0.8,2.8-3.6,4.6-7.2,4.6
	c-5.1,0-8.3-3.6-8.3-8.9v-0.5h23.2v-2.5c0-10.1-5.9-16.6-15.3-16.6c-9.6,0-15.6,6.9-15.6,17.4c0,10.6,6,17.1,15.9,17.1
	c7.8,0,13.7-4.3,14.7-10.6H64L64,38.5z M105.4,15.2h-7.8v19.2c0,4.8-2.8,8-7.3,8c-4.4,0-6.7-2.6-6.7-7.3V15.2h-7.8v21.4
	c0,7.7,4.6,12.3,11.8,12.3c5,0,8.4-2.3,10.1-6.3h0.2v5.8h7.5V15.2z M110.6,24.7c0,4.9,3.2,8,9.5,9.4l5.5,1.2
	c3.5,0.8,4.7,1.9,4.7,3.9c0,2.5-2.3,4-6.1,4c-3.9,0-6.2-1.6-6.8-4.8h-7.7c0.6,6.4,5.8,10.5,14.4,10.5c8.1,0,13.9-4.2,13.9-10.5
	c0-4.8-2.7-7.5-9.5-9l-5.5-1.2c-3.5-0.8-4.8-2.1-4.8-4c0-2.4,2.3-4.1,5.7-4.1c3.6,0,5.8,1.9,6.1,4.9h7.2
	c-0.2-6.3-5.3-10.6-13.4-10.6C115.9,14.5,110.6,18.7,110.6,24.7L110.6,24.7z M183.8,15.2h-8.1L168,41.1h-0.2l-7.7-25.9h-8.3
	l11.8,33.1h8.6L183.8,15.2z M187,48.4h7.8V15.2H187V48.4z M193.6,10.6l7.3-9.7h-7.4l-5.4,9.7H193.6z M213.1,48.9
	c4.8,0,8.7-2.5,10.5-6.2h0.1v5.7h7.6V3.3h-7.8v17.5h-0.2c-1.8-3.7-5.5-6.1-10.2-6.1c-8.3,0-13.8,6.6-13.8,17.1
	C199.3,42.3,204.7,48.9,213.1,48.9z M215.4,21.1c4.9,0,8.1,4.2,8.1,10.7c0,6.6-3.2,10.7-8.1,10.7c-5,0-8.1-4.1-8.1-10.7
	C207.3,25.2,210.4,21.1,215.4,21.1z M251.5,20.6c4.5,0,7.5,3.3,7.6,8h-15.5C244,23.9,247.2,20.6,251.5,20.6z M259.2,38.5
	c-0.8,2.8-3.6,4.6-7.2,4.6c-5.1,0-8.3-3.6-8.3-8.9v-0.5h23.2v-2.5c0-10.1-5.9-16.6-15.3-16.6c-9.6,0-15.6,6.9-15.6,17.4
	c0,10.6,6,17.1,15.9,17.1c7.8,0,13.7-4.3,14.7-10.6H259.2z M285.9,49c9.7,0,16-6.5,16-17.2c0-10.7-6.4-17.2-16-17.2s-16,6.6-16,17.2
	C269.8,42.5,276.2,49,285.9,49z M285.9,42.9c-4.9,0-8.1-4-8.1-11.1c0-7,3.2-11.1,8.1-11.1c4.9,0,8.1,4,8.1,11.1
	C294,38.9,290.8,42.9,285.9,42.9z M305.7,24.7c0,4.9,3.2,8,9.5,9.4l5.5,1.2c3.5,0.8,4.7,1.9,4.7,3.9c0,2.5-2.3,4-6.1,4
	c-3.9,0-6.2-1.6-6.8-4.8h-7.7c0.6,6.4,5.8,10.5,14.4,10.5c8.1,0,13.9-4.2,13.9-10.5c0-4.8-2.7-7.5-9.5-9l-5.5-1.2
	c-3.5-0.8-4.8-2.1-4.8-4c0-2.4,2.3-4.1,5.7-4.1c3.6,0,5.8,1.9,6.1,4.9h7.2c-0.2-6.3-5.3-10.6-13.4-10.6
	C311,14.5,305.7,18.7,305.7,24.7z M32.3,83.2h-8.1l-7.7,25.9h-0.2L8.7,83.2H0.3l11.8,33.1h8.6L32.3,83.2z M35.5,116.4h7.8V83.2h-7.8
	V116.4z M39.3,78.2c2.3,0,4.2-1.9,4.2-4.2c0-2.3-1.9-4.2-4.2-4.2c-2.3,0-4.2,1.9-4.2,4.2C35.1,76.4,37,78.2,39.3,78.2
	C39.3,78.2,39.3,78.2,39.3,78.2L39.3,78.2z M49.2,116.4H57V97.1c0-4.7,2.7-7.5,7.1-7.5c1.1,0,2.1,0.1,3.2,0.4v-7
	c-0.8-0.2-1.6-0.3-2.4-0.3c-3.9,0-6.8,2.3-7.9,6.3h-0.2v-5.8h-7.5L49.2,116.4L49.2,116.4z M82,111c-3.4,0-5.6-1.7-5.6-4.4
	c0-2.6,2.2-4.3,5.9-4.6l7.7-0.5v2.5C90,108.1,86.4,111,82,111L82,111z M79.7,116.9c4.2,0,8.4-2.2,10.3-5.8h0.2v5.3h7.5V93.5
	c0-6.7-5.3-11-13.6-11c-8.4,0-13.7,4.4-14.1,10.6h7.2c0.5-2.8,2.8-4.5,6.5-4.5c3.8,0,6.2,2,6.2,5.5v2.4L81.2,97
	c-8.1,0.5-12.6,4-12.6,9.9C68.6,112.9,73.3,116.9,79.7,116.9L79.7,116.9z M103.3,116.4h7.8V96.1c0-4,2.6-6.9,6.4-6.9
	c3.6,0,5.9,2.3,5.9,6v21.2h7.6V95.9c0-4,2.6-6.7,6.3-6.7c3.8,0,5.9,2.3,5.9,6.4v20.8h7.8V93.6c0-6.6-4.3-11-10.8-11
	c-4.8,0-8.7,2.6-10.3,6.7h-0.2c-1.2-4.2-4.6-6.7-9.2-6.7c-4.5,0-8,2.5-9.4,6.4h-0.2v-5.8h-7.5V116.4z M183.1,88.6
	c4.5,0,7.5,3.3,7.6,8h-15.5C175.6,91.9,178.7,88.6,183.1,88.6L183.1,88.6z M190.8,106.5c-0.8,2.8-3.6,4.6-7.2,4.6
	c-5.1,0-8.3-3.6-8.3-8.9v-0.5h23.2v-2.5c0-10.1-5.9-16.6-15.3-16.6c-9.6,0-15.6,6.9-15.6,17.4c0,10.6,6,17.1,15.9,17.1
	c7.8,0,13.7-4.3,14.7-10.6H190.8L190.8,106.5z M202.2,92.7c0,4.9,3.2,8,9.5,9.4l5.5,1.2c3.5,0.8,4.7,1.9,4.7,3.9c0,2.5-2.3,4-6.1,4
	c-3.9,0-6.2-1.6-6.8-4.8h-7.7c0.6,6.4,5.8,10.5,14.4,10.5c8.1,0,13.9-4.2,13.9-10.5c0-4.8-2.7-7.5-9.5-9l-5.5-1.2
	c-3.5-0.8-4.8-2.1-4.8-4c0-2.4,2.3-4.1,5.7-4.1c3.6,0,5.8,1.9,6.1,4.9h7.2c-0.2-6.3-5.3-10.6-13.4-10.6
	C207.5,82.5,202.2,86.7,202.2,92.7L202.2,92.7z M236.2,75.5v7.8h-4.8v6h4.8v18.3c0,6.4,2.8,9,10,9c1.4,0,2.7-0.1,4-0.3v-5.9
	c-0.7,0.1-1.5,0.2-2.2,0.2c-2.8,0-4-1.2-4-4V89.2h6.2v-6H244v-7.8H236.2z M254.9,116.4h7.8V97.1c0-4.7,2.7-7.5,7.1-7.5
	c1.1,0,2.1,0.1,3.2,0.4v-7c-0.8-0.2-1.6-0.3-2.4-0.3c-3.9,0-6.8,2.3-7.9,6.3h-0.2v-5.8h-7.5V116.4z M289.4,88.6c4.5,0,7.5,3.3,7.6,8
	h-15.5C281.8,91.9,285,88.6,289.4,88.6L289.4,88.6z M297,106.5c-0.8,2.8-3.6,4.6-7.2,4.6c-5.1,0-8.3-3.6-8.3-8.9v-0.5h23.2v-2.5
	c0-10.1-5.9-16.6-15.3-16.6c-9.6,0-15.6,6.9-15.6,17.4c0,10.6,6,17.1,15.9,17.1c7.8,0,13.7-4.3,14.7-10.6H297L297,106.5z
	 M309.3,116.4h7.8V71.3h-7.8V116.4z M335.2,111c-3.4,0-5.6-1.7-5.6-4.4c0-2.6,2.2-4.3,5.9-4.6l7.7-0.5v2.5
	C343.1,108.1,339.6,111,335.2,111L335.2,111z M332.8,116.9c4.2,0,8.4-2.2,10.3-5.8h0.2v5.3h7.5V93.5c0-6.7-5.3-11-13.6-11
	c-8.4,0-13.7,4.4-14.1,10.6h7.2c0.5-2.8,2.8-4.5,6.5-4.5c3.8,0,6.2,2,6.2,5.5v2.4l-8.8,0.5c-8.1,0.5-12.6,4-12.6,9.9
	C321.8,112.9,326.4,116.9,332.8,116.9L332.8,116.9z M355.9,92.7c0,4.9,3.2,8,9.5,9.4l5.5,1.2c3.5,0.8,4.7,1.9,4.7,3.9
	c0,2.5-2.3,4-6.1,4c-3.9,0-6.2-1.6-6.8-4.8H355c0.6,6.4,5.8,10.5,14.4,10.5c8.1,0,13.9-4.2,13.9-10.5c0-4.8-2.7-7.5-9.5-9l-5.5-1.2
	c-3.5-0.8-4.8-2.1-4.8-4c0-2.4,2.3-4.1,5.7-4.1c3.6,0,5.8,1.9,6.1,4.9h7.2c-0.2-6.3-5.3-10.6-13.4-10.6
	C361.2,82.5,355.9,86.7,355.9,92.7L355.9,92.7z M393.2,116.7c2.5,0,4.5-2,4.5-4.5s-2-4.5-4.5-4.5s-4.5,2-4.5,4.5l0,0
	c0,2.5,1.9,4.5,4.4,4.5C393.1,116.7,393.1,116.7,393.2,116.7L393.2,116.7z"/>
</svg>
