<?xml version="1.0" encoding="utf-8"?>
<!-- Generator: Adobe Illustrator 21.1.0, SVG Export Plug-In . SVG Version: 6.00 Build 0)  -->
<svg version="1.1" id="Layer_1" xmlns="http://www.w3.org/2000/svg" xmlns:xlink="http://www.w3.org/1999/xlink" x="0px" y="0px"
	 viewBox="0 0 234 60" style="enable-background:new 0 0 234 60;" xml:space="preserve">
<style type="text/css">
	.st0{fill:#111111;}
</style>
<path id="RX-S3_Title_3" class="st0" d="M6,23.1v-9.2h9.5v-3.3H6V4h10.3V0.6H2v22.5L6,23.1L6,23.1z M25.8,23.4c4.9,0,8-3.2,8-8.6
	c0-5.4-3.2-8.6-8-8.6s-8,3.3-8,8.6C17.8,20.2,21,23.4,25.8,23.4z M25.8,20.4c-2.5,0-4.1-2-4.1-5.5c0-3.5,1.6-5.5,4.1-5.5
	c2.5,0,4.1,2,4.1,5.5C29.9,18.4,28.3,20.4,25.8,20.4z M37.6,2.7v3.9h-2.4v3h2.4v9.2c0,3.2,1.4,4.5,5,4.5c0.7,0,1.4,0,2-0.2v-3
	c-0.4,0.1-0.7,0.1-1.1,0.1c-1.4,0-2-0.6-2-2V9.6h3.1v-3h-3.1V2.7H37.6L37.6,2.7z M54.4,23.4c4.9,0,8-3.2,8-8.6c0-5.4-3.2-8.6-8-8.6
	s-8,3.3-8,8.6C46.3,20.2,49.5,23.4,54.4,23.4z M54.4,20.4c-2.5,0-4.1-2-4.1-5.5c0-3.5,1.6-5.5,4.1-5.5c2.5,0,4.1,2,4.1,5.5
	C58.4,18.4,56.8,20.4,54.4,20.4z M64.7,11.3c0,2.5,1.6,4,4.8,4.7l2.8,0.6c1.7,0.4,2.3,1,2.3,2c0,1.2-1.2,2-3.1,2
	c-2,0-3.1-0.8-3.4-2.4h-3.8c0.3,3.2,2.9,5.3,7.2,5.3c4.1,0,6.9-2.1,6.9-5.2c0-2.4-1.3-3.7-4.8-4.5l-2.8-0.6c-1.7-0.4-2.4-1.1-2.4-2
	c0-1.2,1.1-2,2.9-2c1.8,0,2.9,0.9,3.1,2.4H78c-0.1-3.1-2.7-5.3-6.7-5.3C67.4,6.2,64.7,8.3,64.7,11.3z M87.3,11.3
	c0,2.5,1.6,4,4.8,4.7l2.8,0.6c1.7,0.4,2.3,1,2.3,2c0,1.2-1.2,2-3.1,2c-2,0-3.1-0.8-3.4-2.4h-3.8c0.3,3.2,2.9,5.3,7.2,5.3
	c4.1,0,6.9-2.1,6.9-5.2c0-2.4-1.3-3.7-4.8-4.5l-2.8-0.6c-1.7-0.4-2.4-1.1-2.4-2c0-1.2,1.1-2,2.9-2c1.8,0,2.9,0.9,3.1,2.4h3.6
	c-0.1-3.1-2.7-5.3-6.7-5.3C89.9,6.2,87.3,8.3,87.3,11.3L87.3,11.3z M110.7,9.2c2.2,0,3.7,1.6,3.8,4h-7.7
	C107,10.9,108.6,9.2,110.7,9.2L110.7,9.2z M114.6,18.2c-0.4,1.4-1.8,2.3-3.6,2.3c-2.5,0-4.2-1.8-4.2-4.4v-0.2h11.6v-1.3
	c0-5-2.9-8.3-7.6-8.3c-4.8,0-7.8,3.4-7.8,8.7c0,5.3,3,8.6,8,8.6c3.9,0,6.8-2.2,7.3-5.3L114.6,18.2L114.6,18.2z M121,23.1h3.9V13
	c0-2,1.3-3.5,3.2-3.5c1.8,0,2.9,1.1,2.9,3v10.6h3.8V12.9c0-2,1.3-3.4,3.2-3.4c1.9,0,3,1.2,3,3.2v10.4h3.9V11.8
	c0-3.3-2.1-5.5-5.4-5.5c-2.2-0.1-4.3,1.2-5.2,3.3h-0.1c-0.6-2.1-2.3-3.3-4.6-3.3c-2.1-0.1-4,1.2-4.7,3.2h-0.1V6.6H121L121,23.1
	L121,23.1z M154.6,23.1h3.9V13c0-2,1.3-3.5,3.2-3.5c1.8,0,2.9,1.1,2.9,3v10.6h3.8V12.9c0-2,1.3-3.4,3.2-3.4c1.9,0,3,1.2,3,3.2v10.4
	h3.9V11.8c0-3.3-2.1-5.5-5.4-5.5c-2.2-0.1-4.3,1.2-5.2,3.3h-0.1c-0.6-2.1-2.3-3.3-4.6-3.3c-2.1-0.1-4,1.2-4.7,3.2h-0.1V6.6h-3.7
	V23.1z M188.8,9.2c2.2,0,3.7,1.6,3.8,4h-7.7C185,10.9,186.6,9.2,188.8,9.2L188.8,9.2z M192.6,18.2c-0.4,1.4-1.8,2.3-3.6,2.3
	c-2.5,0-4.2-1.8-4.2-4.4v-0.2h11.6v-1.3c0-5-2.9-8.3-7.6-8.3c-4.8,0-7.8,3.4-7.8,8.7c0,5.3,3,8.6,8,8.6c3.9,0,6.8-2.2,7.3-5.3
	L192.6,18.2L192.6,18.2z M205.2,23.4c2.2,0.1,4.2-1.1,5.2-3.1h0.1v2.8h3.8V0.6h-3.9v8.8h-0.1c-1-1.9-3-3.1-5.1-3.1
	c-4.2,0-6.9,3.3-6.9,8.6C198.3,20.1,201,23.4,205.2,23.4L205.2,23.4z M206.4,9.5c2.5,0,4.1,2.1,4.1,5.4c0,3.3-1.6,5.4-4.1,5.4
	c-2.5,0-4.1-2.1-4.1-5.4C202.3,11.6,203.9,9.5,206.4,9.5L206.4,9.5z M225.1,23.4c4.9,0,8-3.2,8-8.6c0-5.4-3.2-8.6-8-8.6
	s-8,3.3-8,8.6C217,20.2,220.2,23.4,225.1,23.4L225.1,23.4z M225.1,20.4c-2.5,0-4.1-2-4.1-5.5c0-3.5,1.6-5.5,4.1-5.5
	c2.5,0,4.1,2,4.1,5.5C229.1,18.4,227.5,20.4,225.1,20.4L225.1,20.4z M7.8,59.4c2.2,0.1,4.2-1.1,5.2-3.1h0.1v2.8h3.8V36.6H13v8.8
	h-0.1c-1-1.9-3-3.1-5.1-3.1c-4.2,0-6.9,3.3-6.9,8.6C0.9,56.1,3.6,59.4,7.8,59.4z M9,45.5c2.5,0,4.1,2.1,4.1,5.4
	c0,3.3-1.6,5.4-4.1,5.4c-2.5,0-4.1-2.1-4.1-5.4C4.9,47.6,6.5,45.5,9,45.5L9,45.5z M27.6,59.4c4.9,0,8-3.2,8-8.6c0-5.4-3.2-8.6-8-8.6
	s-8,3.3-8,8.6C19.6,56.2,22.8,59.4,27.6,59.4L27.6,59.4z M27.6,56.4c-2.5,0-4.1-2-4.1-5.5c0-3.5,1.6-5.5,4.1-5.5
	c2.5,0,4.1,2,4.1,5.5C31.7,54.4,30.1,56.4,27.6,56.4L27.6,56.4z M52,45.2c2.2,0,3.7,1.6,3.8,4H48C48.2,46.9,49.8,45.2,52,45.2
	L52,45.2z M55.8,54.2c-0.4,1.4-1.8,2.3-3.6,2.3c-2.5,0-4.2-1.8-4.2-4.4v-0.2h11.6v-1.3c0-5-2.9-8.3-7.6-8.3c-4.8,0-7.8,3.4-7.8,8.7
	c0,5.3,3,8.6,8,8.6c3.9,0,6.8-2.2,7.3-5.3L55.8,54.2L55.8,54.2z M61.9,47.3c0,2.4,1.6,4,4.8,4.7l2.8,0.6c1.7,0.4,2.3,1,2.3,2
	c0,1.2-1.2,2-3.1,2c-2,0-3.1-0.8-3.4-2.4h-3.8c0.3,3.2,2.9,5.3,7.2,5.3c4.1,0,6.9-2.1,6.9-5.2c0-2.4-1.3-3.7-4.8-4.5l-2.8-0.6
	c-1.7-0.4-2.4-1-2.4-2c0-1.2,1.1-2,2.9-2c1.8,0,2.9,0.9,3.1,2.4h3.6c-0.1-3.1-2.7-5.3-6.7-5.3C64.6,42.2,61.9,44.3,61.9,47.3
	L61.9,47.3z M92.8,48.5c-0.3-3.5-3-6.2-7.3-6.2c-4.8,0-7.9,3.3-7.9,8.6c0,5.4,3.1,8.6,8,8.6c4.2,0,7-2.4,7.3-6.1h-3.7
	c-0.2,1.8-1.8,3.1-3.6,3c-2.5,0-4.1-2-4.1-5.5c0-3.4,1.6-5.5,4-5.5c1.8-0.1,3.4,1.3,3.6,3.1H92.8z M110,42.6h-3.9v9.6
	c0,2.4-1.4,4-3.6,4c-2.2,0-3.3-1.3-3.3-3.7v-9.9h-3.9v10.7c0,3.8,2.3,6.2,5.9,6.2c2.5,0,4.2-1.2,5.1-3.2h0.1v2.9h3.8V42.6z
	 M113.3,59.1h3.9v-9.6c0-2.3,1.3-3.8,3.5-3.8c0.5,0,1.1,0.1,1.6,0.2v-3.5c-0.4-0.1-0.8-0.2-1.2-0.2c-2,0-3.4,1.2-4,3.2H117v-2.9
	h-3.7V59.1L113.3,59.1z M131.1,59.4c4.9,0,8-3.2,8-8.6c0-5.4-3.2-8.6-8-8.6s-8,3.3-8,8.6C123.1,56.2,126.3,59.4,131.1,59.4
	L131.1,59.4z M131.1,56.4c-2.5,0-4.1-2-4.1-5.5c0-3.5,1.6-5.5,4.1-5.5c2.5,0,4.1,2,4.1,5.5C135.2,54.4,133.6,56.4,131.1,56.4
	L131.1,56.4z M143.8,59.3c1.2,0,2.2-1,2.2-2.2s-1-2.2-2.2-2.2s-2.2,1-2.2,2.2l0,0C141.6,58.3,142.5,59.3,143.8,59.3
	C143.8,59.3,143.8,59.3,143.8,59.3L143.8,59.3z"/>
</svg>
