<?xml version="1.0" encoding="utf-8"?>
<!-- Generator: Adobe Illustrator 21.1.0, SVG Export Plug-In . SVG Version: 6.00 Build 0)  -->
<svg version="1.1" id="Layer_1" xmlns="http://www.w3.org/2000/svg" xmlns:xlink="http://www.w3.org/1999/xlink" x="0px" y="0px"
	 viewBox="0 0 666 36" style="enable-background:new 0 0 666 36;" xml:space="preserve">
<style type="text/css">
	.st0{fill:#111111;}
</style>
<path id="RX-S3_Title_1" class="st0" d="M18.3,24.9H5.1v-8h12.5v-4H5.1V5.2h13.2V1H0.1v28.2h18.2V24.9z M30.3,21.7l4.3,7.4h5.3
	l-6.6-10.5L40,8.4h-5.3l-4.1,7.3h-0.1l-4.2-7.3h-5.5l6.6,10.4l-6.7,10.3h5.2L30.3,21.7L30.3,21.7L30.3,21.7z M53.8,8.1
	C51,8,48.5,9.5,47.3,12h-0.1V8.4h-4.7V36h4.9V25.7h0.1c1.1,2.3,3.5,3.8,6.5,3.8c5.2,0,8.5-4.1,8.5-10.7C62.4,12.2,59.1,8.1,53.8,8.1
	L53.8,8.1z M52.3,25.5c-3,0-5-2.6-5.1-6.7c0-4,2-6.7,5.1-6.7c3.1,0,5.1,2.6,5.1,6.7C57.4,22.9,55.5,25.5,52.3,25.5z M73.1,25.8
	c-2.1,0-3.5-1.1-3.5-2.8c0-1.6,1.4-2.7,3.7-2.8l4.8-0.3v1.6C78,24,75.8,25.8,73.1,25.8L73.1,25.8z M71.6,29.5c2.7,0,5.3-1.4,6.4-3.6
	h0.1v3.3h4.7V14.9c0-4.2-3.3-6.9-8.5-6.9c-5.3,0-8.6,2.8-8.8,6.6h4.5c0.3-1.7,1.8-2.8,4.1-2.8c2.4,0,3.9,1.2,3.9,3.4v1.5L72.6,17
	c-5,0.3-7.9,2.5-7.9,6.2C64.7,27,67.6,29.5,71.6,29.5z M86.8,29.1h4.9v-12c0-3,1.8-5,4.6-5c2.8,0,4.1,1.6,4.1,4.6v12.4h4.9V15.8
	c0-4.8-2.6-7.7-7.2-7.7c-3.2,0-5.4,1.5-6.5,3.9h-0.1V8.4h-4.7L86.8,29.1L86.8,29.1z M116.8,29.5c3,0,5.4-1.5,6.5-3.9h0.1v3.5h4.8V1
	h-4.9v11h-0.1c-1.2-2.4-3.7-3.9-6.4-3.8c-5.2,0-8.6,4.1-8.6,10.7C108.2,25.4,111.6,29.5,116.8,29.5z M118.3,12.1
	c3.1,0,5.1,2.6,5.1,6.7c0,4.1-2,6.7-5.1,6.7c-3.1,0-5.1-2.6-5.1-6.7C113.2,14.7,115.2,12.1,118.3,12.1L118.3,12.1z M139.8,25.8
	c-2.1,0-3.5-1.1-3.5-2.8c0-1.6,1.4-2.7,3.7-2.8l4.8-0.3v1.6C144.8,24,142.6,25.8,139.8,25.8L139.8,25.8z M138.4,29.5
	c2.7,0,5.3-1.4,6.4-3.6h0.1v3.3h4.7V14.9c0-4.2-3.3-6.9-8.5-6.9c-5.3,0-8.6,2.8-8.8,6.6h4.5c0.3-1.7,1.8-2.8,4.1-2.8
	c2.4,0,3.9,1.2,3.9,3.4v1.5l-5.5,0.3c-5,0.3-7.9,2.5-7.9,6.2C131.5,27,134.4,29.5,138.4,29.5L138.4,29.5z M170.7,29.6
	c6.1,0,10-4,10-10.8c0-6.7-4-10.8-10-10.8s-10,4.1-10,10.8C160.7,25.5,164.6,29.6,170.7,29.6L170.7,29.6z M170.7,25.7
	c-3.1,0-5.1-2.5-5.1-6.9c0-4.4,2-6.9,5.1-6.9c3.1,0,5.1,2.5,5.1,6.9C175.8,23.2,173.8,25.7,170.7,25.7L170.7,25.7z M183.5,14.4
	c0,3.1,2,5,6,5.9l3.4,0.8c2.2,0.5,2.9,1.2,2.9,2.4c0,1.5-1.5,2.5-3.8,2.5c-2.5,0-3.9-1-4.2-3h-4.8c0.4,4,3.6,6.6,9,6.6
	c5.1,0,8.7-2.6,8.7-6.5c0-3-1.7-4.7-6-5.6l-3.4-0.8c-2.2-0.5-3-1.3-3-2.5c0-1.5,1.4-2.5,3.6-2.5c2.2,0,3.6,1.2,3.8,3.1h4.5
	c-0.1-3.9-3.3-6.6-8.4-6.6C186.8,8,183.5,10.6,183.5,14.4z M211.9,29.1h4.9V17.3c0-3.1,1.8-5.1,4.7-5.1c2.8,0,4.3,1.7,4.3,4.6v12.3
	h4.9V15.8c0-4.7-2.7-7.8-7.2-7.8c-3.1,0-5.4,1.4-6.5,3.9h-0.1V1h-4.8L211.9,29.1L211.9,29.1z M243.6,29.6c6.1,0,10-4,10-10.8
	c0-6.7-4-10.8-10-10.8c-6,0-10,4.1-10,10.8C233.6,25.5,237.5,29.6,243.6,29.6L243.6,29.6z M243.6,25.7c-3.1,0-5.1-2.5-5.1-6.9
	c0-4.4,2-6.9,5.1-6.9c3.1,0,5.1,2.5,5.1,6.9C248.7,23.2,246.7,25.7,243.6,25.7L243.6,25.7z M256.7,29.1h4.9V17.1
	c0-2.9,1.7-4.7,4.4-4.7c0.7,0,1.3,0.1,2,0.3V8.3c-0.5-0.1-1-0.2-1.5-0.2c-2.4,0-4.3,1.4-5,4h-0.1V8.4h-4.7L256.7,29.1L256.7,29.1z
	 M270.6,29.1h4.9V8.4h-4.9V29.1z M273,5.3c1.5,0,2.6-1.2,2.6-2.7c0-1.5-1.2-2.6-2.7-2.6c-1.5,0-2.6,1.2-2.6,2.6
	C270.4,4.1,271.5,5.3,273,5.3C273,5.3,273,5.3,273,5.3L273,5.3z M279.1,29.1h16.5v-3.8h-10.5v-0.1l10.3-13.6V8.4h-16.2v3.8h10.6v0.1
	l-10.7,13.9L279.1,29.1L279.1,29.1z M307.9,29.6c6.1,0,10-4,10-10.8c0-6.7-4-10.8-10-10.8s-10,4.1-10,10.8
	C297.8,25.5,301.8,29.6,307.9,29.6L307.9,29.6z M307.9,25.7c-3.1,0-5.1-2.5-5.1-6.9c0-4.4,2-6.9,5.1-6.9c3.1,0,5.1,2.5,5.1,6.9
	C312.9,23.2,310.9,25.7,307.9,25.7L307.9,25.7z M321,29.1h4.9v-12c0-3,1.8-5,4.6-5c2.8,0,4.1,1.6,4.1,4.6v12.4h4.9V15.8
	c0-4.8-2.6-7.7-7.2-7.7c-3.2,0-5.4,1.5-6.5,3.9h-0.1V8.4H321L321,29.1L321,29.1z M344.7,3.6v4.8h-3v3.7h3v11.4c0,4,1.8,5.6,6.2,5.6
	c0.8,0,1.7-0.1,2.5-0.2v-3.7c-0.5,0.1-0.9,0.1-1.4,0.1c-1.7,0-2.5-0.8-2.5-2.5V12.2h3.9V8.4h-3.9V3.6H344.7z M365.3,11.8
	c2.8,0,4.7,2.1,4.8,5h-9.7C360.6,13.9,362.5,11.8,365.3,11.8L365.3,11.8z M370.1,23c-0.5,1.7-2.2,2.9-4.5,2.9
	c-3.2,0-5.2-2.2-5.2-5.6V20h14.5v-1.6c0-6.3-3.7-10.4-9.5-10.4c-6,0-9.8,4.3-9.8,10.9c0,6.6,3.8,10.7,10,10.7c4.9,0,8.5-2.7,9.2-6.6
	H370.1L370.1,23z M377.6,14.4c0,3.1,2,5,6,5.9L387,21c2.2,0.5,2.9,1.2,2.9,2.4c0,1.5-1.5,2.5-3.8,2.5c-2.5,0-3.8-1-4.2-3H377
	c0.4,4,3.6,6.6,9,6.6c5.1,0,8.7-2.6,8.7-6.5c0-3-1.7-4.7-6-5.6l-3.4-0.8c-2.2-0.5-3-1.3-3-2.5c0-1.5,1.4-2.5,3.6-2.5
	c2.2,0,3.6,1.2,3.8,3.1h4.5c-0.1-3.9-3.3-6.6-8.4-6.6C380.9,8,377.6,10.6,377.6,14.4L377.6,14.4z M413.6,29.5c3,0,5.4-1.5,6.5-3.9
	h0.1v3.5h4.8V1h-4.9v11H420c-1.2-2.4-3.7-3.9-6.4-3.8c-5.2,0-8.6,4.1-8.6,10.7C405,25.4,408.3,29.5,413.6,29.5L413.6,29.5z
	 M415,12.1c3.1,0,5.1,2.6,5.1,6.7c0,4.1-2,6.7-5.1,6.7c-3.1,0-5.1-2.6-5.1-6.7C409.9,14.7,411.9,12.1,415,12.1L415,12.1z
	 M436.6,25.8c-2.1,0-3.5-1.1-3.5-2.8c0-1.6,1.3-2.7,3.7-2.8l4.8-0.3v1.6C441.5,24,439.3,25.8,436.6,25.8L436.6,25.8z M435.1,29.5
	c2.7,0,5.3-1.4,6.4-3.6h0.1v3.3h4.7V14.9c0-4.2-3.3-6.9-8.5-6.9c-5.3,0-8.6,2.8-8.8,6.6h4.5c0.3-1.7,1.8-2.8,4.1-2.8
	c2.4,0,3.9,1.2,3.9,3.4v1.5l-5.5,0.3c-5,0.3-7.9,2.5-7.9,6.2C428.2,27,431.1,29.5,435.1,29.5L435.1,29.5z M449.9,14.4
	c0,3.1,2,5,6,5.9l3.4,0.8c2.2,0.5,2.9,1.2,2.9,2.4c0,1.5-1.5,2.5-3.8,2.5c-2.5,0-3.8-1-4.2-3h-4.8c0.4,4,3.6,6.6,9,6.6
	c5.1,0,8.7-2.6,8.7-6.5c0-3-1.7-4.7-6-5.6l-3.4-0.8c-2.2-0.5-3-1.3-3-2.5c0-1.5,1.4-2.5,3.6-2.5c2.2,0,3.6,1.2,3.8,3.1h4.5
	c-0.1-3.9-3.3-6.6-8.4-6.6C453.2,8,449.9,10.6,449.9,14.4L449.9,14.4z M477.8,14.4c0,3.1,2,5,6,5.9l3.4,0.8c2.2,0.5,2.9,1.2,2.9,2.4
	c0,1.5-1.5,2.5-3.8,2.5c-2.5,0-3.8-1-4.2-3h-4.8c0.4,4,3.6,6.6,9,6.6c5.1,0,8.7-2.6,8.7-6.5c0-3-1.7-4.7-6-5.6l-3.4-0.8
	c-2.2-0.5-3-1.3-3-2.5c0-1.5,1.4-2.5,3.6-2.5c2.2,0,3.6,1.2,3.8,3.1h4.5c-0.1-3.9-3.3-6.6-8.4-6.6C481.1,8,477.8,10.6,477.8,14.4
	L477.8,14.4z M516.4,8.4h-4.9v12c0,3-1.7,5-4.5,5c-2.7,0-4.2-1.6-4.2-4.6V8.4h-4.9v13.4c0,4.8,2.9,7.7,7.3,7.7c3.1,0,5.2-1.4,6.3-4
	h0.1v3.6h4.7V8.4z M527.9,25.8c-2.1,0-3.5-1.1-3.5-2.8c0-1.6,1.3-2.7,3.7-2.8l4.8-0.3v1.6C532.9,24,530.7,25.8,527.9,25.8
	L527.9,25.8z M526.4,29.5c2.7,0,5.3-1.4,6.4-3.6h0.1v3.3h4.7V14.9c0-4.2-3.3-6.9-8.5-6.9c-5.3,0-8.6,2.8-8.8,6.6h4.5
	c0.3-1.7,1.8-2.8,4.1-2.8c2.4,0,3.9,1.2,3.9,3.4v1.5l-5.5,0.3c-5,0.3-7.9,2.5-7.9,6.2C519.5,27,522.4,29.5,526.4,29.5L526.4,29.5z
	 M541.2,14.4c0,3.1,2,5,6,5.9l3.4,0.8c2.2,0.5,2.9,1.2,2.9,2.4c0,1.5-1.5,2.5-3.8,2.5c-2.5,0-3.8-1-4.2-3h-4.8c0.4,4,3.6,6.6,9,6.6
	c5.1,0,8.7-2.6,8.7-6.5c0-3-1.7-4.7-6-5.6l-3.4-0.8c-2.2-0.5-3-1.3-3-2.5c0-1.5,1.4-2.5,3.6-2.5c2.2,0,3.6,1.2,3.8,3.1h4.5
	c-0.1-3.9-3.3-6.6-8.4-6.6C544.5,8,541.2,10.6,541.2,14.4L541.2,14.4z M570.8,29.2h4.9v-17h4.1V8.5h-4.1V6.8c0-1.7,0.8-2.6,2.7-2.6
	c0.5,0,1,0,1.5,0.1V1c-0.9-0.1-1.7-0.2-2.6-0.2c-4.5,0-6.4,1.9-6.4,5.9v1.8H568v3.7h2.8V29.2z M591.4,29.6c6.1,0,10-4,10-10.8
	c0-6.7-4-10.8-10-10.8s-10,4.1-10,10.8C581.4,25.5,585.3,29.6,591.4,29.6L591.4,29.6z M591.4,25.7c-3.1,0-5.1-2.5-5.1-6.9
	c0-4.4,2-6.9,5.1-6.9c3.1,0,5.1,2.5,5.1,6.9C596.5,23.2,594.5,25.7,591.4,25.7L591.4,25.7z M605.9,3.6v4.8h-3v3.7h3v11.4
	c0,4,1.8,5.6,6.2,5.6c0.8,0,1.7-0.1,2.5-0.2v-3.7c-0.5,0.1-0.9,0.1-1.4,0.1c-1.7,0-2.5-0.8-2.5-2.5V12.2h3.9V8.4h-3.9V3.6H605.9z
	 M626.7,29.6c6.1,0,10-4,10-10.8c0-6.7-4-10.8-10-10.8s-10,4.1-10,10.8C616.7,25.5,620.6,29.6,626.7,29.6L626.7,29.6z M626.7,25.7
	c-3.1,0-5.1-2.5-5.1-6.9c0-4.4,2-6.9,5.1-6.9c3.1,0,5.1,2.5,5.1,6.9C631.8,23.2,629.8,25.7,626.7,25.7L626.7,25.7z M639.5,14.4
	c0,3.1,2,5,6,5.9l3.4,0.8c2.2,0.5,2.9,1.2,2.9,2.4c0,1.5-1.5,2.5-3.8,2.5c-2.5,0-3.8-1-4.2-3H639c0.4,4,3.6,6.6,9,6.6
	c5.1,0,8.7-2.6,8.7-6.5c0-3-1.7-4.7-6-5.6l-3.4-0.8c-2.2-0.5-3-1.3-3-2.5c0-1.5,1.4-2.5,3.6-2.5c2.2,0,3.6,1.2,3.8,3.1h4.5
	c-0.1-3.9-3.3-6.6-8.4-6.6C642.8,8,639.5,10.6,639.5,14.4L639.5,14.4z M663.1,29.4c1.6,0,2.8-1.3,2.8-2.8c0-1.6-1.3-2.8-2.8-2.8
	s-2.8,1.3-2.8,2.8l0,0C660.3,28.1,661.5,29.3,663.1,29.4C663.1,29.4,663.1,29.4,663.1,29.4L663.1,29.4z"/>
</svg>
