<?xml version="1.0" encoding="utf-8"?>
<!-- Generator: Adobe Illustrator 21.1.0, SVG Export Plug-In . SVG Version: 6.00 Build 0)  -->
<svg version="1.1" id="Layer_1" xmlns="http://www.w3.org/2000/svg" xmlns:xlink="http://www.w3.org/1999/xlink" x="0px" y="0px"
	 viewBox="0 0 624 116" style="enable-background:new 0 0 624 116;" xml:space="preserve">
<style type="text/css">
	.st0{fill:#111111;}
</style>
<path id="RX-S3_Title_1" class="st0" d="M32.3,40.1H11.2V27.3h20v-6.4h-20V8.7h21.1V1.9H3.1V47h29.2V40.1z M50.9,35.1L57.8,47h8.5
	L55.7,30.2l10.7-16.4h-8.5l-6.6,11.6h-0.2l-6.7-11.6h-8.8l10.6,16.6L35.6,47h8.3l6.9-11.9H50.9L50.9,35.1z M88,13.3
	c-4.8,0-8.6,2.4-10.4,6.3h-0.2v-5.7h-7.6v44h7.8V41.5h0.2c1.8,3.7,5.6,6,10.4,6c8.3,0,13.6-6.5,13.6-17.1
	C101.7,19.8,96.4,13.3,88,13.3z M85.6,41.1c-4.8,0-8.1-4.2-8.1-10.7c0-6.4,3.2-10.7,8.1-10.7c5,0,8.2,4.2,8.2,10.7
	C93.7,37,90.6,41.1,85.6,41.1z M118.2,41.6c-3.4,0-5.6-1.7-5.6-4.4c0-2.6,2.2-4.3,5.9-4.6l7.7-0.5v2.5
	C126.2,38.7,122.6,41.6,118.2,41.6z M115.9,47.5c4.2,0,8.4-2.2,10.3-5.8h0.2V47h7.5V24.1c0-6.7-5.3-11-13.6-11
	c-8.4,0-13.7,4.4-14.1,10.6h7.2c0.5-2.8,2.8-4.5,6.5-4.5c3.8,0,6.2,2,6.2,5.5v2.4l-8.8,0.5c-8.1,0.5-12.6,4-12.6,9.9
	C104.8,43.5,109.5,47.5,115.9,47.5z M139.5,47h7.8V27.8c0-4.8,2.8-8,7.3-8c4.4,0,6.6,2.6,6.6,7.3V47h7.8V25.5
	c0-7.7-4.2-12.3-11.5-12.3c-5.1,0-8.6,2.4-10.4,6.3H147v-5.7h-7.5V47z M187,47.5c4.8,0,8.7-2.5,10.5-6.2h0.1V47h7.6V1.9h-7.8v17.5
	h-0.2c-1.8-3.7-5.5-6.1-10.2-6.1c-8.3,0-13.8,6.6-13.8,17.1C173.3,40.9,178.7,47.5,187,47.5z M189.4,19.7c4.9,0,8.1,4.2,8.1,10.7
	c0,6.6-3.2,10.7-8.1,10.7c-5,0-8.1-4.1-8.1-10.7C181.3,23.8,184.4,19.7,189.4,19.7z M223.3,41.6c-3.4,0-5.6-1.7-5.6-4.4
	c0-2.6,2.2-4.3,5.9-4.6l7.7-0.5v2.5C231.3,38.7,227.7,41.6,223.3,41.6L223.3,41.6z M221,47.5c4.2,0,8.4-2.2,10.3-5.8h0.2V47h7.5
	V24.1c0-6.7-5.3-11-13.6-11c-8.4,0-13.7,4.4-14.1,10.6h7.2c0.5-2.8,2.8-4.5,6.5-4.5c3.8,0,6.2,2,6.2,5.5v2.4l-8.8,0.5
	c-8.1,0.5-12.6,4-12.6,9.9C209.9,43.5,214.6,47.5,221,47.5L221,47.5z M271.5,47.6c9.7,0,16-6.5,16-17.2c0-10.7-6.4-17.2-16-17.2
	s-16,6.6-16,17.2C255.5,41.1,261.8,47.6,271.5,47.6L271.5,47.6z M271.5,41.5c-4.9,0-8.1-4-8.1-11.1c0-7,3.2-11.1,8.1-11.1
	c4.9,0,8.1,4,8.1,11.1C279.6,37.5,276.4,41.5,271.5,41.5L271.5,41.5z M291.4,23.3c0,4.9,3.2,8,9.5,9.4l5.5,1.2
	c3.5,0.8,4.7,1.9,4.7,3.9c0,2.5-2.3,4-6.1,4c-3.9,0-6.2-1.6-6.8-4.8h-7.7c0.6,6.4,5.8,10.5,14.4,10.5c8.1,0,13.9-4.2,13.9-10.5
	c0-4.8-2.7-7.5-9.5-9l-5.5-1.2c-3.5-0.8-4.8-2.1-4.8-4c0-2.4,2.3-4.1,5.7-4.1c3.6,0,5.8,1.9,6.1,4.9h7.2
	c-0.2-6.3-5.3-10.6-13.4-10.6C296.7,13.1,291.4,17.3,291.4,23.3L291.4,23.3z M335.7,47h7.8v-19c0-4.9,2.8-8.1,7.5-8.1
	c4.5,0,6.8,2.8,6.8,7.4V47h7.8V25.6c0-7.6-4.3-12.4-11.6-12.4c-5,0-8.7,2.3-10.5,6.3h-0.2V1.9h-7.7V47z M385.9,47.6
	c9.7,0,16-6.5,16-17.2c0-10.7-6.4-17.2-16-17.2s-16,6.6-16,17.2C369.8,41.1,376.1,47.6,385.9,47.6L385.9,47.6z M385.9,41.5
	c-4.9,0-8.1-4-8.1-11.1c0-7,3.2-11.1,8.1-11.1c4.9,0,8.1,4,8.1,11.1C394,37.5,390.8,41.5,385.9,41.5L385.9,41.5z M406.3,47h7.8V27.7
	c0-4.7,2.7-7.5,7.1-7.5c1.1,0,2.1,0.1,3.2,0.4v-7c-0.8-0.2-1.6-0.3-2.4-0.3c-3.9,0-6.8,2.3-7.9,6.3h-0.2v-5.8h-7.5V47z M427.9,47
	h7.8V13.8h-7.8V47z M431.8,8.8c2.3,0,4.2-1.9,4.2-4.2c0-2.3-1.9-4.2-4.2-4.2c-2.3,0-4.2,1.9-4.2,4.2C427.5,6.9,429.4,8.8,431.8,8.8z
	 M441,47h26.4v-6.1h-16.8v-0.2L467.1,19v-5.1h-26v6.1h17V20L441,42.2V47z M486.4,47.6c9.7,0,16-6.5,16-17.2c0-10.7-6.4-17.2-16-17.2
	s-16,6.6-16,17.2C470.3,41.1,476.7,47.6,486.4,47.6z M486.4,41.5c-4.9,0-8.1-4-8.1-11.1c0-7,3.2-11.1,8.1-11.1c4.9,0,8.1,4,8.1,11.1
	C494.5,37.5,491.3,41.5,486.4,41.5z M506.8,47h7.8V27.8c0-4.8,2.8-8,7.3-8c4.4,0,6.6,2.6,6.6,7.3V47h7.8V25.5
	c0-7.7-4.2-12.3-11.5-12.3c-5.1,0-8.6,2.4-10.4,6.3h-0.2v-5.7h-7.5L506.8,47L506.8,47z M544.1,6.1v7.8h-4.8v6h4.8v18.3
	c0,6.4,2.8,9,10,9c1.4,0,2.7-0.1,4-0.3v-5.9c-0.7,0.1-1.5,0.2-2.2,0.2c-2.8,0-4-1.2-4-4V19.8h6.2v-6h-6.2V6.1H544.1z M576.5,19.2
	c4.5,0,7.5,3.3,7.6,8h-15.5C569,22.5,572.1,19.2,576.5,19.2z M584.2,37c-0.8,2.8-3.6,4.6-7.2,4.6c-5.1,0-8.3-3.6-8.3-8.9v-0.5h23.2
	v-2.5c0-10.1-5.9-16.6-15.3-16.6c-9.6,0-15.6,6.9-15.6,17.4c0,10.6,6,17.1,15.9,17.1c7.8,0,13.7-4.3,14.7-10.6H584.2L584.2,37z
	 M595.6,23.3c0,4.9,3.2,8,9.5,9.4l5.5,1.2c3.5,0.8,4.7,1.9,4.7,3.9c0,2.5-2.3,4-6.1,4c-3.9,0-6.2-1.6-6.8-4.8h-7.7
	c0.6,6.4,5.8,10.5,14.4,10.5c8.1,0,13.9-4.2,13.9-10.5c0-4.8-2.7-7.5-9.5-9l-5.5-1.2c-3.5-0.8-4.8-2.1-4.8-4c0-2.4,2.3-4.1,5.7-4.1
	c3.6,0,5.8,1.9,6.1,4.9h7.2c-0.2-6.3-5.3-10.6-13.4-10.6C600.9,13.1,595.6,17.3,595.6,23.3L595.6,23.3z M14.7,115.5
	c4.8,0,8.7-2.5,10.5-6.2h0.1v5.7h7.6V69.9h-7.8v17.5H25c-1.8-3.7-5.5-6.1-10.2-6.1C6.4,81.3,1,87.9,1,98.4
	C1,108.9,6.4,115.5,14.7,115.5z M17.1,87.7c4.9,0,8.1,4.2,8.1,10.7c0,6.6-3.2,10.7-8.1,10.7c-5,0-8.1-4.1-8.1-10.7
	C8.9,91.8,12.1,87.7,17.1,87.7L17.1,87.7z M51,109.6c-3.4,0-5.6-1.7-5.6-4.4c0-2.6,2.2-4.3,5.9-4.6l7.7-0.5v2.5
	C58.9,106.7,55.4,109.6,51,109.6z M48.6,115.5c4.2,0,8.4-2.2,10.3-5.8h0.2v5.3h7.5V92.1c0-6.7-5.3-11-13.6-11
	c-8.4,0-13.7,4.4-14.1,10.6h7.2c0.5-2.8,2.8-4.5,6.5-4.5c3.8,0,6.2,2,6.2,5.5v2.4l-8.8,0.5c-8.1,0.5-12.6,4-12.6,9.9
	C37.6,111.5,42.2,115.5,48.6,115.5z M71.7,91.3c0,4.9,3.2,8,9.5,9.4l5.5,1.2c3.5,0.8,4.7,1.9,4.7,3.9c0,2.5-2.3,4-6.1,4
	c-3.9,0-6.2-1.6-6.8-4.8h-7.7c0.6,6.4,5.8,10.5,14.4,10.5c8.1,0,13.9-4.2,13.9-10.5c0-4.8-2.7-7.5-9.5-9l-5.5-1.2
	c-3.5-0.8-4.8-2.1-4.8-4c0-2.4,2.3-4.1,5.7-4.1c3.6,0,5.8,1.9,6.1,4.9h7.2C98.2,85.5,93,81.1,85,81.1C77,81.1,71.7,85.3,71.7,91.3
	L71.7,91.3z M115.2,91.3c0,4.9,3.2,8,9.5,9.4l5.5,1.2c3.5,0.8,4.7,1.9,4.7,3.9c0,2.5-2.3,4-6.1,4c-3.9,0-6.2-1.6-6.8-4.8h-7.7
	c0.6,6.4,5.8,10.5,14.4,10.5c8.1,0,13.9-4.2,13.9-10.5c0-4.8-2.7-7.5-9.5-9l-5.5-1.2c-3.5-0.8-4.8-2.1-4.8-4c0-2.4,2.3-4.1,5.7-4.1
	c3.6,0,5.8,1.9,6.1,4.9h7.2c-0.2-6.3-5.3-10.6-13.4-10.6C120.4,81.1,115.2,85.3,115.2,91.3z M176.4,81.8h-7.8V101c0,4.8-2.8,8-7.3,8
	c-4.4,0-6.7-2.6-6.7-7.3V81.8h-7.8v21.4c0,7.7,4.6,12.3,11.8,12.3c5,0,8.4-2.3,10.1-6.3h0.2v5.8h7.5L176.4,81.8L176.4,81.8z
	 M194.2,109.6c-3.4,0-5.6-1.7-5.6-4.4c0-2.6,2.2-4.3,5.9-4.6l7.7-0.5v2.5C202.2,106.7,198.6,109.6,194.2,109.6z M191.9,115.5
	c4.3,0,8.4-2.2,10.3-5.8h0.2v5.3h7.5V92.1c0-6.7-5.3-11-13.6-11c-8.4,0-13.7,4.4-14.1,10.6h7.2c0.5-2.8,2.8-4.5,6.5-4.5
	c3.8,0,6.2,2,6.2,5.5v2.4l-8.8,0.5c-8.1,0.5-12.6,4-12.6,9.9C180.8,111.5,185.5,115.5,191.9,115.5z M214.9,91.3c0,4.9,3.2,8,9.5,9.4
	l5.5,1.2c3.5,0.8,4.7,1.9,4.7,3.9c0,2.5-2.3,4-6.1,4c-3.9,0-6.2-1.6-6.8-4.8h-7.7c0.6,6.4,5.8,10.5,14.4,10.5
	c8.1,0,13.9-4.2,13.9-10.5c0-4.8-2.7-7.5-9.5-9l-5.5-1.2c-3.5-0.8-4.8-2.1-4.8-4c0-2.4,2.3-4.1,5.7-4.1c3.6,0,5.8,1.9,6.1,4.9h7.2
	c-0.2-6.3-5.3-10.6-13.4-10.6C220.2,81.1,214.9,85.3,214.9,91.3z M261.2,115h7.8V87.8h6.5v-5.9h-6.6v-2.7c0-2.7,1.3-4.1,4.3-4.1
	c0.8,0,1.6,0.1,2.5,0.2v-5.4c-1.4-0.2-2.8-0.3-4.2-0.3c-7.2,0-10.2,3-10.2,9.5v2.9h-4.5v5.9h4.5L261.2,115L261.2,115z M293.5,115.6
	c9.7,0,16-6.5,16-17.2c0-10.7-6.4-17.2-16-17.2s-16,6.6-16,17.2C277.5,109.1,283.8,115.6,293.5,115.6z M293.5,109.5
	c-4.9,0-8.1-4-8.1-11.1c0-7,3.2-11.1,8.1-11.1c4.9,0,8.1,4,8.1,11.1C301.6,105.5,298.4,109.5,293.5,109.5z M316.1,74.1v7.8h-4.8v6
	h4.8v18.3c0,6.4,2.8,9,10,9c1.4,0,2.7-0.1,4-0.3v-5.9c-0.7,0.1-1.5,0.2-2.2,0.2c-2.8,0-4-1.2-4-4V87.8h6.2v-6h-6.2v-7.8H316.1z
	 M348.9,115.6c9.7,0,16-6.5,16-17.2c0-10.7-6.4-17.2-16-17.2s-16,6.6-16,17.2C332.8,109.1,339.1,115.6,348.9,115.6z M348.9,109.5
	c-4.9,0-8.1-4-8.1-11.1c0-7,3.2-11.1,8.1-11.1c4.9,0,8.1,4,8.1,11.1C357,105.5,353.8,109.5,348.9,109.5z M368.7,91.3
	c0,4.9,3.2,8,9.5,9.4l5.5,1.2c3.5,0.8,4.7,1.9,4.7,3.9c0,2.5-2.3,4-6.1,4c-3.9,0-6.2-1.6-6.8-4.8h-7.7c0.6,6.4,5.8,10.5,14.4,10.5
	c8.1,0,13.9-4.2,13.9-10.5c0-4.8-2.7-7.5-9.5-9l-5.5-1.2c-3.5-0.8-4.8-2.1-4.8-4c0-2.4,2.3-4.1,5.7-4.1c3.6,0,5.8,1.9,6.1,4.9h7.2
	c-0.2-6.3-5.3-10.6-13.4-10.6C374,81.1,368.7,85.3,368.7,91.3z M406,115.3c2.5,0,4.5-2,4.5-4.5s-2-4.5-4.5-4.5s-4.5,2-4.5,4.5l0,0
	c0,2.4,1.9,4.5,4.4,4.5C405.9,115.3,405.9,115.3,406,115.3z"/>
</svg>
