<svg xmlns="http://www.w3.org/2000/svg" width="128" height="20" viewBox="0 0 256 40">
  <metadata><?xpacket begin="﻿" id="W5M0MpCehiHzreSzNTczkc9d"?>
<x:xmpmeta xmlns:x="adobe:ns:meta/" x:xmptk="Adobe XMP Core 5.6-c138 79.159824, 2016/09/14-01:09:01        ">
   <rdf:RDF xmlns:rdf="http://www.w3.org/1999/02/22-rdf-syntax-ns#">
      <rdf:Description rdf:about=""/>
   </rdf:RDF>
</x:xmpmeta>
                                                                                                    
                                                                                                    
                                                                                                    
                                                                                                    
                                                                                                    
                                                                                                    
                                                                                                    
                                                                                                    
                                                                                                    
                                                                                                    
                                                                                                    
                                                                                                    
                                                                                                    
                                                                                                    
                                                                                                    
                                                                                                    
                                                                                                    
                                                                                                    
                                                                                                    
                                                                                                    
                           
<?xpacket end="w"?></metadata>
<defs>
    <style>
      .cls-1 {
        fill: #666;
        fill-rule: evenodd;
      }
    </style>
  </defs>
  <path id="RX-S4_Sub_1" class="cls-1" d="M388.473,7051.95c6.316,0,10.151-3.2,10.151-8.41a7.14,7.14,0,0,0-6.829-7.19v-0.17a6.561,6.561,0,0,0,5.393-6.44c0-4.49-3.465-7.38-8.838-7.38H376.065v29.59h12.408Zm-7.117-25.47h5.661c3.158,0,4.942,1.46,4.942,4.04,0,2.75-2.071,4.31-5.763,4.31h-4.84v-8.35Zm0,21.35v-9.25h5.681c4.061,0,6.193,1.58,6.193,4.59,0,3.04-2.071,4.66-5.967,4.66h-5.907Zm28.927,0.62c-2.215,0-3.691-1.13-3.691-2.92,0-1.72,1.415-2.83,3.876-2.99l5.024-.31v1.66C415.492,7046.52,413.175,7048.45,410.283,7048.45Zm-1.538,3.85a7.7,7.7,0,0,0,6.768-3.81h0.1v3.46h4.922v-14.97c0-4.37-3.507-7.22-8.9-7.22-5.537,0-9,2.91-9.229,6.98h4.738c0.328-1.81,1.866-2.98,4.286-2.98,2.522,0,4.06,1.31,4.06,3.59v1.56l-5.742.33c-5.291.33-8.265,2.64-8.265,6.5C401.485,7049.66,404.541,7052.3,408.745,7052.3Zm17.771-27.17v5.08H423.4v3.94h3.117v12.02c0,4.22,1.845,5.88,6.542,5.88a14.376,14.376,0,0,0,2.645-.2v-3.9a10.017,10.017,0,0,1-1.456.11c-1.8,0-2.625-.82-2.625-2.61v-11.3h4.1v-3.94h-4.1v-5.08h-5.106Zm22.1,8.59c2.932,0,4.9,2.15,5,5.23H443.466C443.671,7035.92,445.742,7033.72,448.614,7033.72Zm5.024,11.73c-0.554,1.81-2.358,3-4.737,3-3.343,0-5.476-2.34-5.476-5.83v-0.31h15.2v-1.66c0-6.6-3.855-10.89-10.028-10.89-6.275,0-10.254,4.53-10.254,11.41,0,6.93,3.938,11.21,10.459,11.21,5.148,0,8.962-2.83,9.618-6.93h-4.778Zm8.727,6.5h5.106V7039.3c0-3.06,1.743-4.92,4.635-4.92a6.635,6.635,0,0,1,2.071.28v-4.61a7.333,7.333,0,0,0-1.6-.21,5.223,5.223,0,0,0-5.208,4.17h-0.1v-3.8h-4.9v21.74Zm15.022,0h5.107v-21.74h-5.107v21.74Zm2.523-25.02a2.765,2.765,0,1,0-2.789-2.77A2.778,2.778,0,0,0,479.91,7026.93Zm15.268,21.52c-2.215,0-3.691-1.13-3.691-2.92,0-1.72,1.415-2.83,3.876-2.99l5.024-.31v1.66C500.387,7046.52,498.07,7048.45,495.178,7048.45Zm-1.538,3.85a7.7,7.7,0,0,0,6.768-3.81h0.1v3.46h4.922v-14.97c0-4.37-3.507-7.22-8.9-7.22-5.537,0-9,2.91-9.229,6.98h4.738c0.328-1.81,1.866-2.98,4.286-2.98,2.522,0,4.06,1.31,4.06,3.59v1.56l-5.742.33c-5.291.33-8.265,2.64-8.265,6.5C486.38,7049.66,489.436,7052.3,493.64,7052.3Zm34.6-18.58c2.933,0,4.9,2.15,5,5.23H523.091C523.3,7035.92,525.367,7033.72,528.238,7033.72Zm5.024,11.73c-0.553,1.81-2.358,3-4.737,3-3.343,0-5.475-2.34-5.475-5.83v-0.31h15.2v-1.66c0-6.6-3.856-10.89-10.029-10.89-6.275,0-10.253,4.53-10.253,11.41,0,6.93,3.937,11.21,10.459,11.21,5.147,0,8.961-2.83,9.618-6.93h-4.779Zm36.752-7.48c-0.349-4.58-3.9-8.21-9.639-8.21-6.317,0-10.418,4.37-10.418,11.32,0,7.06,4.1,11.3,10.459,11.3,5.455,0,9.208-3.2,9.618-8.06h-4.819a4.512,4.512,0,0,1-4.738,3.94c-3.24,0-5.332-2.62-5.332-7.18,0-4.47,2.072-7.17,5.291-7.17a4.6,4.6,0,0,1,4.758,4.06h4.82Zm3.661,13.98h5.106v-12.49c0-3.2,1.866-5.33,4.943-5.33,2.953,0,4.47,1.83,4.47,4.86v12.96H593.3v-14c0-4.99-2.81-8.15-7.609-8.15-3.3,0-5.7,1.5-6.87,4.15h-0.1v-11.59h-5.045v29.59Zm24.292,0h5.106v-21.74h-5.106v21.74Zm2.522-25.02a2.765,2.765,0,1,0-2.789-2.77A2.779,2.779,0,0,0,600.489,7026.93Zm19.268,2.91a7.332,7.332,0,0,0-6.85,4.13h-0.1v-3.76h-4.984v28.9h5.107v-10.77h0.1a7.244,7.244,0,0,0,6.809,3.96c5.455,0,8.941-4.29,8.941-11.22C628.78,7034.13,625.274,7029.84,619.757,7029.84Zm-1.559,18.28c-3.178,0-5.291-2.77-5.311-7.04,0.02-4.22,2.133-7.03,5.311-7.03,3.3,0,5.353,2.75,5.353,7.03C623.551,7045.39,621.5,7048.12,618.2,7048.12Z" transform="translate(-374.421 -7020.25)"/>
</svg>
