<?xml version="1.0" encoding="utf-8"?>
<!-- Generator: Adobe Illustrator 21.1.0, SVG Export Plug-In . SVG Version: 6.00 Build 0)  -->
<svg version="1.1" id="Layer_1" xmlns="http://www.w3.org/2000/svg" xmlns:xlink="http://www.w3.org/1999/xlink" x="0px" y="0px"
	 viewBox="0 0 168 26" style="enable-background:new 0 0 168 26;" xml:space="preserve">
<style type="text/css">
	.st0{fill:#666666;}
</style>
<path id="RX-S4_Sub_1" class="st0" d="M8.8,20.8c4.2,0,6.8-2.1,6.8-5.6c0-2.6-1.9-4.5-4.6-4.8v-0.1C13,9.9,14.6,8.1,14.6,6
	c0-3-2.3-4.9-5.9-4.9H0.5v19.7L8.8,20.8L8.8,20.8z M4,3.8h3.8c2.1,0,3.3,1,3.3,2.7c0,1.8-1.4,2.9-3.8,2.9H4V3.8z M4,18.1v-6.2h3.8
	c2.7,0,4.1,1.1,4.1,3.1c0,2-1.4,3.1-4,3.1H4z M23.2,18.5c-1.5,0-2.5-0.8-2.5-1.9c0-1.1,0.9-1.9,2.6-2l3.3-0.2v1.1
	C26.7,17.2,25.1,18.5,23.2,18.5L23.2,18.5z M22.2,21c1.9,0,3.6-0.9,4.5-2.5h0.1v2.3H30v-10C30,7.9,27.7,6,24.1,6
	c-3.7,0-6,1.9-6.2,4.6h3.2c0.2-1.2,1.2-2,2.9-2c1.7,0,2.7,0.9,2.7,2.4v1l-3.8,0.2c-3.5,0.2-5.5,1.8-5.5,4.3
	C17.3,19.3,19.4,21,22.2,21z M33.9,2.9v3.4h-2.1v2.6h2.1v8c0,2.8,1.2,3.9,4.4,3.9c0.6,0,1.2,0,1.8-0.1v-2.6c-0.3,0-0.6,0.1-1,0.1
	c-1.2,0-1.8-0.5-1.8-1.7V8.9H40V6.3h-2.7V2.9H33.9z M48.5,8.6c2,0,3.3,1.4,3.3,3.5h-6.8C45.2,10.1,46.6,8.6,48.5,8.6z M51.9,16.5
	c-0.4,1.2-1.6,2-3.2,2c-2.2,0-3.7-1.6-3.7-3.9v-0.2h10.1v-1.1c0-4.4-2.6-7.3-6.7-7.3c-4.2,0-6.8,3-6.8,7.6c0,4.6,2.6,7.5,7,7.5
	c3.4,0,6-1.9,6.4-4.6L51.9,16.5L51.9,16.5z M57.6,20.8H61v-8.4c0-2,1.2-3.3,3.1-3.3c0.5,0,0.9,0.1,1.4,0.2V6.2
	c-0.3-0.1-0.7-0.1-1.1-0.1c-1.7,0-3,1-3.5,2.8h-0.1V6.3h-3.3L57.6,20.8L57.6,20.8z M67.5,20.8h3.4V6.3h-3.4V20.8z M69.2,4.1
	c1,0,1.8-0.8,1.8-1.9s-0.8-1.8-1.9-1.8c-1,0-1.8,0.8-1.8,1.8C67.3,3.3,68.1,4.1,69.2,4.1L69.2,4.1z M79.2,18.5
	c-1.5,0-2.5-0.8-2.5-1.9c0-1.1,0.9-1.9,2.6-2l3.3-0.2v1.1C82.7,17.2,81.2,18.5,79.2,18.5L79.2,18.5z M78.2,21c1.9,0,3.6-0.9,4.5-2.5
	h0.1v2.3h3.3v-10c0-2.9-2.3-4.8-5.9-4.8c-3.7,0-6,1.9-6.2,4.6h3.2c0.2-1.2,1.2-2,2.9-2c1.7,0,2.7,0.9,2.7,2.4v1l-3.8,0.2
	c-3.5,0.2-5.5,1.8-5.5,4.3C73.4,19.3,75.4,21,78.2,21L78.2,21z M101,8.6c2,0,3.3,1.4,3.3,3.5h-6.8C97.7,10.1,99.1,8.6,101,8.6
	L101,8.6z M104.4,16.5c-0.4,1.2-1.6,2-3.2,2c-2.2,0-3.7-1.6-3.7-3.9v-0.2h10.1v-1.1c0-4.4-2.6-7.3-6.7-7.3c-4.2,0-6.8,3-6.8,7.6
	c0,4.6,2.6,7.5,7,7.5c3.4,0,6-1.9,6.4-4.6L104.4,16.5L104.4,16.5z M128.7,11.5c-0.2-3-2.6-5.5-6.4-5.5c-4.2,0-6.9,2.9-6.9,7.5
	c0,4.7,2.7,7.5,7,7.5c3.6,0,6.1-2.1,6.4-5.4h-3.2c-0.2,1.6-1.6,2.7-3.2,2.6c-2.2,0-3.6-1.8-3.6-4.8c0-3,1.4-4.8,3.5-4.8
	c1.6-0.1,3,1.1,3.2,2.7L128.7,11.5L128.7,11.5z M131,20.8h3.4v-8.3c0-2.1,1.2-3.5,3.3-3.5c2,0,3,1.2,3,3.2v8.6h3.4v-9.3
	c0-3.3-1.9-5.4-5.1-5.4c-2.2,0-3.8,1-4.6,2.8h-0.1V1.1H131L131,20.8L131,20.8z M147.1,20.8h3.4V6.3h-3.4V20.8z M148.8,4.1
	c1,0,1.8-0.8,1.8-1.9s-0.8-1.8-1.9-1.8c-1,0-1.8,0.8-1.8,1.8C146.9,3.3,147.7,4.1,148.8,4.1L148.8,4.1z M161.5,6.1
	c-1.9-0.1-3.7,1-4.6,2.8h-0.1V6.3h-3.3v19.3h3.4v-7.2h0.1c0.9,1.7,2.6,2.7,4.5,2.6c3.6,0,6-2.9,6-7.5C167.5,8.9,165.2,6.1,161.5,6.1
	L161.5,6.1z M160.5,18.2c-2.1,0-3.5-1.8-3.5-4.7c0-2.8,1.4-4.7,3.5-4.7c2.2,0,3.6,1.8,3.6,4.7C164,16.4,162.7,18.2,160.5,18.2
	L160.5,18.2z"/>
</svg>
