<svg xmlns="http://www.w3.org/2000/svg" width="128" height="20" viewBox="0 0 256 40">
  <metadata><?xpacket begin="﻿" id="W5M0MpCehiHzreSzNTczkc9d"?>
<x:xmpmeta xmlns:x="adobe:ns:meta/" x:xmptk="Adobe XMP Core 5.6-c138 79.159824, 2016/09/14-01:09:01        ">
   <rdf:RDF xmlns:rdf="http://www.w3.org/1999/02/22-rdf-syntax-ns#">
      <rdf:Description rdf:about=""/>
   </rdf:RDF>
</x:xmpmeta>
                                                                                                    
                                                                                                    
                                                                                                    
                                                                                                    
                                                                                                    
                                                                                                    
                                                                                                    
                                                                                                    
                                                                                                    
                                                                                                    
                                                                                                    
                                                                                                    
                                                                                                    
                                                                                                    
                                                                                                    
                                                                                                    
                                                                                                    
                                                                                                    
                                                                                                    
                                                                                                    
                           
<?xpacket end="w"?></metadata>
<defs>
    <style>
      .cls-1 {
        fill: #666;
        fill-rule: evenodd;
      }
    </style>
  </defs>
  <path id="RX-S4_Sub_1" class="cls-1" d="M467.918,7618.49c6.317,0,10.152-3.2,10.152-8.41a7.149,7.149,0,0,0-6.829-7.2v-0.16a6.561,6.561,0,0,0,5.393-6.44c0-4.49-3.466-7.38-8.839-7.38H455.511v29.59h12.407Zm-7.116-25.47h5.66c3.159,0,4.943,1.46,4.943,4.04,0,2.75-2.072,4.31-5.763,4.31H460.8v-8.35Zm0,21.35v-9.25h5.681c4.06,0,6.193,1.58,6.193,4.59,0,3.04-2.071,4.66-5.968,4.66H460.8Zm28.926,0.61c-2.215,0-3.692-1.12-3.692-2.91,0-1.72,1.415-2.83,3.876-2.99l5.025-.31v1.66C494.937,7613.06,492.619,7614.98,489.728,7614.98Zm-1.538,3.86a7.685,7.685,0,0,0,6.767-3.82h0.1v3.47h4.922v-14.97c0-4.37-3.507-7.22-8.9-7.22-5.537,0-9,2.91-9.228,6.97h4.737c0.328-1.8,1.866-2.97,4.286-2.97,2.523,0,4.061,1.31,4.061,3.59v1.56l-5.743.33c-5.291.32-8.264,2.64-8.264,6.5C480.93,7616.19,483.985,7618.84,488.19,7618.84Zm17.769-27.17v5.08h-3.117v3.94h3.117v12.02c0,4.22,1.846,5.88,6.542,5.88a14.4,14.4,0,0,0,2.646-.2v-3.9a10.165,10.165,0,0,1-1.456.1c-1.805,0-2.626-.82-2.626-2.6v-11.3h4.1v-3.94h-4.1v-5.08h-5.106Zm22.1,8.59c2.933,0,4.9,2.15,5,5.23H522.909C523.114,7602.45,525.185,7600.26,528.056,7600.26Zm5.025,11.73c-0.554,1.8-2.359,2.99-4.738,2.99-3.343,0-5.475-2.33-5.475-5.82v-0.31h15.2v-1.66c0-6.6-3.856-10.89-10.028-10.89-6.276,0-10.254,4.53-10.254,11.4,0,6.94,3.937,11.22,10.459,11.22,5.147,0,8.962-2.83,9.618-6.93h-4.778Zm8.725,6.5h5.106v-12.65c0-3.06,1.744-4.92,4.635-4.92a6.637,6.637,0,0,1,2.072.28v-4.61a7.351,7.351,0,0,0-1.6-.21,5.223,5.223,0,0,0-5.209,4.17h-0.1v-3.8h-4.9v21.74Zm15.022,0h5.106v-21.74h-5.106v21.74Zm2.522-25.02a2.77,2.77,0,1,0-2.789-2.77A2.779,2.779,0,0,0,559.35,7593.47Zm15.268,21.51c-2.214,0-3.691-1.12-3.691-2.91,0-1.72,1.415-2.83,3.876-2.99l5.024-.31v1.66C579.827,7613.06,577.51,7614.98,574.618,7614.98Zm-1.538,3.86a7.687,7.687,0,0,0,6.768-3.82h0.1v3.47h4.922v-14.97c0-4.37-3.507-7.22-8.9-7.22-5.537,0-9,2.91-9.229,6.97h4.738c0.328-1.8,1.866-2.97,4.286-2.97,2.522,0,4.06,1.31,4.06,3.59v1.56l-5.742.33c-5.291.32-8.264,2.64-8.264,6.5C565.821,7616.19,568.876,7618.84,573.08,7618.84Zm34.6-18.58c2.932,0,4.9,2.15,5,5.23H602.529C602.734,7602.45,604.8,7600.26,607.677,7600.26Zm5.024,11.73c-0.554,1.8-2.358,2.99-4.737,2.99-3.343,0-5.476-2.33-5.476-5.82v-0.31h15.2v-1.66c0-6.6-3.855-10.89-10.028-10.89-6.275,0-10.254,4.53-10.254,11.4,0,6.94,3.938,11.22,10.459,11.22,5.148,0,8.962-2.83,9.618-6.93H612.7Zm36.75-7.49c-0.349-4.57-3.9-8.2-9.639-8.2-6.317,0-10.418,4.37-10.418,11.32,0,7.06,4.1,11.3,10.459,11.3,5.455,0,9.208-3.2,9.618-8.06h-4.819a4.512,4.512,0,0,1-4.738,3.94c-3.24,0-5.332-2.63-5.332-7.18,0-4.47,2.072-7.18,5.291-7.18a4.607,4.607,0,0,1,4.758,4.06h4.82Zm3.66,13.99h5.106V7606c0-3.2,1.866-5.33,4.942-5.33,2.954,0,4.471,1.82,4.471,4.86v12.96h5.107v-14.01c0-4.98-2.81-8.14-7.609-8.14-3.3,0-5.7,1.5-6.87,4.14h-0.1V7588.9h-5.045v29.59Zm24.291,0h5.106v-21.74H677.4v21.74Zm2.522-25.02a2.77,2.77,0,1,0-2.789-2.77A2.779,2.779,0,0,0,679.924,7593.47Zm19.267,2.91a7.338,7.338,0,0,0-6.849,4.12h-0.1v-3.75h-4.983v28.9h5.106v-10.77h0.1a7.241,7.241,0,0,0,6.808,3.96c5.455,0,8.942-4.29,8.942-11.22C708.215,7600.67,704.708,7596.38,699.191,7596.38Zm-1.558,18.28c-3.179,0-5.291-2.77-5.312-7.04,0.021-4.22,2.133-7.03,5.312-7.03,3.3,0,5.352,2.75,5.352,7.03C702.985,7611.93,700.934,7614.66,697.633,7614.66Z" transform="translate(-453.86 -7586.8)"/>
</svg>
