<?xml version="1.0" encoding="utf-8"?>
<!-- Generator: Adobe Illustrator 21.1.0, SVG Export Plug-In . SVG Version: 6.00 Build 0)  -->
<svg version="1.1" id="Layer_1" xmlns="http://www.w3.org/2000/svg" xmlns:xlink="http://www.w3.org/1999/xlink" x="0px" y="0px"
	 viewBox="0 0 342 116" style="enable-background:new 0 0 342 116;" xml:space="preserve">
<style type="text/css">
	.st0{fill:#111111;}
</style>
<path id="RX-S4_Title_1" class="st0" d="M32.2,40.1H11.1V27.3h20v-6.4h-20V8.7h21.1V1.9H3V47h29.2V40.1z M37.8,47h7.8V27.8
	c0-4.8,2.8-8,7.3-8c4.4,0,6.6,2.6,6.6,7.3V47h7.8V25.5c0-7.7-4.2-12.3-11.5-12.3c-5.1,0-8.6,2.4-10.4,6.3h-0.2v-5.7h-7.5V47z
	 M87.3,19.2c4.5,0,7.5,3.3,7.6,8H79.4C79.7,22.5,82.9,19.2,87.3,19.2L87.3,19.2z M94.9,37c-0.8,2.8-3.6,4.6-7.2,4.6
	c-5.1,0-8.3-3.6-8.3-8.9v-0.5h23.2v-2.5c0-10.1-5.9-16.6-15.3-16.6c-9.6,0-15.6,6.9-15.6,17.4c0,10.6,6,17.1,15.9,17.1
	c7.8,0,13.7-4.3,14.7-10.6H94.9z M106.9,47h7.8V27.7c0-4.7,2.7-7.5,7.1-7.5c1.1,0,2.1,0.1,3.2,0.4v-7c-0.8-0.2-1.6-0.3-2.4-0.3
	c-3.9,0-6.8,2.3-7.9,6.3h-0.2v-5.8h-7.5L106.9,47L106.9,47z M141.7,40.8c-4.9,0-8-3.9-8-10.5c0-6.5,3.1-10.6,8-10.6
	c5,0,8.2,4.2,8.2,10.6C149.9,36.8,146.7,40.8,141.7,40.8L141.7,40.8z M141.7,59.5c9.7,0,16-5.1,16-13V13.8h-7.6v5.7H150
	c-1.9-3.8-5.7-6.2-10.4-6.2c-8.5,0-13.8,6.5-13.8,17c0,10.3,5.4,16.7,13.6,16.7c4.8,0,8.7-2.4,10.4-5.9h0.2v5.6c0,4.2-2.9,7.1-8,7.1
	c-3.7,0-6.5-1.7-7.4-4.2h-7.7C127.6,55.3,133.5,59.5,141.7,59.5L141.7,59.5z M163.7,47h7.8V13.8h-7.8V47z M167.5,8.8
	c2.3,0,4.2-1.9,4.2-4.2c0-2.3-1.9-4.2-4.2-4.2c-2.3,0-4.2,1.9-4.2,4.2C163.3,6.9,165.2,8.8,167.5,8.8C167.5,8.8,167.5,8.8,167.5,8.8
	z M189.5,41.6c-3.4,0-5.6-1.7-5.6-4.4c0-2.6,2.2-4.3,5.9-4.6l7.7-0.5v2.5C197.4,38.7,193.9,41.6,189.5,41.6z M187.1,47.5
	c4.2,0,8.4-2.2,10.3-5.8h0.2V47h7.5V24.1c0-6.7-5.3-11-13.6-11c-8.4,0-13.7,4.4-14.1,10.6h7.2c0.5-2.8,2.8-4.5,6.5-4.5
	c3.8,0,6.2,2,6.2,5.5v2.4l-8.8,0.5c-8.1,0.5-12.6,4-12.6,9.9C176.1,43.5,180.7,47.5,187.1,47.5z M241.2,13.3
	c-4.8,0-8.6,2.4-10.4,6.3h-0.2v-5.7H223v44h7.8V41.5h0.2c1.8,3.7,5.6,6,10.4,6c8.3,0,13.6-6.5,13.6-17.1
	C255,19.8,249.6,13.3,241.2,13.3z M238.8,41.1c-4.8,0-8.1-4.2-8.1-10.7c0-6.4,3.2-10.7,8.1-10.7c5,0,8.2,4.2,8.2,10.7
	C247,37,243.9,41.1,238.8,41.1z M271.5,41.6c-3.4,0-5.6-1.7-5.6-4.4c0-2.6,2.2-4.3,5.9-4.6l7.7-0.5v2.5
	C279.4,38.7,275.9,41.6,271.5,41.6z M269.1,47.5c4.2,0,8.4-2.2,10.3-5.8h0.2V47h7.5V24.1c0-6.7-5.3-11-13.6-11
	c-8.4,0-13.7,4.4-14.1,10.6h7.2c0.5-2.8,2.8-4.5,6.5-4.5c3.8,0,6.2,2,6.2,5.5v2.4l-8.8,0.5c-8.1,0.5-12.6,4-12.6,9.9
	C258.1,43.5,262.7,47.5,269.1,47.5z M292.8,47h7.8V27.7c0-4.7,2.7-7.5,7.1-7.5c1.1,0,2.1,0.1,3.2,0.4v-7c-0.8-0.2-1.6-0.3-2.4-0.3
	c-3.9,0-6.8,2.3-7.9,6.3h-0.2v-5.8h-7.5V47L292.8,47z M325.6,41.6c-3.4,0-5.6-1.7-5.6-4.4c0-2.6,2.2-4.3,5.9-4.6l7.7-0.5v2.5
	C333.5,38.7,330,41.6,325.6,41.6L325.6,41.6z M323.2,47.5c4.2,0,8.4-2.2,10.3-5.8h0.2V47h7.5V24.1c0-6.7-5.3-11-13.6-11
	c-8.4,0-13.7,4.4-14.1,10.6h7.2c0.5-2.8,2.8-4.5,6.5-4.5c3.8,0,6.2,2,6.2,5.5v2.4l-8.8,0.5c-8.1,0.5-12.6,4-12.6,9.9
	C312.2,43.5,316.8,47.5,323.2,47.5L323.2,47.5z M1.6,91.3c0,4.9,3.2,8,9.5,9.4l5.5,1.2c3.5,0.8,4.7,1.9,4.7,3.9c0,2.5-2.3,4-6.1,4
	c-3.9,0-6.2-1.6-6.8-4.8H0.8c0.6,6.4,5.8,10.5,14.4,10.5c8.1,0,13.9-4.2,13.9-10.5c0-4.8-2.7-7.5-9.5-9L14,94.9
	c-3.5-0.8-4.8-2.1-4.8-4c0-2.4,2.3-4.1,5.7-4.1c3.6,0,5.8,1.9,6.1,4.9h7.2c-0.2-6.3-5.3-10.6-13.4-10.6C6.9,81.1,1.6,85.3,1.6,91.3
	L1.6,91.3z M47.7,87.2c4.5,0,7.5,3.3,7.6,8H39.9C40.2,90.5,43.4,87.2,47.7,87.2L47.7,87.2z M55.4,105c-0.8,2.8-3.6,4.6-7.2,4.6
	c-5.1,0-8.3-3.6-8.3-8.9v-0.5H63v-2.5c0-10.1-5.9-16.6-15.3-16.6c-9.6,0-15.6,6.9-15.6,17.4c0,10.6,6,17.1,15.9,17.1
	c7.8,0,13.7-4.3,14.7-10.6H55.4L55.4,105z M96.8,81.8H89V101c0,4.8-2.8,8-7.3,8c-4.4,0-6.7-2.6-6.7-7.3V81.8h-7.8v21.4
	c0,7.7,4.6,12.3,11.8,12.3c5,0,8.4-2.3,10.1-6.3h0.2v5.8h7.5L96.8,81.8L96.8,81.8z M127.2,115.5c4.8,0,8.7-2.5,10.5-6.2h0.1v5.7h7.6
	V69.9h-7.8v17.5h-0.2c-1.8-3.7-5.5-6.1-10.2-6.1c-8.3,0-13.8,6.6-13.8,17.1C113.4,108.9,118.8,115.5,127.2,115.5L127.2,115.5z
	 M129.5,87.7c4.9,0,8.1,4.2,8.1,10.7c0,6.6-3.2,10.7-8.1,10.7c-5,0-8.1-4.1-8.1-10.7C121.4,91.8,124.5,87.7,129.5,87.7L129.5,87.7z
	 M151.5,115h7.8V81.8h-7.8V115z M155.4,76.8c2.3,0,4.2-1.9,4.2-4.2c0-2.3-1.9-4.2-4.2-4.2c-2.3,0-4.2,1.9-4.2,4.2
	C151.1,74.9,153,76.8,155.4,76.8C155.4,76.8,155.4,76.8,155.4,76.8L155.4,76.8z M177.4,109.6c-3.4,0-5.6-1.7-5.6-4.4
	c0-2.6,2.2-4.3,5.9-4.6l7.7-0.5v2.5C185.3,106.7,181.8,109.6,177.4,109.6L177.4,109.6z M175,115.5c4.2,0,8.4-2.2,10.3-5.8h0.2v5.3
	h7.5V92.1c0-6.7-5.3-11-13.6-11c-8.4,0-13.7,4.4-14.1,10.6h7.2c0.5-2.8,2.8-4.5,6.5-4.5c3.8,0,6.2,2,6.2,5.5v2.4l-8.8,0.5
	c-8.1,0.5-12.6,4-12.6,9.9C164,111.5,168.6,115.5,175,115.5L175,115.5z M204.1,115.3c2.5,0,4.5-2,4.5-4.5s-2-4.5-4.5-4.5
	s-4.5,2-4.5,4.5l0,0c0,2.5,1.9,4.5,4.4,4.5C204,115.3,204.1,115.3,204.1,115.3L204.1,115.3z"/>
</svg>
