<?xml version="1.0" encoding="utf-8"?>
<!-- Generator: Adobe Illustrator 21.1.0, SVG Export Plug-In . SVG Version: 6.00 Build 0)  -->
<svg version="1.1" id="Layer_1" xmlns="http://www.w3.org/2000/svg" xmlns:xlink="http://www.w3.org/1999/xlink" x="0px" y="0px"
	 viewBox="0 0 290 30" style="enable-background:new 0 0 290 30;" xml:space="preserve">
<style type="text/css">
	.st0{fill:#111111;}
</style>
<path id="RX-S4_Title_1" class="st0" d="M14.8,20.1H4.3v-6.4h10v-3.2h-10V4.4h10.6V1H0.2v22.5h14.6V20.1z M18.1,23.5h3.9v-9.6
	c0-2.4,1.4-4,3.7-4c2.2,0,3.3,1.3,3.3,3.7v9.9h3.9V12.8c0-3.8-2.1-6.2-5.7-6.2c-2.5,0-4.3,1.2-5.2,3.2h-0.1V6.9h-3.7L18.1,23.5
	L18.1,23.5z M43.2,9.6c2.2,0,3.7,1.6,3.8,4h-7.7C39.4,11.3,41,9.6,43.2,9.6z M47,18.6c-0.4,1.4-1.8,2.3-3.6,2.3
	c-2.5,0-4.2-1.8-4.2-4.4v-0.2h11.6v-1.3c0-5-2.9-8.3-7.6-8.3c-4.8,0-7.8,3.4-7.8,8.7c0,5.3,3,8.6,8,8.6c3.9,0,6.8-2.2,7.3-5.3
	L47,18.6L47,18.6z M53.4,23.5h3.9v-9.6c0-2.3,1.3-3.8,3.5-3.8c0.5,0,1.1,0.1,1.6,0.2V6.8c-0.4-0.1-0.8-0.1-1.2-0.2
	c-2,0-3.4,1.2-4,3.2h-0.1V7h-3.7L53.4,23.5L53.4,23.5z M71.2,20.4c-2.5,0-4-2-4-5.2c0-3.2,1.6-5.3,4-5.3c2.5,0,4.1,2.1,4.1,5.3
	C75.3,18.4,73.7,20.4,71.2,20.4L71.2,20.4z M71.2,29.8c4.8,0,8-2.6,8-6.5V7h-3.8v2.8h-0.1c-1-2-3-3.2-5.2-3.1
	c-4.2,0-6.9,3.3-6.9,8.5c0,5.2,2.7,8.4,6.8,8.4c2.4,0,4.3-1.2,5.2-3h0.1v2.8c0,2.1-1.5,3.5-4,3.5c-1.8,0-3.3-0.9-3.7-2.1h-3.9
	C64.2,27.7,67.1,29.8,71.2,29.8L71.2,29.8z M82.6,23.5h3.9V7h-3.9L82.6,23.5L82.6,23.5z M84.5,4.5c1.2,0,2.1-1,2.1-2.1
	c0-1.2-1-2.1-2.1-2.1c-1.2,0-2.1,1-2.1,2.1C82.4,3.5,83.4,4.5,84.5,4.5L84.5,4.5z M96,20.8c-1.7,0-2.8-0.9-2.8-2.2
	c0-1.3,1.1-2.2,3-2.3l3.8-0.2v1.3C99.9,19.4,98.2,20.8,96,20.8L96,20.8z M94.8,23.8c2.1,0,4.1-1.1,5.2-2.9h0.1v2.6h3.8V12.1
	c0-3.3-2.7-5.5-6.8-5.5c-4.2,0-6.9,2.2-7,5.3h3.6c0.2-1.4,1.4-2.3,3.3-2.3c1.9,0,3.1,1,3.1,2.7v1.2l-4.4,0.2c-4,0.2-6.3,2-6.3,5
	C89.3,21.8,91.6,23.8,94.8,23.8L94.8,23.8z M122.7,6.7c-2.2-0.1-4.3,1.2-5.2,3.1h-0.1V6.9h-3.8v22h3.9v-8.2h0.1c0.9,1.9,2.8,3,5.2,3
	c4.2,0,6.8-3.3,6.8-8.5C129.5,9.9,126.9,6.7,122.7,6.7z M121.5,20.6c-2.4,0-4-2.1-4-5.4c0-3.2,1.6-5.4,4-5.4c2.5,0,4.1,2.1,4.1,5.4
	C125.5,18.5,124,20.6,121.5,20.6z M138.2,20.8c-1.7,0-2.8-0.9-2.8-2.2c0-1.3,1.1-2.2,3-2.3l3.8-0.2v1.3
	C142.2,19.4,140.4,20.8,138.2,20.8L138.2,20.8z M137,23.8c2.1,0,4.1-1.1,5.2-2.9h0.1v2.6h3.8V12.1c0-3.3-2.7-5.5-6.8-5.5
	c-4.2,0-6.9,2.2-7,5.3h3.6c0.2-1.4,1.4-2.3,3.3-2.3c1.9,0,3.1,1,3.1,2.7v1.2l-4.4,0.2c-4,0.2-6.3,2-6.3,5
	C131.5,21.8,133.8,23.8,137,23.8L137,23.8z M149.3,23.5h3.9v-9.6c0-2.3,1.3-3.8,3.5-3.8c0.5,0,1.1,0.1,1.6,0.2V6.8
	c-0.4-0.1-0.8-0.1-1.2-0.2c-2,0-3.4,1.2-4,3.2H153V7h-3.7L149.3,23.5L149.3,23.5z M166.1,20.8c-1.7,0-2.8-0.9-2.8-2.2
	c0-1.3,1.1-2.2,3-2.3l3.8-0.2v1.3C170.1,19.4,168.3,20.8,166.1,20.8L166.1,20.8z M164.9,23.8c2.1,0,4.1-1.1,5.2-2.9h0.1v2.6h3.8
	V12.1c0-3.3-2.7-5.5-6.8-5.5c-4.2,0-6.9,2.2-7,5.3h3.6c0.2-1.4,1.4-2.3,3.3-2.3c1.9,0,3.1,1,3.1,2.7v1.2l-4.4,0.2
	c-4,0.2-6.3,2-6.3,5C159.4,21.8,161.7,23.8,164.9,23.8L164.9,23.8z M183.4,11.7c0,2.5,1.6,4,4.8,4.7l2.8,0.6c1.7,0.4,2.3,1,2.3,2
	c0,1.2-1.2,2-3.1,2c-2,0-3.1-0.8-3.4-2.4H183c0.3,3.2,2.9,5.3,7.2,5.3c4.1,0,6.9-2.1,6.9-5.2c0-2.4-1.3-3.7-4.8-4.5l-2.8-0.6
	c-1.7-0.4-2.4-1.1-2.4-2c0-1.2,1.1-2,2.9-2c1.8,0,2.9,0.9,3.1,2.4h3.6c-0.1-3.1-2.7-5.3-6.7-5.3C186,6.6,183.4,8.7,183.4,11.7
	L183.4,11.7z M206.9,9.6c2.2,0,3.7,1.6,3.8,4h-7.7C203.1,11.3,204.7,9.6,206.9,9.6L206.9,9.6z M210.7,18.6c-0.4,1.4-1.8,2.3-3.6,2.3
	c-2.5,0-4.2-1.8-4.2-4.4v-0.2h11.6v-1.3c0-5-2.9-8.3-7.6-8.3c-4.8,0-7.8,3.4-7.8,8.7c0,5.3,3,8.6,8,8.6c3.9,0,6.8-2.2,7.3-5.3
	L210.7,18.6L210.7,18.6z M231.8,7h-3.9v9.6c0,2.4-1.4,4-3.6,4c-2.2,0-3.3-1.3-3.3-3.7V7H217v10.7c0,3.8,2.3,6.2,5.9,6.2
	c2.5,0,4.2-1.2,5.1-3.2h0.1v2.9h3.8V7L231.8,7z M247.8,23.8c2.2,0.1,4.2-1.1,5.2-3.1h0.1v2.8h3.8V1H253v8.8h-0.1
	c-1-1.9-3-3.1-5.1-3.1c-4.2,0-6.9,3.3-6.9,8.6C240.9,20.5,243.6,23.8,247.8,23.8z M249,9.9c2.5,0,4.1,2.1,4.1,5.4
	c0,3.3-1.6,5.4-4.1,5.4c-2.5,0-4.1-2.1-4.1-5.4C244.9,12,246.5,9.9,249,9.9L249,9.9z M260.4,23.5h3.9V7h-3.9V23.5L260.4,23.5z
	 M262.3,4.5c1.2,0,2.1-1,2.1-2.1s-1-2.1-2.1-2.1c-1.2,0-2.1,1-2.1,2.1C260.2,3.5,261.2,4.5,262.3,4.5L262.3,4.5z M273.7,20.8
	c-1.7,0-2.8-0.9-2.8-2.2c0-1.3,1.1-2.2,3-2.3l3.8-0.2v1.3C277.7,19.4,275.9,20.8,273.7,20.8L273.7,20.8z M272.6,23.8
	c2.1,0,4.1-1.1,5.2-2.9h0.1v2.6h3.8V12.1c0-3.3-2.7-5.5-6.8-5.5c-4.2,0-6.9,2.2-7,5.3h3.6c0.2-1.4,1.4-2.3,3.3-2.3
	c1.9,0,3.1,1,3.1,2.7v1.2l-4.4,0.2c-4,0.2-6.3,2-6.3,5C267,21.8,269.4,23.8,272.6,23.8L272.6,23.8z M287.5,23.7c1.2,0,2.2-1,2.2-2.2
	s-1-2.2-2.2-2.2s-2.2,1-2.2,2.2l0,0C285.3,22.7,286.2,23.7,287.5,23.7C287.5,23.7,287.5,23.7,287.5,23.7L287.5,23.7z"/>
</svg>
