<?xml version="1.0" encoding="utf-8"?>
<!-- Generator: Adobe Illustrator 21.1.0, SVG Export Plug-In . SVG Version: 6.00 Build 0)  -->
<svg version="1.1" id="Layer_1" xmlns="http://www.w3.org/2000/svg" xmlns:xlink="http://www.w3.org/1999/xlink" x="0px" y="0px"
	 viewBox="0 0 290 74" style="enable-background:new 0 0 290 74;" xml:space="preserve">
<style type="text/css">
	.st0{fill:#111111;}
</style>
<path id="RX-S4_Title_1" class="st0" d="M20.4,25.1H7.2v-8h12.5v-4H7.2V5.5h13.2V1.2H2.1v28.2h18.2V25.1L20.4,25.1z M24.3,29.4h4.9
	v-12c0-3,1.8-5,4.6-5c2.8,0,4.1,1.6,4.1,4.6v12.4h4.9V16c0-4.8-2.6-7.7-7.2-7.7c-3.2,0-5.4,1.5-6.5,3.9h-0.1V8.7h-4.7V29.4
	L24.3,29.4z M55.5,12c2.8,0,4.7,2.1,4.8,5h-9.7C50.8,14.1,52.8,12,55.5,12z M60.3,23.2c-0.5,1.7-2.2,2.9-4.5,2.9
	c-3.2,0-5.2-2.2-5.2-5.6v-0.3h14.5v-1.6c0-6.3-3.7-10.4-9.6-10.4c-6,0-9.8,4.3-9.8,10.9c0,6.6,3.8,10.7,10,10.7
	c4.9,0,8.5-2.7,9.2-6.6H60.3L60.3,23.2z M68.2,29.4H73V17.3c0-2.9,1.7-4.7,4.4-4.7c0.7,0,1.3,0.1,2,0.3V8.5c-0.5-0.1-1-0.2-1.5-0.2
	c-2.4,0-4.3,1.4-5,4h-0.1V8.7h-4.7L68.2,29.4L68.2,29.4z M90.3,25.5c-3.1,0-5-2.5-5-6.6c0-4.1,2-6.6,5-6.6c3.1,0,5.1,2.6,5.1,6.6
	C95.4,23,93.4,25.5,90.3,25.5z M90.3,37.2c6,0,10-3.2,10-8.1V8.7h-4.8v3.6h-0.1c-1.2-2.5-3.8-4-6.5-3.9c-5.3,0-8.6,4.1-8.6,10.6
	c0,6.4,3.4,10.4,8.5,10.4c3,0,5.4-1.5,6.5-3.7h0.1v3.5c0,2.6-1.8,4.4-5,4.4c-2.3,0-4.1-1.1-4.6-2.7H81
	C81.5,34.6,85.1,37.2,90.3,37.2L90.3,37.2z M104.3,29.4h4.9V8.7h-4.9V29.4z M106.7,5.6c1.5,0,2.6-1.2,2.6-2.7c0-1.5-1.2-2.6-2.7-2.6
	c-1.5,0-2.6,1.2-2.6,2.6C104.1,4.4,105.3,5.6,106.7,5.6C106.7,5.6,106.7,5.6,106.7,5.6L106.7,5.6z M120.8,26c-2.1,0-3.5-1.1-3.5-2.8
	c0-1.6,1.4-2.7,3.7-2.9l4.8-0.3v1.6C125.8,24.2,123.6,26,120.8,26L120.8,26z M119.4,29.7c2.7,0,5.3-1.4,6.4-3.6h0.1v3.3h4.7V15.1
	c0-4.2-3.3-6.9-8.5-6.9c-5.3,0-8.6,2.8-8.8,6.6h4.5c0.3-1.7,1.8-2.8,4.1-2.8c2.4,0,3.9,1.2,3.9,3.4V17l-5.5,0.3
	c-5,0.3-7.9,2.5-7.9,6.2C112.5,27.2,115.4,29.7,119.4,29.7L119.4,29.7z M153.9,8.3c-2.8-0.1-5.3,1.4-6.5,3.9h-0.1V8.7h-4.7v27.5h4.9
	V25.9h0.1c1.1,2.3,3.5,3.8,6.5,3.8c5.2,0,8.5-4.1,8.5-10.7C162.5,12.4,159.2,8.3,153.9,8.3L153.9,8.3z M152.4,25.7
	c-3,0-5-2.6-5.1-6.7c0-4,2-6.7,5.1-6.7c3.1,0,5.1,2.6,5.1,6.7C157.5,23.1,155.6,25.7,152.4,25.7L152.4,25.7z M173.2,26
	c-2.1,0-3.5-1.1-3.5-2.8c0-1.6,1.3-2.7,3.7-2.9l4.8-0.3v1.6C178.1,24.2,175.9,26,173.2,26L173.2,26z M171.7,29.7
	c2.7,0,5.3-1.4,6.4-3.6h0.1v3.3h4.7V15.1c0-4.2-3.3-6.9-8.5-6.9c-5.3,0-8.6,2.8-8.8,6.6h4.5c0.3-1.7,1.8-2.8,4.1-2.8
	c2.4,0,3.9,1.2,3.9,3.4V17l-5.5,0.3c-5,0.3-7.9,2.5-7.9,6.2C164.8,27.2,167.7,29.7,171.7,29.7L171.7,29.7z M186.8,29.4h4.9V17.3
	c0-2.9,1.7-4.7,4.4-4.7c0.7,0,1.3,0.1,2,0.3V8.5c-0.5-0.1-1-0.2-1.5-0.2c-2.4,0-4.3,1.4-5,4h-0.1V8.7h-4.7V29.4z M207.7,26
	c-2.1,0-3.5-1.1-3.5-2.8c0-1.6,1.4-2.7,3.7-2.9l4.8-0.3v1.6C212.7,24.2,210.5,26,207.7,26L207.7,26z M206.2,29.7
	c2.7,0,5.3-1.4,6.4-3.6h0.1v3.3h4.7V15.1c0-4.2-3.3-6.9-8.5-6.9c-5.3,0-8.6,2.8-8.8,6.6h4.5c0.3-1.7,1.8-2.8,4.1-2.8
	c2.4,0,3.9,1.2,3.9,3.4V17l-5.5,0.3c-5,0.3-7.9,2.5-7.9,6.2C199.3,27.2,202.2,29.7,206.2,29.7L206.2,29.7z M229,14.6
	c0,3.1,2,5,6,5.9l3.4,0.8c2.2,0.5,2.9,1.2,2.9,2.4c0,1.5-1.5,2.5-3.8,2.5c-2.5,0-3.9-1-4.2-3h-4.8c0.4,4,3.6,6.6,9,6.6
	c5.1,0,8.7-2.6,8.7-6.5c0-3-1.7-4.7-6-5.6l-3.4-0.8c-2.2-0.5-3-1.3-3-2.5c0-1.5,1.4-2.5,3.6-2.5c2.2,0,3.6,1.2,3.8,3.1h4.5
	c-0.1-3.9-3.3-6.6-8.4-6.6C232.3,8.3,229,10.8,229,14.6L229,14.6z M258.2,12c2.8,0,4.7,2.1,4.8,5h-9.7C253.5,14.1,255.5,12,258.2,12
	L258.2,12z M263,23.2c-0.5,1.7-2.2,2.9-4.5,2.9c-3.2,0-5.2-2.2-5.2-5.6v-0.3h14.5v-1.6c0-6.3-3.7-10.4-9.5-10.4
	c-6,0-9.8,4.3-9.8,10.9c0,6.6,3.8,10.7,10,10.7c4.9,0,8.5-2.7,9.2-6.6H263L263,23.2z M289.2,8.7h-4.9v12c0,3-1.7,5-4.5,5
	c-2.7,0-4.2-1.6-4.2-4.6V8.7h-4.9v13.4c0,4.8,2.9,7.7,7.3,7.7c3.1,0,5.2-1.4,6.3-4h0.1v3.6h4.7L289.2,8.7L289.2,8.7z M9.4,73.7
	c3,0,5.4-1.5,6.5-3.9H16v3.5h4.8V45.2h-4.9v11h-0.1c-1.2-2.4-3.7-3.9-6.4-3.8c-5.2,0-8.6,4.1-8.6,10.7C0.8,69.6,4.2,73.7,9.4,73.7z
	 M10.9,56.3c3.1,0,5.1,2.6,5.1,6.7c0,4.1-2,6.7-5.1,6.7c-3.1,0-5.1-2.6-5.1-6.7C5.8,58.9,7.7,56.3,10.9,56.3z M25,73.4h4.9V52.7H25
	V73.4z M27.4,49.6c1.5,0,2.6-1.2,2.6-2.7c0-1.5-1.2-2.6-2.7-2.6c-1.5,0-2.6,1.2-2.6,2.6C24.7,48.4,25.9,49.6,27.4,49.6
	C27.4,49.6,27.4,49.6,27.4,49.6z M41.5,70C39.4,70,38,69,38,67.3c0-1.6,1.4-2.7,3.7-2.9l4.8-0.3v1.6C46.4,68.2,44.2,70,41.5,70
	L41.5,70z M40,73.7c2.7,0,5.3-1.4,6.4-3.6h0.1v3.3h4.7V59.1c0-4.2-3.3-6.9-8.5-6.9c-5.3,0-8.6,2.8-8.8,6.6h4.5
	c0.3-1.7,1.8-2.8,4.1-2.8c2.4,0,3.9,1.2,3.9,3.4V61L41,61.3c-5,0.3-7.9,2.5-7.9,6.2C33.1,71.2,36,73.7,40,73.7L40,73.7z M58.5,73.6
	c1.6,0,2.8-1.3,2.8-2.8S60.1,68,58.5,68c-1.6,0-2.8,1.3-2.8,2.8C55.7,72.3,56.9,73.6,58.5,73.6C58.5,73.6,58.5,73.6,58.5,73.6
	L58.5,73.6z"/>
</svg>
