<?xml version="1.0" encoding="utf-8"?>
<!-- Generator: Adobe Illustrator 21.1.0, SVG Export Plug-In . SVG Version: 6.00 Build 0)  -->
<svg version="1.1" id="Layer_1" xmlns="http://www.w3.org/2000/svg" xmlns:xlink="http://www.w3.org/1999/xlink" x="0px" y="0px"
	 viewBox="0 0 146 22" style="enable-background:new 0 0 146 22;" xml:space="preserve">
<style type="text/css">
	.st0{fill:#666666;}
</style>
<path id="RX-S5_Sub_1" class="st0" d="M0.6,1.3V21h3.5v-6.5h4c4,0,6.8-2.7,6.8-6.6c0-4-2.7-6.6-6.6-6.6H0.6z M4.2,4.2h3.2
	c2.5,0,4,1.4,4,3.8c0,2.4-1.5,3.8-4,3.8H4.2V4.2z M17.4,21h3.4v-8.5c0-2,1.2-3.2,3.1-3.2c0.5,0,0.9,0,1.4,0.2V6.4
	c-0.3-0.1-0.7-0.1-1.1-0.1c-1.7,0-3,1-3.5,2.8h-0.1V6.5h-3.3L17.4,21L17.4,21z M27.3,21h3.4V6.5h-3.4V21z M29,4.4
	c1,0,1.9-0.8,1.9-1.9c0-1-0.8-1.9-1.9-1.9c-1,0-1.9,0.8-1.9,1.9C27.1,3.5,27.9,4.4,29,4.4L29,4.4z M46.5,6.5h-3.6l-3.4,11.4h-0.1
	L36.1,6.5h-3.6L37.6,21h3.7L46.5,6.5z M53.2,18.7c-1.5,0-2.5-0.8-2.5-1.9s0.9-1.9,2.6-2l3.3-0.2v1.1C56.7,17.4,55.1,18.7,53.2,18.7
	L53.2,18.7z M52.2,21.3c1.9,0,3.6-1,4.5-2.5h0.1V21h3.3v-10c0-3-2.3-4.9-5.9-4.9c-3.7,0-6,2-6.2,4.6h3.2c0.2-1.2,1.2-2,2.9-2
	c1.7,0,2.7,0.9,2.7,2.4v1l-3.8,0.2c-3.5,0.2-5.5,1.8-5.5,4.3C47.3,19.5,49.4,21.3,52.2,21.3z M75.8,11.7c-0.2-3-2.6-5.5-6.4-5.5
	c-4.2,0-6.9,3-6.9,7.5c0,4.7,2.7,7.5,7,7.5c3.6,0,6.1-2.1,6.4-5.4h-3.2c-0.2,1.6-1.6,2.7-3.2,2.6c-2.2,0-3.6-1.8-3.6-4.8
	c0-3,1.4-4.8,3.5-4.8c1.6-0.1,3,1.1,3.2,2.7H75.8z M78.1,21h3.4V6.5h-3.4V21z M79.7,4.4c1,0,1.9-0.8,1.9-1.9c0-1-0.8-1.9-1.9-1.9
	c-1,0-1.9,0.8-1.9,1.9C77.9,3.5,78.7,4.4,79.7,4.4z M89.9,21.3c1.9,0.1,3.7-1,4.6-2.7h0.1V21h3.3V1.3h-3.4V9h-0.1
	c-0.8-1.7-2.6-2.8-4.5-2.7c-3.7,0-6,2.9-6,7.5S86.3,21.3,89.9,21.3L89.9,21.3z M91,9.1c2.1,0,3.6,1.9,3.6,4.7c0,2.9-1.4,4.7-3.6,4.7
	c-2.2,0-3.6-1.8-3.6-4.7C87.4,10.9,88.8,9.1,91,9.1z M106.2,18.7c-1.5,0-2.5-0.8-2.5-1.9s0.9-1.9,2.6-2l3.3-0.2v1.1
	C109.7,17.4,108.2,18.7,106.2,18.7z M105.2,21.3c1.9,0,3.6-1,4.5-2.5h0.1V21h3.3v-10c0-3-2.3-4.9-5.9-4.9c-3.7,0-6,2-6.2,4.6h3.2
	c0.2-1.2,1.2-2,2.9-2c1.7,0,2.7,0.9,2.7,2.4v1l-3.8,0.2c-3.5,0.2-5.5,1.8-5.5,4.3C100.4,19.5,102.4,21.3,105.2,21.3z M121.4,21.3
	c1.9,0.1,3.7-1,4.6-2.7h0.1V21h3.3V1.3H126V9h-0.1c-0.8-1.7-2.6-2.8-4.5-2.7c-3.7,0-6,2.9-6,7.5S117.8,21.3,121.4,21.3L121.4,21.3z
	 M122.5,9.1c2.1,0,3.6,1.9,3.6,4.7c0,2.9-1.4,4.7-3.6,4.7c-2.2,0-3.6-1.8-3.6-4.7C118.9,10.9,120.3,9.1,122.5,9.1z M138.7,8.9
	c2,0,3.3,1.5,3.3,3.5h-6.8C135.4,10.3,136.8,8.9,138.7,8.9L138.7,8.9z M142,16.7c-0.4,1.2-1.6,2-3.2,2c-2.2,0-3.7-1.5-3.7-3.9v-0.2
	h10.1v-1.1c0-4.4-2.6-7.2-6.7-7.2c-4.2,0-6.8,3-6.8,7.6c0,4.6,2.6,7.5,7,7.5c3.4,0,6-1.9,6.4-4.6H142z"/>
</svg>
