<?xml version="1.0" encoding="utf-8"?>
<!-- Generator: Adobe Illustrator 21.1.0, SVG Export Plug-In . SVG Version: 6.00 Build 0)  -->
<svg version="1.1" id="Layer_1" xmlns="http://www.w3.org/2000/svg" xmlns:xlink="http://www.w3.org/1999/xlink" x="0px" y="0px"
	 viewBox="0 0 110 16" style="enable-background:new 0 0 110 16;" xml:space="preserve">
<style type="text/css">
	.st0{fill:#666666;}
</style>
<path id="RX-S5_Sub_1" class="st0" d="M0.3,0.7v14.8h2.6v-4.9h3c3,0,5.1-2,5.1-5s-2-5-5-5L0.3,0.7L0.3,0.7z M2.9,2.9h2.4
	c1.9,0,3,1,3,2.8c0,1.8-1.1,2.8-3,2.8H2.9L2.9,2.9L2.9,2.9z M12.9,15.5h2.6V9.2c0-1.5,0.9-2.5,2.3-2.5c0.4,0,0.7,0,1,0.1V4.6
	c-0.3-0.1-0.5-0.1-0.8-0.1c-1.3,0-2.4,0.9-2.6,2.1h-0.1V4.7h-2.4L12.9,15.5L12.9,15.5z M20.4,15.5H23V4.7h-2.6V15.5z M21.7,3
	c0.8,0,1.4-0.6,1.4-1.4c0-0.8-0.6-1.4-1.4-1.4c-0.8,0-1.4,0.6-1.4,1.4C20.3,2.4,20.9,3,21.7,3C21.7,3,21.7,3,21.7,3L21.7,3z
	 M34.9,4.7h-2.7l-2.5,8.5h0l-2.5-8.5h-2.7l3.9,10.9h2.8L34.9,4.7z M40.1,13.8c-1.1,0-1.8-0.6-1.8-1.5c0-0.9,0.7-1.4,1.9-1.5l2.5-0.2
	v0.8C42.7,12.8,41.5,13.8,40.1,13.8L40.1,13.8z M39.3,15.7c1.4,0,2.7-0.7,3.4-1.9h0v1.7h2.5V8c0-2.2-1.8-3.6-4.5-3.6
	c-2.8,0-4.5,1.5-4.6,3.5h2.4c0.2-0.9,0.9-1.5,2.1-1.5c1.3,0,2,0.7,2,1.8V9l-2.9,0.2c-2.6,0.2-4.1,1.3-4.1,3.2
	C35.7,14.4,37.2,15.7,39.3,15.7L39.3,15.7z M57.1,8.5c-0.2-2.3-2-4.1-4.8-4.1c-3.2,0-5.2,2.2-5.2,5.7c0,3.5,2,5.6,5.2,5.6
	c2.7,0,4.6-1.6,4.8-4h-2.4c-0.1,1.2-1.2,2-2.4,2c-1.6,0-2.7-1.3-2.7-3.6c0-2.2,1-3.6,2.6-3.6c1.2,0,2.2,0.8,2.4,2L57.1,8.5L57.1,8.5
	z M58.9,15.5h2.6V4.7h-2.6V15.5z M60.1,3c0.8,0,1.4-0.6,1.4-1.4c0-0.8-0.6-1.4-1.4-1.4c-0.8,0-1.4,0.6-1.4,1.4
	C58.8,2.4,59.4,3,60.1,3L60.1,3z M67.9,15.7c1.4,0.1,2.8-0.7,3.4-2h0v1.9h2.5V0.7h-2.5v5.8h-0.1c-0.6-1.3-1.9-2.1-3.4-2
	c-2.7,0-4.5,2.2-4.5,5.6C63.4,13.5,65.1,15.7,67.9,15.7L67.9,15.7z M68.6,6.6c1.6,0,2.7,1.4,2.7,3.5c0,2.2-1.1,3.5-2.7,3.5
	c-1.6,0-2.7-1.4-2.7-3.5C66,7.9,67,6.6,68.6,6.6L68.6,6.6z M80.2,13.8c-1.1,0-1.8-0.6-1.8-1.5c0-0.9,0.7-1.4,1.9-1.5l2.5-0.2v0.8
	C82.8,12.8,81.6,13.8,80.2,13.8L80.2,13.8z M79.4,15.7c1.4,0,2.7-0.7,3.4-1.9h0v1.7h2.5V8c0-2.2-1.8-3.6-4.5-3.6
	c-2.8,0-4.5,1.5-4.6,3.5h2.4c0.2-0.9,0.9-1.5,2.1-1.5c1.3,0,2,0.7,2,1.8V9l-2.9,0.2c-2.6,0.2-4.1,1.3-4.1,3.2
	C75.8,14.4,77.3,15.7,79.4,15.7L79.4,15.7z M91.7,15.7c1.4,0.1,2.8-0.7,3.4-2h0v1.9h2.5V0.7h-2.6v5.8H95c-0.6-1.3-1.9-2.1-3.4-2
	c-2.7,0-4.5,2.2-4.5,5.6C87.1,13.5,88.9,15.7,91.7,15.7L91.7,15.7z M92.4,6.6c1.6,0,2.7,1.4,2.7,3.5c0,2.2-1.1,3.5-2.7,3.5
	c-1.6,0-2.7-1.4-2.7-3.5C89.8,7.9,90.8,6.6,92.4,6.6L92.4,6.6z M104.7,6.4c1.5,0,2.5,1.1,2.5,2.6h-5.1
	C102.2,7.5,103.3,6.4,104.7,6.4L104.7,6.4z M107.2,12.3c-0.3,0.9-1.2,1.5-2.4,1.5c-1.7,0-2.7-1.2-2.7-2.9v-0.2h7.6V9.9
	c0-3.3-1.9-5.4-5-5.4c-3.1,0-5.1,2.3-5.1,5.7c0,3.5,2,5.6,5.2,5.6c2.6,0,4.5-1.4,4.8-3.5L107.2,12.3L107.2,12.3z"/>
</svg>
