<?xml version="1.0" encoding="utf-8"?>
<!-- Generator: Adobe Illustrator 21.1.0, SVG Export Plug-In . SVG Version: 6.00 Build 0)  -->
<svg version="1.1" id="Layer_1" xmlns="http://www.w3.org/2000/svg" xmlns:xlink="http://www.w3.org/1999/xlink" x="0px" y="0px"
	 viewBox="0 0 282 74" style="enable-background:new 0 0 282 74;" xml:space="preserve">
<style type="text/css">
	.st0{fill:#111111;}
</style>
<path id="RX-S5_Title_1" class="st0" d="M2.6,1.2v28.2h5V20h5.7c5.7,0,9.7-3.8,9.7-9.4s-3.9-9.4-9.5-9.4H2.6z M7.7,5.3h4.6
	c3.6,0,5.7,1.9,5.7,5.3c0,3.4-2.1,5.4-5.7,5.4H7.7L7.7,5.3L7.7,5.3z M26.3,29.3h4.9V17.3c0-2.9,1.7-4.7,4.4-4.7c0.7,0,1.3,0.1,2,0.3
	V8.5c-0.5-0.1-1-0.2-1.5-0.2c-2.4,0-4.3,1.4-5,4h-0.1V8.6h-4.7L26.3,29.3L26.3,29.3z M40.1,29.3H45V8.6h-4.9V29.3z M42.5,5.5
	c1.5,0,2.6-1.2,2.6-2.7s-1.2-2.6-2.7-2.6c-1.4,0-2.6,1.2-2.6,2.6C39.9,4.3,41.1,5.5,42.5,5.5C42.5,5.5,42.5,5.5,42.5,5.5L42.5,5.5z
	 M67.3,8.6h-5.1l-4.8,16.2h-0.1L52.5,8.6h-5.2l7.3,20.7H60L67.3,8.6z M76.6,26c-2.1,0-3.5-1.1-3.5-2.8c0-1.6,1.3-2.7,3.7-2.9
	l4.8-0.3v1.6C81.6,24.2,79.4,26,76.6,26L76.6,26z M75.2,29.7c2.7,0,5.3-1.4,6.4-3.6h0.1v3.3h4.7V15.1c0-4.2-3.3-6.9-8.5-6.9
	c-5.3,0-8.6,2.8-8.8,6.6h4.5c0.3-1.7,1.8-2.8,4.1-2.8c2.4,0,3.9,1.2,3.9,3.4v1.5l-5.5,0.3c-5,0.3-7.9,2.5-7.9,6.2
	C68.3,27.2,71.2,29.7,75.2,29.7L75.2,29.7z M108.5,16c-0.3-4.4-3.7-7.8-9.2-7.8c-6,0-9.9,4.2-9.9,10.8c0,6.7,3.9,10.8,10,10.8
	c5.2,0,8.8-3.1,9.2-7.7H104c-0.5,2.3-2.1,3.8-4.5,3.8c-3.1,0-5.1-2.5-5.1-6.8c0-4.3,2-6.8,5-6.8c2.6,0,4.1,1.7,4.5,3.9H108.5
	L108.5,16z M111.6,29.3h4.9V8.6h-4.9V29.3z M114,5.5c1.5,0,2.6-1.2,2.6-2.7s-1.2-2.6-2.7-2.6c-1.4,0-2.6,1.2-2.6,2.6
	C111.3,4.3,112.5,5.5,114,5.5C114,5.5,114,5.5,114,5.5L114,5.5z M128.3,29.7c3,0,5.4-1.5,6.5-3.9h0.1v3.5h4.8V1.2h-4.9v11h-0.1
	c-1.2-2.4-3.7-3.9-6.4-3.8c-5.2,0-8.6,4.1-8.6,10.7C119.7,25.6,123,29.7,128.3,29.7L128.3,29.7z M129.7,12.3c3.1,0,5.1,2.6,5.1,6.7
	c0,4.1-2,6.7-5.1,6.7c-3.1,0-5.1-2.6-5.1-6.7C124.6,14.9,126.6,12.3,129.7,12.3L129.7,12.3z M151.3,26c-2.1,0-3.5-1.1-3.5-2.8
	c0-1.6,1.3-2.7,3.7-2.9l4.8-0.3v1.6C156.2,24.2,154,26,151.3,26L151.3,26z M149.8,29.7c2.7,0,5.2-1.4,6.4-3.6h0.1v3.3h4.7V15.1
	c0-4.2-3.3-6.9-8.5-6.9c-5.3,0-8.6,2.8-8.8,6.6h4.5c0.3-1.7,1.8-2.8,4.1-2.8c2.4,0,3.9,1.2,3.9,3.4v1.5l-5.5,0.3
	c-5,0.3-7.9,2.5-7.9,6.2C142.9,27.2,145.8,29.7,149.8,29.7L149.8,29.7z M172.7,29.7c3,0,5.4-1.5,6.5-3.9h0.1v3.5h4.8V1.2h-4.9v11
	h-0.1c-1.2-2.4-3.7-3.9-6.4-3.8c-5.2,0-8.6,4.1-8.6,10.7C164.1,25.6,167.5,29.7,172.7,29.7L172.7,29.7z M174.2,12.3
	c3.1,0,5.1,2.6,5.1,6.7c0,4.1-2,6.7-5.1,6.7c-3.1,0-5.1-2.6-5.1-6.7C169.1,14.9,171,12.3,174.2,12.3L174.2,12.3z M197.1,12
	c2.8,0,4.7,2.1,4.8,5h-9.7C192.4,14.1,194.3,12,197.1,12L197.1,12z M201.9,23.1c-0.5,1.7-2.2,2.9-4.5,2.9c-3.2,0-5.2-2.2-5.2-5.6
	v-0.3h14.5v-1.6c0-6.3-3.7-10.4-9.5-10.4c-6,0-9.8,4.3-9.8,10.9c0,6.6,3.8,10.7,10,10.7c4.9,0,8.5-2.7,9.2-6.6H201.9L201.9,23.1z
	 M225.5,8.3c-5.3,0-8.6,4.1-8.6,10.7c0,6.6,3.3,10.7,8.5,10.7c3,0,5.4-1.5,6.5-3.8h0.1v10.3h4.9V8.6h-4.8v3.6H232
	C230.8,9.7,228.2,8.2,225.5,8.3L225.5,8.3z M226.9,25.7c-3.1,0-5-2.6-5-6.7s1.9-6.7,5-6.7c3.1,0,5.1,2.6,5.1,6.7
	C232,23.1,230,25.7,226.9,25.7L226.9,25.7z M259.2,8.6h-4.9v12c0,3-1.7,5-4.5,5c-2.7,0-4.2-1.6-4.2-4.6V8.6h-4.9V22
	c0,4.8,2.8,7.7,7.3,7.7c3.1,0,5.2-1.4,6.3-4h0.1v3.6h4.7V8.6L259.2,8.6z M272.1,12c2.8,0,4.7,2.1,4.8,5h-9.7
	C267.4,14.1,269.3,12,272.1,12L272.1,12z M276.9,23.1c-0.5,1.7-2.2,2.9-4.5,2.9c-3.2,0-5.2-2.2-5.2-5.6v-0.3h14.5v-1.6
	c0-6.3-3.7-10.4-9.5-10.4c-6,0-9.8,4.3-9.8,10.9c0,6.6,3.8,10.7,10,10.7c4.9,0,8.5-2.7,9.2-6.6H276.9L276.9,23.1z M20.4,52.6h-5.1
	l-4.8,16.2h-0.1L5.6,52.6H0.4l7.3,20.7h5.3L20.4,52.6z M30.9,56c2.8,0,4.7,2.1,4.8,5H26C26.2,58.1,28.2,56,30.9,56L30.9,56z
	 M35.7,67.1c-0.5,1.7-2.2,2.9-4.5,2.9C28,70,26,67.8,26,64.5v-0.3h14.5v-1.6c0-6.3-3.7-10.4-9.5-10.4c-6,0-9.8,4.3-9.8,10.9
	c0,6.6,3.8,10.7,10,10.7c4.9,0,8.5-2.7,9.2-6.6H35.7L35.7,67.1z M43.6,73.3h4.9V60.7c0-2.5,1.6-4.3,4-4.3c2.3,0,3.7,1.4,3.7,3.7
	v13.3h4.7V60.5c0-2.5,1.6-4.2,3.9-4.2c2.4,0,3.7,1.4,3.7,4v13h4.9V59.1c0-4.1-2.7-6.9-6.8-6.9c-3,0-5.5,1.6-6.4,4.2H60
	c-0.8-2.7-2.9-4.2-5.8-4.2c-2.6-0.1-5,1.5-5.9,4h-0.1v-3.6h-4.7V73.3L43.6,73.3z M93,73.7c3,0,5.4-1.5,6.5-3.9h0.1v3.5h4.8V45.2
	h-4.9v11h-0.1c-1.2-2.4-3.7-3.9-6.4-3.8c-5.2,0-8.6,4.1-8.6,10.7C84.4,69.6,87.8,73.7,93,73.7L93,73.7z M94.4,56.3
	c3.1,0,5.1,2.6,5.1,6.7c0,4.1-2,6.7-5.1,6.7c-3.1,0-5.1-2.6-5.1-6.7C89.4,58.9,91.3,56.3,94.4,56.3L94.4,56.3z M117.4,56
	c2.8,0,4.7,2.1,4.8,5h-9.7C112.7,58.1,114.6,56,117.4,56L117.4,56z M122.2,67.1c-0.5,1.7-2.2,2.9-4.5,2.9c-3.2,0-5.2-2.2-5.2-5.6
	v-0.3h14.5v-1.6c0-6.3-3.7-10.4-9.6-10.4c-6,0-9.8,4.3-9.8,10.9c0,6.6,3.8,10.7,10,10.7c4.9,0,8.5-2.7,9.2-6.6H122.2L122.2,67.1z
	 M139.4,73.3h4.9v-17h4.1v-3.7h-4.1V51c0-1.7,0.8-2.6,2.7-2.6c0.5,0,1,0,1.5,0.1v-3.4c-0.9-0.1-1.7-0.2-2.6-0.2
	c-4.5,0-6.4,1.9-6.4,5.9v1.8h-2.8v3.7h2.8L139.4,73.3L139.4,73.3z M158,70c-2.1,0-3.5-1.1-3.5-2.8c0-1.6,1.3-2.7,3.7-2.9l4.8-0.3
	v1.6C162.9,68.2,160.7,70,158,70L158,70z M156.5,73.7c2.7,0,5.2-1.4,6.4-3.6h0.1v3.3h4.7V59.1c0-4.2-3.3-6.9-8.5-6.9
	c-5.3,0-8.6,2.8-8.8,6.6h4.5c0.3-1.7,1.8-2.8,4.1-2.8c2.4,0,3.9,1.2,3.9,3.4v1.5l-5.5,0.3c-5,0.3-7.9,2.5-7.9,6.2
	C149.6,71.2,152.5,73.7,156.5,73.7L156.5,73.7z M160.8,49.8l4.6-6h-4.6l-3.4,6H160.8z M183.2,73.7c5.2,0,8.5-4.1,8.5-10.7
	s-3.3-10.7-8.5-10.7c-2.7-0.1-5.3,1.4-6.5,3.9h-0.1v-11h-4.9v28.2h4.8v-3.5h0.1C177.8,72.2,180.2,73.7,183.2,73.7L183.2,73.7z
	 M181.7,56.3c3.1,0,5.1,2.6,5.1,6.7c0,4.1-1.9,6.7-5.1,6.7c-3,0-5.1-2.6-5.1-6.7C176.6,59,178.7,56.3,181.7,56.3L181.7,56.3z
	 M194.9,73.3h4.9V61.3c0-2.9,1.7-4.7,4.4-4.7c0.7,0,1.3,0.1,2,0.3v-4.4c-0.5-0.1-1-0.2-1.5-0.2c-2.4,0-4.3,1.4-5,4h-0.1v-3.6h-4.7
	L194.9,73.3L194.9,73.3z M208.8,73.3h4.9V52.6h-4.9V73.3z M211.2,49.5c1.5,0,2.6-1.2,2.6-2.7c0-1.5-1.2-2.6-2.7-2.6
	c-1.5,0-2.6,1.2-2.6,2.6C208.5,48.3,209.7,49.5,211.2,49.5C211.2,49.5,211.2,49.5,211.2,49.5L211.2,49.5z M235.9,60
	c-0.3-4.4-3.7-7.8-9.2-7.8c-6,0-9.9,4.2-9.9,10.8c0,6.7,3.9,10.8,10,10.8c5.2,0,8.8-3.1,9.2-7.7h-4.6c-0.5,2.3-2,3.8-4.5,3.8
	c-3.1,0-5.1-2.5-5.1-6.8c0-4.3,2-6.8,5-6.8c2.6,0,4.1,1.7,4.5,3.9H235.9z M246.4,70c-2.1,0-3.5-1.1-3.5-2.8c0-1.6,1.3-2.7,3.7-2.9
	l4.8-0.3v1.6C251.4,68.2,249.2,70,246.4,70L246.4,70z M245,73.7c2.7,0,5.3-1.4,6.4-3.6h0.1v3.3h4.7V59.1c0-4.2-3.3-6.9-8.5-6.9
	c-5.3,0-8.6,2.8-8.8,6.6h4.5c0.3-1.7,1.8-2.8,4.1-2.8c2.4,0,3.9,1.2,3.9,3.4v1.5l-5.5,0.3c-5,0.3-7.9,2.5-7.9,6.2
	C238,71.2,240.9,73.7,245,73.7L245,73.7z M263.5,73.6c1.6,0,2.8-1.3,2.8-2.8c0-1.6-1.3-2.8-2.8-2.8c-1.6,0-2.8,1.3-2.8,2.8
	C260.7,72.3,261.9,73.5,263.5,73.6C263.4,73.6,263.5,73.6,263.5,73.6L263.5,73.6z"/>
</svg>
