<?xml version="1.0" encoding="utf-8"?>
<!-- Generator: Adobe Illustrator 21.1.0, SVG Export Plug-In . SVG Version: 6.00 Build 0)  -->
<svg version="1.1" id="Layer_1" xmlns="http://www.w3.org/2000/svg" xmlns:xlink="http://www.w3.org/1999/xlink" x="0px" y="0px"
	 viewBox="0 0 440 115" style="enable-background:new 0 0 440 115;" xml:space="preserve">
<style type="text/css">
	.st0{fill:#111111;}
</style>
<path id="RX-S5_Title_1_1_" class="st0" d="M3.7,1.6v44.1h7.8V30.9h8.9c8.9,0,15.2-5.9,15.2-14.7S29.5,1.6,20.7,1.6
	C20.7,1.6,3.7,1.6,3.7,1.6z M11.6,8h7.2c5.6,0,8.9,3,8.9,8.3s-3.3,8.4-8.9,8.4h-7.2V8L11.6,8z M40.7,45.5h7.7V26.7
	c0-4.5,2.7-7.3,6.9-7.3c1.1,0,2,0.2,3.1,0.5V13c-0.8-0.2-1.6-0.3-2.3-0.3c-3.8,0-6.7,2.2-7.8,6.2H48v-5.8h-7.3V45.5L40.7,45.5z
	 M62.3,45.5h7.7V13.1h-7.7V45.5z M66,8.3c2.3,0,4.1-1.9,4.1-4.2S68.2,0,65.9,0c-2.2,0-4.1,1.9-4.1,4.1C62,6.4,63.8,8.3,66,8.3
	L66,8.3L66,8.3z M104.8,13.1h-8l-7.5,25.3h-0.2l-7.5-25.3h-8.1l11.4,32.3h8.4L104.8,13.1z M119.3,40.3c-3.3,0-5.5-1.7-5.5-4.4
	c0-2.5,2-4.2,5.8-4.5l7.5-0.5v2.5C127.1,37.5,123.7,40.3,119.3,40.3L119.3,40.3z M117.1,46.1c4.2,0,8.3-2.2,10-5.6h0.2v5.2h7.3V23.3
	c0-6.6-5.2-10.8-13.3-10.8c-8.3,0-13.4,4.4-13.8,10.3h7c0.5-2.7,2.8-4.4,6.4-4.4c3.8,0,6.1,1.9,6.1,5.3v2.3l-8.6,0.5
	c-7.8,0.5-12.3,3.9-12.3,9.7C106.3,42.2,110.9,46.1,117.1,46.1L117.1,46.1z M169.1,24.7c-0.5-6.9-5.8-12.2-14.4-12.2
	c-9.4,0-15.5,6.6-15.5,16.9c0,10.5,6.1,16.9,15.6,16.9c8.1,0,13.8-4.8,14.4-12h-7.2c-0.8,3.6-3.3,5.9-7,5.9c-4.8,0-8-3.9-8-10.6
	s3.1-10.6,7.8-10.6c4.1,0,6.4,2.7,7,6.1h7.2V24.7z M174,45.5h7.7V13.1H174V45.5z M177.7,8.3c2.3,0,4.1-1.9,4.1-4.2S179.9,0,177.6,0
	c-2.2,0-4.1,1.9-4.1,4.1C173.5,6.4,175.4,8.3,177.7,8.3L177.7,8.3L177.7,8.3z M200.1,46.1c4.7,0,8.4-2.3,10.2-6.1h0.2v5.5h7.5V1.6
	h-7.7v17.2h-0.2c-1.9-3.8-5.8-6.1-10-5.9c-8.1,0-13.4,6.4-13.4,16.7C186.6,39.7,191.8,46.1,200.1,46.1L200.1,46.1z M202.3,18.9
	c4.8,0,8,4.1,8,10.5s-3.1,10.5-8,10.5s-8-4.1-8-10.5S197.4,18.9,202.3,18.9L202.3,18.9z M236,40.3c-3.3,0-5.5-1.7-5.5-4.4
	c0-2.5,2-4.2,5.8-4.5l7.5-0.5v2.5C243.7,37.5,240.2,40.3,236,40.3L236,40.3z M233.7,46.1c4.2,0,8.1-2.2,10-5.6h0.2v5.2h7.3V23.3
	c0-6.6-5.2-10.8-13.3-10.8c-8.3,0-13.4,4.4-13.8,10.3h7c0.5-2.7,2.8-4.4,6.4-4.4c3.8,0,6.1,1.9,6.1,5.3v2.3l-8.6,0.5
	c-7.8,0.5-12.3,3.9-12.3,9.7C222.9,42.2,227.4,46.1,233.7,46.1L233.7,46.1z M269.5,46.1c4.7,0,8.4-2.3,10.2-6.1h0.2v5.5h7.5V1.6
	h-7.7v17.2h-0.2c-1.9-3.8-5.8-6.1-10-5.9c-8.1,0-13.4,6.4-13.4,16.7C256,39.7,261.3,46.1,269.5,46.1L269.5,46.1z M271.8,18.9
	c4.8,0,8,4.1,8,10.5s-3.1,10.5-8,10.5c-4.8,0-8-4.1-8-10.5C263.8,23,266.8,18.9,271.8,18.9L271.8,18.9z M307.6,18.4
	c4.4,0,7.3,3.3,7.5,7.8h-15.2C300.2,21.7,303.2,18.4,307.6,18.4L307.6,18.4z M315.1,35.8c-0.8,2.7-3.4,4.5-7,4.5
	c-5,0-8.1-3.4-8.1-8.8v-0.5h22.7v-2.5c0-9.8-5.8-16.2-14.8-16.2c-9.4,0-15.3,6.7-15.3,17s5.9,16.7,15.6,16.7
	c7.7,0,13.3-4.2,14.4-10.3H315.1L315.1,35.8z M352,12.7c-8.3,0-13.4,6.4-13.4,16.7s5.2,16.7,13.3,16.7c4.7,0,8.4-2.3,10.2-5.9h0.2
	v16.1h7.7V13.1h-7.5v5.6h-0.2C360.2,14.8,356.2,12.5,352,12.7L352,12.7z M354.1,39.8c-4.8,0-7.8-4.1-7.8-10.5s3-10.5,7.8-10.5
	s8,4.1,8,10.5S359,39.8,354.1,39.8L354.1,39.8z M404.6,13.1H397v18.8c0,4.7-2.7,7.8-7,7.8c-4.2,0-6.6-2.5-6.6-7.2V13.1h-7.7v20.9
	c0,7.5,4.4,12,11.4,12c4.8,0,8.1-2.2,9.8-6.2h0.2v5.6h7.3V13.1H404.6z M424.8,18.4c4.4,0,7.3,3.3,7.5,7.8h-15.2
	C417.4,21.7,420.4,18.4,424.8,18.4L424.8,18.4z M432.3,35.8c-0.8,2.7-3.4,4.5-7,4.5c-5,0-8.1-3.4-8.1-8.8v-0.5h22.7v-2.5
	c0-9.8-5.8-16.2-14.8-16.2c-9.4,0-15.3,6.7-15.3,17s5.9,16.7,15.6,16.7c7.7,0,13.3-4.2,14.4-10.3H432.3L432.3,35.8z M31.5,81.9h-8
	L16,107.2h-0.2L8.4,81.9H0.2l11.4,32.3h8.3L31.5,81.9z M47.9,87.2c4.4,0,7.3,3.3,7.5,7.8H40.2C40.5,90.5,43.7,87.2,47.9,87.2
	L47.9,87.2z M55.4,104.5c-0.8,2.7-3.4,4.5-7,4.5c-5,0-8.1-3.4-8.1-8.6V100h22.7v-2.5c0-9.8-5.8-16.2-14.8-16.2
	c-9.4,0-15.3,6.7-15.3,17S38.7,115,48.4,115c7.7,0,13.3-4.2,14.4-10.3h-7.3V104.5z M67.7,114.2h7.7V94.5c0-3.9,2.5-6.7,6.2-6.7
	c3.6,0,5.8,2.2,5.8,5.8v20.8h7.3V94.2c0-3.9,2.5-6.6,6.1-6.6c3.8,0,5.8,2.2,5.8,6.2v20.3h7.7V92c0-6.4-4.2-10.8-10.6-10.8
	c-4.7,0-8.6,2.5-10,6.6h-0.3c-1.2-4.2-4.5-6.6-9.1-6.6c-4.1-0.2-7.8,2.3-9.2,6.2h-0.2v-5.6h-7.3v32.3H67.7z M144.9,114.8
	c4.7,0,8.4-2.3,10.2-6.1h0.2v5.5h7.5V70.3h-7.7v17.2h-0.2c-1.9-3.8-5.8-6.1-10-5.9c-8.1,0-13.4,6.4-13.4,16.7
	C131.5,108.4,136.8,114.8,144.9,114.8L144.9,114.8z M147.1,87.7c4.8,0,8,4.1,8,10.5s-3.1,10.5-8,10.5s-8-4.1-8-10.5
	C139.3,91.7,142.3,87.7,147.1,87.7L147.1,87.7z M183,87.2c4.4,0,7.3,3.3,7.5,7.8h-15.2C175.7,90.5,178.7,87.2,183,87.2L183,87.2z
	 M190.5,104.5c-0.8,2.7-3.4,4.5-7,4.5c-5,0-8.1-3.4-8.1-8.7v-0.5H198v-2.5c0-9.8-5.8-16.2-15-16.2c-9.4,0-15.3,6.7-15.3,17
	s5.9,16.7,15.6,16.7c7.7,0,13.3-4.2,14.4-10.3H190.5L190.5,104.5z M217.4,114.2h7.7V87.7h6.4v-5.8h-6.4v-2.5c0-2.7,1.2-4.1,4.2-4.1
	c0.8,0,1.6,0,2.3,0.2v-5.3c-1.4-0.2-2.7-0.3-4.1-0.3c-7,0-10,3-10,9.2v2.8h-4.4v5.8h4.4L217.4,114.2L217.4,114.2z M246.5,109.1
	c-3.3,0-5.5-1.7-5.5-4.4c0-2.5,2-4.2,5.8-4.5l7.5-0.5v2.5C254.1,106.2,250.7,109.1,246.5,109.1L246.5,109.1z M244.1,114.8
	c4.2,0,8.1-2.2,10-5.6h0.2v5.2h7.3V92c0-6.6-5.2-10.8-13.3-10.8c-8.3,0-13.4,4.4-13.8,10.3h7c0.5-2.7,2.8-4.4,6.4-4.4
	c3.7,0,6.1,1.9,6.1,5.3v2.3l-8.6,0.5c-7.8,0.5-12.3,3.9-12.3,9.7C233.4,110.9,237.9,114.8,244.1,114.8L244.1,114.8z M250.9,77.5
	l7.2-9.4h-7.2l-5.3,9.4H250.9z M285.9,114.8c8.1,0,13.3-6.4,13.3-16.7s-5.2-16.7-13.3-16.7c-4.2-0.2-8.3,2.2-10.2,6.1h-0.2V70.3
	h-7.7v44.1h7.5v-5.5h0.2C277.4,112.5,281.2,114.8,285.9,114.8L285.9,114.8z M283.5,87.7c4.8,0,8,4.1,8,10.5s-3,10.5-8,10.5
	c-4.7,0-8-4.1-8-10.5C275.5,91.9,278.8,87.7,283.5,87.7L283.5,87.7z M304.1,114.2h7.7V95.5c0-4.5,2.7-7.3,6.9-7.3
	c1.1,0,2,0.2,3.1,0.5v-6.9c-0.8-0.2-1.6-0.3-2.3-0.3c-3.7,0-6.7,2.2-7.8,6.2h-0.2V82h-7.3L304.1,114.2L304.1,114.2z M325.9,114.2
	h7.7V81.9h-7.7V114.2z M329.6,77c2.3,0,4.1-1.9,4.1-4.2s-1.9-4.1-4.2-4.1s-4.1,1.9-4.1,4.1C325.4,75.2,327.3,77,329.6,77L329.6,77
	L329.6,77z M368.2,93.4c-0.5-6.9-5.8-12.2-14.4-12.2c-9.4,0-15.5,6.6-15.5,16.9c0,10.5,6.1,16.9,15.6,16.9c8.1,0,13.8-4.8,14.4-12
	h-7.2c-0.8,3.6-3.1,5.9-7,5.9c-4.8,0-8-3.9-8-10.6c0-6.7,3.1-10.6,7.8-10.6c4.1,0,6.4,2.7,7,6.1h7.2V93.4z M384.6,109.1
	c-3.3,0-5.5-1.7-5.5-4.4c0-2.5,2-4.2,5.8-4.5l7.5-0.5v2.5C392.4,106.2,389,109.1,384.6,109.1L384.6,109.1z M382.4,114.8
	c4.2,0,8.3-2.2,10-5.6h0.2v5.2h7.3V92c0-6.6-5.2-10.8-13.3-10.8c-8.3,0-13.4,4.4-13.8,10.3h7c0.5-2.7,2.8-4.4,6.4-4.4
	c3.8,0,6.1,1.9,6.1,5.3v2.3l-8.6,0.5c-7.8,0.5-12.3,3.9-12.3,9.7C371.5,110.9,376,114.8,382.4,114.8L382.4,114.8z M411.3,114.7
	c2.5,0,4.4-2,4.4-4.4c0-2.5-2-4.4-4.4-4.4c-2.5,0-4.4,2-4.4,4.4C407,112.7,408.8,114.5,411.3,114.7
	C411.2,114.7,411.3,114.7,411.3,114.7L411.3,114.7z"/>
</svg>
