<?xml version="1.0" encoding="utf-8"?>
<!-- Generator: Adobe Illustrator 21.1.0, SVG Export Plug-In . SVG Version: 6.00 Build 0)  -->
<svg version="1.1" id="Layer_1" xmlns="http://www.w3.org/2000/svg" xmlns:xlink="http://www.w3.org/1999/xlink" x="0px" y="0px"
	 viewBox="0 0 228 60" style="enable-background:new 0 0 228 60;" xml:space="preserve">
<style type="text/css">
	.st0{fill:#111111;}
</style>
<path id="RX-S5_Title_1" class="st0" d="M2.4,0.9v22.5h4V16H11c4.6,0,7.8-3,7.8-7.5s-3.1-7.5-7.6-7.5H2.4z M6.4,4.2h3.7
	c2.9,0,4.6,1.5,4.6,4.2c0,2.7-1.7,4.3-4.6,4.3H6.4V4.2z M21.4,23.5h3.9v-9.6c0-2.3,1.3-3.8,3.5-3.8c0.5,0,1.1,0.1,1.6,0.2V6.8
	c-0.4-0.1-0.8-0.1-1.2-0.2c-2,0-3.4,1.2-4,3.2h-0.1V6.9h-3.7V23.5z M32.7,23.5h3.9V6.9h-3.9L32.7,23.5L32.7,23.5z M34.6,4.4
	c1.2,0,2.1-1,2.1-2.1c0-1.2-1-2.1-2.1-2.1c-1.2,0-2.1,1-2.1,2.1C32.5,3.5,33.4,4.4,34.6,4.4L34.6,4.4z M54.5,6.9h-4.1l-3.8,13h-0.1
	l-3.8-13h-4.2l5.9,16.6h4.3L54.5,6.9z M62.1,20.8c-1.7,0-2.8-0.9-2.8-2.2c0-1.3,1.1-2.2,3-2.3l3.8-0.2v1.3
	C66.1,19.3,64.3,20.8,62.1,20.8z M61,23.7c2.1,0,4.1-1.1,5.2-2.9h0.1v2.6h3.8V12.1c0-3.3-2.7-5.5-6.8-5.5c-4.2,0-6.9,2.2-7,5.3h3.6
	c0.2-1.4,1.4-2.3,3.3-2.3c1.9,0,3.1,1,3.1,2.7v1.2l-4.4,0.2c-4,0.2-6.3,2-6.3,5C55.4,21.7,57.8,23.7,61,23.7z M87.8,12.8
	c-0.3-3.5-3-6.2-7.3-6.2c-4.8,0-7.9,3.3-7.9,8.6c0,5.4,3.1,8.6,8,8.6c4.2,0,7-2.4,7.3-6.1h-3.7c-0.2,1.8-1.8,3.1-3.6,3
	c-2.5,0-4.1-2-4.1-5.5c0-3.4,1.6-5.5,4-5.5c1.8-0.1,3.4,1.3,3.6,3.1H87.8z M90.3,23.5h3.9V6.9h-3.9V23.5z M92.3,4.4
	c1.2,0,2.1-1,2.1-2.1c0-1.2-1-2.1-2.1-2.1c-1.2,0-2.1,1-2.1,2.1C90.1,3.5,91.1,4.4,92.3,4.4L92.3,4.4z M103.8,23.7
	c2.2,0.1,4.2-1.1,5.2-3.1h0.1v2.8h3.8V0.9H109v8.8h-0.1c-1-1.9-3-3.1-5.1-3.1c-4.2,0-6.9,3.3-6.9,8.5
	C96.9,20.4,99.6,23.7,103.8,23.7L103.8,23.7z M105,9.8c2.5,0,4.1,2.1,4.1,5.4c0,3.3-1.6,5.4-4.1,5.4c-2.5,0-4.1-2.1-4.1-5.4
	C100.9,11.9,102.5,9.8,105,9.8L105,9.8z M122.4,20.8c-1.7,0-2.8-0.9-2.8-2.2c0-1.3,1.1-2.2,3-2.3l3.8-0.2v1.3
	C126.3,19.3,124.6,20.8,122.4,20.8L122.4,20.8z M121.2,23.7c2.1,0,4.1-1.1,5.2-2.9h0.1v2.6h3.8V12.1c0-3.3-2.7-5.5-6.8-5.5
	c-4.2,0-6.9,2.2-7,5.3h3.6c0.2-1.4,1.4-2.3,3.3-2.3c1.9,0,3.1,1,3.1,2.7v1.2l-4.4,0.2c-4,0.2-6.3,2-6.3,5
	C115.7,21.7,118,23.7,121.2,23.7L121.2,23.7z M139.6,23.7c2.2,0.1,4.2-1.1,5.2-3.1h0.1v2.8h3.8V0.9h-3.9v8.8h-0.1
	c-1-1.9-3-3.1-5.1-3.1c-4.2,0-6.9,3.3-6.9,8.5C132.7,20.4,135.4,23.7,139.6,23.7L139.6,23.7z M140.8,9.8c2.5,0,4.1,2.1,4.1,5.4
	c0,3.3-1.6,5.4-4.1,5.4c-2.5,0-4.1-2.1-4.1-5.4C136.7,11.9,138.3,9.8,140.8,9.8L140.8,9.8z M159.3,9.6c2.2,0,3.7,1.6,3.8,4h-7.7
	C155.5,11.3,157.1,9.6,159.3,9.6L159.3,9.6z M163.1,18.5c-0.4,1.4-1.8,2.3-3.6,2.3c-2.5,0-4.2-1.8-4.2-4.4v-0.2h11.6v-1.3
	c0-5-2.9-8.3-7.6-8.3c-4.8,0-7.8,3.5-7.8,8.7c0,5.3,3,8.5,8,8.5c3.9,0,6.8-2.2,7.3-5.3H163.1L163.1,18.5z M182.2,6.6
	c-4.2,0-6.9,3.3-6.9,8.5c0,5.3,2.7,8.6,6.8,8.6c2.4,0,4.3-1.2,5.2-3.1h0.1v8.2h3.9v-22h-3.8v2.9h-0.1C186.5,7.8,184.4,6.6,182.2,6.6
	L182.2,6.6z M183.4,20.6c-2.5,0-4-2-4-5.4s1.5-5.4,4-5.4c2.5,0,4.1,2.1,4.1,5.4C187.4,18.5,185.8,20.6,183.4,20.6L183.4,20.6z
	 M209.3,6.9h-3.9v9.6c0,2.4-1.4,4-3.6,4c-2.2,0-3.3-1.3-3.3-3.7V6.9h-3.9v10.7c0,3.8,2.3,6.2,5.9,6.2c2.5,0,4.2-1.2,5.1-3.2h0.1v2.9
	h3.8L209.3,6.9L209.3,6.9z M219.8,9.6c2.2,0,3.7,1.6,3.8,4h-7.7C216,11.3,217.6,9.6,219.8,9.6L219.8,9.6z M223.6,18.5
	c-0.4,1.4-1.8,2.3-3.6,2.3c-2.5,0-4.2-1.8-4.2-4.4v-0.2h11.6v-1.3c0-5-2.9-8.3-7.6-8.3c-4.8,0-7.8,3.5-7.8,8.7c0,5.3,3,8.5,8,8.5
	c3.9,0,6.8-2.2,7.3-5.3H223.6L223.6,18.5z M16.6,42.9h-4.1l-3.8,13H8.6l-3.8-13H0.6l5.9,16.6h4.3L16.6,42.9z M25.2,45.6
	c2.2,0,3.7,1.6,3.8,4h-7.7C21.4,47.3,23,45.6,25.2,45.6L25.2,45.6z M29,54.5c-0.4,1.4-1.8,2.3-3.6,2.3c-2.5,0-4.2-1.8-4.2-4.4v-0.2
	h11.6v-1.3c0-5-2.9-8.3-7.6-8.3c-4.8,0-7.8,3.5-7.8,8.7c0,5.3,3,8.5,8,8.5c3.9,0,6.8-2.2,7.3-5.3H29z M35.4,59.5h3.9V49.3
	c0-2,1.3-3.5,3.2-3.5c1.8,0,2.9,1.1,2.9,3v10.6h3.8V49.2c0-2,1.3-3.4,3.2-3.4c1.9,0,3,1.2,3,3.2v10.4h3.9V48.1
	c0-3.3-2.1-5.5-5.4-5.5c-2.2-0.1-4.3,1.2-5.2,3.3h-0.1c-0.6-2.1-2.3-3.3-4.6-3.3c-2.1-0.1-4,1.2-4.7,3.2h-0.1v-2.9h-3.7L35.4,59.5
	L35.4,59.5z M75.2,59.7c2.2,0.1,4.2-1.1,5.2-3.1h0.1v2.8h3.8V36.9h-3.9v8.8h-0.1c-1-1.9-3-3.1-5.1-3.1c-4.2,0-6.9,3.3-6.9,8.5
	C68.3,56.4,71,59.7,75.2,59.7L75.2,59.7z M76.4,45.8c2.5,0,4.1,2.1,4.1,5.4c0,3.3-1.6,5.4-4.1,5.4c-2.5,0-4.1-2.1-4.1-5.4
	C72.3,47.9,73.9,45.8,76.4,45.8L76.4,45.8z M94.8,45.6c2.2,0,3.7,1.6,3.8,4h-7.7C91.1,47.3,92.7,45.6,94.8,45.6L94.8,45.6z
	 M98.7,54.5c-0.4,1.4-1.8,2.3-3.6,2.3c-2.5,0-4.2-1.8-4.2-4.4v-0.2h11.6v-1.3c0-5-2.9-8.3-7.6-8.3c-4.8,0-7.8,3.5-7.8,8.7
	c0,5.3,3,8.5,8,8.5c3.9,0,6.8-2.2,7.3-5.3H98.7z M112.7,59.5h3.9V45.9h3.2v-3h-3.3v-1.4c0-1.3,0.7-2,2.2-2c0.4,0,0.8,0,1.2,0.1v-2.7
	c-0.7-0.1-1.4-0.2-2.1-0.2c-3.6,0-5.1,1.5-5.1,4.7V43h-2.3v3h2.3V59.5L112.7,59.5z M127.7,56.8c-1.7,0-2.8-0.9-2.8-2.2
	c0-1.3,1.1-2.2,3-2.3l3.8-0.2v1.3C131.7,55.3,129.9,56.8,127.7,56.8L127.7,56.8z M126.5,59.7c2.1,0,4.1-1.1,5.2-2.9h0.1v2.6h3.8
	V48.1c0-3.3-2.7-5.5-6.8-5.5c-4.2,0-6.9,2.2-7,5.3h3.6c0.2-1.4,1.4-2.3,3.3-2.3c1.9,0,3.1,1,3.1,2.7v1.2l-4.4,0.2
	c-4,0.2-6.3,2-6.3,5C121,57.7,123.3,59.7,126.5,59.7L126.5,59.7z M130,40.6l3.7-4.8h-3.7l-2.7,4.8H130z M148,59.7
	c4.2,0,6.8-3.2,6.8-8.5s-2.7-8.6-6.8-8.6c-2.2-0.1-4.2,1.2-5.2,3.1h-0.1v-8.8h-3.9v22.5h3.8v-2.8h0.1
	C143.8,58.6,145.8,59.8,148,59.7L148,59.7z M146.8,45.8c2.5,0,4,2.1,4,5.4c0,3.3-1.5,5.4-4,5.4c-2.4,0-4.1-2.1-4.1-5.4
	C142.7,48,144.4,45.8,146.8,45.8L146.8,45.8z M157.5,59.5h3.9v-9.6c0-2.3,1.3-3.8,3.5-3.8c0.5,0,1.1,0.1,1.6,0.2v-3.5
	c-0.4-0.1-0.8-0.1-1.2-0.2c-2,0-3.4,1.2-4,3.2h-0.1v-2.9h-3.7L157.5,59.5L157.5,59.5z M168.7,59.5h3.9V42.9h-3.9V59.5L168.7,59.5z
	 M170.6,40.4c1.2,0,2.1-1,2.1-2.1c0-1.2-1-2.1-2.1-2.1c-1.2,0-2.1,1-2.1,2.1C168.5,39.5,169.5,40.4,170.6,40.4L170.6,40.4z
	 M190.6,48.8c-0.3-3.5-3-6.2-7.3-6.2c-4.8,0-7.9,3.3-7.9,8.6c0,5.4,3.1,8.6,8,8.6c4.2,0,7-2.4,7.3-6.1h-3.7c-0.2,1.8-1.8,3.1-3.6,3
	c-2.5,0-4.1-2-4.1-5.5c0-3.4,1.6-5.5,4-5.5c1.8-0.1,3.4,1.3,3.6,3.1H190.6z M199.1,56.8c-1.7,0-2.8-0.9-2.8-2.2c0-1.3,1.1-2.2,3-2.3
	l3.8-0.2v1.3C203.1,55.3,201.3,56.8,199.1,56.8L199.1,56.8z M197.9,59.7c2.1,0,4.1-1.1,5.2-2.9h0.1v2.6h3.8V48.1
	c0-3.3-2.7-5.5-6.8-5.5c-4.2,0-6.9,2.2-7,5.3h3.6c0.2-1.4,1.4-2.3,3.3-2.3c1.9,0,3.1,1,3.1,2.7v1.2l-4.4,0.2c-4,0.2-6.3,2-6.3,5
	C192.4,57.7,194.7,59.7,197.9,59.7L197.9,59.7z M212.9,59.7c1.2,0,2.2-1,2.2-2.2s-1-2.2-2.2-2.2s-2.2,1-2.2,2.2
	C210.6,58.6,211.6,59.6,212.9,59.7C212.8,59.7,212.9,59.7,212.9,59.7L212.9,59.7z"/>
</svg>
