<?xml version="1.0" encoding="utf-8"?>
<!-- Generator: Adobe Illustrator 21.1.0, SVG Export Plug-In . SVG Version: 6.00 Build 0)  -->
<svg version="1.1" id="Layer_1" xmlns="http://www.w3.org/2000/svg" xmlns:xlink="http://www.w3.org/1999/xlink" x="0px" y="0px"
	 viewBox="0 0 112 22" style="enable-background:new 0 0 112 22;" xml:space="preserve">
<style type="text/css">
	.st0{fill:#666666;}
</style>
<path id="RX-S6_Sub_1" class="st0" d="M12.6,17.4h3.2l-6-17H6.3l-6,17h3.1L4.9,13h6.2L12.6,17.4z M8,3.5L8,3.5l2.4,7.2H5.6L8,3.5z
	 M24.3,4.8c-1.7-0.1-3.2,0.9-3.9,2.4h-0.1V5h-2.8v16.5h2.9v-6.1h0.1c0.7,1.5,2.3,2.4,3.9,2.3c3.1,0,5.1-2.5,5.1-6.5
	C29.4,7.2,27.4,4.8,24.3,4.8z M23.4,15.2c-1.8,0-3-1.6-3-4c0-2.4,1.2-4,3-4c1.9,0,3.1,1.5,3.1,4C26.5,13.7,25.3,15.2,23.4,15.2z
	 M38.4,4.8c-1.7-0.1-3.2,0.9-3.9,2.4h-0.1V5h-2.8v16.5h2.9v-6.1h0.1c0.7,1.5,2.3,2.4,3.9,2.3c3.1,0,5.1-2.5,5.1-6.5
	C43.5,7.2,41.5,4.8,38.4,4.8L38.4,4.8z M37.5,15.2c-1.8,0-3-1.6-3-4c0-2.4,1.2-4,3-4c1.9,0,3.1,1.5,3.1,4
	C40.5,13.7,39.4,15.2,37.5,15.2L37.5,15.2z M45.7,17.4h2.9v-17h-2.9V17.4z M56.7,7c1.7,0,2.8,1.2,2.9,3h-5.8C53.8,8.2,55,7,56.7,7
	L56.7,7z M59.5,13.7c-0.3,1-1.3,1.8-2.7,1.8c-1.9,0-3.1-1.4-3.1-3.4v-0.1h8.7v-1c0-3.8-2.2-6.2-5.7-6.2c-3.6,0-5.9,2.6-5.9,6.5
	c0,4,2.2,6.5,6,6.5c2.9,0,5.1-1.6,5.5-4H59.5L59.5,13.7z M76.9,17.4V3.1H82V0.5H68.9v2.6h5.1v14.4H76.9z M92.4,17.4l5.9-17h-3.3
	l-4.3,13.7h-0.1L86.4,0.5h-3.3l5.9,17H92.4z M107,12h4.6V9.4H107V4.5h-2.6v4.9h-4.6V12h4.6v4.9h2.6V12z"/>
</svg>
