<?xml version="1.0" encoding="utf-8"?>
<!-- Generator: Adobe Illustrator 21.1.0, SVG Export Plug-In . SVG Version: 6.00 Build 0)  -->
<svg version="1.1" id="Layer_1" xmlns="http://www.w3.org/2000/svg" xmlns:xlink="http://www.w3.org/1999/xlink" x="0px" y="0px"
	 viewBox="0 0 98 20" style="enable-background:new 0 0 98 20;" xml:space="preserve">
<style type="text/css">
	.st0{fill:#666666;}
</style>
<path id="RX-S6_Sub_1" class="st0" d="M10.8,15.6h2.8L8.4,0.8h-3L0.1,15.6h2.7l1.3-3.8h5.4L10.8,15.6z M6.8,3.4L6.8,3.4l2.1,6.3H4.7
	L6.8,3.4z M21.1,4.6c-1.4,0-2.8,0.8-3.4,2.1h-0.1V4.7h-2.5v14.5h2.6v-5.4h0.1c0.6,1.3,2,2,3.4,2c2.7,0,4.5-2.1,4.5-5.6
	C25.6,6.7,23.9,4.6,21.1,4.6L21.1,4.6z M20.3,13.7c-1.6,0-2.6-1.4-2.7-3.5c0-2.1,1.1-3.5,2.7-3.5C22,6.7,23,8,23,10.2
	C23,12.3,22,13.7,20.3,13.7L20.3,13.7z M33.5,4.6c-1.4,0-2.8,0.8-3.4,2.1H30V4.7h-2.5v14.5h2.6v-5.4h0.1c0.6,1.3,2,2,3.4,2
	c2.7,0,4.5-2.1,4.5-5.6C38,6.7,36.2,4.6,33.5,4.6L33.5,4.6z M32.7,13.7c-1.6,0-2.6-1.4-2.7-3.5c0-2.1,1.1-3.5,2.7-3.5
	c1.6,0,2.7,1.4,2.7,3.5C35.4,12.3,34.3,13.7,32.7,13.7L32.7,13.7z M39.9,15.6h2.6V0.8h-2.6V15.6z M49.6,6.5c1.5,0,2.4,1.1,2.5,2.6
	H47C47.1,7.6,48.1,6.5,49.6,6.5L49.6,6.5z M52.1,12.4c-0.3,0.9-1.2,1.5-2.4,1.5c-1.7,0-2.7-1.2-2.7-2.9v-0.2h7.6V10
	c0-3.3-1.9-5.4-5-5.4c-3.1,0-5.1,2.3-5.1,5.7c0,3.5,2,5.6,5.2,5.6c2.6,0,4.5-1.4,4.8-3.5L52.1,12.4L52.1,12.4z M67.4,15.6V3h4.4V0.8
	H60.3V3h4.4v12.6H67.4L67.4,15.6z M81,15.6l5.1-14.8h-2.9l-3.8,12h-0.1l-3.8-12h-2.9L78,15.6H81z M93.8,10.9h4V8.6h-4V4.3h-2.3v4.2
	h-4v2.3h4v4.2h2.3L93.8,10.9L93.8,10.9z"/>
</svg>
