<?xml version="1.0" encoding="utf-8"?>
<!-- Generator: Adobe Illustrator 21.1.0, SVG Export Plug-In . SVG Version: 6.00 Build 0)  -->
<svg version="1.1" id="Layer_1" xmlns="http://www.w3.org/2000/svg" xmlns:xlink="http://www.w3.org/1999/xlink" x="0px" y="0px"
	 viewBox="0 0 452 140" style="enable-background:new 0 0 452 140;" xml:space="preserve">
<style type="text/css">
	.st0{fill:#111111;}
</style>
<path id="RX-S6_Title_1" class="st0" d="M32.6,20.8v-3.6H18.5v4.6h8.2l0,0.5c-0.1,4.8-3.6,8-8.7,8c-6.1,0-9.9-4.8-9.9-12.5
	c0-7.6,3.6-12.1,9.7-12.1c4.2,0,7.3,2.3,8.4,6.2h6.1C31.2,5.1,25.4,0.6,17.7,0.6C7.9,0.6,1.8,7.2,1.8,17.9c0,10.9,6.1,17.6,16,17.6
	C27.1,35.5,32.6,30,32.6,20.8z M45.7,30.9c-2.5,0-4.2-1.3-4.2-3.4c0-2,1.6-3.2,4.4-3.4l5.7-0.4v1.9C51.6,28.7,49,30.9,45.7,30.9
	L45.7,30.9z M43.9,35.3c3.2,0,6.3-1.6,7.7-4.4h0.1v4h5.6V17.8c0-5-4-8.2-10.2-8.2c-6.3,0-10.3,3.4-10.5,8h5.4c0.4-2,2.1-3.4,4.9-3.4
	c2.9,0,4.6,1.5,4.6,4.1V20l-6.6,0.4c-6.1,0.4-9.4,3-9.4,7.4C35.6,32.3,39.1,35.3,43.9,35.3z M61.9,34.9h5.8V20.5c0-3.5,2.1-6,5.5-6
	c3.3,0,5,2,5,5.5v14.9h5.8v-16c0-5.8-3.1-9.2-8.6-9.2c-3.8,0-6.5,1.8-7.8,4.8h-0.1v-4.3h-5.6L61.9,34.9L61.9,34.9z M88.8,34.9h5.8
	V20.7c0-3.6,2.1-6.1,5.7-6.1c3.4,0,5.1,2.1,5.1,5.5v14.8h5.8v-16c0-5.7-3.2-9.3-8.7-9.3c-3.8,0-6.5,1.7-7.8,4.8h-0.1V1.1h-5.8V34.9
	L88.8,34.9z M126.4,14.1c3.3,0,5.6,2.5,5.7,6h-11.6C120.8,16.6,123.1,14.1,126.4,14.1L126.4,14.1z M132.2,27.5
	c-0.6,2-2.7,3.4-5.4,3.4c-3.8,0-6.3-2.6-6.3-6.6v-0.4h17.4V22c0-7.5-4.4-12.5-11.5-12.5c-7.2,0-11.7,5.2-11.7,13
	c0,7.9,4.5,12.8,11.9,12.8c5.9,0,10.2-3.2,11-7.9L132.2,27.5L132.2,27.5z M173,10.1h-5.8v14.4c0,3.6-2.1,6-5.5,6c-3.3,0-5-2-5-5.5
	V10.1h-5.8v16c0,5.8,3.4,9.2,8.8,9.2c3.8,0,6.3-1.8,7.6-4.8h0.1v4.3h5.6V10.1L173,10.1z M177.6,34.9h5.8V19.7c0-3,2-5.2,4.8-5.2
	c2.7,0,4.4,1.8,4.4,4.5v15.9h5.7V19.6c0-3,1.9-5,4.7-5c2.9,0,4.4,1.8,4.4,4.8v15.6h5.8v-17c0-5-3.2-8.2-8.1-8.2
	c-3.6,0-6.5,1.9-7.7,5h-0.1c-0.9-3.2-3.4-5-6.9-5c-3.1-0.1-6,1.8-7.1,4.8h-0.1v-4.4h-5.6L177.6,34.9L177.6,34.9z M236.4,30.9
	c-2.5,0-4.2-1.3-4.2-3.4c0-2,1.6-3.2,4.4-3.4l5.7-0.4v1.9C242.3,28.7,239.7,30.9,236.4,30.9L236.4,30.9z M234.6,35.3
	c3.2,0,6.3-1.6,7.7-4.4h0.1v4h5.6V17.8c0-5-4-8.2-10.2-8.2c-6.3,0-10.3,3.4-10.5,8h5.4c0.4-2,2.1-3.4,4.9-3.4c2.9,0,4.6,1.5,4.6,4.1
	V20l-6.6,0.4c-6,0.4-9.4,3-9.4,7.4C226.3,32.3,229.8,35.3,234.6,35.3L234.6,35.3z M252.6,34.9h5.8V20.5c0-3.5,2.1-6,5.5-6
	c3.3,0,5,2,5,5.5v14.9h5.8v-16c0-5.8-3.1-9.2-8.6-9.2c-3.8,0-6.5,1.8-7.8,4.8h-0.1v-4.3h-5.6L252.6,34.9L252.6,34.9z M290.3,35.4
	c7.3,0,12-4.9,12-12.9s-4.8-13-12-13s-12,4.9-12,13S283,35.4,290.3,35.4L290.3,35.4z M290.3,30.8c-3.7,0-6.1-3-6.1-8.3
	s2.4-8.3,6.1-8.3c3.7,0,6.1,3,6.1,8.3S293.9,30.8,290.3,30.8L290.3,30.8z M324.6,35.3c3.6,0,6.5-1.9,7.8-4.6h0.1v4.2h5.7V1.1h-5.8
	v13.1h-0.1c-1.3-2.8-4.1-4.6-7.7-4.6c-6.3,0-10.3,5-10.3,12.8C314.3,30.4,318.4,35.3,324.6,35.3L324.6,35.3z M326.4,14.5
	c3.7,0,6.1,3.1,6.1,8s-2.4,8-6.1,8c-3.8,0-6.1-3.1-6.1-8S322.6,14.5,326.4,14.5L326.4,14.5z M353.8,14.1c3.3,0,5.6,2.5,5.7,6h-11.6
	C348.1,16.6,350.5,14.1,353.8,14.1L353.8,14.1z M359.5,27.5c-0.6,2-2.7,3.4-5.4,3.4c-3.8,0-6.3-2.6-6.3-6.6v-0.4h17.4V22
	c0-7.5-4.4-12.5-11.5-12.5c-7.2,0-11.7,5.2-11.7,13c0,7.9,4.5,12.8,12,12.8c5.9,0,10.2-3.2,11-7.9L359.5,27.5L359.5,27.5z
	 M25.1,86.9h6.4l-12-33.8h-6.8l-12,33.8h6.2l2.9-8.8h12.4L25.1,86.9z M15.9,59.1H16l4.7,14.5h-9.6L15.9,59.1z M48,61.7
	c-3.6,0-6.4,1.8-7.8,4.7H40v-4.3h-5.7v33h5.8V82.8h0.1c1.4,2.8,4.2,4.5,7.8,4.5c6.2,0,10.2-4.9,10.2-12.8
	C58.3,66.6,54.3,61.7,48,61.7L48,61.7z M46.2,82.6c-3.6,0-6-3.2-6.1-8c0-4.9,2.4-8,6.1-8c3.8,0,6.1,3.1,6.1,8S50,82.6,46.2,82.6
	L46.2,82.6z M75.5,61.7c-3.6,0-6.4,1.8-7.8,4.7h-0.1v-4.3h-5.7v33h5.8V82.8h0.1c1.4,2.8,4.2,4.5,7.8,4.5c6.2,0,10.2-4.9,10.2-12.8
	C85.8,66.6,81.8,61.7,75.5,61.7L75.5,61.7z M73.7,82.6c-3.6,0-6-3.2-6.1-8c0-4.9,2.4-8,6.1-8c3.8,0,6.1,3.1,6.1,8
	S77.5,82.6,73.7,82.6z M89.6,86.9h5.8V53.1h-5.8V86.9L89.6,86.9z M111,66.1c3.3,0,5.6,2.5,5.7,6h-11.6
	C105.3,68.6,107.7,66.1,111,66.1z M116.7,79.5c-0.6,2-2.7,3.4-5.4,3.4c-3.8,0-6.3-2.6-6.3-6.6v-0.4h17.4V74
	c0-7.5-4.4-12.5-11.5-12.5c-7.2,0-11.7,5.2-11.7,13c0,7.9,4.5,12.8,11.9,12.8c5.9,0,10.2-3.2,11-7.9L116.7,79.5L116.7,79.5z
	 M150.4,86.9V58.2h10.1v-5.1h-26.2v5.1h10.1v28.7H150.4z M180.8,86.9l11.8-33.8h-6.5l-8.6,27.3h-0.1l-8.6-27.3h-6.7l11.8,33.8H180.8
	z M209.4,76.1h9.2v-5.2h-9.2v-9.7h-5.3v9.7H195v5.2h9.2v9.6h5.3V76.1z M233.7,86.9h5.8V72.5c0-3.5,2.1-6,5.5-6c3.3,0,5,2,5,5.5v14.9
	h5.8v-16c0-5.8-3.1-9.2-8.6-9.2c-3.8,0-6.5,1.8-7.8,4.8h-0.1v-4.3h-5.6L233.7,86.9L233.7,86.9z M269.4,82.9c-2.5,0-4.2-1.3-4.2-3.4
	c0-2,1.6-3.2,4.4-3.4l5.7-0.4v1.9C275.3,80.7,272.7,82.9,269.4,82.9L269.4,82.9z M267.6,87.3c3.2,0,6.3-1.6,7.7-4.4h0.1v4h5.6V69.8
	c0-5-4-8.2-10.2-8.2c-6.3,0-10.3,3.4-10.5,8h5.4c0.4-2,2.1-3.4,4.9-3.4c2.9,0,4.6,1.5,4.6,4.1V72l-6.6,0.4c-6,0.4-9.4,3-9.4,7.4
	C259.3,84.3,262.8,87.3,267.6,87.3z M317,70.9c-0.4-5.2-4.4-9.4-11-9.4c-7.2,0-11.9,5-11.9,13c0,8,4.7,12.9,12,12.9
	c6.2,0,10.5-3.6,11-9.2h-5.5c-0.5,2.8-2.5,4.5-5.4,4.5c-3.7,0-6.1-3-6.1-8.2c0-5.1,2.4-8.2,6-8.2c3.1,0,5,2,5.4,4.6L317,70.9
	L317,70.9z M331.3,87.4c7.3,0,12-4.9,12-12.9s-4.8-13-12-13s-12,4.9-12,13S324.1,87.4,331.3,87.4L331.3,87.4z M331.3,82.8
	c-3.7,0-6.1-3-6.1-8.3s2.4-8.3,6.1-8.3c3.7,0,6.1,3,6.1,8.3S335,82.8,331.3,82.8L331.3,82.8z M347,86.9h5.8V71.7c0-3,2-5.2,4.8-5.2
	c2.7,0,4.4,1.8,4.4,4.5v15.9h5.7V71.6c0-3,1.9-5,4.7-5c2.9,0,4.5,1.8,4.5,4.8v15.6h5.8v-17c0-5-3.2-8.2-8.1-8.2
	c-3.6,0-6.5,1.9-7.7,5h-0.1c-0.9-3.2-3.4-5-6.9-5c-3.1-0.1-6,1.8-7.1,4.8h-0.1v-4.4H347V86.9L347,86.9z M400.9,61.7
	c-3.6,0-6.4,1.8-7.8,4.7h-0.1v-4.3h-5.7v33h5.8V82.8h0.1c1.4,2.8,4.2,4.5,7.8,4.5c6.2,0,10.2-4.9,10.2-12.8
	C411.2,66.6,407.2,61.7,400.9,61.7L400.9,61.7z M399.1,82.6c-3.6,0-6-3.2-6.1-8c0-4.9,2.4-8,6.1-8c3.8,0,6.1,3.1,6.1,8
	S402.9,82.6,399.1,82.6L399.1,82.6z M414.8,86.9h5.8V72.5c0-3.5,2-5.6,5.3-5.6c0.8,0,1.6,0.1,2.4,0.4v-5.2c-0.6-0.2-1.2-0.2-1.8-0.2
	c-2.9,0-5.1,1.8-5.9,4.8h-0.1v-4.4h-5.6L414.8,86.9L414.8,86.9z M439.7,82.9c-2.5,0-4.2-1.3-4.2-3.4c0-2,1.6-3.2,4.4-3.4l5.7-0.4
	v1.9C445.6,80.7,443,82.9,439.7,82.9L439.7,82.9z M437.9,87.3c3.2,0,6.3-1.6,7.7-4.4h0.1v4h5.6V69.8c0-5-4-8.2-10.2-8.2
	c-6.3,0-10.3,3.4-10.6,8h5.4c0.4-2,2.1-3.4,4.9-3.4c2.9,0,4.6,1.5,4.6,4.1V72l-6.6,0.4c-6.1,0.4-9.4,3-9.4,7.4
	C429.6,84.3,433.1,87.3,437.9,87.3L437.9,87.3z M11.7,139.3c3.6,0,6.5-1.9,7.8-4.6h0.1v4.2h5.7v-33.8h-5.8v13.1h-0.1
	c-1.3-2.8-4.1-4.6-7.7-4.6c-6.3,0-10.3,5-10.3,12.8C1.3,134.4,5.4,139.3,11.7,139.3L11.7,139.3z M13.4,118.5c3.7,0,6.1,3.1,6.1,8
	s-2.4,8-6.1,8c-3.8,0-6.1-3.1-6.1-8S9.7,118.5,13.4,118.5L13.4,118.5z M40.8,118.1c3.3,0,5.6,2.5,5.7,6H34.9
	C35.1,120.6,37.5,118.1,40.8,118.1L40.8,118.1z M46.5,131.5c-0.6,2-2.7,3.4-5.4,3.4c-3.8,0-6.3-2.6-6.3-6.6v-0.4h17.4V126
	c0-7.5-4.4-12.5-11.5-12.5c-7.2,0-11.7,5.2-11.7,13c0,7.9,4.5,12.8,11.9,12.8c5.9,0,10.2-3.2,11-7.9L46.5,131.5L46.5,131.5z
	 M87.3,114.1h-5.8v14.4c0,3.6-2.1,6-5.5,6c-3.3,0-5-2-5-5.5v-14.9h-5.8v16c0,5.8,3.4,9.2,8.8,9.2c3.8,0,6.3-1.8,7.6-4.8h0.1v4.3h5.6
	V114.1L87.3,114.1z M91.9,138.9h5.8v-15.2c0-3,2-5.2,4.8-5.2c2.7,0,4.4,1.8,4.4,4.5v15.9h5.7v-15.4c0-3,1.9-5,4.7-5
	c2.9,0,4.4,1.8,4.4,4.8v15.6h5.8v-17c0-5-3.2-8.2-8.1-8.2c-3.6,0-6.5,1.9-7.7,5h-0.1c-0.9-3.2-3.4-5-6.9-5c-3.1-0.1-6,1.8-7.1,4.8
	h-0.1v-4.4h-5.6L91.9,138.9L91.9,138.9z M141.8,138.9h5.8v-24.9h-5.8V138.9z M144.7,110.3c1.7,0,3.1-1.4,3.1-3.2
	c0-1.7-1.4-3.1-3.2-3.1c-1.7,0-3.1,1.4-3.1,3.1C141.5,108.9,142.9,110.3,144.7,110.3C144.7,110.3,144.7,110.3,144.7,110.3
	L144.7,110.3z M153,105.1v33.8h6v-11.1h6.8c6.8,0,11.7-4.6,11.7-11.4s-4.7-11.3-11.4-11.3H153z M159,110.1h5.5
	c4.3,0,6.8,2.3,6.8,6.4c0,4.1-2.5,6.5-6.9,6.5H159V110.1L159,110.1z M181.3,138.9h5.8v-14.2c0-3.6,2.1-6.1,5.7-6.1
	c3.4,0,5.1,2.1,5.1,5.5v14.8h5.8v-16c0-5.7-3.2-9.3-8.7-9.3c-3.8,0-6.5,1.7-7.9,4.8h-0.1v-13.2h-5.8V138.9L181.3,138.9z
	 M219.3,139.4c7.3,0,12-4.9,12-12.9s-4.8-13-12-13s-12,4.9-12,13S212,139.4,219.3,139.4L219.3,139.4z M219.3,134.8
	c-3.7,0-6.1-3-6.1-8.3s2.4-8.3,6.1-8.3c3.7,0,6.1,3,6.1,8.3S223,134.8,219.3,134.8L219.3,134.8z M234.9,138.9h5.8v-14.4
	c0-3.5,2.1-6,5.5-6c3.3,0,5,2,5,5.5v14.9h5.8v-16c0-5.8-3.1-9.2-8.6-9.2c-3.8,0-6.5,1.8-7.8,4.8h-0.1v-4.3h-5.6L234.9,138.9
	L234.9,138.9z M272.3,118.1c3.4,0,5.6,2.5,5.7,6h-11.6C266.6,120.6,269,118.1,272.3,118.1L272.3,118.1z M278,131.5
	c-0.6,2-2.7,3.4-5.4,3.4c-3.8,0-6.3-2.6-6.3-6.6v-0.4h17.4V126c0-7.5-4.4-12.5-11.5-12.5c-7.2,0-11.7,5.2-11.7,13
	c0,7.9,4.5,12.8,12,12.8c5.9,0,10.2-3.2,11-7.9L278,131.5L278,131.5z M294.8,120.4l-3.4-6.6l3.4-6.6h0.2l3.4,6.6l-3.4,6.6H294.8z
	 M301.9,113.8l-5.2-9.6h-3.6l-5.3,9.6l5.3,9.6h3.6L301.9,113.8z M305.7,139.2c1.8,0,3.3-1.4,3.3-3.3c0,0,0-0.1,0-0.1
	c0-1.9-1.5-3.4-3.4-3.4s-3.4,1.5-3.4,3.4c0,0,0,0,0,0c0,1.8,1.4,3.3,3.3,3.4C305.6,139.2,305.6,139.2,305.7,139.2L305.7,139.2z"/>
</svg>
