<?xml version="1.0" encoding="utf-8"?>
<!-- Generator: Adobe Illustrator 23.0.6, SVG Export Plug-In . SVG Version: 6.00 Build 0)  -->
<svg version="1.1" id="Layer_1" xmlns="http://www.w3.org/2000/svg" xmlns:xlink="http://www.w3.org/1999/xlink" x="0px" y="0px"
	 viewBox="0 0 306 96" style="enable-background:new 0 0 306 96;" xml:space="preserve">
<style type="text/css">
	.st0{fill:#111111;}
</style>
<path id="RX-S6_Title_1" class="st0" d="M22,13.8v-2.4h-9.4v3.1H18v0.4c-0.1,3.2-2.4,5.3-5.8,5.3c-4.1,0-6.6-3.2-6.6-8.4
	c0-5.1,2.4-8.1,6.5-8.1c2.6-0.1,5,1.6,5.6,4.1h4.1c-0.7-4.5-4.6-7.5-9.7-7.5C5.6,0.3,1.5,4.7,1.5,11.8c0,7.3,4.1,11.7,10.7,11.7
	C18.4,23.6,22,19.9,22,13.8z M31,20.5c-1.7,0-2.8-0.9-2.8-2.2c0-1.3,1.1-2.2,3-2.3l3.8-0.2v1.3C35,19.1,33.2,20.5,31,20.5L31,20.5z
	 M29.8,23.5c2.1,0,4.1-1.1,5.2-2.9h0.1v2.6h3.8V11.8c0-3.3-2.7-5.5-6.8-5.5c-4.2,0-6.9,2.2-7,5.3h3.6c0.2-1.4,1.4-2.3,3.3-2.3
	s3.1,1,3.1,2.7v1.2l-4.4,0.2c-4,0.2-6.3,2-6.3,5C24.3,21.5,26.6,23.5,29.8,23.5L29.8,23.5z M42.1,23.2H46v-9.6c0-2.4,1.4-4,3.7-4
	c2.2,0,3.3,1.3,3.3,3.7v9.9h3.9V12.5c0-3.8-2.1-6.2-5.7-6.2c-2.5,0-4.3,1.2-5.2,3.2h-0.1V6.6h-3.7L42.1,23.2L42.1,23.2z M60.2,23.2
	h3.9v-9.5c0-2.4,1.4-4.1,3.8-4.1c2.2,0,3.4,1.4,3.4,3.7v9.9h3.9V12.5c0-3.8-2.1-6.2-5.8-6.2c-2.5,0-4.3,1.1-5.2,3.2H64V0.7h-3.8
	V23.2L60.2,23.2z M85.5,9.3c2.2,0,3.7,1.6,3.8,4h-7.7C81.7,11,83.3,9.3,85.5,9.3L85.5,9.3z M89.3,18.2c-0.4,1.4-1.8,2.3-3.6,2.3
	c-2.5,0-4.2-1.8-4.2-4.4v-0.2h11.6v-1.3c0-5-2.9-8.3-7.6-8.3c-4.8,0-7.8,3.5-7.8,8.7c0,5.3,3,8.5,8,8.5c3.9,0,6.8-2.2,7.3-5.3H89.3z
	 M117,6.6h-3.9v9.6c0,2.4-1.4,4-3.6,4s-3.3-1.3-3.3-3.7V6.6h-3.9v10.7c0,3.8,2.3,6.2,5.9,6.2c2.5,0,4.2-1.2,5.1-3.2h0.1v2.9h3.8V6.6
	H117z M120.3,23.2h3.9V13.1c0-2,1.3-3.5,3.2-3.5c1.8,0,2.9,1.1,2.9,3v10.6h3.8V13c0-2,1.3-3.4,3.2-3.4s3,1.2,3,3.2v10.4h3.9V11.8
	c0-3.3-2.1-5.5-5.4-5.5c-2.2-0.1-4.3,1.2-5.2,3.3h-0.1c-0.6-2.1-2.3-3.3-4.6-3.3c-2.1-0.1-4,1.2-4.7,3.2H124V6.6h-3.7V23.2
	L120.3,23.2z M159.9,20.5c-1.7,0-2.8-0.9-2.8-2.2c0-1.3,1.1-2.2,3-2.3l3.8-0.2v1.3C163.9,19.1,162.1,20.5,159.9,20.5L159.9,20.5z
	 M158.7,23.5c2.1,0,4.1-1.1,5.2-2.9h0.1v2.6h3.8V11.8c0-3.3-2.7-5.5-6.8-5.5c-4.2,0-6.9,2.2-7,5.3h3.6c0.2-1.4,1.4-2.3,3.3-2.3
	c1.9,0,3.1,1,3.1,2.7v1.2l-4.4,0.2c-4,0.2-6.3,2-6.3,5C153.2,21.5,155.5,23.5,158.7,23.5L158.7,23.5z M171,23.2h3.9v-9.6
	c0-2.4,1.4-4,3.7-4c2.2,0,3.3,1.3,3.3,3.7v9.9h3.9V12.5c0-3.8-2.1-6.2-5.7-6.2c-2.5,0-4.3,1.2-5.2,3.2h-0.1V6.6H171V23.2L171,23.2z
	 M196.3,23.5c4.9,0,8-3.2,8-8.6s-3.2-8.6-8-8.6s-8,3.3-8,8.6C188.3,20.3,191.4,23.5,196.3,23.5L196.3,23.5z M196.3,20.5
	c-2.5,0-4.1-2-4.1-5.5s1.6-5.5,4.1-5.5s4.1,2,4.1,5.5C200.3,18.5,198.7,20.5,196.3,20.5L196.3,20.5z M219.6,23.5
	c2.2,0.1,4.2-1.1,5.2-3.1h0.1v2.8h3.8V0.7h-3.9v8.8h-0.1c-1-1.9-3-3.1-5.1-3.1c-4.2,0-6.9,3.3-6.9,8.5
	C212.8,20.2,215.5,23.5,219.6,23.5L219.6,23.5z M220.8,9.6c2.5,0,4.1,2.1,4.1,5.4s-1.6,5.4-4.1,5.4s-4.1-2.1-4.1-5.4
	C216.8,11.6,218.3,9.6,220.8,9.6z M239.3,9.3c2.2,0,3.7,1.6,3.8,4h-7.7C235.5,11,237.1,9.3,239.3,9.3L239.3,9.3z M243.1,18.2
	c-0.4,1.4-1.8,2.3-3.6,2.3c-2.5,0-4.2-1.8-4.2-4.4v-0.2h11.6v-1.3c0-5-2.9-8.3-7.6-8.3c-4.8,0-7.8,3.5-7.8,8.7c0,5.3,3,8.5,8,8.5
	c3.9,0,6.8-2.2,7.3-5.3H243.1L243.1,18.2z M17,59.2h4.2l-8-22.5H8.7l-8,22.5h4.2l1.9-5.8h8.3L17,59.2z M10.9,40.6H11l3.1,9.6H7.8
	L10.9,40.6z M32.5,42.4c-2.2-0.1-4.3,1.2-5.2,3.1h-0.1v-2.9h-3.8v22h3.9v-8.2h0.1c0.9,1.9,2.8,3,5.2,3c4.2,0,6.8-3.3,6.8-8.5
	C39.4,45.6,36.7,42.4,32.5,42.4L32.5,42.4z M31.3,56.3c-2.4,0-4-2.1-4-5.4c0-3.2,1.6-5.4,4-5.4c2.5,0,4.1,2.1,4.1,5.4
	C35.4,54.2,33.8,56.3,31.3,56.3L31.3,56.3z M51.1,42.4c-2.2-0.1-4.3,1.2-5.2,3.1h-0.1v-2.9H42v22h3.9v-8.2H46c0.9,1.9,2.8,3,5.2,3
	c4.2,0,6.8-3.3,6.8-8.5C58,45.6,55.3,42.4,51.1,42.4L51.1,42.4z M49.9,56.3c-2.4,0-4-2.1-4-5.4c0-3.2,1.6-5.4,4-5.4
	c2.5,0,4.1,2.1,4.1,5.4S52.4,56.3,49.9,56.3L49.9,56.3z M60.7,59.2h3.9V36.7h-3.9C60.7,36.7,60.7,59.2,60.7,59.2z M75.2,45.3
	c2.2,0,3.7,1.6,3.8,4h-7.7C71.4,47,73,45.3,75.2,45.3L75.2,45.3z M79,54.2c-0.4,1.4-1.8,2.3-3.6,2.3c-2.5,0-4.2-1.8-4.2-4.4v-0.2
	h11.6v-1.3c0-5-2.9-8.3-7.6-8.3c-4.8,0-7.8,3.5-7.8,8.7c0,5.3,3,8.5,8,8.5c3.9,0,6.8-2.2,7.3-5.3H79z M101.9,59.2V40.1h6.7v-3.4
	H91.1v3.4h6.8v19.1C97.9,59.2,101.9,59.2,101.9,59.2z M122.4,59.2l7.8-22.5h-4.3l-5.7,18.2h-0.1l-5.7-18.2H110l7.8,22.5H122.4
	L122.4,59.2z M141.7,51.9h6.2v-3.5h-6.2V42h-3.5v6.5h-6.1V52h6.1v6.5h3.5V51.9L141.7,51.9z M158.3,59.2h3.9v-9.6c0-2.4,1.4-4,3.7-4
	c2.2,0,3.3,1.3,3.3,3.7v9.9h3.9V48.5c0-3.8-2.1-6.2-5.7-6.2c-2.5,0-4.3,1.2-5.2,3.2h-0.1v-2.8h-3.7L158.3,59.2L158.3,59.2z
	 M182.4,56.5c-1.7,0-2.8-0.9-2.8-2.2s1.1-2.2,3-2.3l3.8-0.2v1.3C186.3,55.1,184.6,56.5,182.4,56.5L182.4,56.5z M181.2,59.5
	c2.1,0,4.1-1.1,5.2-2.9h0.1v2.6h3.8V47.8c0-3.3-2.7-5.5-6.8-5.5c-4.2,0-6.9,2.2-7,5.3h3.6c0.2-1.4,1.4-2.3,3.3-2.3
	c1.9,0,3.1,1,3.1,2.7v1.2l-4.4,0.2c-4,0.2-6.3,2-6.3,5C175.7,57.4,178,59.5,181.2,59.5L181.2,59.5z M214.6,48.5
	c-0.3-3.5-3-6.2-7.3-6.2c-4.8,0-7.9,3.3-7.9,8.6c0,5.4,3.1,8.6,8,8.6c4.2,0,7-2.4,7.3-6.1H211c-0.2,1.8-1.8,3.1-3.6,3
	c-2.5,0-4.1-2-4.1-5.5c0-3.4,1.6-5.5,4-5.5c1.8-0.1,3.4,1.3,3.6,3.1H214.6L214.6,48.5z M224.3,59.5c4.9,0,8-3.2,8-8.6
	s-3.2-8.6-8-8.6s-8,3.3-8,8.6C216.3,56.3,219.5,59.5,224.3,59.5L224.3,59.5z M224.3,56.4c-2.5,0-4.1-2-4.1-5.5s1.6-5.5,4.1-5.5
	s4.1,2,4.1,5.5C228.4,54.4,226.8,56.4,224.3,56.4L224.3,56.4z M235,59.2h3.9V49.1c0-2,1.3-3.5,3.2-3.5c1.8,0,2.9,1.1,2.9,3v10.6h3.8
	V49c0-2,1.3-3.4,3.2-3.4s3,1.2,3,3.2v10.4h3.9V47.8c0-3.3-2.1-5.5-5.4-5.5c-2.2-0.1-4.3,1.2-5.2,3.3h-0.1c-0.6-2.1-2.3-3.3-4.6-3.3
	c-2.1-0.1-4,1.2-4.7,3.2h-0.1v-2.9H235V59.2L235,59.2z M271.1,42.4c-2.2-0.1-4.3,1.2-5.2,3.1h-0.1v-2.9H262v22h3.9v-8.2h0.1
	c0.9,1.9,2.8,3,5.2,3c4.2,0,6.8-3.3,6.8-8.5C278,45.6,275.3,42.4,271.1,42.4L271.1,42.4z M269.9,56.3c-2.4,0-4-2.1-4-5.4
	c0-3.2,1.6-5.4,4-5.4c2.5,0,4.1,2.1,4.1,5.4S272.5,56.3,269.9,56.3L269.9,56.3z M280.6,59.2h3.9v-9.6c0-2.3,1.3-3.8,3.5-3.8
	c0.5,0,1.1,0.1,1.6,0.2v-3.5c-0.4-0.1-0.8-0.1-1.2-0.2c-2,0-3.4,1.2-4,3.2h-0.1v-2.9h-3.7L280.6,59.2L280.6,59.2z M297.5,56.5
	c-1.7,0-2.8-0.9-2.8-2.2s1.1-2.2,3-2.3l3.8-0.2v1.3C301.4,55.1,299.7,56.5,297.5,56.5L297.5,56.5z M296.3,59.5
	c2.1,0,4.1-1.1,5.2-2.9h0.1v2.6h3.8V47.8c0-3.3-2.7-5.5-6.8-5.5c-4.2,0-6.9,2.2-7,5.3h3.6c0.2-1.4,1.4-2.3,3.3-2.3s3.1,1,3.1,2.7
	v1.2l-4.4,0.2c-4,0.2-6.3,2-6.3,5C290.7,57.4,293.1,59.5,296.3,59.5L296.3,59.5z M8.1,95.5c2.2,0.1,4.2-1.1,5.2-3.1h0.1v2.8h3.8
	V72.7h-3.9v8.8h-0.1c-1-1.9-3-3.1-5.1-3.1c-4.2,0-6.9,3.3-6.9,8.5C1.2,92.2,3.9,95.5,8.1,95.5L8.1,95.5z M9.3,81.6
	c2.5,0,4.1,2.1,4.1,5.4s-1.6,5.4-4.1,5.4S5.2,90.3,5.2,87C5.2,83.6,6.8,81.6,9.3,81.6L9.3,81.6z M27.7,81.3c2.2,0,3.7,1.6,3.8,4
	h-7.7C24,83,25.5,81.3,27.7,81.3L27.7,81.3z M31.6,90.2c-0.4,1.4-1.8,2.3-3.6,2.3c-2.5,0-4.2-1.8-4.2-4.4v-0.2h11.6v-1.3
	c0-5-2.9-8.3-7.6-8.3C23,78.3,20,81.8,20,87c0,5.3,3,8.5,8,8.5c3.9,0,6.8-2.2,7.3-5.3L31.6,90.2L31.6,90.2z M59.2,78.6h-3.9v9.6
	c0,2.4-1.4,4-3.6,4c-2.2,0-3.3-1.3-3.3-3.7v-9.9h-3.9v10.7c0,3.8,2.3,6.2,5.9,6.2c2.5,0,4.2-1.2,5.1-3.2h0.1v2.9h3.8L59.2,78.6
	L59.2,78.6z M62.5,95.2h3.9V85.1c0-2,1.3-3.5,3.2-3.5c1.8,0,2.9,1.1,2.9,3v10.6h3.8V85c0-2,1.3-3.4,3.2-3.4c1.9,0,3,1.2,3,3.2v10.4
	h3.9V83.8c0-3.3-2.1-5.5-5.4-5.5c-2.2-0.1-4.3,1.2-5.2,3.3h-0.1c-0.6-2.1-2.3-3.3-4.6-3.3c-2.1-0.1-4,1.2-4.7,3.2h-0.1v-2.9h-3.7
	L62.5,95.2L62.5,95.2z M96.2,95.2h3.9V78.6h-3.9V95.2z M98.1,76.1c1.2,0,2.1-1,2.1-2.1c0-1.2-1-2.1-2.1-2.1c-1.2,0-2.1,1-2.1,2.1
	C96,75.2,96.9,76.1,98.1,76.1L98.1,76.1z M103.9,72.7v22.5h4v-7.5h4.6c4.6,0,7.8-3,7.8-7.5s-3.1-7.5-7.6-7.5H103.9L103.9,72.7z
	 M107.9,75.9h3.7c2.9,0,4.6,1.5,4.6,4.2s-1.7,4.3-4.6,4.3h-3.7V75.9L107.9,75.9z M123,95.2h3.9v-9.5c0-2.4,1.4-4.1,3.8-4.1
	c2.2,0,3.4,1.4,3.4,3.7v9.9h3.9V84.5c0-3.8-2.1-6.2-5.8-6.2c-2.5,0-4.3,1.1-5.2,3.2h-0.1v-8.8H123V95.2L123,95.2z M148.5,95.5
	c4.9,0,8-3.2,8-8.6s-3.2-8.6-8-8.6s-8,3.3-8,8.6C140.5,92.3,143.7,95.5,148.5,95.5L148.5,95.5z M148.5,92.4c-2.5,0-4.1-2-4.1-5.5
	s1.6-5.5,4.1-5.5s4.1,2,4.1,5.5S151,92.4,148.5,92.4L148.5,92.4z M159.2,95.2h3.9v-9.6c0-2.4,1.4-4,3.7-4c2.2,0,3.3,1.3,3.3,3.7v9.9
	h3.9V84.5c0-3.8-2.1-6.2-5.7-6.2c-2.5,0-4.3,1.2-5.2,3.2H163v-2.8h-3.7L159.2,95.2L159.2,95.2z M184.3,81.3c2.2,0,3.7,1.6,3.8,4
	h-7.7C180.5,83,182.1,81.3,184.3,81.3L184.3,81.3z M188.1,90.2c-0.4,1.4-1.8,2.3-3.6,2.3c-2.5,0-4.2-1.8-4.2-4.4v-0.2h11.6v-1.3
	c0-5-2.9-8.3-7.6-8.3c-4.8,0-7.8,3.5-7.8,8.7c0,5.3,3,8.5,8,8.5c3.9,0,6.8-2.2,7.3-5.3L188.1,90.2L188.1,90.2z M199,85.4l-2.4-4.8
	l2.4-4.7h0.2l2.4,4.7l-2.4,4.8H199z M204.2,80.6l-3.8-6.9h-2.6l-3.8,6.9l3.8,6.9h2.6L204.2,80.6z M208.8,95.4c1.2,0,2.2-1,2.2-2.2
	s-1-2.2-2.2-2.2s-2.2,1-2.2,2.2C206.5,94.3,207.5,95.4,208.8,95.4C208.7,95.4,208.7,95.4,208.8,95.4L208.8,95.4z"/>
</svg>
