<?xml version="1.0" encoding="utf-8"?>
<!-- Generator: Adobe Illustrator 21.1.0, SVG Export Plug-In . SVG Version: 6.00 Build 0)  -->
<svg version="1.1" id="Layer_1" xmlns="http://www.w3.org/2000/svg" xmlns:xlink="http://www.w3.org/1999/xlink" x="0px" y="0px"
	 viewBox="0 0 204 132" style="enable-background:new 0 0 204 132;" xml:space="preserve">
<style type="text/css">
	.st0{fill:#111111;}
</style>
<path id="RX-S6_Title_1" class="st0" d="M21.3,13.9v-2.4h-9.4v3.1h5.4l0,0.4c-0.1,3.1-2.4,5.3-5.8,5.3c-4.1,0-6.6-3.1-6.6-8.4
	c0-5,2.4-8.1,6.5-8.1c2.6-0.1,5,1.6,5.6,4.1h4.1c-0.7-4.5-4.6-7.5-9.7-7.5C4.8,0.4,0.8,4.8,0.8,11.9c0,7.2,4.1,11.8,10.7,11.8
	C17.6,23.7,21.3,20,21.3,13.9z M30.2,20.6c-1.7,0-2.8-0.9-2.8-2.2c0-1.3,1.1-2.1,3-2.2l3.8-0.2v1.2C34.2,19.1,32.4,20.6,30.2,20.6
	L30.2,20.6z M29.1,23.6c2.1,0,4.1-1.1,5.2-3h0.1v2.6h3.8V11.9c0-3.3-2.7-5.5-6.8-5.5c-4.2,0-6.9,2.2-7,5.3h3.6
	c0.2-1.4,1.4-2.2,3.3-2.2c1.9,0,3.1,1,3.1,2.8v1.2l-4.4,0.2c-4,0.2-6.3,2-6.3,5S25.9,23.6,29.1,23.6L29.1,23.6z M41.3,23.3h3.9v-9.6
	c0-2.4,1.4-4,3.7-4c2.2,0,3.3,1.3,3.3,3.6v9.9h3.9V12.6c0-3.8-2.1-6.1-5.7-6.1c-2.5,0-4.3,1.2-5.2,3.1H45V6.7h-3.7V23.3L41.3,23.3z
	 M59.4,23.3h3.9v-9.5c0-2.5,1.4-4,3.8-4c2.2,0,3.4,1.4,3.4,3.7v9.9h3.9V12.6c0-3.8-2.1-6.2-5.8-6.2c-2.5,0-4.3,1.1-5.2,3.1h-0.1V0.7
	h-3.8V23.3z M84.7,9.4c2.2,0,3.7,1.6,3.8,4h-7.7C81,11.1,82.5,9.4,84.7,9.4L84.7,9.4z M88.6,18.3c-0.4,1.4-1.8,2.3-3.6,2.3
	c-2.5,0-4.2-1.8-4.2-4.5v-0.2h11.6v-1.2c0-5-2.9-8.3-7.6-8.3c-4.8,0-7.8,3.5-7.8,8.7c0,5.3,3,8.5,8,8.5c3.9,0,6.8-2.1,7.3-5.3H88.6
	L88.6,18.3z M116.2,6.7h-3.9v9.6c0,2.4-1.4,4-3.6,4c-2.2,0-3.3-1.3-3.3-3.7V6.7h-3.9v10.7c0,3.9,2.3,6.1,5.9,6.1
	c2.5,0,4.2-1.1,5.1-3.1h0.1v2.9h3.8V6.7L116.2,6.7z M119.5,23.3h3.9V13.1c0-2,1.3-3.5,3.2-3.5c1.8,0,2.9,1.1,2.9,3v10.6h3.8V13.1
	c0-2,1.3-3.4,3.2-3.4c1.9,0,3,1.2,3,3.2v10.4h3.9V11.9c0-3.3-2.1-5.5-5.4-5.5c-2.4,0-4.4,1.2-5.2,3.3h-0.1c-0.6-2.1-2.3-3.3-4.6-3.3
	c-2.1-0.1-4,1.2-4.7,3.2h-0.1V6.7h-3.7V23.3z M159.1,20.6c-1.7,0-2.8-0.9-2.8-2.2c0-1.3,1.1-2.1,3-2.2l3.8-0.2v1.2
	C163.1,19.1,161.3,20.6,159.1,20.6L159.1,20.6z M158,23.6c2.1,0,4.1-1.1,5.2-3h0.1v2.6h3.8V11.9c0-3.3-2.7-5.5-6.8-5.5
	c-4.2,0-6.9,2.2-7,5.3h3.6c0.2-1.4,1.4-2.2,3.3-2.2c1.9,0,3.1,1,3.1,2.8v1.2l-4.4,0.2c-4,0.2-6.3,2-6.3,5S154.8,23.6,158,23.6
	L158,23.6z M170.2,23.3h3.9v-9.6c0-2.4,1.4-4,3.7-4c2.2,0,3.3,1.3,3.3,3.6v9.9h3.9V12.6c0-3.8-2.1-6.1-5.7-6.1
	c-2.5,0-4.3,1.2-5.2,3.1h-0.1V6.7h-3.7V23.3L170.2,23.3z M195.5,23.6c4.9,0,8-3.2,8-8.6c0-5.4-3.2-8.6-8-8.6s-8,3.3-8,8.6
	S190.7,23.6,195.5,23.6L195.5,23.6z M195.5,20.5c-2.5,0-4.1-2-4.1-5.5c0-3.5,1.6-5.5,4.1-5.5c2.5,0,4.1,2,4.1,5.5
	C199.6,18.5,198,20.5,195.5,20.5L195.5,20.5z M7.3,59.6c2.2,0.1,4.2-1.1,5.2-3.1h0.1v2.8h3.8V36.7h-3.9v8.8h-0.1
	c-0.9-2-3-3.2-5.1-3.1c-4.2,0-6.9,3.4-6.9,8.5C0.5,56.3,3.2,59.6,7.3,59.6z M8.5,45.6c2.5,0,4.1,2.1,4.1,5.4s-1.6,5.4-4.1,5.4
	c-2.5,0-4.1-2-4.1-5.4S6,45.6,8.5,45.6L8.5,45.6z M27,45.4c2.2,0,3.7,1.6,3.8,4h-7.7C23.2,47.1,24.8,45.4,27,45.4L27,45.4z
	 M30.8,54.3c-0.4,1.4-1.8,2.3-3.6,2.3c-2.5,0-4.2-1.8-4.2-4.5v-0.2h11.6v-1.2c0-5-2.9-8.3-7.6-8.3c-4.8,0-7.8,3.5-7.8,8.7
	c0,5.3,3,8.5,8,8.5c3.9,0,6.8-2.1,7.3-5.3H30.8L30.8,54.3z M58.9,59.3h4.2l-8-22.5h-4.5l-8,22.5h4.2l1.9-5.8H57L58.9,59.3z
	 M52.8,40.7h0.1l3.1,9.6h-6.4L52.8,40.7z M74.4,42.4c-2.2-0.1-4.2,1.2-5.2,3.1h-0.1v-2.9h-3.8v22h3.9v-8.2h0.1c1,1.9,3,3.1,5.2,3
	c4.2,0,6.8-3.3,6.8-8.5C81.3,45.7,78.6,42.4,74.4,42.4L74.4,42.4z M73.2,56.4c-2.4,0-4-2.1-4-5.4c0-3.2,1.6-5.4,4-5.4
	c2.5,0,4.1,2.1,4.1,5.4C77.3,54.3,75.7,56.4,73.2,56.4L73.2,56.4z M93,42.4c-2.2-0.1-4.2,1.2-5.2,3.1h-0.1v-2.9h-3.8v22h3.9v-8.2
	h0.1c1,1.9,3,3.1,5.2,3c4.2,0,6.8-3.3,6.8-8.5C99.8,45.7,97.2,42.4,93,42.4L93,42.4z M91.8,56.4c-2.4,0-4-2.1-4-5.4
	c0-3.2,1.6-5.4,4-5.4c2.5,0,4.1,2.1,4.1,5.4C95.9,54.3,94.3,56.4,91.8,56.4L91.8,56.4z M102.6,59.3h3.9V36.7h-3.9L102.6,59.3
	L102.6,59.3z M117.1,45.4c2.2,0,3.7,1.6,3.8,4h-7.7C113.3,47.1,114.9,45.4,117.1,45.4L117.1,45.4z M120.9,54.3
	c-0.4,1.4-1.8,2.3-3.6,2.3c-2.5,0-4.2-1.8-4.2-4.5v-0.2h11.6v-1.2c0-5-2.9-8.3-7.6-8.3c-4.8,0-7.8,3.5-7.8,8.7c0,5.3,3,8.5,8,8.5
	c3.9,0,6.8-2.1,7.3-5.3H120.9L120.9,54.3z M143.8,59.3V40.1h6.7v-3.4H133v3.4h6.8v19.1H143.8z M164.3,59.3l7.8-22.5h-4.3L162.1,55
	H162l-5.7-18.2h-4.4l7.8,22.5H164.3L164.3,59.3z M183.6,52h6.2v-3.5h-6.2v-6.5h-3.5v6.5h-6.1V52h6.1v6.5h3.5L183.6,52L183.6,52z
	 M1.1,95.3H5v-9.6c0-2.4,1.4-4,3.7-4c2.2,0,3.3,1.3,3.3,3.6v9.9h3.9V84.6c0-3.8-2.1-6.1-5.7-6.1c-2.5,0-4.3,1.2-5.2,3.1H4.9v-2.9
	H1.1L1.1,95.3L1.1,95.3z M25.2,92.6c-1.7,0-2.8-0.9-2.8-2.2c0-1.3,1.1-2.1,3-2.2l3.8-0.2v1.2C29.1,91.1,27.4,92.6,25.2,92.6
	L25.2,92.6z M24,95.6c2.1,0,4.1-1.1,5.2-3h0.1v2.6H33V83.9c0-3.3-2.7-5.5-6.8-5.5c-4.2,0-6.9,2.2-7,5.3h3.6c0.2-1.4,1.4-2.2,3.3-2.2
	c1.9,0,3.1,1,3.1,2.8v1.2l-4.4,0.2c-4,0.2-6.3,2-6.3,5S20.8,95.6,24,95.6L24,95.6z M57.4,84.6c-0.3-3.5-3-6.2-7.3-6.2
	c-4.8,0-7.9,3.4-7.9,8.6c0,5.4,3.1,8.6,8,8.6c4.2,0,7-2.5,7.3-6.1h-3.7c-0.2,1.8-1.8,3.1-3.6,3c-2.5,0-4.1-2-4.1-5.5
	c0-3.4,1.6-5.5,4-5.5c1.8-0.1,3.4,1.3,3.6,3.1H57.4z M67.2,95.6c4.9,0,8-3.2,8-8.6c0-5.4-3.2-8.6-8-8.6s-8,3.3-8,8.6
	S62.3,95.6,67.2,95.6L67.2,95.6z M67.2,92.5c-2.5,0-4.1-2-4.1-5.5c0-3.5,1.6-5.5,4.1-5.5c2.5,0,4.1,2,4.1,5.5
	C71.2,90.5,69.6,92.5,67.2,92.5L67.2,92.5z M77.8,95.3h3.9V85.1c0-2,1.3-3.5,3.2-3.5c1.8,0,2.9,1.1,2.9,3v10.6h3.8V85.1
	c0-2,1.3-3.4,3.2-3.4c1.9,0,3,1.2,3,3.2v10.4h3.9V83.9c0-3.3-2.1-5.5-5.4-5.5c-2.4,0-4.4,1.2-5.2,3.3H91c-0.6-2.1-2.3-3.3-4.6-3.3
	c-2.1-0.1-4,1.2-4.7,3.2h-0.1v-2.9h-3.7L77.8,95.3L77.8,95.3z M113.9,78.4c-2.2-0.1-4.2,1.2-5.2,3.1h-0.1v-2.9h-3.8v22h3.9v-8.2h0.1
	c1,1.9,3,3.1,5.2,3c4.2,0,6.8-3.3,6.8-8.5C120.8,81.7,118.1,78.4,113.9,78.4L113.9,78.4z M112.8,92.4c-2.4,0-4-2.1-4-5.4
	c0-3.2,1.6-5.4,4-5.4c2.5,0,4.1,2.1,4.1,5.4C116.8,90.3,115.3,92.4,112.8,92.4L112.8,92.4z M123.4,95.3h3.9v-9.6
	c0-2.3,1.3-3.8,3.5-3.8c0.5,0,1.1,0.1,1.6,0.2v-3.5c-0.4-0.1-0.8-0.2-1.2-0.2c-2,0-3.4,1.2-4,3.2h-0.1v-2.9h-3.7L123.4,95.3
	L123.4,95.3z M140.3,92.6c-1.7,0-2.8-0.9-2.8-2.2c0-1.3,1.1-2.1,3-2.2l3.8-0.2v1.2C144.2,91.1,142.5,92.6,140.3,92.6L140.3,92.6z
	 M139.1,95.6c2.1,0,4.1-1.1,5.2-3h0.1v2.6h3.8V83.9c0-3.3-2.7-5.5-6.8-5.5c-4.2,0-6.9,2.2-7,5.3h3.6c0.2-1.4,1.4-2.2,3.3-2.2
	c1.9,0,3.1,1,3.1,2.8v1.2l-4.4,0.2c-4,0.2-6.3,2-6.3,5S135.9,95.6,139.1,95.6L139.1,95.6z M164.1,95.6c2.2,0.1,4.2-1.1,5.2-3.1h0.1
	v2.8h3.8V72.7h-3.9v8.8h-0.1c-0.9-2-3-3.2-5.1-3.1c-4.2,0-6.9,3.4-6.9,8.5C157.2,92.3,159.9,95.6,164.1,95.6L164.1,95.6z
	 M165.2,81.6c2.5,0,4.1,2.1,4.1,5.4s-1.6,5.4-4.1,5.4c-2.5,0-4.1-2-4.1-5.4S162.7,81.6,165.2,81.6L165.2,81.6z M183.7,81.4
	c2.2,0,3.7,1.6,3.8,4h-7.7C179.9,83.1,181.5,81.4,183.7,81.4L183.7,81.4z M187.5,90.3c-0.4,1.4-1.8,2.3-3.6,2.3
	c-2.5,0-4.2-1.8-4.2-4.5v-0.2h11.6v-1.2c0-5-2.9-8.3-7.6-8.3c-4.8,0-7.8,3.5-7.8,8.7c0,5.3,3,8.5,8,8.5c3.9,0,6.8-2.1,7.3-5.3H187.5
	z M15.8,114.7h-3.9v9.6c0,2.4-1.4,4-3.6,4c-2.2,0-3.3-1.3-3.3-3.7v-9.9H1.1v10.7c0,3.9,2.3,6.1,5.9,6.1c2.5,0,4.2-1.1,5.1-3.1h0.1
	v2.9h3.8V114.7L15.8,114.7z M19.1,131.3H23v-10.1c0-2,1.3-3.5,3.2-3.5c1.8,0,2.9,1.1,2.9,3v10.6h3.8v-10.2c0-2,1.3-3.4,3.2-3.4
	c1.9,0,3,1.2,3,3.2v10.4h3.9v-11.4c0-3.3-2.1-5.5-5.4-5.5c-2.4,0-4.4,1.2-5.2,3.3h-0.1c-0.6-2.1-2.3-3.3-4.6-3.3
	c-2.1-0.1-4,1.2-4.7,3.2h-0.1v-2.9h-3.7V131.3z M52.8,131.3h3.9v-16.5h-3.9V131.3z M54.7,112.2c1.2,0,2.1-0.9,2.1-2.1c0,0,0,0,0,0
	c0-1.2-1-2.1-2.2-2.1c-1.2,0-2.1,0.9-2.1,2.1C52.6,111.3,53.6,112.2,54.7,112.2z M60.5,108.7v22.5h4v-7.5h4.6c4.6,0,7.8-3,7.8-7.5
	s-3.1-7.5-7.6-7.5H60.5L60.5,108.7z M64.5,112h3.7c2.9,0,4.6,1.5,4.6,4.2c0,2.8-1.7,4.3-4.6,4.3h-3.7V112z M79.6,131.3h3.9v-9.5
	c0-2.5,1.4-4,3.8-4c2.2,0,3.4,1.4,3.4,3.7v9.9h3.9v-10.6c0-3.8-2.1-6.2-5.8-6.2c-2.5,0-4.3,1.1-5.2,3.1h-0.1v-8.9h-3.8L79.6,131.3
	L79.6,131.3z M105.1,131.6c4.9,0,8-3.2,8-8.6c0-5.4-3.2-8.6-8-8.6s-8,3.3-8,8.7S100.3,131.6,105.1,131.6L105.1,131.6z M105.1,128.5
	c-2.5,0-4.1-2-4.1-5.5c0-3.5,1.6-5.5,4.1-5.5c2.5,0,4.1,2,4.1,5.5C109.2,126.5,107.6,128.5,105.1,128.5L105.1,128.5z M115.8,131.3
	h3.9v-9.6c0-2.4,1.4-4,3.7-4c2.2,0,3.3,1.3,3.3,3.6v9.9h3.9v-10.7c0-3.8-2.1-6.1-5.7-6.1c-2.5,0-4.3,1.2-5.2,3.1h-0.1v-2.9h-3.7
	L115.8,131.3L115.8,131.3z M140.9,117.4c2.2,0,3.7,1.6,3.8,4H137C137.2,119.1,138.7,117.4,140.9,117.4L140.9,117.4z M144.7,126.3
	c-0.4,1.4-1.8,2.3-3.6,2.3c-2.5,0-4.2-1.8-4.2-4.5v-0.2h11.6v-1.2c0-5-2.9-8.3-7.6-8.3c-4.8,0-7.8,3.5-7.8,8.7c0,5.3,3,8.5,8,8.5
	c3.9,0,6.8-2.1,7.3-5.3H144.7z M154.9,118.9l-2.3-4.4l2.3-4.4h0.2l2.3,4.4l-2.3,4.4H154.9z M159.6,114.5l-3.5-6.4h-2.4l-3.5,6.4
	l3.5,6.4h2.4L159.6,114.5z M160.9,131.5c1.2,0,2.2-1,2.2-2.2s-1-2.2-2.2-2.2s-2.2,1-2.2,2.2l0,0
	C158.7,130.5,159.7,131.5,160.9,131.5C160.9,131.5,160.9,131.5,160.9,131.5L160.9,131.5z"/>
</svg>
