<?xml version="1.0" encoding="utf-8"?>
<!-- Generator: Adobe Illustrator 21.1.0, SVG Export Plug-In . SVG Version: 6.00 Build 0)  -->
<svg version="1.1" id="Layer_1" xmlns="http://www.w3.org/2000/svg" xmlns:xlink="http://www.w3.org/1999/xlink" x="0px" y="0px"
	 viewBox="0 0 84 20" style="enable-background:new 0 0 84 20;" xml:space="preserve">
<style type="text/css">
	.st0{fill:#666666;}
</style>
<path id="_50_S9_Sub_1_large_1x.svg" class="st0" d="M12.6,17.5h3.2l-6-16.9H6.4l-6,16.9h3.1l1.4-4.4h6.2L12.6,17.5z M8,3.6L8,3.6
	l2.4,7.2H5.6L8,3.6z M17.6,17.5h2.9V5.1h-2.9V17.5z M19,3.2c0.9,0,1.6-0.7,1.6-1.6C20.6,0.7,19.8,0,19,0c-0.9,0-1.5,0.7-1.6,1.5
	C17.4,2.4,18.1,3.1,19,3.2C19,3.1,19,3.1,19,3.2L19,3.2z M23.1,17.5h2.9v-7.2c0-1.7,1-2.8,2.7-2.8c0.4,0,0.8,0.1,1.2,0.1V5
	c-0.3-0.1-0.6-0.1-0.9-0.1c-1.5,0-2.6,0.9-3,2.4h-0.1V5.1h-2.8V17.5z M31.9,0.6v16.9h3v-5.6h3.4c3.4,0,5.8-2.2,5.8-5.6
	c0-3.4-2.3-5.6-5.7-5.6H31.9L31.9,0.6z M34.9,3h2.8c2.2,0,3.4,1.2,3.4,3.2c0,2-1.3,3.2-3.4,3.2h-2.7V3L34.9,3z M51.3,17.7
	c3.6,0,6-2.5,6-6.5c0-4-2.4-6.5-6-6.5s-6,2.5-6,6.5S47.7,17.7,51.3,17.7L51.3,17.7z M51.3,15.4c-1.9,0-3.1-1.5-3.1-4.1
	s1.2-4.1,3.1-4.1c1.8,0,3,1.5,3,4.1S53.2,15.4,51.3,15.4L51.3,15.4z M64.1,17.7c1.6,0.1,3.2-0.8,3.9-2.3h0v2.1h2.9V0.6H68v6.5h-0.1
	c-0.7-1.4-2.2-2.3-3.8-2.3c-3.1,0-5.2,2.5-5.2,6.5S60.9,17.6,64.1,17.7L64.1,17.7z M65,7.2c1.8,0,3.1,1.6,3.1,4s-1.2,4-3.1,4
	c-1.9,0-3-1.5-3-4S63.1,7.2,65,7.2L65,7.2z M73.3,8.6c0,1.9,1.2,3,3.6,3.5l2.1,0.5c1.3,0.3,1.7,0.7,1.7,1.5c0,1-0.9,1.5-2.3,1.5
	c-1.5,0-2.3-0.6-2.5-1.8H73c0.2,2.4,2.2,4,5.4,4c3.1,0,5.2-1.6,5.2-4c0-1.8-1-2.8-3.6-3.4L78,10c-1.3-0.3-1.8-0.8-1.8-1.5
	c0-0.9,0.9-1.5,2.1-1.5c1.3,0,2.2,0.8,2.3,1.9h2.7c-0.1-2.4-2-4-5-4C75.3,4.8,73.3,6.3,73.3,8.6L73.3,8.6z"/>
</svg>
