<?xml version="1.0" encoding="utf-8"?>
<!-- Generator: Adobe Illustrator 21.1.0, SVG Export Plug-In . SVG Version: 6.00 Build 0)  -->
<svg version="1.1" id="Layer_1" xmlns="http://www.w3.org/2000/svg" xmlns:xlink="http://www.w3.org/1999/xlink" x="0px" y="0px"
	 viewBox="0 0 74 16" style="enable-background:new 0 0 74 16;" xml:space="preserve">
<style type="text/css">
	.st0{fill:#666666;}
</style>
<path id="RX-S7_Sub_1" class="st0" d="M11.1,15.5h2.8L8.7,0.7h-3L0.4,15.5h2.7l1.3-3.8h5.4L11.1,15.5z M7.1,3.4L7.1,3.4l2.1,6.3H5
	L7.1,3.4z M15.5,15.5h2.6V4.7h-2.6V15.5z M16.8,3c0.8,0,1.4-0.6,1.4-1.4c0-0.8-0.6-1.4-1.4-1.4c-0.8,0-1.4,0.6-1.4,1.4
	C15.4,2.4,16,3,16.8,3C16.8,3,16.8,3,16.8,3L16.8,3z M20.5,15.5H23V9.2c0-1.5,0.9-2.5,2.3-2.5c0.4,0,0.7,0,1,0.1V4.6
	c-0.3-0.1-0.5-0.1-0.8-0.1c-1.3,0-2.4,0.9-2.6,2.1h-0.1V4.7h-2.4L20.5,15.5L20.5,15.5z M28.2,0.7v14.8h2.6v-4.9h3c3,0,5.1-2,5.1-5
	s-2-5-5-5L28.2,0.7L28.2,0.7z M30.8,2.9h2.4c1.9,0,3,1,3,2.8c0,1.8-1.1,2.8-3,2.8h-2.4L30.8,2.9L30.8,2.9z M45.2,15.7
	c3.2,0,5.3-2.1,5.3-5.6c0-3.5-2.1-5.7-5.3-5.7c-3.2,0-5.3,2.2-5.3,5.7C39.9,13.6,42,15.7,45.2,15.7L45.2,15.7z M45.2,13.7
	c-1.6,0-2.7-1.3-2.7-3.6c0-2.3,1.1-3.6,2.7-3.6c1.6,0,2.7,1.3,2.7,3.6C47.9,12.4,46.8,13.7,45.2,13.7L45.2,13.7z M56.4,15.7
	c1.4,0.1,2.8-0.7,3.4-2h0v1.9h2.5V0.7h-2.6v5.7h-0.1c-0.6-1.3-1.9-2.1-3.4-2c-2.7,0-4.5,2.2-4.5,5.6C51.9,13.5,53.7,15.7,56.4,15.7
	L56.4,15.7z M57.2,6.6c1.6,0,2.7,1.4,2.7,3.5c0,2.2-1.1,3.5-2.7,3.5c-1.6,0-2.7-1.4-2.7-3.5C54.5,7.9,55.5,6.6,57.2,6.6L57.2,6.6z
	 M64.6,7.8c0,1.6,1,2.6,3.1,3.1l1.8,0.4c1.1,0.3,1.5,0.6,1.5,1.3c0,0.8-0.8,1.3-2,1.3c-1.3,0-2-0.5-2.2-1.6h-2.5
	c0.2,2.1,1.9,3.5,4.7,3.5c2.7,0,4.6-1.4,4.6-3.4c0-1.6-0.9-2.5-3.1-3L68.6,9C67.5,8.7,67,8.3,67,7.6c0-0.8,0.8-1.3,1.9-1.3
	c1.2,0,1.9,0.6,2,1.6h2.4c-0.1-2.1-1.7-3.5-4.4-3.5C66.3,4.4,64.6,5.8,64.6,7.8L64.6,7.8z"/>
</svg>
