<?xml version="1.0" encoding="utf-8"?>
<!-- Generator: Adobe Illustrator 21.1.0, SVG Export Plug-In . SVG Version: 6.00 Build 0)  -->
<svg version="1.1" id="Layer_1" xmlns="http://www.w3.org/2000/svg" xmlns:xlink="http://www.w3.org/1999/xlink" x="0px" y="0px"
	 viewBox="0 0 408 98" style="enable-background:new 0 0 408 98;" xml:space="preserve">
<style type="text/css">
	.st0{fill:#111111;}
</style>
<path id="RX-S7_Title_1" class="st0" d="M8,35.8V12.1h0.2L25,35.8h5.2V2h-5.8v23.6h-0.2L7.4,2H2.2v33.8H8L8,35.8z M44,31.8
	c-2.5,0-4.2-1.3-4.2-3.4c0-2,1.6-3.2,4.4-3.4l5.7-0.4v1.9C49.9,29.6,47.3,31.8,44,31.8z M42.2,36.2c3.2,0,6.3-1.6,7.7-4.4h0.1v4h5.6
	V18.7c0-5-4-8.2-10.2-8.2c-6.3,0-10.3,3.3-10.6,8h5.4c0.4-2,2.1-3.4,4.9-3.4c2.9,0,4.6,1.5,4.6,4.1v1.8l-6.6,0.4
	c-6,0.4-9.4,3-9.4,7.5C33.9,33.2,37.4,36.2,42.2,36.2z M69.5,36.2c3.6,0,6.5-1.9,7.8-4.6h0.1v4.2h5.7V2h-5.8v13.1h-0.1
	c-1.3-2.7-4.1-4.5-7.7-4.5c-6.3,0-10.3,5-10.3,12.8C59.2,31.2,63.2,36.2,69.5,36.2z M71.3,15.3c3.7,0,6.1,3.1,6.1,8c0,5-2.4,8-6.1,8
	c-3.8,0-6.1-3.1-6.1-8C65.2,18.4,67.5,15.3,71.3,15.3z M97,31.8c-2.5,0-4.2-1.3-4.2-3.4c0-2,1.6-3.2,4.4-3.4l5.7-0.4v1.9
	C102.9,29.6,100.3,31.8,97,31.8z M95.2,36.2c3.2,0,6.3-1.6,7.7-4.4h0.1v4h5.6V18.7c0-5-4-8.2-10.2-8.2c-6.3,0-10.3,3.3-10.5,8h5.4
	c0.4-2,2.1-3.4,4.9-3.4c2.9,0,4.6,1.5,4.6,4.1v1.8l-6.6,0.4c-6.1,0.4-9.4,3-9.4,7.5C86.9,33.2,90.4,36.2,95.2,36.2z M132,36.2
	c3.6,0,6.5-1.9,7.9-4.6h0.1v4.2h5.7V2h-5.8v13.1h-0.1c-1.3-2.7-4.1-4.5-7.7-4.5c-6.3,0-10.3,5-10.3,12.8
	C121.7,31.2,125.7,36.2,132,36.2z M133.8,15.3c3.7,0,6.1,3.1,6.1,8c0,5-2.4,8-6.1,8c-3.8,0-6.1-3.1-6.1-8
	C127.7,18.4,130,15.3,133.8,15.3z M161.1,14.9c3.4,0,5.6,2.5,5.7,6h-11.6C155.5,17.4,157.8,14.9,161.1,14.9z M166.9,28.3
	c-0.6,2.1-2.7,3.5-5.4,3.5c-3.8,0-6.3-2.7-6.3-6.6v-0.4h17.4v-1.9c0-7.5-4.4-12.5-11.5-12.5c-7.2,0-11.7,5.1-11.7,13
	c0,8,4.5,12.9,12,12.9c5.9,0,10.2-3.2,11-8H166.9z M187.3,35.8h5.8V15.4h4.9V11h-5V9c0-2,1-3.1,3.2-3.1c0.6,0,1.2,0.1,1.8,0.1V2
	c-1-0.2-2.1-0.3-3.1-0.3c-5.4,0-7.7,2.3-7.7,7.1V11h-3.4v4.5h3.4L187.3,35.8L187.3,35.8z M201.8,35.8h5.8V10.9h-5.8V35.8z
	 M204.7,7.2c1.8,0,3.2-1.4,3.2-3.2s-1.4-3.2-3.2-3.2c-1.8,0-3.2,1.4-3.2,3.2c0,0,0,0,0,0C201.5,5.8,202.9,7.2,204.7,7.2z
	 M223.4,36.3c7.3,0,12-4.9,12-13c0-8-4.8-12.9-12-12.9s-12,4.9-12,12.9C211.4,31.4,216.1,36.3,223.4,36.3z M223.4,31.7
	c-3.7,0-6.1-3-6.1-8.3c0-5.2,2.4-8.2,6.1-8.2c3.7,0,6.1,3,6.1,8.2C229.5,28.7,227.1,31.7,223.4,31.7z M238.6,18.1c0,3.7,2.4,6,7.2,7
	l4.1,0.9c2.6,0.6,3.5,1.5,3.5,3c0,1.9-1.8,3-4.6,3c-3,0-4.6-1.2-5.1-3.6h-5.7c0.5,4.8,4.3,7.9,10.8,7.9c6.1,0,10.4-3.2,10.4-7.9
	c0-3.6-2-5.6-7.2-6.8l-4.1-1c-2.6-0.5-3.6-1.5-3.6-3c0-1.8,1.7-3,4.3-3c2.7,0,4.4,1.4,4.6,3.6h5.4c-0.1-4.7-4-8-10-8
	C242.5,10.4,238.6,13.6,238.6,18.1L238.6,18.1z M266.8,36.1c1.8,0,3.3-1.4,3.3-3.3c0,0,0-0.1,0-0.1c0-1.9-1.5-3.4-3.4-3.4
	s-3.4,1.5-3.4,3.4c0,0,0,0,0,0c0,1.8,1.4,3.3,3.3,3.4C266.7,36.1,266.8,36.1,266.8,36.1L266.8,36.1z M16.5,87.8V59.1h10.1V54H0.3
	v5.1h10.1v28.7H16.5z M48.1,63h-5.8v14.4c0,3.6-2.1,6-5.5,6c-3.3,0-5-1.9-5-5.5V63H26v16c0,5.8,3.4,9.2,8.8,9.2
	c3.8,0,6.3-1.8,7.6-4.8h0.1v4.3h5.6V63L48.1,63z M62,88.2c3.6,0,6.5-1.9,7.8-4.6h0.1v4.2h5.7V54h-5.8v13.1h-0.1
	c-1.3-2.7-4.1-4.5-7.7-4.5c-6.3,0-10.3,5-10.3,12.8C51.7,83.2,55.7,88.2,62,88.2L62,88.2z M63.8,67.4c3.7,0,6.1,3.1,6.1,8
	c0,5-2.4,8-6.1,8c-3.8,0-6.1-3.1-6.1-8C57.7,70.4,60,67.3,63.8,67.4L63.8,67.4z M91.4,88.3c7.3,0,12-4.9,12-13c0-8-4.8-12.9-12-12.9
	s-12,4.9-12,12.9C79.4,83.4,84.1,88.3,91.4,88.3L91.4,88.3z M91.4,83.7c-3.7,0-6.1-3-6.1-8.3c0-5.2,2.4-8.2,6.1-8.2
	c3.7,0,6.1,3,6.1,8.2C97.5,80.7,95.1,83.7,91.4,83.7L91.4,83.7z M125.8,88.2c3.6,0,6.5-1.9,7.9-4.6h0.1v4.2h5.7V54h-5.8v13.1h-0.1
	c-1.3-2.7-4.1-4.5-7.7-4.5c-6.3,0-10.3,5-10.3,12.8C115.5,83.2,119.5,88.2,125.8,88.2L125.8,88.2z M127.5,67.4c3.7,0,6.1,3.1,6.1,8
	c0,5-2.4,8-6.1,8c-3.8,0-6.1-3.1-6.1-8C121.5,70.4,123.8,67.3,127.5,67.4L127.5,67.4z M154.9,67c3.3,0,5.6,2.5,5.7,6H149
	C149.3,69.4,151.6,66.9,154.9,67L154.9,67z M160.7,80.4c-0.6,2.1-2.7,3.5-5.4,3.5c-3.8,0-6.3-2.7-6.3-6.6v-0.4h17.4v-1.9
	c0-7.5-4.4-12.5-11.5-12.5c-7.2,0-11.7,5.1-11.7,13c0,8,4.5,12.9,11.9,12.9c5.9,0,10.2-3.2,11-8H160.7L160.7,80.4z M181,57.2v5.8
	h-3.6v4.5h3.6v13.8c0,4.8,2.1,6.7,7.5,6.7c1,0,2-0.1,3-0.2v-4.5c-0.6,0.1-1.1,0.1-1.7,0.1c-2.1,0-3-1-3-3V67.4h4.7v-4.5h-4.7v-5.8
	H181z M205.6,66.9c3.3,0,5.6,2.5,5.7,6h-11.6C200,69.4,202.3,66.9,205.6,66.9L205.6,66.9z M211.4,80.3c-0.6,2.1-2.7,3.5-5.4,3.5
	c-3.8,0-6.3-2.7-6.3-6.6v-0.4h17.4v-1.9c0-7.5-4.4-12.5-11.5-12.5c-7.2,0-11.7,5.1-11.7,13c0,8,4.5,12.9,12,12.9
	c5.9,0,10.2-3.2,11-8H211.4z M242.6,71.8c-0.4-5.2-4.5-9.4-11-9.4c-7.2,0-11.9,5-11.9,12.9c0,8.1,4.7,13,12,13
	c6.2,0,10.5-3.6,11-9.2h-5.5c-0.5,2.8-2.5,4.5-5.4,4.5c-3.7,0-6.1-3-6.1-8.2c0-5.1,2.4-8.2,6.1-8.2c3.1,0,5,2,5.4,4.6L242.6,71.8
	L242.6,71.8z M245.9,87.8h5.8V73.4c0-3.5,2.1-6,5.5-6c3.3,0,5,2,5,5.5v14.9h5.8v-16c0-5.8-3.1-9.2-8.6-9.2c-3.8,0-6.5,1.8-7.8,4.7
	h-0.1V63h-5.6V87.8L245.9,87.8z M283.5,88.3c7.3,0,12-4.9,12-13c0-8-4.8-12.9-12-12.9s-12,4.9-12,12.9
	C271.5,83.4,276.3,88.3,283.5,88.3z M283.5,83.7c-3.7,0-6.1-3-6.1-8.3c0-5.2,2.4-8.2,6.1-8.2c3.7,0,6.1,3,6.1,8.2
	C289.6,80.7,287.2,83.7,283.5,83.7z M299.3,87.8h5.8V54h-5.8V87.8z M321,88.3c7.3,0,12-4.9,12-13c0-8-4.8-12.9-12-12.9
	s-12,4.9-12,12.9C309,83.4,313.7,88.3,321,88.3L321,88.3z M321,83.7c-3.7,0-6.1-3-6.1-8.3c0-5.2,2.4-8.2,6.1-8.2
	c3.7,0,6.1,3,6.1,8.2C327.1,80.7,324.7,83.7,321,83.7L321,83.7z M347.6,83.2c-3.7,0-6-3-6-7.9c0-4.9,2.3-8,6-8c3.7,0,6.1,3.1,6.1,8
	C353.7,80.2,351.3,83.2,347.6,83.2L347.6,83.2z M347.6,97.2c7.2,0,12-3.8,12-9.8V62.9h-5.7v4.2h-0.1c-1.5-2.9-4.5-4.8-7.8-4.6
	c-6.3,0-10.3,4.9-10.3,12.8c0,7.7,4.1,12.5,10.2,12.5c3.6,0,6.5-1.8,7.8-4.5h0.1v4.2c0,3.2-2.2,5.3-6,5.3c-2.8,0-4.9-1.3-5.5-3.2
	h-5.8C337,94.1,341.4,97.2,347.6,97.2z M364.3,87.8h5.8V62.9h-5.8V87.8z M367.2,59.2c1.8,0,3.2-1.4,3.2-3.2s-1.4-3.2-3.2-3.2
	c-1.8,0-3.2,1.4-3.2,3.2c0,0,0,0,0,0C364,57.8,365.5,59.2,367.2,59.2L367.2,59.2z M384,83.8c-2.5,0-4.2-1.3-4.2-3.4
	c0-2,1.6-3.2,4.4-3.4l5.7-0.4v1.9C389.9,81.6,387.3,83.8,384,83.8L384,83.8z M382.2,88.2c3.2,0,6.3-1.6,7.7-4.4h0.1v4h5.6V70.7
	c0-5-4-8.2-10.2-8.2c-6.3,0-10.3,3.3-10.5,8h5.4c0.4-2,2.1-3.4,4.9-3.4c2.9,0,4.6,1.5,4.6,4.1v1.8l-6.6,0.4c-6,0.4-9.4,3-9.4,7.5
	C373.9,85.2,377.4,88.2,382.2,88.2L382.2,88.2z M404.3,88.1c1.8,0,3.3-1.4,3.3-3.3c0,0,0-0.1,0-0.1c0-1.9-1.5-3.4-3.4-3.4
	s-3.4,1.5-3.4,3.4c0,0,0,0,0,0c0,1.8,1.4,3.3,3.3,3.4C404.3,88.1,404.3,88.1,404.3,88.1z"/>
</svg>
