<?xml version="1.0" encoding="utf-8"?>
<!-- Generator: Adobe Illustrator 21.1.0, SVG Export Plug-In . SVG Version: 6.00 Build 0)  -->
<svg version="1.1" id="Layer_1" xmlns="http://www.w3.org/2000/svg" xmlns:xlink="http://www.w3.org/1999/xlink" x="0px" y="0px"
	 viewBox="0 0 280 66" style="enable-background:new 0 0 280 66;" xml:space="preserve">
<style type="text/css">
	.st0{fill:#111111;}
</style>
<path id="RX-S7_Title_1" class="st0" d="M6.8,23.5V7.7h0.1l11.2,15.8h3.5V1h-3.9v15.8h-0.1L6.4,1H2.9v22.5H6.8L6.8,23.5z M31,20.8
	c-1.7,0-2.8-0.9-2.8-2.2c0-1.3,1.1-2.2,3-2.3l3.8-0.2v1.3C35,19.4,33.2,20.8,31,20.8z M29.8,23.8c2.1,0,4.1-1.1,5.2-2.9h0.1v2.6h3.8
	V12.1c0-3.3-2.7-5.5-6.8-5.5c-4.2,0-6.9,2.2-7,5.3h3.5c0.2-1.4,1.4-2.3,3.3-2.3c1.9,0,3.1,1,3.1,2.7v1.2l-4.4,0.3
	c-4,0.2-6.3,2-6.3,5S26.6,23.8,29.8,23.8z M48.2,23.8c2.2,0.1,4.2-1.1,5.2-3.1h0.1v2.8h3.8V1h-3.9v8.8h-0.1c-1-1.9-3-3.1-5.1-3.1
	c-4.2,0-6.9,3.3-6.9,8.5C41.4,20.5,44.1,23.8,48.2,23.8z M49.4,9.9c2.5,0,4.1,2.1,4.1,5.4s-1.6,5.4-4.1,5.4s-4.1-2.1-4.1-5.4
	C45.3,11.9,46.9,9.9,49.4,9.9z M66.8,20.8c-1.7,0-2.8-0.9-2.8-2.2c0-1.3,1.1-2.2,3-2.3l3.8-0.2v1.3C70.8,19.4,69,20.8,66.8,20.8z
	 M65.6,23.8c2.1,0,4.1-1.1,5.2-2.9h0.1v2.6h3.7V12.1c0-3.3-2.7-5.5-6.8-5.5c-4.2,0-6.9,2.2-7,5.3h3.6c0.2-1.4,1.4-2.3,3.3-2.3
	s3.1,1,3.1,2.7v1.2l-4.4,0.2c-4,0.2-6.3,2-6.3,5C60.1,21.8,62.4,23.8,65.6,23.8z M90.6,23.8c2.2,0.1,4.2-1.1,5.2-3.1h0.1v2.8h3.8V1
	h-3.9v8.8h-0.1c-1-1.9-3-3.1-5.1-3.1c-4.2,0-6.9,3.3-6.9,8.5C83.7,20.5,86.4,23.8,90.6,23.8z M91.7,9.9c2.5,0,4.1,2.1,4.1,5.4
	s-1.6,5.4-4.1,5.4s-4.1-2.1-4.1-5.4C87.7,11.9,89.2,9.9,91.7,9.9L91.7,9.9z M110.2,9.6c2.2,0,3.7,1.6,3.8,4h-7.7
	C106.5,11.3,108,9.6,110.2,9.6L110.2,9.6z M114,18.6c-0.4,1.4-1.8,2.3-3.6,2.3c-2.5,0-4.2-1.8-4.2-4.4v-0.2h11.6V15
	c0-5-2.9-8.3-7.6-8.3c-4.8,0-7.8,3.5-7.8,8.7c0,5.3,3,8.5,8,8.5c3.9,0,6.8-2.2,7.3-5.3C117.7,18.6,114,18.6,114,18.6z M128.1,23.5
	h3.9V10h3.2V7h-3.3V5.6c0-1.3,0.7-2,2.2-2c0.4,0,0.8,0,1.2,0.1V1c-0.7-0.1-1.4-0.2-2.1-0.2c-3.6,0-5.1,1.5-5.1,4.7V7h-2.3v3h2.3
	L128.1,23.5L128.1,23.5z M138,23.5h3.9V7H138V23.5L138,23.5z M139.9,4.5c1.2,0,2.1-1,2.1-2.1c0-1.2-1-2.1-2.1-2.1
	c-1.2,0-2.1,1-2.1,2.1S138.8,4.5,139.9,4.5C139.9,4.4,139.9,4.4,139.9,4.5L139.9,4.5z M152.6,23.8c4.9,0,8-3.2,8-8.6s-3.2-8.6-8-8.6
	s-8,3.3-8,8.6C144.6,20.6,147.8,23.8,152.6,23.8L152.6,23.8z M152.6,20.8c-2.5,0-4.1-2-4.1-5.5s1.6-5.5,4.1-5.5s4.1,2,4.1,5.5
	S155.1,20.8,152.6,20.8L152.6,20.8z M163,11.7c0,2.5,1.6,4,4.8,4.7l2.8,0.6c1.7,0.4,2.3,1,2.3,2c0,1.2-1.2,2-3.1,2
	c-2,0-3.1-0.8-3.4-2.4h-3.8c0.3,3.2,2.9,5.3,7.2,5.3c4.1,0,6.9-2.1,6.9-5.2c0-2.4-1.3-3.7-4.8-4.5l-2.8-0.6c-1.7-0.4-2.4-1-2.4-2
	c0-1.2,1.1-2,2.9-2c1.8,0,2.9,1,3.1,2.5h3.6c-0.1-3.1-2.7-5.3-6.7-5.3C165.6,6.6,163,8.7,163,11.7L163,11.7z M182,23.7
	c1.2,0,2.2-1,2.2-2.2s-1-2.2-2.2-2.2s-2.2,1-2.2,2.2C179.7,22.7,180.7,23.7,182,23.7L182,23.7L182,23.7z M13.7,59.5V40.4h6.7V37H2.9
	v3.4h6.8v19.1H13.7L13.7,59.5z M35,43h-3.9v9.6c0,2.4-1.4,4-3.6,4c-2.2,0-3.3-1.3-3.3-3.7V43h-3.9v10.7c0,3.8,2.3,6.2,5.9,6.2
	c2.5,0,4.2-1.2,5.1-3.2h0.1v2.9h3.8L35,43L35,43z M44.5,59.8c2.2,0.1,4.2-1.1,5.2-3.1h0.1v2.8h3.8V37h-3.9v8.8h-0.1
	c-1-1.9-3-3.1-5.1-3.1c-4.2,0-6.9,3.3-6.9,8.5C37.6,56.5,40.4,59.8,44.5,59.8z M45.7,45.9c2.5,0,4.1,2.1,4.1,5.4s-1.6,5.4-4.1,5.4
	s-4.1-2.1-4.1-5.4C41.6,47.9,43.2,45.9,45.7,45.9z M64.4,59.8c4.9,0,8-3.2,8-8.6s-3.2-8.6-8-8.6s-8,3.3-8,8.6
	C56.3,56.6,59.5,59.8,64.4,59.8z M64.4,56.8c-2.5,0-4.1-2-4.1-5.5s1.6-5.5,4.1-5.5s4.1,2,4.1,5.5C68.4,54.8,66.8,56.8,64.4,56.8z
	 M87.7,59.8c2.2,0.1,4.2-1.1,5.2-3.1H93v2.8h3.8V37h-3.9v8.8h-0.1c-1-1.9-3-3.1-5.1-3.1c-4.2,0-6.9,3.3-6.9,8.5
	C80.8,56.5,83.5,59.8,87.7,59.8z M88.9,45.9c2.5,0,4.1,2.1,4.1,5.4s-1.6,5.4-4.1,5.4s-4.1-2.1-4.1-5.4
	C84.8,47.9,86.4,45.9,88.9,45.9L88.9,45.9z M107.4,45.6c2.2,0,3.7,1.6,3.8,4h-7.7C103.6,47.3,105.2,45.6,107.4,45.6L107.4,45.6z
	 M111.2,54.6c-0.4,1.4-1.8,2.3-3.6,2.3c-2.5,0-4.2-1.8-4.2-4.4v-0.2H115V51c0-5-2.9-8.3-7.6-8.3c-4.8,0-7.8,3.5-7.8,8.7
	c0,5.3,3,8.5,8,8.5c3.9,0,6.8-2.2,7.3-5.3C114.9,54.6,111.2,54.6,111.2,54.6z M126.1,39.1V43h-2.4v3h2.4v9.2c0,3.2,1.4,4.5,5,4.5
	c0.7,0,1.4,0,2-0.2v-3c-0.4,0.1-0.7,0.1-1.1,0.1c-1.4,0-2-0.6-2-2V46h3.1v-3H130v-3.9H126.1z M142.7,45.6c2.2,0,3.7,1.6,3.8,4h-7.7
	C138.9,47.3,140.5,45.6,142.7,45.6L142.7,45.6z M146.5,54.6c-0.4,1.4-1.8,2.3-3.6,2.3c-2.5,0-4.2-1.8-4.2-4.4v-0.2h11.6V51
	c0-5-2.9-8.3-7.6-8.3c-4.8,0-7.8,3.5-7.8,8.7c0,5.3,3,8.5,8,8.5c3.9,0,6.8-2.2,7.3-5.3H146.5L146.5,54.6z M167.6,48.9
	c-0.3-3.5-3-6.2-7.3-6.2c-4.8,0-7.9,3.3-7.9,8.6c0,5.4,3.1,8.6,8,8.6c4.2,0,7-2.4,7.3-6.1H164c-0.2,1.8-1.8,3.1-3.6,3
	c-2.5,0-4.1-2-4.1-5.5c0-3.4,1.6-5.5,4-5.5c1.8-0.1,3.4,1.3,3.6,3.1H167.6L167.6,48.9z M170,59.5h3.9v-9.6c0-2.4,1.4-4,3.7-4
	c2.2,0,3.3,1.3,3.3,3.7v9.9h3.9V48.8c0-3.8-2.1-6.2-5.7-6.2c-2.5,0-4.3,1.2-5.2,3.2h-0.1V43h-3.7L170,59.5L170,59.5z M195.3,59.8
	c4.9,0,8-3.2,8-8.6s-3.2-8.6-8-8.6s-8,3.3-8,8.6C187.3,56.6,190.5,59.8,195.3,59.8L195.3,59.8z M195.3,56.8c-2.5,0-4.1-2-4.1-5.5
	s1.6-5.5,4.1-5.5s4.1,2,4.1,5.5C199.4,54.8,197.8,56.8,195.3,56.8L195.3,56.8z M206.1,59.5h3.9V37h-3.9V59.5z M220.7,59.8
	c4.9,0,8-3.2,8-8.6s-3.2-8.6-8-8.6s-8,3.3-8,8.6C212.7,56.6,215.9,59.8,220.7,59.8L220.7,59.8z M220.7,56.8c-2.5,0-4.1-2-4.1-5.5
	s1.6-5.5,4.1-5.5s4.1,2,4.1,5.5S223.2,56.8,220.7,56.8L220.7,56.8z M238.7,56.4c-2.5,0-4-2-4-5.2s1.6-5.3,4-5.3
	c2.5,0,4.1,2.1,4.1,5.3S241.2,56.4,238.7,56.4L238.7,56.4z M238.7,65.8c4.8,0,8-2.6,8-6.5V42.9h-3.8v2.8h-0.1c-1-2-3-3.2-5.2-3.1
	c-4.2,0-6.9,3.3-6.9,8.5s2.7,8.4,6.8,8.4c2.4,0,4.3-1.2,5.2-3h0.1v2.8c0,2.1-1.5,3.5-4,3.5c-1.8,0-3.3-0.9-3.7-2.1h-3.9
	C231.6,63.7,234.6,65.8,238.7,65.8L238.7,65.8z M250.1,59.5h3.9V42.9h-3.9V59.5z M252,40.4c1.2,0,2.1-1,2.1-2.1c0-1.2-1-2.1-2.1-2.1
	c-1.2,0-2.1,1-2.1,2.1C249.9,39.5,250.8,40.5,252,40.4L252,40.4z M263.4,56.8c-1.7,0-2.8-0.9-2.8-2.2s1.1-2.2,3-2.3l3.8-0.2v1.3
	C267.4,55.4,265.6,56.8,263.4,56.8L263.4,56.8z M262.2,59.8c2.1,0,4.1-1.1,5.2-2.9h0.1v2.6h3.8V48.1c0-3.3-2.7-5.5-6.8-5.5
	c-4.2,0-6.9,2.2-7,5.3h3.6c0.2-1.4,1.4-2.3,3.3-2.3c1.9,0,3.1,1,3.1,2.7v1.2l-4.4,0.2c-4,0.2-6.3,2-6.3,5
	C256.7,57.8,259,59.8,262.2,59.8L262.2,59.8z M277.2,59.7c1.2,0,2.2-1,2.2-2.2s-1-2.2-2.2-2.2c-1.2,0-2.2,1-2.2,2.2
	C274.9,58.7,275.9,59.7,277.2,59.7C277.1,59.7,277.2,59.7,277.2,59.7L277.2,59.7z"/>
</svg>
