<?xml version="1.0" encoding="utf-8"?>
<!-- Generator: Adobe Illustrator 21.1.0, SVG Export Plug-In . SVG Version: 6.00 Build 0)  -->
<svg version="1.1" id="Layer_1" xmlns="http://www.w3.org/2000/svg" xmlns:xlink="http://www.w3.org/1999/xlink" x="0px" y="0px"
	 viewBox="0 0 276 66" style="enable-background:new 0 0 276 66;" xml:space="preserve">
<style type="text/css">
	.st0{fill:#111111;}
</style>
<path id="RX-S7_Title_1" class="st0" d="M5.3,23.5V7.7h0.1l11.2,15.8h3.5V1h-3.9v15.8h-0.1L4.9,1H1.4v22.5H5.3z M29.5,20.9
	c-1.7,0-2.8-0.9-2.8-2.2c0-1.3,1.1-2.1,3-2.2l3.8-0.2v1.2C33.5,19.4,31.7,20.9,29.5,20.9z M28.3,23.8c2.1,0,4.1-1.1,5.2-3h0.1v2.6
	h3.8V12.1c0-3.3-2.7-5.5-6.8-5.5c-4.2,0-6.9,2.2-7,5.3h3.6c0.2-1.4,1.4-2.2,3.3-2.2c1.9,0,3.1,1,3.1,2.8v1.2l-4.4,0.2
	c-4,0.2-6.3,2-6.3,5S25.1,23.8,28.3,23.8L28.3,23.8z M46.8,23.8c2.2,0.1,4.2-1.1,5.2-3.1h0.1v2.8h3.8V1H52v8.8h-0.1
	c-0.9-2-3-3.2-5.1-3.1c-4.2,0-6.9,3.4-6.9,8.5C39.9,20.5,42.6,23.8,46.8,23.8L46.8,23.8z M47.9,9.9c2.5,0,4.1,2.1,4.1,5.4
	s-1.6,5.4-4.1,5.4c-2.5,0-4.1-2-4.1-5.4S45.4,9.9,47.9,9.9z M65.3,20.9c-1.7,0-2.8-0.9-2.8-2.2c0-1.3,1.1-2.1,3-2.2l3.8-0.2v1.2
	C69.3,19.4,67.5,20.9,65.3,20.9z M64.1,23.8c2.1,0,4.1-1.1,5.2-3h0.1v2.6h3.8V12.1c0-3.3-2.7-5.5-6.8-5.5c-4.2,0-6.9,2.2-7,5.3h3.6
	c0.2-1.4,1.4-2.2,3.3-2.2c1.9,0,3.1,1,3.1,2.8v1.2l-4.4,0.2c-4,0.2-6.3,2-6.3,5S60.9,23.8,64.1,23.8L64.1,23.8z M89.1,23.8
	c2.2,0.1,4.2-1.1,5.2-3.1h0.1v2.8h3.8V1h-3.9v8.8h-0.1c-0.9-2-3-3.2-5.1-3.1c-4.2,0-6.9,3.4-6.9,8.5C82.2,20.5,84.9,23.8,89.1,23.8
	L89.1,23.8z M90.3,9.9c2.5,0,4.1,2.1,4.1,5.4s-1.6,5.4-4.1,5.4c-2.5,0-4.1-2-4.1-5.4S87.8,9.9,90.3,9.9L90.3,9.9z M108.7,9.6
	c2.2,0,3.7,1.6,3.8,4h-7.7C105,11.3,106.6,9.6,108.7,9.6L108.7,9.6z M112.6,18.6c-0.4,1.4-1.8,2.3-3.6,2.3c-2.5,0-4.2-1.8-4.2-4.5
	v-0.2h11.6v-1.2c0-5-2.9-8.3-7.6-8.3c-4.8,0-7.8,3.5-7.8,8.7c0,5.3,3,8.5,8,8.5c3.9,0,6.8-2.1,7.3-5.3H112.6z M126.6,23.5h3.9V10
	h3.2V7h-3.3V5.7c0-1.4,0.7-2,2.2-2c0.4,0,0.8,0,1.2,0.1V1c-0.7-0.1-1.4-0.2-2.1-0.1c-3.6,0-5.1,1.5-5.1,4.8V7h-2.3v3h2.3V23.5
	L126.6,23.5z M136.5,23.5h3.9V7h-3.9L136.5,23.5L136.5,23.5z M138.5,4.5c1.2,0,2.1-0.9,2.1-2.1c0,0,0,0,0,0c0-1.2-1-2.1-2.2-2.1
	c-1.2,0-2.1,0.9-2.1,2.1C136.3,3.5,137.3,4.5,138.5,4.5L138.5,4.5z M151.2,23.9c4.9,0,8-3.2,8-8.6c0-5.4-3.2-8.6-8-8.6s-8,3.3-8,8.6
	S146.3,23.9,151.2,23.9L151.2,23.9z M151.2,20.8c-2.5,0-4.1-2-4.1-5.5c0-3.5,1.6-5.5,4.1-5.5c2.5,0,4.1,2,4.1,5.5
	C155.2,18.8,153.6,20.8,151.2,20.8L151.2,20.8z M161.5,11.7c0,2.5,1.6,4,4.8,4.7l2.8,0.6c1.7,0.4,2.3,1,2.3,2c0,1.2-1.2,2-3.1,2
	c-2,0-3.1-0.8-3.4-2.4h-3.8c0.3,3.2,2.9,5.2,7.2,5.2c4.1,0,6.9-2.1,6.9-5.2c0-2.4-1.3-3.8-4.8-4.5l-2.8-0.6c-1.7-0.4-2.4-1-2.4-2
	c0-1.2,1.1-2,2.9-2c1.8,0,2.9,1,3.1,2.5h3.6c-0.1-3.1-2.7-5.3-6.7-5.3C164.1,6.6,161.5,8.6,161.5,11.7L161.5,11.7z M180.5,23.7
	c1.2,0,2.2-1,2.2-2.2s-1-2.2-2.2-2.2s-2.2,1-2.2,2.2C178.3,22.7,179.3,23.7,180.5,23.7C180.5,23.7,180.5,23.7,180.5,23.7L180.5,23.7
	z M11,59.5V40.4h6.7V37H0.2v3.4h6.8v19.1H11z M32.3,43h-3.9v9.6c0,2.4-1.4,4-3.6,4c-2.2,0-3.3-1.3-3.3-3.7V43h-3.9v10.7
	c0,3.9,2.3,6.1,5.9,6.1c2.5,0,4.2-1.1,5.1-3.1h0.1v2.9h3.8L32.3,43L32.3,43z M41.8,59.8c2.2,0.1,4.2-1.1,5.2-3.1h0.1v2.8h3.8V37H47
	v8.8h-0.1c-0.9-2-3-3.2-5.1-3.1c-4.2,0-6.9,3.4-6.9,8.5C34.9,56.5,37.6,59.8,41.8,59.8L41.8,59.8z M42.9,45.9c2.5,0,4.1,2.1,4.1,5.4
	s-1.6,5.4-4.1,5.4c-2.5,0-4.1-2-4.1-5.4S40.4,45.9,42.9,45.9L42.9,45.9z M61.6,59.9c4.9,0,8-3.2,8-8.6c0-5.4-3.2-8.6-8-8.6
	s-8,3.3-8,8.6S56.7,59.9,61.6,59.9L61.6,59.9z M61.6,56.8c-2.5,0-4.1-2-4.1-5.5c0-3.5,1.6-5.5,4.1-5.5c2.5,0,4.1,2,4.1,5.5
	C65.7,54.8,64.1,56.8,61.6,56.8L61.6,56.8z M85,59.8c2.2,0.1,4.2-1.1,5.2-3.1h0.1v2.8h3.8V37h-3.9v8.8h-0.1c-0.9-2-3-3.2-5.1-3.1
	c-4.2,0-6.9,3.4-6.9,8.5C78.1,56.5,80.8,59.8,85,59.8L85,59.8z M86.1,45.9c2.5,0,4.1,2.1,4.1,5.4s-1.6,5.4-4.1,5.4
	c-2.5,0-4.1-2-4.1-5.4S83.6,45.9,86.1,45.9L86.1,45.9z M104.6,45.6c2.2,0,3.7,1.6,3.8,4h-7.7C100.8,47.3,102.4,45.6,104.6,45.6
	L104.6,45.6z M108.4,54.6c-0.4,1.4-1.8,2.3-3.6,2.3c-2.5,0-4.2-1.8-4.2-4.5v-0.2h11.6v-1.2c0-5-2.9-8.3-7.6-8.3
	c-4.8,0-7.8,3.5-7.8,8.7c0,5.3,3,8.5,8,8.5c3.9,0,6.8-2.1,7.3-5.3H108.4L108.4,54.6z M122.5,39.1V43h-2.4v3h2.4v9.1
	c0,3.2,1.4,4.5,5,4.5c0.7,0,1.4,0,2-0.1v-3c-0.4,0.1-0.7,0.1-1.1,0.1c-1.4,0-2-0.6-2-2V46h3.1v-3h-3.1v-3.9H122.5z M139.1,45.6
	c2.2,0,3.7,1.6,3.8,4h-7.7C135.3,47.3,136.9,45.6,139.1,45.6L139.1,45.6z M142.9,54.6c-0.4,1.4-1.8,2.3-3.6,2.3
	c-2.5,0-4.2-1.8-4.2-4.5v-0.2h11.6v-1.2c0-5-2.9-8.3-7.6-8.3c-4.8,0-7.8,3.5-7.8,8.7c0,5.3,3,8.5,8,8.5c3.9,0,6.8-2.1,7.3-5.3H142.9
	z M163.9,48.9c-0.3-3.5-3-6.2-7.3-6.2c-4.8,0-7.9,3.4-7.9,8.6c0,5.4,3.1,8.6,8,8.6c4.2,0,7-2.5,7.3-6.1h-3.7c-0.2,1.8-1.8,3.1-3.6,3
	c-2.5,0-4.1-2-4.1-5.5c0-3.4,1.6-5.5,4-5.5c1.8-0.1,3.4,1.3,3.6,3.1H163.9L163.9,48.9z M166.4,59.5h3.9v-9.6c0-2.4,1.4-4,3.7-4
	c2.2,0,3.3,1.3,3.3,3.6v9.9h3.9V48.8c0-3.8-2.1-6.1-5.7-6.1c-2.5,0-4.3,1.2-5.2,3.1h-0.1v-2.9h-3.7L166.4,59.5L166.4,59.5z
	 M191.7,59.9c4.9,0,8-3.2,8-8.6c0-5.4-3.2-8.6-8-8.6s-8,3.3-8,8.6S186.8,59.9,191.7,59.9L191.7,59.9z M191.7,56.8
	c-2.5,0-4.1-2-4.1-5.5c0-3.5,1.6-5.5,4.1-5.5c2.5,0,4.1,2,4.1,5.5C195.8,54.8,194.2,56.8,191.7,56.8L191.7,56.8z M202.5,59.5h3.9V37
	h-3.9V59.5z M217.1,59.9c4.9,0,8-3.2,8-8.6c0-5.4-3.2-8.6-8-8.6s-8,3.3-8,8.6S212.3,59.9,217.1,59.9L217.1,59.9z M217.1,56.8
	c-2.5,0-4.1-2-4.1-5.5c0-3.5,1.6-5.5,4.1-5.5c2.5,0,4.1,2,4.1,5.5C221.2,54.8,219.6,56.8,217.1,56.8L217.1,56.8z M235.1,56.5
	c-2.5,0-4-2-4-5.2s1.6-5.4,4-5.4c2.5,0,4.1,2.1,4.1,5.4C239.2,54.4,237.6,56.4,235.1,56.5L235.1,56.5z M235.1,65.8
	c4.8,0,8-2.5,8-6.5V43h-3.8v2.9h-0.1c-1-2-3-3.2-5.2-3.1c-4.2,0-6.9,3.3-6.9,8.5s2.7,8.4,6.8,8.4c2.4,0,4.3-1.2,5.2-3h0.1v2.8
	c0,2.1-1.5,3.5-4,3.5c-1.8,0-3.3-0.9-3.7-2.1h-3.9C228,63.6,231,65.8,235.1,65.8L235.1,65.8z M246.5,59.5h3.9V43h-3.9V59.5z
	 M248.4,40.5c1.2,0,2.1-0.9,2.1-2.1c0,0,0,0,0,0c0-1.2-1-2.1-2.2-2.1c-1.2,0-2.1,0.9-2.1,2.1C246.3,39.5,247.2,40.5,248.4,40.5
	L248.4,40.5z M259.8,56.9c-1.7,0-2.8-0.9-2.8-2.2c0-1.3,1.1-2.1,3-2.2l3.8-0.2v1.2C263.8,55.4,262,56.9,259.8,56.9L259.8,56.9z
	 M258.6,59.8c2.1,0,4.1-1.1,5.2-3h0.1v2.6h3.8V48.1c0-3.3-2.7-5.5-6.8-5.5c-4.2,0-6.9,2.2-7,5.3h3.6c0.2-1.4,1.4-2.2,3.3-2.2
	c1.9,0,3.1,1,3.1,2.8v1.2l-4.4,0.2c-4,0.2-6.3,2-6.3,5S255.4,59.8,258.6,59.8L258.6,59.8z M273.6,59.7c1.2,0,2.2-1,2.2-2.2
	s-1-2.2-2.2-2.2c-1.2,0-2.2,1-2.2,2.2l0,0C271.3,58.7,272.3,59.7,273.6,59.7C273.5,59.7,273.6,59.7,273.6,59.7L273.6,59.7z"/>
</svg>
